<svg width="124" height="97" viewBox="0 0 124 97" fill="none" xmlns="http://www.w3.org/2000/svg">
<path d="M104.583 30.1738C77.3335 4.36121 35.9707 -5.40988 0 5.15961C23.3929 9.31739 44.6117 24.5851 55.8752 45.5214C61.6666 56.2874 64.9277 68.337 71.4009 78.71C77.874 89.083 89.0085 97.9819 101.162 96.6677C115.067 95.1692 124.648 80.1716 123.966 66.2059C123.29 52.2402 114.735 39.7853 104.583 30.1677V30.1738Z" fill="#C3D831"/>
<path d="M108.139 87.7195C113.009 85.3735 116.879 81.185 118.948 76.1981C121.018 71.2112 121.055 65.0882 118.948 59.8863C117.751 56.9139 115.951 54.2177 113.611 52.0191C113.034 51.4786 112.168 52.3446 112.745 52.885C116.682 56.5883 119.065 61.8086 119.311 67.2131C119.556 72.6176 117.708 77.4694 114.354 81.3815C112.457 83.5986 110.141 85.3919 107.513 86.6571C106.8 87.001 107.421 88.0573 108.133 87.7195H108.139Z" fill="white"/>
</svg>
