<svg width="63" height="125" viewBox="0 0 63 125" fill="none" xmlns="http://www.w3.org/2000/svg">
<path d="M62.7164 39.0704C61.3864 24.3104 53.2264 9.52038 39.6964 3.45038C26.1764 -2.61962 7.67642 2.69039 1.96642 16.3704C-1.38358 24.3904 -0.0835793 33.6904 3.09642 41.7804C6.27642 49.8704 11.2164 57.1304 15.3464 64.7904C25.2264 83.1004 30.5264 103.86 30.6264 124.66C30.6264 124.66 47.1464 95.4904 53.3264 82.0204C59.5064 68.5504 64.0364 53.8404 62.7064 39.0704H62.7164Z" fill="#86E2F2"/>
<path d="M17.5465 6.5204C11.7465 9.8004 6.23644 14.6204 5.30644 21.5804C4.68644 26.2004 6.17645 30.9504 7.87645 35.2004C9.84645 40.1204 12.7764 44.5604 15.3764 49.1704C16.0064 50.2904 17.7365 49.2804 17.1065 48.1604C14.9565 44.3404 12.5564 40.6404 10.6864 36.6704C9.57644 34.3004 8.70645 31.7904 8.00645 29.2704C6.78645 24.8804 6.80646 20.3604 9.26646 16.3804C11.4665 12.8104 14.9764 10.2804 18.5664 8.25041C19.6864 7.62041 18.6764 5.8904 17.5564 6.5204H17.5465Z" fill="white"/>
</svg>
