<svg width="844" height="390" viewBox="0 0 844 390" fill="none" xmlns="http://www.w3.org/2000/svg">
<path opacity="0.78" d="M-0.999939 -88H844V425H-0.999939V-88Z" fill="#B9D5FF"/>
<path opacity="0.5" d="M-1.98944 60.5723C2.98517 59.5515 8.21332 59 13.6104 59C37.3322 59 57.8748 69.5532 67.9614 84.9631C72.4396 82.5182 77.8789 81.0859 83.7618 81.0859C89.3068 81.0859 94.4503 82.3618 98.7806 84.5515C103.037 82.3618 108.138 81.0859 113.631 81.0859C127.361 81.0859 138.694 89.079 140.405 99.4181C183.581 102.653 221.678 119.454 247.575 144.29C269.787 144.446 289.484 152.793 301.937 165.651C302.951 165.569 303.965 165.528 305.01 165.528C317.061 165.528 327.454 171.043 332.281 179.003C338.491 173.998 347.194 170.887 356.827 170.887C365.434 170.887 373.292 173.373 379.302 177.472C382.724 173.134 387.118 169.322 392.251 166.211C387.646 162.457 384.815 157.378 384.815 151.772C384.815 140.231 396.824 130.872 411.632 130.872C412.688 130.872 413.723 130.921 414.737 131.02C415.529 125.883 421.137 121.899 427.95 121.899C434.762 121.899 440.318 125.85 441.141 130.954C446.908 128.106 453.742 126.451 461.071 126.451C468.401 126.451 475.414 128.147 481.234 131.069C488.553 127.859 497.003 126.015 506.001 126.015C519.88 126.015 532.459 130.378 541.595 137.441C547.911 135.193 554.934 133.926 562.338 133.926C577.262 133.926 590.654 139.029 599.822 147.121C602.409 144.734 605.282 142.544 608.44 140.61C609.792 122.821 628.729 108.728 651.881 108.728C662.136 108.728 671.547 111.494 678.982 116.12C700.286 94.8083 733.524 81.1024 770.87 81.1024C798.574 81.1024 824.007 88.6509 844 101.237V438H-0.711426V152.777C-1.14447 152.694 -1.56696 152.604 -2 152.513V60.5723H-1.98944Z" fill="#A6D2FB"/>
<path d="M549.47 328.688H650.867V129.262L600.168 110.456L549.47 129.262V328.688Z" fill="#93ABFF"/>
<path d="M631.758 134.362H638.164V138.348H631.758V134.362Z" fill="white"/>
<path d="M631.758 143.833H638.164V147.819H631.758V143.833Z" fill="white"/>
<path d="M631.758 153.303H638.164V157.289H631.758V153.303Z" fill="white"/>
<path d="M631.758 162.774H638.164V166.76H631.758V162.774Z" fill="white"/>
<path d="M631.758 172.234H638.164V176.22H631.758V172.234Z" fill="white"/>
<path d="M631.758 181.705H638.164V185.691H631.758V181.705Z" fill="white"/>
<path d="M631.758 191.175H638.164V195.161H631.758V191.175Z" fill="white"/>
<path d="M631.758 200.646H638.164V204.632H631.758V200.646Z" fill="white"/>
<path d="M631.758 210.116H638.164V214.102H631.758V210.116Z" fill="white"/>
<path d="M631.758 219.577H638.164V223.563H631.758V219.577Z" fill="white"/>
<path d="M631.758 229.047H638.164V233.033H631.758V229.047Z" fill="white"/>
<path d="M631.758 238.518H638.164V242.504H631.758V238.518Z" fill="white"/>
<path d="M631.758 247.988H638.164V251.974H631.758V247.988Z" fill="white"/>
<path d="M631.758 257.458H638.164V261.444H631.758V257.458Z" fill="white"/>
<path d="M231.505 312.004H139.627V126.342L185.566 107.536L231.505 126.342V312.004Z" fill="#AB8DE1"/>
<path d="M206.17 138.925H211.496V156.809H206.17V138.925Z" fill="white"/>
<path d="M206.17 173.531H211.496V191.415H206.17V173.531Z" fill="white"/>
<path d="M206.17 208.137H211.496V226.022H206.17V208.137Z" fill="white"/>
<path d="M206.17 242.734H211.496V260.618H206.17V242.734Z" fill="white"/>
<path d="M213.911 138.925H219.237V156.809H213.911V138.925Z" fill="white"/>
<path d="M213.911 173.531H219.237V191.415H213.911V173.531Z" fill="white"/>
<path d="M213.911 208.137H219.237V226.022H213.911V208.137Z" fill="white"/>
<path d="M213.911 242.734H219.237V260.618H213.911V242.734Z" fill="white"/>
<path d="M228.2 151.277H331.325V325.384H228.2V151.277Z" fill="#525DB7"/>
<path d="M254.818 163.484C268.591 150.393 290.924 150.393 304.688 163.484C308.305 160.046 311.923 156.607 315.541 153.169C295.775 134.382 263.731 134.382 243.965 153.169C247.582 156.607 251.2 160.046 254.818 163.484Z" fill="#93ABFF"/>
<path d="M256.778 172.148H265.358V180.302H256.778V172.148Z" fill="white"/>
<path d="M256.778 187.919H265.358V196.074H256.778V187.919Z" fill="white"/>
<path d="M256.778 203.69H265.358V211.845H256.778V203.69Z" fill="white"/>
<path d="M256.778 219.471H265.358V227.626H256.778V219.471Z" fill="white"/>
<path d="M269.238 172.148H277.817V180.302H269.238V172.148Z" fill="white"/>
<path d="M269.238 187.919H277.817V196.074H269.238V187.919Z" fill="white"/>
<path d="M269.238 203.69H277.817V211.845H269.238V203.69Z" fill="white"/>
<path d="M269.238 219.471H277.817V227.626H269.238V219.471Z" fill="white"/>
<path d="M281.698 172.148H290.277V180.302H281.698V172.148Z" fill="white"/>
<path d="M281.698 187.919H290.277V196.074H281.698V187.919Z" fill="white"/>
<path d="M281.698 203.69H290.277V211.845H281.698V203.69Z" fill="white"/>
<path d="M281.698 219.471H290.277V227.626H281.698V219.471Z" fill="white"/>
<path d="M294.158 172.148H302.737V180.302H294.158V172.148Z" fill="white"/>
<path d="M294.158 187.919H302.737V196.074H294.158V187.919Z" fill="white"/>
<path d="M294.158 203.69H302.737V211.845H294.158V203.69Z" fill="white"/>
<path d="M294.158 219.471H302.737V227.626H294.158V219.471Z" fill="white"/>
<path d="M401.74 284.15H346.736V120L400.779 134.862L401.74 284.15Z" fill="#93ABFF"/>
<path d="M342.35 136.166H350.93V142.835H342.35V136.166Z" fill="#93ABFF"/>
<path d="M342.35 149.072H350.93V155.741H342.35V149.072Z" fill="#93ABFF"/>
<path d="M342.35 161.97H350.93V168.639H342.35V161.97Z" fill="#93ABFF"/>
<path d="M342.35 174.876H350.93V181.546H342.35V174.876Z" fill="#93ABFF"/>
<path d="M489.221 368.183H397.333V227.904L443.282 209.088L489.221 227.904V368.183Z" fill="#93ABFF"/>
<path d="M448.153 247.508H477.469V250.072H448.153V247.508Z" fill="white"/>
<path d="M448.153 253.597H477.469V256.162H448.153V253.597Z" fill="white"/>
<path d="M448.153 259.677H477.469V262.242H448.153V259.677Z" fill="white"/>
<path d="M448.153 265.757H477.469V268.322H448.153V265.757Z" fill="white"/>
<path d="M448.153 271.846H477.469V274.411H448.153V271.846Z" fill="white"/>
<path d="M448.153 277.926H477.469V280.491H448.153V277.926Z" fill="white"/>
<path d="M448.153 284.006H477.469V286.571H448.153V284.006Z" fill="white"/>
<path d="M448.153 290.096H477.469V292.66H448.153V290.096Z" fill="white"/>
<path d="M448.153 296.176H477.469V298.74H448.153V296.176Z" fill="white"/>
<path d="M448.153 302.255H477.469V304.82H448.153V302.255Z" fill="white"/>
<path d="M448.153 308.345H477.469V310.909H448.153V308.345Z" fill="white"/>
<path d="M448.153 314.425H477.469V316.989H448.153V314.425Z" fill="white"/>
<path d="M448.153 320.505H477.469V323.069H448.153V320.505Z" fill="white"/>
<path d="M448.153 326.594H477.469V329.159H448.153V326.594Z" fill="white"/>
<path d="M664.004 137.743H734.792V352.767H664.004V137.743Z" fill="#93ABFF"/>
<path d="M674.705 149.672C688.327 135.179 710.417 135.179 724.05 149.672C727.627 145.869 731.204 142.056 734.792 138.252C715.238 117.448 683.527 117.448 663.973 138.252C667.551 142.056 671.128 145.869 674.715 149.672H674.705Z" fill="#93ABFF"/>
<path d="M684.72 144.851H714.035V147.415H684.72V144.851Z" fill="white"/>
<path d="M684.72 150.931H714.035V153.495H684.72V150.931Z" fill="white"/>
<path d="M684.72 157.011H714.035V159.575H684.72V157.011Z" fill="white"/>
<path d="M684.72 163.1H714.035V165.665H684.72V163.1Z" fill="white"/>
<path d="M684.72 169.18H714.035V171.744H684.72V169.18Z" fill="white"/>
<path d="M684.72 175.26H714.035V177.824H684.72V175.26Z" fill="white"/>
<path d="M684.72 181.349H714.035V183.914H684.72V181.349Z" fill="white"/>
<path d="M684.72 187.429H714.035V189.994H684.72V187.429Z" fill="white"/>
<path d="M684.72 193.509H714.035V196.074H684.72V193.509Z" fill="white"/>
<path d="M684.72 199.599H714.035V202.163H684.72V199.599Z" fill="white"/>
<path d="M684.72 205.678H714.035V208.243H684.72V205.678Z" fill="white"/>
<path d="M684.72 211.758H714.035V214.323H684.72V211.758Z" fill="white"/>
<path d="M684.72 217.848H714.035V220.412H684.72V217.848Z" fill="white"/>
<path d="M684.72 223.928H714.035V226.492H684.72V223.928Z" fill="white"/>
<path d="M57.0258 203.892H61.6338V217.838H57.0258V203.892Z" fill="white"/>
<path d="M57.0258 230.872H61.6338V244.818H57.0258V230.872Z" fill="white"/>
<path d="M57.0258 257.852H61.6338V271.798H57.0258V257.852Z" fill="white"/>
<path d="M57.0258 284.832H61.6338V298.778H57.0258V284.832Z" fill="white"/>
<path d="M63.7154 203.892H68.3235V217.838H63.7154V203.892Z" fill="white"/>
<path d="M63.7154 230.872H68.3235V244.818H63.7154V230.872Z" fill="white"/>
<path d="M63.7154 257.852H68.3235V271.798H63.7154V257.852Z" fill="white"/>
<path d="M63.7154 284.832H68.3235V298.778H63.7154V284.832Z" fill="white"/>
<path d="M70.4154 203.892H75.0234V217.838H70.4154V203.892Z" fill="white"/>
<path d="M70.4154 230.872H75.0234V244.818H70.4154V230.872Z" fill="white"/>
<path d="M70.4154 257.852H75.0234V271.798H70.4154V257.852Z" fill="white"/>
<path d="M70.4154 284.832H75.0234V298.778H70.4154V284.832Z" fill="white"/>
<path d="M77.1051 203.892H81.7131V217.838H77.1051V203.892Z" fill="white"/>
<path d="M77.1051 230.872H81.7131V244.818H77.1051V230.872Z" fill="white"/>
<path d="M77.1051 257.852H81.7131V271.798H77.1051V257.852Z" fill="white"/>
<path d="M77.1051 284.832H81.7131V298.778H77.1051V284.832Z" fill="white"/>
<path d="M393.796 154.062H453.671V325.24H393.796V154.062Z" fill="#AB8DE1"/>
<path d="M405.782 145.149H441.676V165.636H405.782V145.149Z" fill="#AB8DE1"/>
<path d="M416.594 162.255H421.889V180.139H416.594V162.255Z" fill="white"/>
<path d="M407.631 162.255H412.926V180.139H407.631V162.255Z" fill="white"/>
<path d="M425.568 162.255H430.863V180.139H425.568V162.255Z" fill="white"/>
<path d="M434.531 162.255H439.826V180.139H434.531V162.255Z" fill="white"/>
<path d="M425.315 182.656H430.61V200.54H425.315V182.656Z" fill="white"/>
<path d="M434.279 182.656H439.574V200.54H434.279V182.656Z" fill="white"/>
<path d="M80.8035 340.041H-1.97947V151.2L26.0629 130.069H54.0951L82.1375 151.2L80.8035 340.041Z" fill="#525DB7"/>
<path d="M17.0085 158.317H22.3037V176.201H17.0085V158.317Z" fill="white"/>
<path d="M36.4814 158.317H41.7766V176.201H36.4814V158.317Z" fill="white"/>
<path d="M26.75 158.317H32.0452V176.201H26.75V158.317Z" fill="white"/>
<path d="M46.2129 158.317H51.5081V176.201H46.2129V158.317Z" fill="white"/>
<path d="M55.9442 158.317H61.2395V176.201H55.9442V158.317Z" fill="white"/>
<path d="M31.6106 180.485H36.9058V198.369H31.6106V180.485Z" fill="white"/>
<path d="M21.8791 180.485H27.1743V198.369H21.8791V180.485Z" fill="white"/>
<path d="M41.342 180.485H46.6372V198.369H41.342V180.485Z" fill="white"/>
<path d="M51.0735 180.485H56.3687V198.369H51.0735V180.485Z" fill="white"/>
<path d="M828.508 371.065H745.058V156.626L828.508 141.335V371.065Z" fill="#AB8DE1"/>
<path d="M742.633 162.389H751.213V170.544H742.633V162.389Z" fill="#AB8DE1"/>
<path d="M742.633 178.161H751.213V186.315H742.633V178.161Z" fill="#AB8DE1"/>
<path d="M742.633 193.941H751.213V202.096H742.633V193.941Z" fill="#AB8DE1"/>
<path d="M742.633 209.713H751.213V217.867H742.633V209.713Z" fill="#AB8DE1"/>
<path d="M798.162 182.896H844V371.074H798.162V182.896Z" fill="#93ABFF"/>
<path d="M798.162 179.534H823.294V200.021H798.162V179.534Z" fill="#93ABFF"/>
<path d="M798.162 176.902H810.723V190.032H798.162V176.902Z" fill="#93ABFF"/>
<path d="M804.923 190.407H812.219V197.341H804.923V190.407Z" fill="white"/>
<path d="M816.766 190.407H824.062V197.341H816.766V190.407Z" fill="white"/>
<path d="M828.609 190.407H835.906V197.341H828.609V190.407Z" fill="white"/>
<path d="M804.923 201.356H812.219V208.291H804.923V201.356Z" fill="white"/>
<path d="M816.766 201.356H824.062V208.291H816.766V201.356Z" fill="white"/>
<path d="M828.609 201.356H835.906V208.291H828.609V201.356Z" fill="white"/>
<path d="M804.922 212.239H812.219V219.173H804.922V212.239Z" fill="white"/>
<path d="M816.766 212.239H824.062V219.173H816.766V212.239Z" fill="white"/>
<rect width="847" height="114" transform="matrix(-1 0 0 1 844 245)" fill="#ABDE4A"/>
<path d="M-2.99994 287H844V438H-2.99994V287Z" fill="#2F3436"/>
<path d="M844 337.212H-1.14578" stroke="white" stroke-width="4" stroke-dasharray="21 21"/>
<path d="M-2.99292 269.114H843.993C843.997 269.114 844 269.116 844 269.12V287.892C844 287.895 843.997 287.898 843.993 287.898H-2.99292C-2.99683 287.898 -3 287.895 -3 287.892V269.12C-3 269.116 -2.99683 269.114 -2.99292 269.114Z" fill="#C9A68B"/>
<path d="M-2.99292 287.353H843.993C843.997 287.353 844 287.355 844 287.359V292.139C844 292.142 843.997 292.145 843.993 292.145H-2.99292C-2.99683 292.145 -3 292.142 -3 292.139V287.359C-3 287.355 -2.99683 287.353 -2.99292 287.353Z" fill="#A6836A"/>
<path opacity="0.3" d="M778.76 279.65C778.76 280.315 781.061 280.86 783.905 280.86C786.75 280.86 789.051 280.321 789.051 279.65C789.051 278.979 786.75 278.44 783.905 278.44C781.061 278.44 778.76 278.979 778.76 279.65Z" fill="white"/>
<path opacity="0.3" d="M773.614 277.344C770.772 277.344 768.469 276.802 768.469 276.134C768.469 275.466 770.772 274.924 773.614 274.924C776.456 274.924 778.76 275.466 778.76 276.134C778.76 276.802 776.456 277.344 773.614 277.344Z" fill="white"/>
<path opacity="0.3" d="M789.051 277.344C786.209 277.344 783.905 276.802 783.905 276.134C783.905 275.466 786.209 274.924 789.051 274.924C791.893 274.924 794.196 275.466 794.196 276.134C794.196 276.802 791.893 277.344 789.051 277.344Z" fill="white"/>
<path opacity="0.3" d="M764.848 279.65C764.848 280.315 767.149 280.86 769.993 280.86C772.838 280.86 775.139 280.321 775.139 279.65C775.139 278.979 772.838 278.44 769.993 278.44C767.149 278.44 764.848 278.979 764.848 279.65Z" fill="white"/>
<path opacity="0.3" d="M778.76 284.214C775.918 284.214 773.614 283.672 773.614 283.004C773.614 282.336 775.918 281.794 778.76 281.794C781.602 281.794 783.906 282.336 783.906 283.004C783.906 283.672 781.602 284.214 778.76 284.214Z" fill="white"/>
<path opacity="0.3" d="M762.279 284.214C759.437 284.214 757.133 283.672 757.133 283.004C757.133 282.336 759.437 281.794 762.279 281.794C765.12 281.794 767.424 282.336 767.424 283.004C767.424 283.672 765.12 284.214 762.279 284.214Z" fill="white"/>
<path opacity="0.3" d="M790.632 284.214C787.79 284.214 785.487 283.672 785.487 283.004C785.487 282.336 787.79 281.794 790.632 281.794C793.474 281.794 795.778 282.336 795.778 283.004C795.778 283.672 793.474 284.214 790.632 284.214Z" fill="white"/>
<path opacity="0.3" d="M759.702 277.344C756.861 277.344 754.557 276.802 754.557 276.134C754.557 275.466 756.861 274.924 759.702 274.924C762.544 274.924 764.848 275.466 764.848 276.134C764.848 276.802 762.544 277.344 759.702 277.344Z" fill="white"/>
<path opacity="0.3" d="M751.988 279.65C751.988 280.315 754.289 280.86 757.133 280.86C759.978 280.86 762.279 280.321 762.279 279.65C762.279 278.979 759.978 278.44 757.133 278.44C754.289 278.44 751.988 278.979 751.988 279.65Z" fill="white"/>
<path opacity="0.3" d="M826.107 280.938C823.265 280.938 820.962 280.396 820.962 279.728C820.962 279.059 823.265 278.518 826.107 278.518C828.949 278.518 831.253 279.059 831.253 279.728C831.253 280.396 828.949 280.938 826.107 280.938Z" fill="white"/>
<path opacity="0.3" d="M815.823 277.422C812.981 277.422 810.678 276.88 810.678 276.212C810.678 275.543 812.981 275.002 815.823 275.002C818.665 275.002 820.969 275.543 820.969 276.212C820.969 276.88 818.665 277.422 815.823 277.422Z" fill="white"/>
<path opacity="0.3" d="M831.253 277.422C828.411 277.422 826.107 276.88 826.107 276.212C826.107 275.543 828.411 275.002 831.253 275.002C834.094 275.002 836.398 275.543 836.398 276.212C836.398 276.88 834.094 277.422 831.253 277.422Z" fill="white"/>
<path opacity="0.3" d="M812.202 280.938C809.36 280.938 807.057 280.396 807.057 279.728C807.057 279.059 809.36 278.518 812.202 278.518C815.044 278.518 817.348 279.059 817.348 279.728C817.348 280.396 815.044 280.938 812.202 280.938Z" fill="white"/>
<path opacity="0.3" d="M815.816 283.088C815.816 283.753 818.117 284.298 820.962 284.298C823.806 284.298 826.107 283.759 826.107 283.088C826.107 282.417 823.806 281.878 820.962 281.878C818.117 281.878 815.816 282.417 815.816 283.088Z" fill="white"/>
<path opacity="0.3" d="M799.335 283.088C799.335 283.753 801.636 284.298 804.48 284.298C807.325 284.298 809.626 283.759 809.626 283.088C809.626 282.417 807.325 281.878 804.48 281.878C801.636 281.878 799.335 282.417 799.335 283.088Z" fill="white"/>
<path opacity="0.3" d="M827.695 283.088C827.695 283.753 829.996 284.298 832.841 284.298C835.685 284.298 837.986 283.759 837.986 283.088C837.986 282.417 835.685 281.878 832.841 281.878C829.996 281.878 827.695 282.417 827.695 283.088Z" fill="white"/>
<path opacity="0.3" d="M801.911 277.422C799.07 277.422 796.766 276.88 796.766 276.212C796.766 275.543 799.07 275.002 801.911 275.002C804.753 275.002 807.057 275.543 807.057 276.212C807.057 276.88 804.753 277.422 801.911 277.422Z" fill="white"/>
<path opacity="0.3" d="M799.335 280.938C796.493 280.938 794.189 280.396 794.189 279.728C794.189 279.059 796.493 278.518 799.335 278.518C802.177 278.518 804.48 279.059 804.48 279.728C804.48 280.396 802.177 280.938 799.335 280.938Z" fill="white"/>
<path opacity="0.3" d="M695.338 279.65C695.338 280.315 697.639 280.86 700.483 280.86C703.328 280.86 705.629 280.321 705.629 279.65C705.629 278.979 703.328 278.44 700.483 278.44C697.639 278.44 695.338 278.979 695.338 279.65Z" fill="white"/>
<path opacity="0.3" d="M690.192 277.344C687.35 277.344 685.046 276.802 685.046 276.134C685.046 275.466 687.35 274.924 690.192 274.924C693.034 274.924 695.337 275.466 695.337 276.134C695.337 276.802 693.034 277.344 690.192 277.344Z" fill="white"/>
<path opacity="0.3" d="M705.629 277.344C702.787 277.344 700.483 276.802 700.483 276.134C700.483 275.466 702.787 274.924 705.629 274.924C708.47 274.924 710.774 275.466 710.774 276.134C710.774 276.802 708.47 277.344 705.629 277.344Z" fill="white"/>
<path opacity="0.3" d="M681.426 279.65C681.426 280.315 683.727 280.86 686.571 280.86C689.416 280.86 691.717 280.321 691.717 279.65C691.717 278.979 689.416 278.44 686.571 278.44C683.727 278.44 681.426 278.979 681.426 279.65Z" fill="white"/>
<path opacity="0.3" d="M695.337 284.214C692.496 284.214 690.192 283.672 690.192 283.004C690.192 282.336 692.496 281.794 695.337 281.794C698.179 281.794 700.483 282.336 700.483 283.004C700.483 283.672 698.179 284.214 695.337 284.214Z" fill="white"/>
<path opacity="0.3" d="M678.856 284.214C676.015 284.214 673.711 283.672 673.711 283.004C673.711 282.336 676.015 281.794 678.856 281.794C681.698 281.794 684.002 282.336 684.002 283.004C684.002 283.672 681.698 284.214 678.856 284.214Z" fill="white"/>
<path opacity="0.3" d="M707.21 284.214C704.368 284.214 702.064 283.672 702.064 283.004C702.064 282.336 704.368 281.794 707.21 281.794C710.051 281.794 712.355 282.336 712.355 283.004C712.355 283.672 710.051 284.214 707.21 284.214Z" fill="white"/>
<path opacity="0.3" d="M676.28 277.344C673.438 277.344 671.134 276.802 671.134 276.134C671.134 275.466 673.438 274.924 676.28 274.924C679.122 274.924 681.426 275.466 681.426 276.134C681.426 276.802 679.122 277.344 676.28 277.344Z" fill="white"/>
<path opacity="0.3" d="M668.565 279.65C668.565 280.315 670.866 280.86 673.711 280.86C676.555 280.86 678.856 280.321 678.856 279.65C678.856 278.979 676.555 278.44 673.711 278.44C670.866 278.44 668.565 278.979 668.565 279.65Z" fill="white"/>
<path opacity="0.3" d="M742.685 280.938C739.843 280.938 737.539 280.396 737.539 279.728C737.539 279.059 739.843 278.518 742.685 278.518C745.527 278.518 747.83 279.059 747.83 279.728C747.83 280.396 745.527 280.938 742.685 280.938Z" fill="white"/>
<path opacity="0.3" d="M732.401 277.422C729.559 277.422 727.255 276.88 727.255 276.212C727.255 275.543 729.559 275.002 732.401 275.002C735.242 275.002 737.546 275.543 737.546 276.212C737.546 276.88 735.242 277.422 732.401 277.422Z" fill="white"/>
<path opacity="0.3" d="M747.83 277.422C744.988 277.422 742.685 276.88 742.685 276.212C742.685 275.543 744.988 275.002 747.83 275.002C750.672 275.002 752.976 275.543 752.976 276.212C752.976 276.88 750.672 277.422 747.83 277.422Z" fill="white"/>
<path opacity="0.3" d="M728.78 280.938C725.938 280.938 723.634 280.396 723.634 279.728C723.634 279.059 725.938 278.518 728.78 278.518C731.622 278.518 733.925 279.059 733.925 279.728C733.925 280.396 731.622 280.938 728.78 280.938Z" fill="white"/>
<path opacity="0.3" d="M732.401 283.088C732.401 283.753 734.702 284.298 737.546 284.298C740.391 284.298 742.692 283.759 742.692 283.088C742.692 282.417 740.391 281.878 737.546 281.878C734.702 281.878 732.401 282.417 732.401 283.088Z" fill="white"/>
<path opacity="0.3" d="M715.913 283.088C715.913 283.753 718.214 284.298 721.058 284.298C723.903 284.298 726.204 283.759 726.204 283.088C726.204 282.417 723.903 281.878 721.058 281.878C718.214 281.878 715.913 282.417 715.913 283.088Z" fill="white"/>
<path opacity="0.3" d="M744.273 283.088C744.273 283.753 746.574 284.298 749.418 284.298C752.263 284.298 754.564 283.759 754.564 283.088C754.564 282.417 752.263 281.878 749.418 281.878C746.574 281.878 744.273 282.417 744.273 283.088Z" fill="white"/>
<path opacity="0.3" d="M718.489 277.422C715.647 277.422 713.343 276.88 713.343 276.212C713.343 275.543 715.647 275.002 718.489 275.002C721.331 275.002 723.635 275.543 723.635 276.212C723.635 276.88 721.331 277.422 718.489 277.422Z" fill="white"/>
<path opacity="0.3" d="M715.913 280.938C713.071 280.938 710.767 280.396 710.767 279.728C710.767 279.059 713.071 278.518 715.913 278.518C718.754 278.518 721.058 279.059 721.058 279.728C721.058 280.396 718.754 280.938 715.913 280.938Z" fill="white"/>
<path opacity="0.3" d="M611.915 279.65C611.915 280.315 614.216 280.86 617.061 280.86C619.905 280.86 622.206 280.321 622.206 279.65C622.206 278.979 619.905 278.44 617.061 278.44C614.216 278.44 611.915 278.979 611.915 279.65Z" fill="white"/>
<path opacity="0.3" d="M606.77 277.344C603.928 277.344 601.624 276.802 601.624 276.134C601.624 275.466 603.928 274.924 606.77 274.924C609.611 274.924 611.915 275.466 611.915 276.134C611.915 276.802 609.611 277.344 606.77 277.344Z" fill="white"/>
<path opacity="0.3" d="M622.206 277.344C619.364 277.344 617.06 276.802 617.06 276.134C617.06 275.466 619.364 274.924 622.206 274.924C625.048 274.924 627.351 275.466 627.351 276.134C627.351 276.802 625.048 277.344 622.206 277.344Z" fill="white"/>
<path opacity="0.3" d="M598.003 279.65C598.003 280.315 600.304 280.86 603.148 280.86C605.993 280.86 608.294 280.321 608.294 279.65C608.294 278.979 605.993 278.44 603.148 278.44C600.304 278.44 598.003 278.979 598.003 279.65Z" fill="white"/>
<path opacity="0.3" d="M611.915 284.214C609.073 284.214 606.769 283.672 606.769 283.004C606.769 282.336 609.073 281.794 611.915 281.794C614.757 281.794 617.061 282.336 617.061 283.004C617.061 283.672 614.757 284.214 611.915 284.214Z" fill="white"/>
<path opacity="0.3" d="M595.434 284.214C592.592 284.214 590.288 283.672 590.288 283.004C590.288 282.336 592.592 281.794 595.434 281.794C598.276 281.794 600.579 282.336 600.579 283.004C600.579 283.672 598.276 284.214 595.434 284.214Z" fill="white"/>
<path opacity="0.3" d="M623.787 284.214C620.946 284.214 618.642 283.672 618.642 283.004C618.642 282.336 620.946 281.794 623.787 281.794C626.629 281.794 628.933 282.336 628.933 283.004C628.933 283.672 626.629 284.214 623.787 284.214Z" fill="white"/>
<path opacity="0.3" d="M592.857 277.344C590.016 277.344 587.712 276.802 587.712 276.134C587.712 275.466 590.016 274.924 592.857 274.924C595.699 274.924 598.003 275.466 598.003 276.134C598.003 276.802 595.699 277.344 592.857 277.344Z" fill="white"/>
<path opacity="0.3" d="M585.143 279.65C585.143 280.315 587.444 280.86 590.288 280.86C593.133 280.86 595.434 280.321 595.434 279.65C595.434 278.979 593.133 278.44 590.288 278.44C587.444 278.44 585.143 278.979 585.143 279.65Z" fill="white"/>
<path opacity="0.3" d="M659.262 280.938C656.42 280.938 654.117 280.396 654.117 279.728C654.117 279.059 656.42 278.518 659.262 278.518C662.104 278.518 664.408 279.059 664.408 279.728C664.408 280.396 662.104 280.938 659.262 280.938Z" fill="white"/>
<path opacity="0.3" d="M648.978 277.422C646.136 277.422 643.832 276.88 643.832 276.212C643.832 275.543 646.136 275.002 648.978 275.002C651.82 275.002 654.124 275.543 654.124 276.212C654.124 276.88 651.82 277.422 648.978 277.422Z" fill="white"/>
<path opacity="0.3" d="M664.408 277.422C661.566 277.422 659.262 276.88 659.262 276.212C659.262 275.543 661.566 275.002 664.408 275.002C667.249 275.002 669.553 275.543 669.553 276.212C669.553 276.88 667.249 277.422 664.408 277.422Z" fill="white"/>
<path opacity="0.3" d="M645.357 280.938C642.516 280.938 640.212 280.396 640.212 279.728C640.212 279.059 642.516 278.518 645.357 278.518C648.199 278.518 650.503 279.059 650.503 279.728C650.503 280.396 648.199 280.938 645.357 280.938Z" fill="white"/>
<path opacity="0.3" d="M648.978 283.088C648.978 283.753 651.279 284.298 654.124 284.298C656.968 284.298 659.269 283.759 659.269 283.088C659.269 282.417 656.968 281.878 654.124 281.878C651.279 281.878 648.978 282.417 648.978 283.088Z" fill="white"/>
<path opacity="0.3" d="M632.497 283.088C632.497 283.753 634.798 284.298 637.643 284.298C640.487 284.298 642.788 283.759 642.788 283.088C642.788 282.417 640.487 281.878 637.643 281.878C634.798 281.878 632.497 282.417 632.497 283.088Z" fill="white"/>
<path opacity="0.3" d="M660.85 283.088C660.85 283.753 663.151 284.298 665.996 284.298C668.84 284.298 671.141 283.759 671.141 283.088C671.141 282.417 668.84 281.878 665.996 281.878C663.151 281.878 660.85 282.417 660.85 283.088Z" fill="white"/>
<path opacity="0.3" d="M635.066 277.422C632.225 277.422 629.921 276.88 629.921 276.212C629.921 275.543 632.225 275.002 635.066 275.002C637.908 275.002 640.212 275.543 640.212 276.212C640.212 276.88 637.908 277.422 635.066 277.422Z" fill="white"/>
<path opacity="0.3" d="M632.497 280.938C629.655 280.938 627.352 280.396 627.352 279.728C627.352 279.059 629.655 278.518 632.497 278.518C635.339 278.518 637.643 279.059 637.643 279.728C637.643 280.396 635.339 280.938 632.497 280.938Z" fill="white"/>
<path opacity="0.3" d="M528.492 279.65C528.492 280.315 530.793 280.86 533.638 280.86C536.482 280.86 538.783 280.321 538.783 279.65C538.783 278.979 536.482 278.44 533.638 278.44C530.793 278.44 528.492 278.979 528.492 279.65Z" fill="white"/>
<path opacity="0.3" d="M523.347 277.344C520.505 277.344 518.201 276.802 518.201 276.134C518.201 275.466 520.505 274.924 523.347 274.924C526.188 274.924 528.492 275.466 528.492 276.134C528.492 276.802 526.188 277.344 523.347 277.344Z" fill="white"/>
<path opacity="0.3" d="M538.783 277.344C535.942 277.344 533.638 276.802 533.638 276.134C533.638 275.466 535.942 274.924 538.783 274.924C541.625 274.924 543.929 275.466 543.929 276.134C543.929 276.802 541.625 277.344 538.783 277.344Z" fill="white"/>
<path opacity="0.3" d="M514.581 279.65C514.581 280.315 516.882 280.86 519.726 280.86C522.571 280.86 524.872 280.321 524.872 279.65C524.872 278.979 522.571 278.44 519.726 278.44C516.882 278.44 514.581 278.979 514.581 279.65Z" fill="white"/>
<path opacity="0.3" d="M528.492 284.214C525.651 284.214 523.347 283.672 523.347 283.004C523.347 282.336 525.651 281.794 528.492 281.794C531.334 281.794 533.638 282.336 533.638 283.004C533.638 283.672 531.334 284.214 528.492 284.214Z" fill="white"/>
<path opacity="0.3" d="M512.011 284.214C509.169 284.214 506.866 283.672 506.866 283.004C506.866 282.336 509.169 281.794 512.011 281.794C514.853 281.794 517.157 282.336 517.157 283.004C517.157 283.672 514.853 284.214 512.011 284.214Z" fill="white"/>
<path opacity="0.3" d="M540.365 284.214C537.523 284.214 535.219 283.672 535.219 283.004C535.219 282.336 537.523 281.794 540.365 281.794C543.206 281.794 545.51 282.336 545.51 283.004C545.51 283.672 543.206 284.214 540.365 284.214Z" fill="white"/>
<path opacity="0.3" d="M509.442 277.344C506.6 277.344 504.296 276.802 504.296 276.134C504.296 275.466 506.6 274.924 509.442 274.924C512.284 274.924 514.587 275.466 514.587 276.134C514.587 276.802 512.284 277.344 509.442 277.344Z" fill="white"/>
<path opacity="0.3" d="M501.72 279.65C501.72 280.315 504.021 280.86 506.866 280.86C509.71 280.86 512.011 280.321 512.011 279.65C512.011 278.979 509.71 278.44 506.866 278.44C504.021 278.44 501.72 278.979 501.72 279.65Z" fill="white"/>
<path opacity="0.3" d="M575.84 280.938C572.998 280.938 570.694 280.396 570.694 279.728C570.694 279.059 572.998 278.518 575.84 278.518C578.681 278.518 580.985 279.059 580.985 279.728C580.985 280.396 578.681 280.938 575.84 280.938Z" fill="white"/>
<path opacity="0.3" d="M565.556 277.422C562.714 277.422 560.41 276.88 560.41 276.212C560.41 275.543 562.714 275.002 565.556 275.002C568.397 275.002 570.701 275.543 570.701 276.212C570.701 276.88 568.397 277.422 565.556 277.422Z" fill="white"/>
<path opacity="0.3" d="M580.985 277.422C578.143 277.422 575.84 276.88 575.84 276.212C575.84 275.543 578.143 275.002 580.985 275.002C583.827 275.002 586.131 275.543 586.131 276.212C586.131 276.88 583.827 277.422 580.985 277.422Z" fill="white"/>
<path opacity="0.3" d="M561.935 280.938C559.093 280.938 556.789 280.396 556.789 279.728C556.789 279.059 559.093 278.518 561.935 278.518C564.777 278.518 567.08 279.059 567.08 279.728C567.08 280.396 564.777 280.938 561.935 280.938Z" fill="white"/>
<path opacity="0.3" d="M565.556 283.088C565.556 283.753 567.857 284.298 570.701 284.298C573.546 284.298 575.847 283.759 575.847 283.088C575.847 282.417 573.546 281.878 570.701 281.878C567.857 281.878 565.556 282.417 565.556 283.088Z" fill="white"/>
<path opacity="0.3" d="M549.074 283.088C549.074 283.753 551.375 284.298 554.22 284.298C557.064 284.298 559.365 283.759 559.365 283.088C559.365 282.417 557.064 281.878 554.22 281.878C551.375 281.878 549.074 282.417 549.074 283.088Z" fill="white"/>
<path opacity="0.3" d="M577.428 283.088C577.428 283.753 579.729 284.298 582.573 284.298C585.418 284.298 587.719 283.759 587.719 283.088C587.719 282.417 585.418 281.878 582.573 281.878C579.729 281.878 577.428 282.417 577.428 283.088Z" fill="white"/>
<path opacity="0.3" d="M551.644 277.422C548.802 277.422 546.498 276.88 546.498 276.212C546.498 275.543 548.802 275.002 551.644 275.002C554.486 275.002 556.789 275.543 556.789 276.212C556.789 276.88 554.486 277.422 551.644 277.422Z" fill="white"/>
<path opacity="0.3" d="M549.074 280.938C546.233 280.938 543.929 280.396 543.929 279.728C543.929 279.059 546.233 278.518 549.074 278.518C551.916 278.518 554.22 279.059 554.22 279.728C554.22 280.396 551.916 280.938 549.074 280.938Z" fill="white"/>
<path opacity="0.3" d="M445.07 279.65C445.07 280.315 447.371 280.86 450.216 280.86C453.06 280.86 455.361 280.321 455.361 279.65C455.361 278.979 453.06 278.44 450.216 278.44C447.371 278.44 445.07 278.979 445.07 279.65Z" fill="white"/>
<path opacity="0.3" d="M439.925 277.344C437.083 277.344 434.779 276.802 434.779 276.134C434.779 275.466 437.083 274.924 439.925 274.924C442.766 274.924 445.07 275.466 445.07 276.134C445.07 276.802 442.766 277.344 439.925 277.344Z" fill="white"/>
<path opacity="0.3" d="M455.361 277.344C452.519 277.344 450.216 276.802 450.216 276.134C450.216 275.466 452.519 274.924 455.361 274.924C458.203 274.924 460.507 275.466 460.507 276.134C460.507 276.802 458.203 277.344 455.361 277.344Z" fill="white"/>
<path opacity="0.3" d="M431.158 279.65C431.158 280.315 433.459 280.86 436.303 280.86C439.148 280.86 441.449 280.321 441.449 279.65C441.449 278.979 439.148 278.44 436.303 278.44C433.459 278.44 431.158 278.979 431.158 279.65Z" fill="white"/>
<path opacity="0.3" d="M445.07 284.214C442.228 284.214 439.925 283.672 439.925 283.004C439.925 282.336 442.228 281.794 445.07 281.794C447.912 281.794 450.216 282.336 450.216 283.004C450.216 283.672 447.912 284.214 445.07 284.214Z" fill="white"/>
<path opacity="0.3" d="M428.589 284.214C425.747 284.214 423.443 283.672 423.443 283.004C423.443 282.336 425.747 281.794 428.589 281.794C431.431 281.794 433.734 282.336 433.734 283.004C433.734 283.672 431.431 284.214 428.589 284.214Z" fill="white"/>
<path opacity="0.3" d="M456.942 284.214C454.1 284.214 451.797 283.672 451.797 283.004C451.797 282.336 454.1 281.794 456.942 281.794C459.784 281.794 462.088 282.336 462.088 283.004C462.088 283.672 459.784 284.214 456.942 284.214Z" fill="white"/>
<path opacity="0.3" d="M426.02 277.344C423.178 277.344 420.874 276.802 420.874 276.134C420.874 275.466 423.178 274.924 426.02 274.924C428.861 274.924 431.165 275.466 431.165 276.134C431.165 276.802 428.861 277.344 426.02 277.344Z" fill="white"/>
<path opacity="0.3" d="M418.298 279.65C418.298 280.315 420.599 280.86 423.443 280.86C426.288 280.86 428.589 280.321 428.589 279.65C428.589 278.979 426.288 278.44 423.443 278.44C420.599 278.44 418.298 278.979 418.298 279.65Z" fill="white"/>
<path opacity="0.3" d="M492.425 280.938C489.583 280.938 487.279 280.396 487.279 279.728C487.279 279.059 489.583 278.518 492.425 278.518C495.266 278.518 497.57 279.059 497.57 279.728C497.57 280.396 495.266 280.938 492.425 280.938Z" fill="white"/>
<path opacity="0.3" d="M482.133 277.422C479.292 277.422 476.988 276.88 476.988 276.212C476.988 275.543 479.292 275.002 482.133 275.002C484.975 275.002 487.279 275.543 487.279 276.212C487.279 276.88 484.975 277.422 482.133 277.422Z" fill="white"/>
<path opacity="0.3" d="M497.563 277.422C494.721 277.422 492.417 276.88 492.417 276.212C492.417 275.543 494.721 275.002 497.563 275.002C500.405 275.002 502.708 275.543 502.708 276.212C502.708 276.88 500.405 277.422 497.563 277.422Z" fill="white"/>
<path opacity="0.3" d="M478.512 280.938C475.671 280.938 473.367 280.396 473.367 279.728C473.367 279.059 475.671 278.518 478.512 278.518C481.354 278.518 483.658 279.059 483.658 279.728C483.658 280.396 481.354 280.938 478.512 280.938Z" fill="white"/>
<path opacity="0.3" d="M482.134 283.088C482.134 283.753 484.435 284.298 487.279 284.298C490.124 284.298 492.425 283.759 492.425 283.088C492.425 282.417 490.124 281.878 487.279 281.878C484.435 281.878 482.134 282.417 482.134 283.088Z" fill="white"/>
<path opacity="0.3" d="M465.652 283.088C465.652 283.753 467.953 284.298 470.798 284.298C473.642 284.298 475.943 283.759 475.943 283.088C475.943 282.417 473.642 281.878 470.798 281.878C467.953 281.878 465.652 282.417 465.652 283.088Z" fill="white"/>
<path opacity="0.3" d="M494.006 283.088C494.006 283.753 496.307 284.298 499.151 284.298C501.996 284.298 504.297 283.759 504.297 283.088C504.297 282.417 501.996 281.878 499.151 281.878C496.307 281.878 494.006 282.417 494.006 283.088Z" fill="white"/>
<path opacity="0.3" d="M468.221 277.422C465.38 277.422 463.076 276.88 463.076 276.212C463.076 275.543 465.38 275.002 468.221 275.002C471.063 275.002 473.367 275.543 473.367 276.212C473.367 276.88 471.063 277.422 468.221 277.422Z" fill="white"/>
<path opacity="0.3" d="M465.652 280.938C462.81 280.938 460.507 280.396 460.507 279.728C460.507 279.059 462.81 278.518 465.652 278.518C468.494 278.518 470.798 279.059 470.798 279.728C470.798 280.396 468.494 280.938 465.652 280.938Z" fill="white"/>
<path opacity="0.3" d="M361.28 279.65C361.28 280.315 363.582 280.86 366.426 280.86C369.271 280.86 371.572 280.321 371.572 279.65C371.572 278.979 369.271 278.44 366.426 278.44C363.582 278.44 361.28 278.979 361.28 279.65Z" fill="white"/>
<path opacity="0.3" d="M356.135 277.344C353.293 277.344 350.989 276.802 350.989 276.134C350.989 275.466 353.293 274.924 356.135 274.924C358.977 274.924 361.281 275.466 361.281 276.134C361.281 276.802 358.977 277.344 356.135 277.344Z" fill="white"/>
<path opacity="0.3" d="M371.564 277.344C368.723 277.344 366.419 276.802 366.419 276.134C366.419 275.466 368.723 274.924 371.564 274.924C374.406 274.924 376.71 275.466 376.71 276.134C376.71 276.802 374.406 277.344 371.564 277.344Z" fill="white"/>
<path opacity="0.3" d="M347.369 279.65C347.369 280.315 349.67 280.86 352.514 280.86C355.359 280.86 357.66 280.321 357.66 279.65C357.66 278.979 355.359 278.44 352.514 278.44C349.67 278.44 347.369 278.979 347.369 279.65Z" fill="white"/>
<path opacity="0.3" d="M361.281 284.214C358.439 284.214 356.135 283.672 356.135 283.004C356.135 282.336 358.439 281.794 361.281 281.794C364.123 281.794 366.426 282.336 366.426 283.004C366.426 283.672 364.123 284.214 361.281 284.214Z" fill="white"/>
<path opacity="0.3" d="M344.792 284.214C341.95 284.214 339.647 283.672 339.647 283.004C339.647 282.336 341.95 281.794 344.792 281.794C347.634 281.794 349.938 282.336 349.938 283.004C349.938 283.672 347.634 284.214 344.792 284.214Z" fill="white"/>
<path opacity="0.3" d="M373.153 284.214C370.311 284.214 368.007 283.672 368.007 283.004C368.007 282.336 370.311 281.794 373.153 281.794C375.995 281.794 378.298 282.336 378.298 283.004C378.298 283.672 375.995 284.214 373.153 284.214Z" fill="white"/>
<path opacity="0.3" d="M342.223 277.344C339.382 277.344 337.078 276.802 337.078 276.134C337.078 275.466 339.382 274.924 342.223 274.924C345.065 274.924 347.369 275.466 347.369 276.134C347.369 276.802 345.065 277.344 342.223 277.344Z" fill="white"/>
<path opacity="0.3" d="M334.508 279.65C334.508 280.315 336.809 280.86 339.654 280.86C342.498 280.86 344.799 280.321 344.799 279.65C344.799 278.979 342.498 278.44 339.654 278.44C336.809 278.44 334.508 278.979 334.508 279.65Z" fill="white"/>
<path opacity="0.3" d="M408.628 280.938C405.786 280.938 403.482 280.396 403.482 279.728C403.482 279.059 405.786 278.518 408.628 278.518C411.469 278.518 413.773 279.059 413.773 279.728C413.773 280.396 411.469 280.938 408.628 280.938Z" fill="white"/>
<path opacity="0.3" d="M398.337 277.422C395.495 277.422 393.191 276.88 393.191 276.212C393.191 275.543 395.495 275.002 398.337 275.002C401.179 275.002 403.482 275.543 403.482 276.212C403.482 276.88 401.179 277.422 398.337 277.422Z" fill="white"/>
<path opacity="0.3" d="M413.773 277.422C410.932 277.422 408.628 276.88 408.628 276.212C408.628 275.543 410.932 275.002 413.773 275.002C416.615 275.002 418.919 275.543 418.919 276.212C418.919 276.88 416.615 277.422 413.773 277.422Z" fill="white"/>
<path opacity="0.3" d="M394.716 280.938C391.874 280.938 389.57 280.396 389.57 279.728C389.57 279.059 391.874 278.518 394.716 278.518C397.558 278.518 399.861 279.059 399.861 279.728C399.861 280.396 397.558 280.938 394.716 280.938Z" fill="white"/>
<path opacity="0.3" d="M398.337 283.088C398.337 283.753 400.638 284.298 403.482 284.298C406.327 284.298 408.628 283.759 408.628 283.088C408.628 282.417 406.327 281.878 403.482 281.878C400.638 281.878 398.337 282.417 398.337 283.088Z" fill="white"/>
<path opacity="0.3" d="M381.856 283.088C381.856 283.753 384.157 284.298 387.001 284.298C389.846 284.298 392.147 283.759 392.147 283.088C392.147 282.417 389.846 281.878 387.001 281.878C384.157 281.878 381.856 282.417 381.856 283.088Z" fill="white"/>
<path opacity="0.3" d="M410.209 283.088C410.209 283.753 412.51 284.298 415.354 284.298C418.199 284.298 420.5 283.759 420.5 283.088C420.5 282.417 418.199 281.878 415.354 281.878C412.51 281.878 410.209 282.417 410.209 283.088Z" fill="white"/>
<path opacity="0.3" d="M384.425 277.422C381.583 277.422 379.279 276.88 379.279 276.212C379.279 275.543 381.583 275.002 384.425 275.002C387.267 275.002 389.571 275.543 389.571 276.212C389.571 276.88 387.267 277.422 384.425 277.422Z" fill="white"/>
<path opacity="0.3" d="M381.856 280.938C379.014 280.938 376.71 280.396 376.71 279.728C376.71 279.059 379.014 278.518 381.856 278.518C384.698 278.518 387.001 279.059 387.001 279.728C387.001 280.396 384.698 280.938 381.856 280.938Z" fill="white"/>
<path opacity="0.3" d="M277.858 279.65C277.858 280.315 280.159 280.86 283.004 280.86C285.848 280.86 288.149 280.321 288.149 279.65C288.149 278.979 285.848 278.44 283.004 278.44C280.159 278.44 277.858 278.979 277.858 279.65Z" fill="white"/>
<path opacity="0.3" d="M272.713 277.344C269.871 277.344 267.567 276.802 267.567 276.134C267.567 275.466 269.871 274.924 272.713 274.924C275.554 274.924 277.858 275.466 277.858 276.134C277.858 276.802 275.554 277.344 272.713 277.344Z" fill="white"/>
<path opacity="0.3" d="M288.142 277.344C285.3 277.344 282.997 276.802 282.997 276.134C282.997 275.466 285.3 274.924 288.142 274.924C290.984 274.924 293.288 275.466 293.288 276.134C293.288 276.802 290.984 277.344 288.142 277.344Z" fill="white"/>
<path opacity="0.3" d="M263.946 279.65C263.946 280.315 266.247 280.86 269.092 280.86C271.936 280.86 274.237 280.321 274.237 279.65C274.237 278.979 271.936 278.44 269.092 278.44C266.247 278.44 263.946 278.979 263.946 279.65Z" fill="white"/>
<path opacity="0.3" d="M277.858 284.214C275.017 284.214 272.713 283.672 272.713 283.004C272.713 282.336 275.017 281.794 277.858 281.794C280.7 281.794 283.004 282.336 283.004 283.004C283.004 283.672 280.7 284.214 277.858 284.214Z" fill="white"/>
<path opacity="0.3" d="M261.37 284.214C258.528 284.214 256.224 283.672 256.224 283.004C256.224 282.336 258.528 281.794 261.37 281.794C264.212 281.794 266.515 282.336 266.515 283.004C266.515 283.672 264.212 284.214 261.37 284.214Z" fill="white"/>
<path opacity="0.3" d="M289.73 284.214C286.889 284.214 284.585 283.672 284.585 283.004C284.585 282.336 286.889 281.794 289.73 281.794C292.572 281.794 294.876 282.336 294.876 283.004C294.876 283.672 292.572 284.214 289.73 284.214Z" fill="white"/>
<path opacity="0.3" d="M253.655 276.134C253.655 276.799 255.956 277.344 258.801 277.344C261.645 277.344 263.946 276.805 263.946 276.134C263.946 275.463 261.645 274.924 258.801 274.924C255.956 274.924 253.655 275.463 253.655 276.134Z" fill="white"/>
<path opacity="0.3" d="M251.086 279.65C251.086 280.315 253.387 280.86 256.231 280.86C259.076 280.86 261.377 280.321 261.377 279.65C261.377 278.979 259.076 278.44 256.231 278.44C253.387 278.44 251.086 278.979 251.086 279.65Z" fill="white"/>
<path opacity="0.3" d="M325.206 280.938C322.364 280.938 320.06 280.396 320.06 279.728C320.06 279.059 322.364 278.518 325.206 278.518C328.047 278.518 330.351 279.059 330.351 279.728C330.351 280.396 328.047 280.938 325.206 280.938Z" fill="white"/>
<path opacity="0.3" d="M314.915 277.422C312.073 277.422 309.769 276.88 309.769 276.212C309.769 275.543 312.073 275.002 314.915 275.002C317.756 275.002 320.06 275.543 320.06 276.212C320.06 276.88 317.756 277.422 314.915 277.422Z" fill="white"/>
<path opacity="0.3" d="M330.351 277.422C327.509 277.422 325.206 276.88 325.206 276.212C325.206 275.543 327.509 275.002 330.351 275.002C333.193 275.002 335.497 275.543 335.497 276.212C335.497 276.88 333.193 277.422 330.351 277.422Z" fill="white"/>
<path opacity="0.3" d="M311.293 280.938C308.452 280.938 306.148 280.396 306.148 279.728C306.148 279.059 308.452 278.518 311.293 278.518C314.135 278.518 316.439 279.059 316.439 279.728C316.439 280.396 314.135 280.938 311.293 280.938Z" fill="white"/>
<path opacity="0.3" d="M314.915 283.088C314.915 283.753 317.216 284.298 320.06 284.298C322.905 284.298 325.206 283.759 325.206 283.088C325.206 282.417 322.905 281.878 320.06 281.878C317.216 281.878 314.915 282.417 314.915 283.088Z" fill="white"/>
<path opacity="0.3" d="M298.433 283.088C298.433 283.753 300.734 284.298 303.579 284.298C306.423 284.298 308.724 283.759 308.724 283.088C308.724 282.417 306.423 281.878 303.579 281.878C300.734 281.878 298.433 282.417 298.433 283.088Z" fill="white"/>
<path opacity="0.3" d="M326.787 283.088C326.787 283.753 329.088 284.298 331.932 284.298C334.777 284.298 337.078 283.759 337.078 283.088C337.078 282.417 334.777 281.878 331.932 281.878C329.088 281.878 326.787 282.417 326.787 283.088Z" fill="white"/>
<path opacity="0.3" d="M301.01 277.422C298.168 277.422 295.864 276.88 295.864 276.212C295.864 275.543 298.168 275.002 301.01 275.002C303.851 275.002 306.155 275.543 306.155 276.212C306.155 276.88 303.851 277.422 301.01 277.422Z" fill="white"/>
<path opacity="0.3" d="M298.433 280.938C295.592 280.938 293.288 280.396 293.288 279.728C293.288 279.059 295.592 278.518 298.433 278.518C301.275 278.518 303.579 279.059 303.579 279.728C303.579 280.396 301.275 280.938 298.433 280.938Z" fill="white"/>
<path opacity="0.3" d="M194.436 279.65C194.436 280.315 196.737 280.86 199.582 280.86C202.426 280.86 204.727 280.321 204.727 279.65C204.727 278.979 202.426 278.44 199.582 278.44C196.737 278.44 194.436 278.979 194.436 279.65Z" fill="white"/>
<path opacity="0.3" d="M189.29 277.344C186.448 277.344 184.145 276.802 184.145 276.134C184.145 275.466 186.448 274.924 189.29 274.924C192.132 274.924 194.436 275.466 194.436 276.134C194.436 276.802 192.132 277.344 189.29 277.344Z" fill="white"/>
<path opacity="0.3" d="M204.72 277.344C201.878 277.344 199.574 276.802 199.574 276.134C199.574 275.466 201.878 274.924 204.72 274.924C207.561 274.924 209.865 275.466 209.865 276.134C209.865 276.802 207.561 277.344 204.72 277.344Z" fill="white"/>
<path opacity="0.3" d="M180.524 279.65C180.524 280.315 182.825 280.86 185.669 280.86C188.514 280.86 190.815 280.321 190.815 279.65C190.815 278.979 188.514 278.44 185.669 278.44C182.825 278.44 180.524 278.979 180.524 279.65Z" fill="white"/>
<path opacity="0.3" d="M194.436 284.214C191.594 284.214 189.29 283.672 189.29 283.004C189.29 282.336 191.594 281.794 194.436 281.794C197.278 281.794 199.582 282.336 199.582 283.004C199.582 283.672 197.278 284.214 194.436 284.214Z" fill="white"/>
<path opacity="0.3" d="M177.955 284.214C175.113 284.214 172.809 283.672 172.809 283.004C172.809 282.336 175.113 281.794 177.955 281.794C180.796 281.794 183.1 282.336 183.1 283.004C183.1 283.672 180.796 284.214 177.955 284.214Z" fill="white"/>
<path opacity="0.3" d="M206.308 284.214C203.466 284.214 201.163 283.672 201.163 283.004C201.163 282.336 203.466 281.794 206.308 281.794C209.15 281.794 211.454 282.336 211.454 283.004C211.454 283.672 209.15 284.214 206.308 284.214Z" fill="white"/>
<path opacity="0.3" d="M175.378 277.344C172.537 277.344 170.233 276.802 170.233 276.134C170.233 275.466 172.537 274.924 175.378 274.924C178.22 274.924 180.524 275.466 180.524 276.134C180.524 276.802 178.22 277.344 175.378 277.344Z" fill="white"/>
<path opacity="0.3" d="M167.664 279.65C167.664 280.315 169.965 280.86 172.809 280.86C175.654 280.86 177.955 280.321 177.955 279.65C177.955 278.979 175.654 278.44 172.809 278.44C169.965 278.44 167.664 278.979 167.664 279.65Z" fill="white"/>
<path opacity="0.3" d="M241.783 280.938C238.941 280.938 236.638 280.396 236.638 279.728C236.638 279.059 238.941 278.518 241.783 278.518C244.625 278.518 246.929 279.059 246.929 279.728C246.929 280.396 244.625 280.938 241.783 280.938Z" fill="white"/>
<path opacity="0.3" d="M231.492 277.422C228.65 277.422 226.347 276.88 226.347 276.212C226.347 275.543 228.65 275.002 231.492 275.002C234.334 275.002 236.638 275.543 236.638 276.212C236.638 276.88 234.334 277.422 231.492 277.422Z" fill="white"/>
<path opacity="0.3" d="M246.929 277.422C244.087 277.422 241.783 276.88 241.783 276.212C241.783 275.543 244.087 275.002 246.929 275.002C249.771 275.002 252.074 275.543 252.074 276.212C252.074 276.88 249.771 277.422 246.929 277.422Z" fill="white"/>
<path opacity="0.3" d="M227.871 280.938C225.03 280.938 222.726 280.396 222.726 279.728C222.726 279.059 225.03 278.518 227.871 278.518C230.713 278.518 233.017 279.059 233.017 279.728C233.017 280.396 230.713 280.938 227.871 280.938Z" fill="white"/>
<path opacity="0.3" d="M231.492 283.088C231.492 283.753 233.793 284.298 236.638 284.298C239.482 284.298 241.783 283.759 241.783 283.088C241.783 282.417 239.482 281.878 236.638 281.878C233.793 281.878 231.492 282.417 231.492 283.088Z" fill="white"/>
<path opacity="0.3" d="M215.011 283.088C215.011 283.753 217.312 284.298 220.156 284.298C223.001 284.298 225.302 283.759 225.302 283.088C225.302 282.417 223.001 281.878 220.156 281.878C217.312 281.878 215.011 282.417 215.011 283.088Z" fill="white"/>
<path opacity="0.3" d="M243.364 283.088C243.364 283.753 245.665 284.298 248.51 284.298C251.354 284.298 253.655 283.759 253.655 283.088C253.655 282.417 251.354 281.878 248.51 281.878C245.665 281.878 243.364 282.417 243.364 283.088Z" fill="white"/>
<path opacity="0.3" d="M217.587 277.422C214.746 277.422 212.442 276.88 212.442 276.212C212.442 275.543 214.746 275.002 217.587 275.002C220.429 275.002 222.733 275.543 222.733 276.212C222.733 276.88 220.429 277.422 217.587 277.422Z" fill="white"/>
<path opacity="0.3" d="M215.011 280.938C212.169 280.938 209.865 280.396 209.865 279.728C209.865 279.059 212.169 278.518 215.011 278.518C217.853 278.518 220.156 279.059 220.156 279.728C220.156 280.396 217.853 280.938 215.011 280.938Z" fill="white"/>
<path opacity="0.3" d="M111.013 279.65C111.013 280.315 113.314 280.86 116.159 280.86C119.003 280.86 121.304 280.321 121.304 279.65C121.304 278.979 119.003 278.44 116.159 278.44C113.314 278.44 111.013 278.979 111.013 279.65Z" fill="white"/>
<path opacity="0.3" d="M105.868 277.344C103.026 277.344 100.722 276.802 100.722 276.134C100.722 275.466 103.026 274.924 105.868 274.924C108.71 274.924 111.013 275.466 111.013 276.134C111.013 276.802 108.71 277.344 105.868 277.344Z" fill="white"/>
<path opacity="0.3" d="M121.297 277.344C118.455 277.344 116.152 276.802 116.152 276.134C116.152 275.466 118.455 274.924 121.297 274.924C124.139 274.924 126.443 275.466 126.443 276.134C126.443 276.802 124.139 277.344 121.297 277.344Z" fill="white"/>
<path opacity="0.3" d="M97.101 279.65C97.101 280.315 99.402 280.86 102.247 280.86C105.091 280.86 107.392 280.321 107.392 279.65C107.392 278.979 105.091 278.44 102.247 278.44C99.402 278.44 97.101 278.979 97.101 279.65Z" fill="white"/>
<path opacity="0.3" d="M111.013 284.214C108.171 284.214 105.868 283.672 105.868 283.004C105.868 282.336 108.171 281.794 111.013 281.794C113.855 281.794 116.159 282.336 116.159 283.004C116.159 283.672 113.855 284.214 111.013 284.214Z" fill="white"/>
<path opacity="0.3" d="M94.532 284.214C91.6902 284.214 89.3865 283.672 89.3865 283.004C89.3865 282.336 91.6902 281.794 94.532 281.794C97.3738 281.794 99.6775 282.336 99.6775 283.004C99.6775 283.672 97.3738 284.214 94.532 284.214Z" fill="white"/>
<path opacity="0.3" d="M122.885 284.214C120.043 284.214 117.74 283.672 117.74 283.004C117.74 282.336 120.043 281.794 122.885 281.794C125.727 281.794 128.031 282.336 128.031 283.004C128.031 283.672 125.727 284.214 122.885 284.214Z" fill="white"/>
<path opacity="0.3" d="M91.9556 277.344C89.1138 277.344 86.8101 276.802 86.8101 276.134C86.8101 275.466 89.1138 274.924 91.9556 274.924C94.7974 274.924 97.1011 275.466 97.1011 276.134C97.1011 276.802 94.7974 277.344 91.9556 277.344Z" fill="white"/>
<path opacity="0.3" d="M84.2409 279.65C84.2409 280.315 86.5419 280.86 89.3864 280.86C92.2309 280.86 94.532 280.321 94.532 279.65C94.532 278.979 92.2309 278.44 89.3864 278.44C86.5419 278.44 84.2409 278.979 84.2409 279.65Z" fill="white"/>
<path opacity="0.3" d="M158.361 280.938C155.519 280.938 153.215 280.396 153.215 279.728C153.215 279.059 155.519 278.518 158.361 278.518C161.202 278.518 163.506 279.059 163.506 279.728C163.506 280.396 161.202 280.938 158.361 280.938Z" fill="white"/>
<path opacity="0.3" d="M148.07 277.422C145.228 277.422 142.924 276.88 142.924 276.212C142.924 275.543 145.228 275.002 148.07 275.002C150.911 275.002 153.215 275.543 153.215 276.212C153.215 276.88 150.911 277.422 148.07 277.422Z" fill="white"/>
<path opacity="0.3" d="M163.506 277.422C160.664 277.422 158.361 276.88 158.361 276.212C158.361 275.543 160.664 275.002 163.506 275.002C166.348 275.002 168.652 275.543 168.652 276.212C168.652 276.88 166.348 277.422 163.506 277.422Z" fill="white"/>
<path opacity="0.3" d="M144.448 280.938C141.607 280.938 139.303 280.396 139.303 279.728C139.303 279.059 141.607 278.518 144.448 278.518C147.29 278.518 149.594 279.059 149.594 279.728C149.594 280.396 147.29 280.938 144.448 280.938Z" fill="white"/>
<path opacity="0.3" d="M148.07 283.088C148.07 283.753 150.371 284.298 153.215 284.298C156.06 284.298 158.361 283.759 158.361 283.088C158.361 282.417 156.06 281.878 153.215 281.878C150.371 281.878 148.07 282.417 148.07 283.088Z" fill="white"/>
<path opacity="0.3" d="M131.588 283.088C131.588 283.753 133.889 284.298 136.734 284.298C139.578 284.298 141.879 283.759 141.879 283.088C141.879 282.417 139.578 281.878 136.734 281.878C133.889 281.878 131.588 282.417 131.588 283.088Z" fill="white"/>
<path opacity="0.3" d="M159.942 283.088C159.942 283.753 162.243 284.298 165.087 284.298C167.932 284.298 170.233 283.759 170.233 283.088C170.233 282.417 167.932 281.878 165.087 281.878C162.243 281.878 159.942 282.417 159.942 283.088Z" fill="white"/>
<path opacity="0.3" d="M134.165 277.422C131.323 277.422 129.019 276.88 129.019 276.212C129.019 275.543 131.323 275.002 134.165 275.002C137.006 275.002 139.31 275.543 139.31 276.212C139.31 276.88 137.006 277.422 134.165 277.422Z" fill="white"/>
<path opacity="0.3" d="M131.588 280.938C128.746 280.938 126.443 280.396 126.443 279.728C126.443 279.059 128.746 278.518 131.588 278.518C134.43 278.518 136.734 279.059 136.734 279.728C136.734 280.396 134.43 280.938 131.588 280.938Z" fill="white"/>
<path opacity="0.3" d="M27.591 279.65C27.591 280.315 29.892 280.86 32.7365 280.86C35.581 280.86 37.8821 280.321 37.8821 279.65C37.8821 278.979 35.581 278.44 32.7365 278.44C29.892 278.44 27.591 278.979 27.591 279.65Z" fill="white"/>
<path opacity="0.3" d="M22.4454 277.344C19.6036 277.344 17.2998 276.802 17.2998 276.134C17.2998 275.466 19.6036 274.924 22.4454 274.924C25.2871 274.924 27.5908 275.466 27.5908 276.134C27.5908 276.802 25.2871 277.344 22.4454 277.344Z" fill="white"/>
<path opacity="0.3" d="M37.8819 277.344C35.0401 277.344 32.7363 276.802 32.7363 276.134C32.7363 275.466 35.0401 274.924 37.8819 274.924C40.7237 274.924 43.0273 275.466 43.0273 276.134C43.0273 276.802 40.7237 277.344 37.8819 277.344Z" fill="white"/>
<path opacity="0.3" d="M13.679 279.65C13.679 280.315 15.98 280.86 18.8245 280.86C21.669 280.86 23.97 280.321 23.97 279.65C23.97 278.979 21.669 278.44 18.8245 278.44C15.98 278.44 13.679 278.979 13.679 279.65Z" fill="white"/>
<path opacity="0.3" d="M27.591 284.214C24.7492 284.214 22.4456 283.672 22.4456 283.004C22.4456 282.336 24.7492 281.794 27.591 281.794C30.4328 281.794 32.7366 282.336 32.7366 283.004C32.7366 283.672 30.4328 284.214 27.591 284.214Z" fill="white"/>
<path opacity="0.3" d="M11.1096 284.214C8.26778 284.214 5.96402 283.672 5.96402 283.004C5.96402 282.336 8.26778 281.794 11.1096 281.794C13.9514 281.794 16.2551 282.336 16.2551 283.004C16.2551 283.672 13.9514 284.214 11.1096 284.214Z" fill="white"/>
<path opacity="0.3" d="M39.4629 284.214C36.6211 284.214 34.3174 283.672 34.3174 283.004C34.3174 282.336 36.6211 281.794 39.4629 281.794C42.3047 281.794 44.6084 282.336 44.6084 283.004C44.6084 283.672 42.3047 284.214 39.4629 284.214Z" fill="white"/>
<path opacity="0.3" d="M8.5334 277.344C5.69161 277.344 3.38794 276.802 3.38794 276.134C3.38794 275.466 5.69161 274.924 8.5334 274.924C11.3752 274.924 13.679 275.466 13.679 276.134C13.679 276.802 11.3752 277.344 8.5334 277.344Z" fill="white"/>
<path opacity="0.3" d="M0.8186 279.65C0.8186 280.315 3.11956 280.86 5.96407 280.86C8.80857 280.86 11.1096 280.321 11.1096 279.65C11.1096 278.979 8.80857 278.44 5.96407 278.44C3.11956 278.44 0.8186 278.979 0.8186 279.65Z" fill="white"/>
<path opacity="0.3" d="M74.9383 280.938C72.0965 280.938 69.7927 280.396 69.7927 279.728C69.7927 279.059 72.0965 278.518 74.9383 278.518C77.7801 278.518 80.0837 279.059 80.0837 279.728C80.0837 280.396 77.7801 280.938 74.9383 280.938Z" fill="white"/>
<path opacity="0.3" d="M64.6472 277.422C61.8054 277.422 59.5017 276.88 59.5017 276.212C59.5017 275.543 61.8054 275.002 64.6472 275.002C67.489 275.002 69.7927 275.543 69.7927 276.212C69.7927 276.88 67.489 277.422 64.6472 277.422Z" fill="white"/>
<path opacity="0.3" d="M80.0835 277.422C77.2417 277.422 74.938 276.88 74.938 276.212C74.938 275.543 77.2417 275.002 80.0835 275.002C82.9252 275.002 85.229 275.543 85.229 276.212C85.229 276.88 82.9252 277.422 80.0835 277.422Z" fill="white"/>
<path opacity="0.3" d="M61.0332 280.938C58.1914 280.938 55.8877 280.396 55.8877 279.728C55.8877 279.059 58.1914 278.518 61.0332 278.518C63.875 278.518 66.1787 279.059 66.1787 279.728C66.1787 280.396 63.875 280.938 61.0332 280.938Z" fill="white"/>
<path opacity="0.3" d="M64.6471 283.088C64.6471 283.753 66.9482 284.298 69.7927 284.298C72.6372 284.298 74.9382 283.759 74.9382 283.088C74.9382 282.417 72.6372 281.878 69.7927 281.878C66.9482 281.878 64.6471 282.417 64.6471 283.088Z" fill="white"/>
<path opacity="0.3" d="M48.166 283.088C48.166 283.753 50.4671 284.298 53.3116 284.298C56.1561 284.298 58.457 283.759 58.457 283.088C58.457 282.417 56.1561 281.878 53.3116 281.878C50.4671 281.878 48.166 282.417 48.166 283.088Z" fill="white"/>
<path opacity="0.3" d="M76.5264 283.088C76.5264 283.753 78.8273 284.298 81.6718 284.298C84.5163 284.298 86.8174 283.759 86.8174 283.088C86.8174 282.417 84.5163 281.878 81.6718 281.878C78.8273 281.878 76.5264 282.417 76.5264 283.088Z" fill="white"/>
<path opacity="0.3" d="M50.7424 277.422C47.9006 277.422 45.5968 276.88 45.5968 276.212C45.5968 275.543 47.9006 275.002 50.7424 275.002C53.5842 275.002 55.8879 275.543 55.8879 276.212C55.8879 276.88 53.5842 277.422 50.7424 277.422Z" fill="white"/>
<path opacity="0.3" d="M48.166 280.938C45.3242 280.938 43.0204 280.396 43.0204 279.728C43.0204 279.059 45.3242 278.518 48.166 278.518C51.0078 278.518 53.3115 279.059 53.3115 279.728C53.3115 280.396 51.0078 280.938 48.166 280.938Z" fill="white"/>
</svg>
