<svg width="134" height="119" viewBox="0 0 134 119" fill="none" xmlns="http://www.w3.org/2000/svg">
<path d="M14.7287 109.603C17.3233 109.133 19.9517 109.133 22.5127 109.034C27.1545 108.844 31.7963 108.745 36.4381 108.803C38.123 108.82 57.541 108.308 57.2124 113.316C57.0271 116.17 52.1663 116.459 51.2143 116.657C46.7579 117.589 42.2593 117.811 37.7776 117.952C32.4197 118.117 27.0618 118.026 21.704 117.721C17.913 117.506 14.1642 116.789 10.407 116.252C8.11557 115.922 6.58236 114.223 8.32619 112.128C9.63195 110.56 12.85 109.95 14.7287 109.612V109.603Z" fill="#1F2025" fill-opacity="0.13"/>
<path d="M97.7165 104.703C99.7804 104.233 101.886 104.233 103.925 104.134C107.623 103.944 111.33 103.845 115.028 103.903C116.376 103.919 131.86 103.408 131.599 108.415C131.447 111.27 127.572 111.558 126.814 111.756C123.259 112.688 119.67 112.911 116.098 113.051C111.827 113.216 107.548 113.126 103.277 112.82C100.252 112.606 97.2616 111.888 94.2625 111.352C92.4344 111.022 91.2129 109.323 92.6029 107.227C93.6391 105.66 96.2085 105.05 97.708 104.711L97.7165 104.703Z" fill="#99C545"/>
<path d="M3.18703 33.3789C3.9031 33.3789 14.3661 32.7355 18.6793 33.0902C19.7155 33.1727 20.499 34.0389 20.4653 35.0618C20.3136 38.9885 19.3954 47.1224 20.1367 47.8484C21.0044 48.6981 32.0908 48.9126 32.0908 48.9126L31.6275 48.1784L31.0041 47.2049C31.0041 47.2049 24.7027 46.5697 23.3969 46.1408C22.0912 43.7979 25.3514 30.6071 23.835 29.7575C22.3102 28.9078 3.18703 28.4788 2.75739 29.9719C2.71527 30.1287 2.67315 30.2937 2.63945 30.4587C2.33618 31.8446 2.42041 33.3789 3.19545 33.3789H3.18703Z" fill="#FCE1C5"/>
<path d="M3.18703 33.3786C3.90309 33.3786 14.3661 32.7352 18.6793 33.0899C19.7155 33.1724 20.499 34.0386 20.4653 35.0615C20.3136 38.9882 19.3954 47.1221 20.1367 47.8481C21.0044 48.6977 32.0908 48.9122 32.0908 48.9122L31.6275 48.178C28.6537 47.8646 22.5714 47.1716 21.8047 46.6354C20.937 45.497 22.6725 34.1541 21.8047 31.5967C20.836 30.2933 7.77827 31.0605 2.63102 30.4501C2.32774 31.836 2.41199 33.3704 3.18703 33.3704V33.3786Z" fill="#F3D1B2"/>
<path d="M17.2052 26.8617C17.5085 27.2412 17.1715 28.8086 17.1378 29.2293C17.003 30.9204 17.0367 32.6281 16.8514 34.3109C16.8009 34.7647 16.4807 35.2926 15.9921 34.9214C15.5372 34.5749 15.8658 33.9727 15.2845 33.6675C14.6864 33.3458 13.7934 33.42 13.1279 33.4283C9.8508 33.486 6.56532 33.5438 3.28826 33.5933C2.58905 33.6015 1.87298 33.618 1.20746 33.387C0.103874 33.0158 -0.0224838 31.8444 0.00278854 30.7885C0.0196362 30.1697 0.263935 29.518 0.786243 29.1633C1.51073 28.6601 2.47111 28.8581 3.2967 28.7756C3.94537 28.7014 4.56876 28.6766 5.22586 28.6684C6.70011 28.6519 8.17437 28.6436 9.6402 28.6354C11.5272 28.6271 13.4059 28.6189 15.2929 28.6189C15.6467 28.6189 16.1101 25.9708 17.1715 26.8205C17.1884 26.8287 17.1968 26.8452 17.2136 26.8617H17.2052Z" fill="#2E2D30"/>
<path d="M128.659 24.2466C128.516 23.8176 128.802 13.7451 120.833 7.36003C112.863 0.974996 103.588 2.31965 97.0678 5.30593C90.5474 8.28396 87.363 20.2786 87.7926 24.3868C116.629 25.5252 128.651 24.2466 128.651 24.2466H128.659Z" fill="#D2E9F8"/>
<path d="M126.848 24.783C127.067 24.2467 126.957 17.7627 123.697 13.2915C120.437 8.82036 112.501 0.521467 99.1402 6.05682C98.382 9.7773 97.6154 12.2274 94.0351 14.6774C92.2997 15.6344 91.7521 16.1706 91.7521 16.1706C91.7521 16.1706 90.1262 21.3842 90.4463 24.0488C104.464 25.0057 126.848 24.7912 126.848 24.7912V24.783Z" fill="#8CD3DA"/>
<path d="M105.214 9.54616C105.383 8.9687 106.309 8.284 106.865 8.10251C107.143 8.02002 107.371 7.99527 107.657 7.97877C108.281 7.93752 108.929 7.88803 109.553 7.93752C110.791 8.02827 112.072 8.3005 113.226 8.72122C115.416 9.51316 117.446 10.6598 119.156 12.2025C122.526 15.2382 125.129 19.8579 124.877 24.4363C124.809 25.6325 123.133 26.0037 122.551 24.9478C121.557 23.1329 120.521 21.45 119.308 19.7672C118.162 18.1668 116.713 17.0036 115.079 15.9064C113.453 14.8175 111.869 14.0998 110.041 13.3656C108.331 12.6809 104.456 12.1282 105.206 9.54616H105.214Z" fill="white"/>
<path d="M129.965 26.3749C129.965 26.3749 129.459 23.7186 128.954 23.6774C127.943 23.2484 86.3522 23.1082 86.3522 23.1082L85.4845 26.5152L129.965 26.3749Z" fill="#E84B71"/>
<path d="M85.1897 38.4357L129.965 37.8748L129.704 33.9893L129.384 29.3614L85.4845 29.5016L85.4087 31.8115L85.1897 38.4357Z" fill="#F06E89"/>
<path d="M85.4086 31.8115C91.0023 32.0755 119.999 33.4613 129.704 33.9893L129.392 29.3531L85.4928 29.4934L85.417 31.8032L85.4086 31.8115Z" fill="#E84B71"/>
<path d="M83.749 30.0709L87.9948 30.0296L94.1699 29.9719L98.7443 29.9306L103.108 29.8894L131.271 29.6419L130.976 25.245L102.704 24.7252L99.2329 24.6592L94.8354 24.5768L89.3175 24.4778L84.7599 24.3953L83.749 30.0709Z" fill="#F06E89"/>
<path d="M87.9948 30.0296L94.1698 29.9718C94.3214 28.3962 94.5826 25.9791 94.8269 24.5767L89.309 24.4777C88.8541 26.3751 88.3065 28.6519 87.9864 30.0296H87.9948Z" fill="#F49EB7"/>
<path d="M98.7444 29.9305C98.837 28.8251 99.0813 26.111 99.233 24.6591L102.704 24.7251L103.108 29.8975L98.7444 29.9387V29.9305Z" fill="#F49EB7"/>
<path d="M29.008 71.4991C29.008 74.6587 29.0333 77.7027 29.0838 80.4415C29.2186 87.272 29.5387 92.1722 30.1874 92.1392C30.8782 92.1062 38.6454 92.0319 49.1252 91.9412C54.3988 91.8999 60.3548 91.8422 66.4456 91.7844C71.0453 91.7432 75.7123 91.6937 80.2193 91.6442C85.5182 91.5864 90.5897 91.5204 95.0461 91.4544C102.611 91.3472 108.416 91.2235 110.589 91.0915C111.423 90.745 112.931 87.833 114.751 83.5433C115.155 82.5781 115.585 81.5387 116.023 80.4498C117.109 77.7439 118.264 74.6917 119.434 71.5074C120.353 68.9996 121.288 66.4175 122.189 63.8437C122.964 61.6411 123.722 59.455 124.455 57.3514C125.197 55.1901 125.904 53.1112 126.553 51.1891C128.87 44.3174 130.479 39.343 130.479 39.343L69.6553 39.2935H61.0372L45.705 39.277L29.4713 39.2605C29.4713 39.2605 29.3955 42.1065 29.3028 46.4787C29.2776 47.8729 29.2439 49.4238 29.2186 51.0901C29.1849 52.7483 29.1596 54.5219 29.1344 56.3615C29.1007 58.7703 29.067 61.2946 29.0501 63.8437C29.0501 64.0087 29.0501 64.1654 29.0501 64.3304C29.0333 66.7393 29.0164 69.1563 29.0164 71.5074L29.008 71.4991Z" fill="#DE1959"/>
<path d="M29.0077 71.4993H119.426C118.255 74.6836 117.101 77.7359 116.014 80.4417H29.0835L29.0077 71.4993Z" fill="#FFCA07"/>
<path d="M29.0415 63.8438H122.181C122.956 61.6413 123.714 59.4552 124.447 57.3516C125.188 55.1902 125.896 53.1114 126.544 51.1893C105.029 51.2883 46.4714 51.1398 29.21 51.0903C29.1763 52.7484 29.151 54.522 29.1258 56.3616C29.0921 58.7705 29.0584 61.2948 29.0415 63.8438Z" fill="#FFCA07"/>
<g style="mix-blend-mode:multiply" opacity="0.26">
<path d="M30.1791 92.1392C30.8699 92.1062 38.6371 92.0319 49.1169 91.9412C48.0471 75.1866 46.4127 49.8197 45.6967 39.277L29.463 39.2605C29.463 39.2605 29.3872 42.1065 29.2946 46.4787C29.2356 49.267 29.1766 52.674 29.1261 56.3615C29.0924 58.9188 29.0587 61.6164 29.0334 64.3304C28.9239 78.0244 29.0755 92.2052 30.1791 92.1474V92.1392Z" fill="#58595B"/>
</g>
<g opacity="0.37">
<path d="M56.1427 39.2769L61.5427 91.7761C66.1423 91.7349 70.8094 91.6854 75.3164 91.6359L64.7608 39.2852H56.1427V39.2769Z" fill="#F1F1F2"/>
</g>
<path d="M132.138 38.1964C132.138 38.1964 129.063 49.1268 127.463 49.4073C125.803 49.6878 120.673 38.1964 120.673 38.1964H132.138Z" fill="#12B1C6"/>
<path d="M122.863 38.1964C122.863 38.1964 119.788 49.1268 118.188 49.4073C116.528 49.6878 111.398 38.1964 111.398 38.1964H122.863Z" fill="#12B1C6"/>
<path d="M113.588 38.1964C113.588 38.1964 110.513 49.1268 108.912 49.4073C107.253 49.6878 102.122 38.1964 102.122 38.1964H113.588Z" fill="#12B1C6"/>
<path d="M104.304 38.1964C104.304 38.1964 101.23 49.1268 99.629 49.4073C97.9694 49.6878 92.839 38.1964 92.839 38.1964H104.304Z" fill="#12B1C6"/>
<path d="M95.0291 38.1964C95.0291 38.1964 91.9542 49.1268 90.3536 49.4073C88.694 49.6878 83.5636 38.1964 83.5636 38.1964H95.0291Z" fill="#12B1C6"/>
<path d="M85.7456 38.1964C85.7456 38.1964 82.6707 49.1268 81.0701 49.4073C79.4105 49.6878 74.2801 38.1964 74.2801 38.1964H85.7456Z" fill="#12B1C6"/>
<path d="M76.4705 38.1964C76.4705 38.1964 73.3956 49.1268 71.795 49.4073C70.1354 49.6878 65.005 38.1964 65.005 38.1964H76.4705Z" fill="#12B1C6"/>
<path d="M67.1953 38.1964C67.1953 38.1964 64.1204 49.1268 62.5198 49.4073C60.8602 49.6878 55.7298 38.1964 55.7298 38.1964H67.1953Z" fill="#12B1C6"/>
<path d="M57.9119 38.1964C57.9119 38.1964 54.837 49.1268 53.2364 49.4073C51.5768 49.6878 46.4464 38.1964 46.4464 38.1964H57.9119Z" fill="#12B1C6"/>
<path d="M48.6365 38.1964C48.6365 38.1964 45.5616 49.1268 43.961 49.4073C42.3014 49.6878 37.171 38.1964 37.171 38.1964H48.6365Z" fill="#12B1C6"/>
<path d="M39.3616 38.1964C39.3616 38.1964 36.2867 49.1268 34.6861 49.4073C33.0265 49.6878 27.8961 38.1964 27.8961 38.1964H39.3616Z" fill="#12B1C6"/>
<path d="M28.1571 93.9046C28.1571 93.9046 110.336 92.824 111.853 92.4857C112.282 92.0073 112.762 91.4216 113.217 90.8111C114.371 89.252 115.357 87.5196 114.894 86.9174C114.447 86.3399 29.2607 85.7377 28.1739 85.7377C28.0307 86.8432 27.9465 87.8578 27.9128 88.7653C27.7696 92.0155 28.1487 93.9129 28.1487 93.9129L28.1571 93.9046Z" fill="#8D2D48"/>
<path d="M28.1571 93.9046C28.1571 93.9046 110.336 92.8239 111.853 92.4857C112.282 92.0072 112.762 91.4215 113.217 90.8111L27.9128 88.757C27.7695 92.0072 28.1486 93.9046 28.1486 93.9046H28.1571Z" fill="#811D3A"/>
<path d="M26.7502 40.3579L134 40.5394V36.3157L27.3988 36.4972L27.1208 38.1553L26.7502 40.3579Z" fill="#FCE1C5"/>
<path d="M26.7502 40.3578L134 40.5393V36.7281C132.753 37.5613 131.271 38.51 130.74 38.7079C125.71 38.7079 33.7086 38.1965 27.1208 38.1635L26.7502 40.3661V40.3578Z" fill="#EA9EA0"/>
<path d="M29.8924 81.712C31.274 78.7587 32.7904 75.8796 34.3405 73.0089C35.8063 70.2948 37.1373 67.2755 39.0496 64.8254C39.2603 64.5532 39.7067 64.7512 39.5972 65.0894C38.6369 68.1417 36.8425 71.0537 35.3851 73.908C33.9445 76.7293 32.4703 79.5176 30.8696 82.2564C30.5495 82.8009 29.6228 82.2812 29.8924 81.712Z" fill="#BE7064"/>
<path d="M21.8641 65.7246C22.8161 68.5954 23.49 71.5899 24.223 74.5185C24.9559 77.447 25.6635 80.3838 26.2448 83.3371C26.3796 84.03 25.3434 84.1538 25.1665 83.5103C24.3662 80.5983 23.6754 77.645 23.0183 74.6917C22.3696 71.7714 21.6283 68.8181 21.207 65.8484C21.1481 65.4276 21.7294 65.3204 21.8557 65.7164L21.8641 65.7246Z" fill="#BE7064"/>
<path d="M9.24429 76.5808C11.6705 78.8329 14.2146 80.9695 16.8683 82.9576C19.4461 84.8879 22.243 86.5461 24.8124 88.4847C25.082 88.6909 24.8798 89.2106 24.526 89.0456C21.5269 87.635 18.7806 85.5809 16.1522 83.601C13.4901 81.5964 10.946 79.4433 8.51137 77.1747C8.06488 76.7623 8.80622 76.1683 9.25271 76.5808H9.24429Z" fill="#BE7064"/>
<path d="M7.49222 92.9474C10.8367 92.6917 14.2317 92.667 17.593 92.601C20.9374 92.5432 24.484 92.271 27.8116 92.6175C28.1907 92.6587 28.2581 93.0959 27.8538 93.1537C24.5262 93.6569 20.9374 93.5497 17.5508 93.6404C14.2148 93.7311 10.8535 93.8549 7.51749 93.7476C6.93621 93.7311 6.90252 92.9887 7.4838 92.9474H7.49222Z" fill="#BE7064"/>
<path d="M21.4176 107.698C23.2035 104.885 25.2001 102.187 27.1545 99.4894C28.1065 98.1695 29.1006 96.8743 30.0778 95.5792C31.0129 94.3253 31.9395 92.9971 33.06 91.9C33.2285 91.735 33.5654 91.933 33.4643 92.1557C32.782 93.5746 31.8048 94.878 30.9118 96.1731C29.9851 97.5178 29.0669 98.8707 28.1149 100.199C26.1857 102.896 24.265 105.635 22.1673 108.217C21.7967 108.671 21.1059 108.184 21.4176 107.698Z" fill="#BE7064"/>
<path d="M36.0419 89.8706C36.0334 89.5571 36.4883 89.4746 36.5979 89.7716C37.6593 92.5929 38.0805 95.7194 38.6618 98.6562C39.2515 101.634 39.9086 104.612 40.4309 107.607C40.5489 108.291 39.5043 108.597 39.3526 107.896C38.6702 104.86 38.1227 101.791 37.5161 98.7469C36.9348 95.8514 36.143 92.8404 36.0503 89.8788L36.0419 89.8706Z" fill="#BE7064"/>
<path d="M37.0194 86.0263C39.7068 86.9584 42.2509 88.4268 44.7698 89.722C47.3981 91.0749 50.0602 92.3866 52.6296 93.8302C53.3963 94.2592 52.6465 95.2986 51.8883 94.9274C49.302 93.6652 46.7663 92.2628 44.2306 90.9099C41.7286 89.5735 39.0497 88.3196 36.7667 86.645C36.4802 86.4387 36.6235 85.8778 37.0278 86.018L37.0194 86.0263Z" fill="#BE7064"/>
<path d="M34.9721 81.5718C37.71 80.8376 40.709 80.8211 43.5227 80.6314C46.387 80.4416 49.2428 80.2766 52.1071 80.1034C53.0253 80.0457 53.2444 80.8046 52.343 80.9861C49.5208 81.5553 46.7998 81.5471 44.0113 81.6955C41.0965 81.8523 37.9121 82.5205 35.0142 82.0998C34.7193 82.0585 34.6604 81.6543 34.9721 81.5718Z" fill="#BE7064"/>
<path d="M35.0816 84.4179C37.0023 82.3556 38.9989 80.3427 41.0039 78.3546C43.2026 76.1685 45.5361 74.0649 47.6338 71.7881C48.0466 71.3426 48.7037 71.9201 48.2656 72.3573C46.1343 74.4526 44.1798 76.7542 42.1411 78.9403C40.1699 81.0604 38.1817 83.1723 36.1262 85.2099C35.5449 85.7873 34.5087 85.0449 35.09 84.4179H35.0816Z" fill="#BE7064"/>
<path d="M29.7744 63.192C30.6758 66.104 31.1307 69.2306 31.7457 72.2086C32.3775 75.2774 33.1525 78.3956 33.439 81.5139C33.4811 81.9511 32.9082 82.0584 32.765 81.6459C31.7709 78.7174 31.1981 75.6074 30.5241 72.5881C29.8586 69.6018 28.9825 66.5413 28.6034 63.5137C28.5276 62.8785 29.5553 62.5238 29.766 63.192H29.7744Z" fill="#BE7064"/>
<path d="M12.9678 71.1197C15.7647 72.5964 18.3594 74.601 20.9878 76.3416C23.5825 78.0657 26.3793 79.7238 28.7044 81.7944C28.9319 81.9924 28.6455 82.4131 28.3675 82.2894C25.5706 80.9942 22.9759 79.1051 20.4065 77.4305C17.7528 75.6981 14.8549 74.0977 12.3866 72.1179C11.898 71.7219 12.3529 70.798 12.9678 71.1197Z" fill="#BE7064"/>
<path d="M6.36335 87.2886C9.54774 86.6616 12.7742 86.1502 15.9755 85.6305C17.5424 85.3747 19.1093 85.1025 20.6762 84.8633C22.1758 84.6323 23.7343 84.2611 25.2591 84.2941C25.5202 84.2941 25.6297 84.7065 25.3686 84.8055C24.0038 85.3252 22.479 85.4902 21.0469 85.7707C19.4126 86.0842 17.7699 86.3729 16.1355 86.6699C12.9427 87.2473 9.73307 87.8495 6.51498 88.328C5.83261 88.427 5.67256 87.4288 6.3465 87.2968L6.36335 87.2886Z" fill="#BE7064"/>
<path d="M13.667 102.533C14.2988 101.255 15.3687 100.1 16.2785 98.9945C17.2136 97.856 18.1992 96.7506 19.2102 95.6782C20.1705 94.6635 21.1899 93.6901 22.2261 92.7497C23.2791 91.8092 24.3574 90.7863 25.6463 90.1676C25.8485 90.0686 26.0844 90.2996 25.9496 90.4976C25.2335 91.537 24.2395 92.4032 23.3465 93.3024C22.3019 94.35 21.2994 95.439 20.2969 96.5196C19.3365 97.5591 18.4099 98.6232 17.5085 99.7122C16.5481 100.875 15.6972 102.203 14.6189 103.251C14.1808 103.68 13.4058 103.061 13.667 102.542V102.533Z" fill="#BE7064"/>
<path d="M29.6481 92.2796C30.6674 97.848 31.3498 103.474 32.0996 109.084C32.1922 109.76 31.1139 109.933 31.0297 109.257C30.2968 103.656 29.488 98.046 29.0163 92.4116C28.9826 92.0157 29.5723 91.8754 29.6481 92.2796Z" fill="#BE7064"/>
<path d="M33.144 92.3784C35.5955 94.251 38.0975 96.0494 40.6838 97.7405C41.9474 98.5654 43.2364 99.3574 44.5337 100.133C45.8647 100.933 47.3474 101.609 48.5605 102.566C48.8975 102.83 48.6363 103.375 48.2067 103.235C46.8083 102.773 45.5025 101.906 44.2388 101.172C42.8741 100.38 41.5346 99.5471 40.212 98.6892C37.5668 96.9733 34.9974 95.1502 32.5375 93.1868C32.0236 92.7826 32.6217 91.9659 33.144 92.3701V92.3784Z" fill="#BE7064"/>
<path d="M36.5391 89.5325C39.5213 89.2025 42.5288 89.0458 45.5194 88.823C48.3415 88.6168 51.349 88.1218 54.1796 88.3693C54.4913 88.3941 54.525 88.823 54.2217 88.9055C51.4333 89.6067 48.3415 89.582 45.4773 89.8212C42.5625 90.0687 39.6308 90.3657 36.7076 90.5059C36.0757 90.5389 35.882 89.6067 36.5391 89.5325Z" fill="#BE7064"/>
<path d="M2.93472 78.7919C4.45952 73.9 8.3684 63.2583 26.8429 59.4223C31.3499 58.4902 48.3586 58.1437 55.5277 76.0201C55.5277 76.0201 55.5361 76.0366 55.5445 76.0614C62.6799 93.9213 52.6971 108.152 41.8382 111.773C30.9708 115.395 17.5004 114.966 8.58743 104.959C3.50758 99.2504 1.8901 93.1376 1.72161 88.023C1.59525 84.1705 2.28604 80.8873 2.94314 78.7837L2.93472 78.7919ZM52.0569 80.9203C46.8422 66.0219 35.3767 63.9348 31.6279 63.8935C13.1534 63.679 6.41396 80.2768 7.07106 85.3915C7.71973 90.4978 7.50912 104.547 25.7646 108.16C43.4388 111.666 57.2799 95.8187 52.0653 80.9203H52.0569Z" fill="#404041"/>
<path d="M5.06583 82.7514C5.67238 78.4947 7.99748 74.304 10.7354 71.095C16.5482 64.2562 25.3431 61.5834 34.2308 62.3341C38.3166 62.6723 48.5774 66.5908 53.354 79.9301C58.139 93.2694 51.3237 103.482 42.2002 108.308C38.1312 110.461 33.4389 111.27 28.8476 110.931C22.7147 110.478 16.6745 108.019 12.1423 103.928C6.80124 99.1099 4.73728 91.438 4.92262 84.4838C4.93946 83.9063 4.99001 83.3288 5.06583 82.7514ZM52.0566 80.92C47.6002 68.1994 38.5946 64.8172 33.7253 64.0747C32.8913 63.951 32.1752 63.9015 31.6277 63.8932C13.1532 63.6788 6.41372 80.2766 7.07082 85.3912C7.71949 90.4976 7.50888 104.546 25.7644 108.16C26.809 108.366 27.8367 108.506 28.8561 108.58C45.0055 109.793 56.968 94.9357 52.065 80.92H52.0566Z" fill="#BE7064"/>
<path d="M32.3524 79.9219C34.3826 79.9219 38.5864 83.0402 37.8619 87.866C37.1374 92.6919 32.504 94.2511 28.7299 93.6819C24.9643 93.1127 21.9231 88.856 23.6585 84.0301C25.4445 79.0639 32.3524 79.9136 32.3524 79.9136V79.9219Z" fill="#FBE3C8"/>
<path d="M35.7051 83.6094C35.7051 83.6094 37.7522 87.7671 35.326 90.5883C32.8998 93.4096 28.1232 92.6672 26.6068 91.2566C25.0905 89.8459 23.4814 88.4105 24.4839 85.3912C25.697 81.7532 29.2605 81.382 29.2605 81.382C29.2605 81.382 31.156 87.1731 35.7051 83.6094Z" fill="#D5A596"/>
<path d="M31.7876 84.2777C33.582 85.0366 34.1885 87.4949 32.8575 88.9303C31.0968 90.8277 28.6622 89.8295 27.9377 87.6187C27.1711 85.2841 29.3445 83.2465 31.7876 84.2777Z" fill="#404041"/>
<path d="M29.1004 86.8349C29.1763 86.4389 29.3616 86.0347 29.7154 85.7955C29.8333 85.7295 29.9513 85.6635 30.0692 85.5975C30.3388 85.4902 30.6084 85.449 30.8948 85.4902C31.2739 85.4902 31.7372 85.812 31.9563 86.0924C32.1922 86.3977 32.3438 86.8679 32.2764 87.2473C32.2006 87.6433 32.0152 88.0475 31.6614 88.2868C31.5435 88.3528 31.4255 88.4188 31.3076 88.4848C31.038 88.592 30.7684 88.6332 30.482 88.592C30.1029 88.592 29.6396 88.2703 29.4206 87.9898C29.1847 87.6846 29.033 87.2144 29.1004 86.8349Z" fill="#2E2D30"/>
<path d="M7.12117 93.4015C8.83131 98.1614 11.6787 102.641 16.0846 105.413C19.7998 107.747 24.4079 109.042 28.8475 108.58C27.8365 108.506 26.8003 108.366 25.7557 108.16C7.50026 104.538 7.71931 90.4977 7.06221 85.3913C6.41354 80.2849 13.1446 63.6871 31.6191 63.8934C31.9897 63.8934 32.3604 63.9181 32.7311 63.9511C32.9501 63.9759 33.1776 64.0006 33.3966 64.0254C33.5903 64.0501 33.9526 63.9759 33.6493 63.9099C32.9332 63.7449 31.8718 63.4809 31.1894 63.4314C30.1953 63.3572 29.2013 63.3654 28.2156 63.4314C26.2359 63.5799 24.2815 64.0171 22.4281 64.7348C20.8275 65.3535 19.2775 66.1702 17.7863 67.0117C13.3552 69.4947 9.51368 73.2812 7.35705 77.8431C5.02352 82.7845 5.31837 88.3529 7.12959 93.4015H7.12117Z" fill="#9B534D"/>
<path d="M1.72132 88.0312C1.8898 93.1458 3.50728 99.2669 8.58714 104.967C17.5001 114.974 30.9705 115.394 41.8379 111.781C52.6968 108.168 62.688 93.9295 55.5442 76.0696C55.8728 77.0595 60.5061 93.5088 51.0709 103.268C41.3998 113.274 30.642 113.06 23.0348 110.932C15.4277 108.803 7.28136 105.611 3.04394 92.4199C2.52163 90.7948 2.08356 89.3346 1.7129 88.0395L1.72132 88.0312Z" fill="#2E2D30"/>
<path d="M112.872 92.6508C113.782 91.7186 114.885 90.9349 115.905 90.1182C116.84 89.3758 117.758 88.5756 118.761 87.9239C118.954 87.8001 119.182 88.0559 119.03 88.2291C118.154 89.2025 117.126 90.0605 116.157 90.9432C115.264 91.7598 114.38 92.626 113.394 93.3272C112.981 93.6242 112.535 92.989 112.872 92.6508Z" fill="#BE7064"/>
<path d="M112.156 85.0615C112.189 84.913 112.451 84.9212 112.467 85.078C112.796 87.4703 112.619 90.0689 112.451 92.4694C112.409 93.0469 111.541 92.9232 111.549 92.3622C111.583 89.9781 111.633 87.3961 112.156 85.0615Z" fill="#BE7064"/>
<path d="M107.944 86.2988C108.719 87.0577 109.106 88.2704 109.544 89.2356C110.05 90.3575 110.58 91.4876 111.002 92.6426C111.204 93.1953 110.395 93.5417 110.142 93.0055C109.578 91.8341 109.115 90.6132 108.643 89.4006C108.272 88.4519 107.725 87.4042 107.725 86.3813C107.725 86.2658 107.868 86.2245 107.944 86.2988Z" fill="#BE7064"/>
<path d="M104.01 89.4996C105.02 89.9615 105.939 90.6298 106.874 91.2237C107.893 91.8672 108.929 92.5106 109.89 93.2448C110.176 93.4675 109.932 94.0038 109.57 93.8223C108.567 93.3356 107.615 92.7581 106.663 92.1806C105.635 91.5537 104.515 90.9845 103.588 90.2338C103.226 89.945 103.546 89.2851 104.01 89.4996Z" fill="#BE7064"/>
<path d="M102.316 94.3256C103.605 94.3421 104.902 94.5318 106.183 94.6638C107.152 94.771 108.373 94.7133 109.207 95.2413C109.275 95.2825 109.283 95.3897 109.207 95.4227C108.281 95.8105 107.076 95.5465 106.099 95.4805C104.818 95.398 103.496 95.3568 102.223 95.1505C101.676 95.0598 101.777 94.3091 102.325 94.3173L102.316 94.3256Z" fill="#BE7064"/>
<path d="M103.504 99.9185C105.391 98.6564 107.388 97.5592 109.393 96.4868C109.662 96.3383 109.957 96.759 109.696 96.9405C107.834 98.2439 105.939 99.5308 103.951 100.653C103.521 100.892 103.091 100.191 103.504 99.9185Z" fill="#BE7064"/>
<path d="M107.977 103.367C108.154 102.327 108.584 101.337 108.963 100.364C109.334 99.4154 109.662 98.3842 110.26 97.551C110.353 97.419 110.589 97.4768 110.572 97.65C110.496 98.6812 110.084 99.7041 109.755 100.678C109.426 101.667 109.115 102.682 108.592 103.59C108.424 103.878 107.918 103.68 107.969 103.367H107.977Z" fill="#BE7064"/>
<path d="M111.937 97.9552C111.945 97.8397 112.114 97.7902 112.173 97.8975C112.661 98.8049 112.863 99.8526 113.099 100.834C113.36 101.94 113.63 103.053 113.798 104.175C113.883 104.744 113.049 104.843 112.914 104.307C112.628 103.21 112.425 102.08 112.232 100.966C112.063 99.9763 111.836 98.9534 111.928 97.947L111.937 97.9552Z" fill="#BE7064"/>
<path d="M113.664 97.7737C114.498 98.4832 115.214 99.3081 116.031 100.034C116.781 100.702 117.623 101.28 118.322 101.989C118.516 102.187 118.272 102.542 118.011 102.435C117.025 102.006 116.174 101.304 115.365 100.62C114.565 99.9351 113.714 99.1926 113.125 98.3264C112.897 97.9964 113.301 97.4767 113.655 97.782L113.664 97.7737Z" fill="#BE7064"/>
<path d="M114.472 96.2805C116.654 96.891 118.988 97.7324 120.976 98.8213C121.288 98.9946 121.001 99.3905 120.715 99.3245C118.533 98.8213 116.233 97.9139 114.228 96.9322C113.815 96.7342 114.034 96.1568 114.481 96.2805H114.472Z" fill="#BE7064"/>
<path d="M114.018 94.1769C116.587 93.946 119.35 94.0697 121.928 94.2677C122.24 94.2924 122.29 94.7956 121.962 94.8204C119.384 95.0184 116.621 95.1504 114.043 94.9194C113.63 94.8781 113.58 94.2264 114.018 94.1852V94.1769Z" fill="#BE7064"/>
<path d="M101.625 88.8643C103.007 85.9605 108.651 80.5654 116.621 83.4774C116.84 83.5599 122.635 86.3895 123.579 92.2053C124.523 98.0211 122.635 102.278 119.451 104.546C116.267 106.815 112.206 107.244 108.078 105.891C103.95 104.546 101.052 101.775 100.252 98.4418C99.4518 95.1091 100.252 91.7763 101.625 88.8643ZM116.806 102.707C118.356 101.907 119.855 100.116 120.496 98.5161C120.816 97.7159 120.951 96.8662 121.069 96.0083C121.397 93.4262 120.563 90.8524 118.786 88.8973C117.918 87.9486 116.873 87.1567 115.761 86.4885C114.843 85.9358 113.849 85.746 112.787 85.6305C112.678 85.614 112.568 85.6058 112.459 85.5975C110.892 85.482 109.308 85.7543 107.918 86.5132C105.458 87.8496 103.841 90.4234 103.116 93.0302C102.906 93.7892 102.746 94.5894 102.788 95.3813C102.889 97.4437 103.538 99.3905 104.944 100.95C105.669 101.758 106.368 102.377 107.362 102.872C108.457 103.424 109.654 103.771 110.875 103.903C112.602 104.076 114.295 103.787 115.862 103.136C116.182 103.004 116.494 102.855 116.797 102.699L116.806 102.707Z" fill="#BE7064"/>
<path d="M98.6348 93.3026C98.9297 90.539 99.8648 87.8992 101.836 85.7214C104.532 82.7433 108.576 81.0027 112.644 81.2089C114.22 81.2914 115.795 81.6379 117.295 82.2649C121.364 83.9725 123.933 87.7507 124.944 91.8672C124.978 92.0074 125.011 92.1559 125.045 92.2961C125.93 96.4951 124.708 100.933 121.869 104.225C119.628 106.832 115.761 108.061 112.316 108.061C110.673 108.061 109.03 107.863 107.447 107.426C105.324 106.84 103.31 105.825 101.752 104.283C99.8058 102.36 98.8033 99.7536 98.6011 97.0808C98.5085 95.8186 98.5085 94.54 98.6433 93.2943L98.6348 93.3026ZM122.661 92.9973C121.979 88.9304 118.946 85.6059 114.978 84.3107C110.85 82.9661 106.385 85.0944 104.439 86.8928C102.493 88.6911 99.393 94.639 101.684 99.8031C102.139 100.818 102.839 101.709 103.664 102.459C103.698 102.492 103.732 102.517 103.765 102.55C107.27 105.627 113.285 106.411 117.438 104.192C121.347 102.096 123.369 97.188 122.669 93.0056L122.661 92.9973Z" fill="#404041"/>
<path d="M108.365 95.3235C108.365 97.1632 109.89 98.6563 111.768 98.6563C113.647 98.6563 115.172 97.1632 115.172 95.3235C115.172 93.4839 113.647 91.9908 111.768 91.9908C109.89 91.9908 108.365 93.4839 108.365 95.3235Z" fill="#FBE3C8"/>
<path d="M114.195 95.8514C114.195 95.8514 113.689 97.7323 112.131 97.8395C110.572 97.9468 109.376 97.1301 109.123 96.0329C108.87 94.9358 109.519 93.7313 110.21 93.2694C110.901 92.8074 112.021 92.8817 112.021 92.8817C112.021 92.8817 111.204 93.9211 111.768 95.043C112.459 96.4289 113.58 96.2144 114.195 95.8597V95.8514Z" fill="#D5A596"/>
<path d="M101.769 95.8186C101.769 98.0129 102.274 100.29 104.524 102.204C106.764 104.117 112.316 105.743 115.871 103.144C114.296 103.796 112.611 104.084 110.884 103.911C109.662 103.787 108.458 103.433 107.371 102.88C106.377 102.385 105.686 101.766 104.953 100.958C103.546 99.3988 102.889 97.452 102.797 95.3896C102.763 94.5977 102.923 93.7975 103.125 93.0385C103.85 90.4317 105.467 87.8579 107.927 86.5215C109.317 85.7708 110.892 85.4903 112.468 85.6058L112.434 85.5316C112.148 85.5316 108.087 85.1026 105.046 87.8002C102.005 90.4977 101.786 93.616 101.786 95.8186H101.769Z" fill="#9B534D"/>
<path d="M110.631 94.0944C111.019 93.7562 111.524 93.6655 112.004 93.7562C112.282 93.7892 112.56 93.8799 112.796 94.0449C113.992 94.8534 113.428 96.726 112.072 96.9487C110.463 97.2127 109.393 95.1751 110.631 94.0944Z" fill="#404041"/>
<path d="M111.035 95.175C111.069 95.0018 111.153 94.8286 111.305 94.7213C111.356 94.6883 111.406 94.6636 111.457 94.6306C111.575 94.5811 111.693 94.5646 111.819 94.5811C111.987 94.5811 112.19 94.7213 112.282 94.8451C112.383 94.977 112.451 95.1833 112.417 95.3483C112.383 95.5215 112.299 95.6947 112.147 95.802C112.097 95.835 112.046 95.8597 111.996 95.8927C111.878 95.9422 111.76 95.9587 111.634 95.9422C111.465 95.9422 111.263 95.802 111.17 95.6782C111.069 95.5463 111.002 95.34 111.035 95.175Z" fill="#2E2D30"/>
<path d="M98.5928 97.0807C98.7866 99.7535 99.7891 102.36 101.744 104.282C103.302 105.825 105.324 106.84 107.438 107.425C109.022 107.854 110.665 108.061 112.308 108.061C115.753 108.061 119.62 106.831 121.861 104.225C124.7 100.925 125.921 96.4867 125.037 92.296C124.952 96.066 123.916 101.238 119.266 104.332C111.44 109.546 104.052 105.074 102.097 102.418C100.421 100.133 99.2162 98.0789 98.635 93.3024C98.5002 94.5481 98.5002 95.8185 98.5928 97.0889V97.0807Z" fill="#2E2D30"/>
<path d="M63.1432 38.3284C63.1685 38.7821 63.5644 38.9801 63.952 38.9554C64.331 38.9306 64.7101 38.6914 64.7354 38.2624C64.9629 34.4842 64.8281 30.6235 64.7944 26.8452C64.7775 25.0056 64.7607 23.166 64.7017 21.3264C64.6427 19.495 64.7523 17.4987 64.2974 15.7086C64.2384 15.4611 63.8424 15.4281 63.775 15.6921C63.7582 15.758 63.7413 15.8158 63.7245 15.8818C63.3117 17.5894 63.3875 19.4703 63.3201 21.2192C63.2443 23.1165 63.2022 25.0139 63.1769 26.9112C63.1179 30.6977 62.9579 34.5502 63.1516 38.3367L63.1432 38.3284Z" fill="#8E4F24"/>
<path d="M63.952 38.9554C64.331 38.9306 64.7101 38.6914 64.7354 38.2624C64.9629 34.4842 64.8281 30.6235 64.7944 26.8452C64.7775 25.0056 64.7607 23.166 64.7017 21.3264C64.6427 19.495 64.7523 17.4987 64.2974 15.7086C64.2384 15.4611 63.8424 15.4281 63.775 15.6921C63.7582 15.758 63.7413 15.8158 63.7245 15.8818C63.9772 20.7984 63.9688 33.5355 63.9604 38.9554H63.952Z" fill="#7A431F"/>
<path d="M44.1632 38.3284C44.1885 38.7821 44.5845 38.9801 44.972 38.9554C45.3511 38.9306 45.7302 38.6914 45.7554 38.2624C45.9829 34.4842 45.8481 30.6235 45.8144 26.8452C45.7976 25.0056 45.7807 23.166 45.7217 21.3264C45.6628 19.495 45.7723 17.4987 45.3174 15.7086C45.2584 15.4611 44.8625 15.4281 44.7951 15.6921C44.7782 15.758 44.7614 15.8158 44.7445 15.8818C44.3317 17.5894 44.4075 19.4703 44.3402 21.2192C44.2643 23.1165 44.2222 25.0139 44.1969 26.9112C44.138 30.6977 43.9779 34.5502 44.1717 38.3367L44.1632 38.3284Z" fill="#8E4F24"/>
<path d="M44.972 38.9554C45.3511 38.9306 45.7302 38.6914 45.7554 38.2624C45.9829 34.4842 45.8481 30.6235 45.8144 26.8452C45.7976 25.0056 45.7807 23.166 45.7217 21.3264C45.6628 19.495 45.7723 17.4987 45.3174 15.7086C45.2584 15.4611 44.8625 15.4281 44.7951 15.6921C44.7782 15.758 44.7614 15.8158 44.7445 15.8818C44.9972 20.7984 44.9888 33.5355 44.9804 38.9554H44.972Z" fill="#7A431F"/>
<path d="M52.8405 17.3914C51.7874 16.6407 51.0208 15.461 50.9534 14.1824C50.8692 12.6067 51.9391 11.0476 53.4554 10.5196C50.9029 9.62871 51.9306 5.89998 53.7756 4.91005C54.837 4.34085 56.0838 4.2336 57.2969 4.27485C57.6423 2.34449 59.3272 0.628615 61.2985 0.28214C62.5116 0.0676557 63.2866 0.488375 64.2386 1.20607C64.6261 1.4948 65.0978 1.96502 65.1568 2.45173C65.7718 2.03926 66.4963 1.4948 67.2039 1.25557C68.7371 0.744107 70.3462 1.05758 71.6604 1.94852C73.2104 3.00444 74.1034 5.51226 73.0588 7.18689C73.9012 7.09615 74.8616 7.41787 75.3081 8.17682C75.9146 9.20799 75.2407 10.6681 74.2382 11.2126C75.2744 11.5838 76.1589 12.582 76.4875 13.6049C76.9761 15.0981 76.4117 16.8634 75.1396 17.8204C73.8675 18.7773 71.9805 18.8598 70.6326 18.0101C71.2813 18.7196 71.2981 19.8662 70.8853 20.7324C70.4725 21.5986 69.6385 22.2173 68.7203 22.539C67.5998 22.935 66.3194 22.9102 65.2158 22.4648C63.9353 24.3704 61.3911 25.1541 59.2766 24.2137C57.1621 23.2732 55.9406 20.7242 56.564 18.5298C55.2582 18.5051 53.8935 18.1338 52.832 17.3914H52.8405Z" fill="#DC8B27"/>
<path d="M53.6069 15.4362C53.2194 14.9495 52.9329 14.3721 52.9077 13.7534C52.8655 13.0027 53.2278 12.2602 53.7669 11.724C54.3061 11.1878 55.0222 10.8413 55.7551 10.6268C54.4072 10.1484 52.8487 9.05946 53.6321 7.44257C53.9017 6.88162 54.4409 6.4609 55.0306 6.22166C55.6203 5.98243 56.2605 5.89994 56.9008 5.85869C57.0524 6.50214 57.1872 7.0961 57.3304 7.7313C57.6253 6.64238 58.0802 5.59471 58.6362 4.61303C59.6218 2.87241 61.4078 1.79174 63.3959 2.69917C64.0614 3.0044 64.6259 3.52411 64.9713 4.16756C65.7126 3.30963 66.7488 2.64142 67.8861 2.49293C69.0234 2.34445 70.2533 2.74042 70.9862 3.6066C71.7191 4.47279 71.8624 5.80919 71.2221 6.74138C70.9188 7.18684 70.6408 7.57457 70.3123 8.00353C71.0199 7.7808 71.7697 7.64881 72.5026 7.75605C73.6567 7.92929 74.9793 8.88622 74.3307 10.1401C73.7325 11.3115 72.5026 10.7258 71.4411 10.8331C72.4184 11.1466 73.3282 11.5838 73.9937 12.351C74.6592 13.1264 74.9625 14.2648 74.516 15.1723C74.1622 15.9065 73.3787 16.3849 72.5616 16.5334C71.7444 16.6819 70.902 16.5499 70.1101 16.3024C70.5566 15.7497 70.6408 14.834 70.346 14.1906C69.6046 15.9395 67.8524 17.1769 65.9401 17.4491C66.395 17.8121 67.0858 17.9853 67.6755 17.9771C68.2652 17.9688 68.8464 17.7626 69.3014 17.3914C69.9753 18.373 69.79 19.7837 68.9391 20.6251C68.0883 21.4666 66.6224 21.615 65.6115 20.9633C65.0218 21.5655 64.2131 21.7635 63.3622 21.7635C62.5114 21.7635 61.6689 21.4253 61.0708 20.8314C61.1888 21.3841 61.4836 21.9533 61.9554 22.275C62.4271 22.5967 63.0253 22.7452 63.5981 22.671C62.3682 23.4712 60.6159 23.4959 59.4533 22.605C58.2908 21.714 57.8106 20.0642 58.3161 18.703C58.9732 18.5628 59.5123 18.1338 59.9841 17.6553C57.6337 18.8432 55.0306 17.2511 53.6069 15.4445V15.4362Z" fill="#FFCA07"/>
<path d="M60.6665 9.24111C60.5317 8.6389 60.1274 8.10269 59.5798 7.79746C60.5991 7.68197 61.8122 8.28418 62.1408 9.23286C62.6631 8.96063 63.7582 8.91938 64.0699 9.52984C64.8028 8.64715 66.2855 8.19343 67.3217 8.81214C67.9957 9.21636 68.2989 10.0908 68.2315 10.858C68.1473 10.4538 67.8272 10.1155 67.4481 9.94231C67.069 9.76907 66.6309 9.73607 66.2097 9.78557C65.0219 9.90931 63.9267 10.6518 63.3791 11.6912C63.1685 11.056 62.6631 10.4538 61.9891 10.363C61.3152 10.264 60.5991 10.5775 60.22 11.122C60.5907 10.627 60.8097 9.84331 60.6749 9.24111H60.6665Z" fill="#DC8B27"/>
<path d="M63.455 15.9064C63.4803 15.7744 63.5561 15.6424 63.6741 15.5599C63.792 15.4774 63.9436 15.4362 64.0869 15.4609C64.1627 15.4692 64.2216 15.4939 64.2806 15.5352C64.348 15.5682 64.3986 15.6094 64.4407 15.6754C64.5165 15.7909 64.567 15.9394 64.5418 16.0796C64.5165 16.2116 64.4407 16.3436 64.3227 16.4261C64.2048 16.5086 64.0532 16.5499 63.9099 16.5251C63.8341 16.5169 63.7752 16.4921 63.7162 16.4509C63.6488 16.4179 63.5982 16.3766 63.5561 16.3106C63.4803 16.1951 63.4298 16.0466 63.455 15.9064Z" fill="#F38AA4"/>
<path d="M59.0408 15.0073C59.3525 14.8011 59.6221 15.3208 59.3104 15.5188C58.9987 15.725 58.7291 15.2053 59.0408 15.0073Z" fill="#F38AA4"/>
<path d="M66.9342 19.7839C66.9258 19.7261 66.9342 19.6684 66.9511 19.6106C66.9595 19.5529 66.9848 19.5034 67.0269 19.4539C67.0775 19.3879 67.1364 19.3384 67.2122 19.3054C67.2207 19.3054 67.2375 19.2972 67.2459 19.2889C67.3133 19.2559 67.3723 19.2477 67.4481 19.2559C67.4902 19.2559 67.5324 19.2559 67.5745 19.2724C67.5998 19.2724 67.625 19.2807 67.6419 19.2972C67.7093 19.3302 67.7767 19.3714 67.8272 19.4291C67.8272 19.4291 67.8356 19.4374 67.8441 19.4456C67.8441 19.4456 67.8946 19.5199 67.9115 19.5529C67.9536 19.6684 67.962 19.8004 67.9115 19.9076C67.8946 19.9406 67.8693 19.9736 67.8525 20.0148C67.802 20.0808 67.7346 20.1303 67.6587 20.1633C67.6335 20.1798 67.6082 20.1881 67.5829 20.1881C67.5576 20.1963 67.5324 20.2046 67.5071 20.2046C67.465 20.2046 67.4229 20.2046 67.3807 20.2046C67.3133 20.2046 67.2544 20.1798 67.2038 20.1386C67.1617 20.1221 67.128 20.0973 67.1027 20.0643C67.0859 20.0478 67.069 20.0313 67.0522 20.0148C67.0522 20.0148 67.0438 20.0066 67.0353 19.9984C66.9848 19.9324 66.9511 19.8581 66.9427 19.7756L66.9342 19.7839Z" fill="#F38AA4"/>
<path d="M63.4887 18.8022C63.8257 18.5795 64.0953 19.1322 63.7667 19.3549C63.4297 19.5776 63.1602 19.0249 63.4887 18.8022Z" fill="#F8F2A4"/>
<path d="M59.3354 20.6663C59.7482 20.3941 60.2621 20.9798 59.8409 21.2603C59.4281 21.5325 58.9142 20.9468 59.3354 20.6663Z" fill="#F38AA4"/>
<path d="M61.4162 13.5142C61.8121 13.2502 62.2923 13.8112 61.8964 14.0669C61.5004 14.3309 61.0202 13.77 61.4162 13.5142Z" fill="#F8F2A4"/>
<path d="M65.0472 12.5574C65.0472 12.5079 65.0472 12.4501 65.0808 12.4089C65.0977 12.3841 65.123 12.3594 65.1398 12.3429C65.1819 12.3099 65.2156 12.2934 65.2662 12.2769C65.3589 12.2521 65.4684 12.3016 65.5189 12.3759C65.5442 12.4089 65.561 12.4501 65.561 12.4996C65.561 12.5491 65.561 12.6069 65.5273 12.6481C65.4936 12.6894 65.4684 12.7224 65.4262 12.7471C65.401 12.7553 65.3673 12.7718 65.342 12.7718C65.2493 12.7966 65.1398 12.7471 65.0893 12.6729C65.064 12.6399 65.0472 12.5986 65.0472 12.5574Z" fill="#F8F2A4"/>
<path d="M67.3469 14.5206C67.3469 14.4381 67.3975 14.3639 67.4649 14.3144C67.5323 14.2649 67.6249 14.2484 67.7092 14.2732C67.7345 14.2732 67.7513 14.2896 67.7766 14.3061C67.8271 14.3309 67.8693 14.3639 67.8945 14.4134C67.9114 14.4546 67.9282 14.5041 67.9282 14.5454C67.9282 14.6196 67.8861 14.6691 67.844 14.7269C67.7597 14.8176 67.5913 14.8341 67.4902 14.7599C67.4143 14.7021 67.3554 14.6196 67.3638 14.5206H67.3469Z" fill="#F8F2A4"/>
<path d="M67.9788 6.65883C68.4337 6.3536 68.9812 7.01356 68.5179 7.31053C68.063 7.61576 67.5154 6.95581 67.9788 6.65883Z" fill="#F38AA4"/>
<path d="M58.3165 12.8956C58.3333 12.7966 58.3754 12.7059 58.4512 12.6399C58.5018 12.6069 58.5523 12.5821 58.6029 12.5656C58.6113 12.5656 58.6281 12.5656 58.6366 12.5574C58.6366 12.5574 58.6197 12.5574 58.6113 12.5574C58.645 12.5574 58.6787 12.5491 58.7124 12.5491H58.645C58.645 12.5491 58.6955 12.5491 58.7292 12.5491C58.7292 12.5491 58.7292 12.5491 58.7377 12.5491C58.7377 12.5491 58.7377 12.5491 58.7292 12.5491C58.7461 12.5491 58.7545 12.5491 58.7714 12.5491C58.8556 12.5656 58.9314 12.6069 58.9904 12.6729C59.0746 12.7636 59.0999 12.8874 59.0746 13.0028C59.0578 13.0853 59.0157 13.1513 58.9483 13.2091C58.8725 13.2751 58.7629 13.2998 58.6618 13.2998C58.5692 13.2998 58.4597 13.2338 58.4007 13.1678C58.3417 13.0936 58.2996 12.9781 58.308 12.8874L58.3165 12.8956Z" fill="#F8F2A4"/>
<path d="M55.2412 16.4263C55.2412 16.3603 55.2496 16.3025 55.2833 16.2448C55.3254 16.1705 55.376 16.121 55.4518 16.0798C55.4687 16.0715 55.4855 16.0633 55.5024 16.055C55.6035 16.0138 55.6961 16.0138 55.7972 16.055C55.8899 16.1045 55.9573 16.1788 55.9741 16.286C55.9741 16.3108 55.9741 16.3273 55.9741 16.352C55.9741 16.418 55.9741 16.4758 55.9573 16.5418C55.9404 16.5995 55.8983 16.6572 55.8478 16.6985C55.7298 16.7975 55.5698 16.8057 55.435 16.7397C55.317 16.682 55.2412 16.5665 55.2328 16.4345L55.2412 16.4263Z" fill="#F8F2A4"/>
<path d="M63.3285 7.36013C63.2948 7.27763 63.2864 7.18689 63.3032 7.10439C63.3032 7.04665 63.3116 6.9889 63.3369 6.93941C63.3622 6.85691 63.4043 6.78267 63.4633 6.72492C63.5054 6.69192 63.5475 6.65068 63.5981 6.61768C63.6486 6.59293 63.7076 6.56818 63.7581 6.54343C63.8424 6.51044 63.935 6.50219 64.0193 6.51869C64.1035 6.51869 64.1878 6.54343 64.2636 6.58468C64.2636 6.58468 64.272 6.58468 64.2804 6.58468C64.3141 6.60118 64.3984 6.65893 64.4321 6.68367C64.4826 6.72492 64.5247 6.77442 64.5584 6.83216C64.6848 7.03015 64.7101 7.30238 64.5921 7.50036C64.4995 7.6571 64.3647 7.7726 64.1962 7.83034C64.1119 7.86334 64.0193 7.87159 63.9266 7.85509C63.8339 7.85509 63.7497 7.83034 63.6739 7.78909C63.5644 7.73135 63.4801 7.6571 63.4127 7.55811C63.3706 7.49212 63.3453 7.42612 63.3285 7.36013Z" fill="#F8F2A4"/>
<path d="M54.6094 18.7605C53.6911 18.5377 52.8234 18.0758 52.1747 17.3993C50.8521 16.0299 50.414 13.9511 51.3491 12.2599C51.7198 11.5835 52.2758 11.0225 52.9413 10.6348C52.5538 10.4368 52.2168 10.1316 52.0231 9.81812C51.4418 8.88594 51.5513 7.72277 52.0399 6.78234C52.9582 5.00872 55.2075 3.37534 57.3136 3.98579C57.3725 3.63107 57.4736 3.27635 57.6168 2.93812C57.9201 2.22867 58.4171 1.59347 59.0321 1.12325C60.3295 0.125075 62.1238 0.0178328 63.5897 0.719032C64.1878 0.999511 65.0134 1.52747 65.3082 2.19567C65.7463 1.72546 66.395 1.37898 66.9257 1.1645C67.785 0.818025 68.7538 0.735531 69.6636 0.917018C71.4327 1.27999 72.9069 2.5999 73.3787 4.31577C73.5051 4.79424 73.5725 5.2892 73.5472 5.78416C73.5303 6.15539 73.4966 6.60085 73.3619 6.97208C73.7325 6.93908 74.1285 6.99683 74.4402 7.08757C75.0467 7.26081 75.5774 7.67328 75.8386 8.24249C76.1082 8.81169 75.9818 9.45515 75.687 9.99136C75.4679 10.3873 75.131 10.874 74.7182 11.1628C75.3163 11.4763 75.847 12.0702 76.1587 12.5322C76.7232 13.3736 76.9422 14.4048 76.7569 15.3947C76.3946 17.3663 74.5581 18.8925 72.4941 18.777C71.9213 18.744 71.3737 18.612 70.8851 18.3727C71.0873 18.975 71.0704 19.7009 70.9609 20.2454C70.7924 21.1445 70.3123 21.9695 69.5878 22.5552C68.8717 23.1327 67.9029 23.4214 66.9762 23.3966C66.496 23.3801 66.0243 23.2976 65.5778 23.1327C65.3925 23.0667 65.1903 22.9842 64.9965 22.8687C64.6595 23.6194 63.7581 24.1968 63.0421 24.5186C62.1828 24.9063 61.214 25.03 60.2873 24.865C58.4677 24.5516 56.9345 23.1904 56.5048 21.425C56.2942 20.5753 56.3279 19.7257 56.5891 18.909C56.3616 18.9337 56.1426 18.9255 56.0078 18.9337C55.536 18.942 55.0643 18.8925 54.6009 18.7852L54.6094 18.7605ZM57.3473 18.5707C57.3304 18.6202 57.2967 18.6615 57.2462 18.7027C56.5217 20.6166 57.3388 22.8357 59.1922 23.7926C60.0936 24.2546 61.1466 24.4031 62.1323 24.1391C62.6377 24.0071 63.1095 23.7844 63.5307 23.4956C63.9351 23.2151 64.2299 22.8522 64.5753 22.5222C64.5079 22.4562 64.4489 22.382 64.4068 22.2995C64.2973 22.1097 64.5416 21.9365 64.7185 21.9942C65.0808 22.1097 65.3925 22.382 65.7631 22.5222C66.1422 22.6624 66.5382 22.7367 66.9425 22.7449C67.7344 22.7614 68.5263 22.5469 69.1581 22.0685C69.7899 21.59 70.2027 20.8558 70.3712 20.1051C70.4555 19.7421 70.4807 19.3627 70.447 18.9915C70.4133 18.612 70.2786 18.2573 70.2027 17.886C69.9921 17.7045 69.7984 17.4901 69.6383 17.2508C69.5541 17.1271 69.7478 16.9704 69.8658 17.0528C71.1715 18.0345 73.0249 18.5047 74.4907 17.5808C75.9565 16.6569 76.5631 14.7513 75.7965 13.2086C75.5775 12.7632 75.2657 12.3754 74.8951 12.0455C74.5076 11.699 73.9937 11.5092 73.623 11.1545C73.5472 11.0803 73.5977 10.94 73.6988 10.9235C73.8252 10.8988 73.96 10.8988 74.0863 10.9235C74.2464 10.7173 74.4739 10.5771 74.6592 10.3791C74.8361 10.1893 74.9962 9.98311 75.131 9.76038C75.3837 9.32316 75.5185 8.80344 75.2573 8.34148C75.0046 7.89601 74.5328 7.64028 74.0358 7.54129C73.6062 7.45054 73.1597 7.52479 72.7385 7.40105C72.6289 7.36805 72.6289 7.24431 72.6963 7.17831C72.6879 7.14532 72.6879 7.10407 72.6963 7.05457C72.7637 6.55961 72.9322 6.11414 72.9322 5.60268C72.9322 5.10771 72.848 4.621 72.6795 4.15903C72.3341 3.2186 71.6433 2.43491 70.7503 1.95644C69.8489 1.46973 68.779 1.29649 67.7681 1.53572C67.2542 1.65946 66.7572 1.85745 66.3191 2.13793C65.8811 2.41841 65.5357 2.81438 65.106 3.09486C64.9797 3.17735 64.8365 3.01237 64.8702 2.88862C64.9039 2.78138 64.946 2.68239 65.0049 2.59165C64.7101 2.33591 64.4742 2.01419 64.1709 1.76671C63.834 1.49448 63.4633 1.28824 63.0589 1.1315C62.2165 0.801526 61.2477 0.752029 60.3884 1.05726C59.5628 1.34599 58.8636 1.95644 58.4171 2.69064C58.1981 3.06186 58.0296 3.45783 57.937 3.87855C57.8864 4.10129 57.8611 4.32402 57.8527 4.54675C57.8527 4.75299 57.8864 4.96747 57.8359 5.16546C57.7769 5.41294 57.4652 5.44594 57.3473 5.2232C57.2462 5.02522 57.2209 4.78599 57.2377 4.54675C56.429 4.38177 55.6708 4.42301 54.9042 4.76949C54.0281 5.16546 53.2783 5.87491 52.756 6.6751C52.2842 7.4093 52.0147 8.31673 52.3264 9.16642C52.4696 9.54589 52.7223 9.87587 53.0845 10.0821C53.312 10.2141 53.5479 10.2636 53.7922 10.2966C53.7922 10.2966 53.809 10.2966 53.8175 10.2966C53.9523 10.3131 54.0955 10.3213 54.2387 10.3213C54.424 10.2718 54.542 10.5688 54.3482 10.6761C54.2218 10.7503 54.087 10.7998 53.9523 10.8245C53.927 10.841 53.9017 10.8575 53.868 10.8658C52.1242 11.4433 51.1133 13.3159 51.5345 15.0565C51.9641 16.8466 53.5395 18.0758 55.376 18.2903C55.8814 18.348 56.3785 18.3233 56.8839 18.2655C57.044 18.249 57.3051 18.1913 57.4062 18.3645C57.4905 18.5047 57.3725 18.48 57.3388 18.5707H57.3473Z" fill="#F8F2A4"/>
<path d="M68.6276 12.417C68.6276 12.417 68.6276 12.3675 68.6276 12.3427C68.6276 12.219 68.6781 12.1117 68.7961 12.054C68.9056 12.0045 69.0404 12.0128 69.133 12.0953C69.1583 12.1117 69.1752 12.1365 69.2004 12.153C69.3773 12.318 69.3352 12.6067 69.1162 12.7057C69.0151 12.747 68.914 12.7552 68.8129 12.7057C68.7118 12.648 68.6276 12.5407 68.6276 12.417Z" fill="#F38AA4"/>
<path d="M72.2245 14.2074C72.2582 14.0754 72.3256 13.9351 72.4435 13.8609C72.5614 13.7784 72.7131 13.7371 72.8647 13.7619C72.9405 13.7701 72.9995 13.7949 73.0585 13.8361C73.1259 13.8691 73.1764 13.9186 73.2185 13.9764C73.3028 14.0919 73.3449 14.2404 73.3196 14.3888C73.2859 14.5208 73.2185 14.6611 73.1006 14.7353C72.9826 14.8178 72.831 14.8591 72.6794 14.8343C72.6036 14.8261 72.5446 14.8013 72.4856 14.7601C72.4182 14.7271 72.3677 14.6776 72.3256 14.6198C72.2413 14.5043 72.1992 14.3559 72.2245 14.2074Z" fill="#F38AA4"/>
<path d="M71.8289 9.07602C71.8457 8.98528 71.8794 8.87803 71.9637 8.82029C72.0058 8.78729 72.0479 8.76254 72.0984 8.75429C72.149 8.73779 72.1995 8.72954 72.2501 8.73779C72.3427 8.74604 72.4523 8.79554 72.5112 8.86979C72.5702 8.95228 72.6123 9.05127 72.6039 9.15026C72.5871 9.24101 72.5534 9.34825 72.4691 9.406C72.427 9.43899 72.3849 9.46374 72.3343 9.47199C72.2838 9.48849 72.2332 9.49674 72.1827 9.48849C72.09 9.48024 71.9805 9.43074 71.9215 9.3565C71.8626 9.27401 71.8204 9.17501 71.8289 9.07602Z" fill="#F8F2A4"/>
<path d="M70.7082 10.1897C70.9694 10.0165 71.1969 10.4455 70.9357 10.6187C70.6745 10.7919 70.4471 10.363 70.7082 10.1897Z" fill="#F8F2A4"/>
<path d="M34.5679 10.0908C34.1214 8.90289 34.1635 7.51699 34.8291 6.44457C35.6462 5.10817 37.4069 4.40697 38.9485 4.80294C37.3648 2.69109 40.3048 0.191525 42.3772 0.381261C43.5651 0.488503 44.6518 1.07421 45.6206 1.76716C46.9937 0.373012 49.3441 -0.121952 51.1554 0.653491C52.2674 1.13196 52.6633 1.89915 53.0424 2.99632C53.194 3.44179 53.3204 4.08524 53.0929 4.51421C53.8343 4.51421 54.7273 4.45646 55.4433 4.6462C56.985 5.05867 58.1307 6.18884 58.7035 7.63248C59.3859 9.33186 58.7035 11.8809 56.9007 12.6811C57.6421 13.0606 58.2486 13.8443 58.1812 14.7022C58.097 15.8736 56.7238 16.7068 55.5865 16.6161C56.2268 17.4823 56.3869 18.7774 56.0836 19.8003C55.6371 21.2852 54.1797 22.4319 52.6043 22.5309C51.0206 22.6299 49.4284 21.673 48.805 20.2458C48.9313 21.178 48.2995 22.1267 47.4739 22.6134C46.6484 23.1001 45.6122 23.1579 44.6771 22.9269C43.5314 22.6464 42.5036 21.9287 41.8465 20.9718C39.7236 21.8379 37.1963 21.112 35.9916 19.1899C34.7869 17.2678 35.225 14.5207 36.9773 13.0606C35.9242 12.3346 35.006 11.287 34.5595 10.1073L34.5679 10.0908Z" fill="#E74F6D"/>
<path d="M36.3032 8.90279C36.2611 8.29233 36.3538 7.66538 36.6739 7.14567C37.0698 6.51046 37.7775 6.08974 38.5188 5.94125C39.2686 5.79277 40.0436 5.89176 40.7681 6.11449C39.9257 4.99257 39.277 3.2602 40.8271 2.35277C41.3662 2.03929 42.0402 1.98979 42.6551 2.10528C43.2701 2.22902 43.8514 2.50126 44.3905 2.81473C44.1547 3.41694 43.9272 3.9779 43.6829 4.58835C44.5422 3.85416 45.5026 3.2437 46.5135 2.74049C48.3079 1.8413 50.3802 1.9238 51.5007 3.74691C51.8798 4.35737 52.0398 5.09157 51.964 5.80102C53.0592 5.50404 54.2891 5.51229 55.3 6.00725C56.3194 6.50221 57.1028 7.49214 57.2123 8.59756C57.3219 9.70298 56.69 10.8826 55.637 11.2951C55.1315 11.4931 54.6935 11.6663 54.1796 11.8396C54.8872 12.0376 55.5696 12.3345 56.1088 12.8213C56.9596 13.5884 57.5072 15.0816 56.2604 15.7663C55.1063 16.4015 54.4323 15.2548 53.4972 14.7681C54.1206 15.5601 54.6177 16.4015 54.7272 17.3914C54.8367 18.3896 54.4407 19.4785 53.5646 19.99C52.857 20.3942 51.9472 20.3695 51.1974 20.0477C50.4476 19.7343 49.8327 19.165 49.3188 18.5298C50.0011 18.3154 50.5824 17.6142 50.7088 16.9212C49.1082 17.9606 46.9768 18.0266 45.2583 17.2099C45.4267 17.7544 45.8985 18.2659 46.3787 18.5876C46.8673 18.9011 47.4654 19.0413 48.0383 18.9836C48.0383 20.155 47.0863 21.2109 45.9154 21.4336C44.7444 21.6646 43.4555 20.9882 43.0005 19.9075C42.1834 20.0807 41.3999 19.8002 40.7007 19.3465C40.0015 18.8928 39.5045 18.1504 39.3528 17.3419C39.1338 17.8616 39.058 18.4886 39.2601 19.0083C39.4623 19.528 39.8751 19.9735 40.389 20.221C38.9316 20.2127 37.4826 19.2805 37.0277 17.9194C36.5812 16.5582 37.1204 14.9414 38.2998 14.0999C38.9232 14.3391 39.6055 14.2814 40.2542 14.1412C37.6595 13.8442 36.4212 11.1301 36.2695 8.86979L36.3032 8.90279Z" fill="#F16F89"/>
<path d="M45.5871 7.64069C45.8145 7.07148 45.7893 6.41153 45.5113 5.86707C46.4127 6.32903 47.0698 7.4757 46.8002 8.43263C47.3815 8.49037 48.2997 9.05133 48.2155 9.71954C49.3106 9.38956 50.7849 9.82678 51.2819 10.891C51.6105 11.5839 51.3577 12.4666 50.8691 13.0605C51.0292 12.6811 50.9534 12.2356 50.7428 11.8809C50.5237 11.5262 50.1868 11.2704 49.8161 11.0807C48.7715 10.5445 47.4573 10.5527 46.4211 11.1137C46.6064 10.4785 46.5306 9.71129 46.0336 9.27407C45.5365 8.8286 44.7784 8.69661 44.155 8.93584C44.7447 8.72961 45.3596 8.20165 45.5871 7.64069Z" fill="#E74F6D"/>
<path d="M50.3132 14.5536C50.3132 14.5536 50.3384 14.5124 50.3553 14.4959C50.4227 14.3969 50.5322 14.3391 50.6586 14.3556C50.7765 14.3721 50.886 14.4546 50.9113 14.5701C50.9113 14.5949 50.9281 14.6279 50.9281 14.6526C50.9871 14.8836 50.7849 15.0898 50.549 15.0568C50.4395 15.0403 50.3553 14.9826 50.3047 14.8919C50.2458 14.7929 50.2458 14.6526 50.3132 14.5536Z" fill="#F38AA4"/>
<path d="M44.1045 14.6114C44.2055 14.5207 44.3319 14.4464 44.4751 14.4464C44.6183 14.4464 44.7615 14.4959 44.8711 14.5949C44.9216 14.6444 44.9637 14.6939 44.989 14.7599C45.0227 14.8176 45.0396 14.8836 45.0396 14.9579C45.0396 15.0981 44.9974 15.2466 44.8879 15.3456C44.7868 15.4363 44.6605 15.5106 44.5172 15.5106C44.374 15.5106 44.2308 15.4611 44.1213 15.3621C44.0708 15.3126 44.0286 15.2631 44.0034 15.1971C43.9697 15.1394 43.9528 15.0734 43.9528 14.9991C43.9528 14.8589 43.9949 14.7104 44.1045 14.6114Z" fill="#F38AA4"/>
<path d="M40.9958 11.4932C41.3665 11.4932 41.2906 12.0624 40.92 12.0624C40.5493 12.0624 40.6251 11.4932 40.9958 11.4932Z" fill="#F38AA4"/>
<path d="M52.2508 17.9688C52.3519 17.8698 52.4867 17.8038 52.6299 17.8038C52.7731 17.8038 52.9248 17.8533 53.0258 17.9523C53.0764 18.0018 53.1185 18.0595 53.1438 18.1255C53.1775 18.1832 53.1943 18.2575 53.1943 18.3235C53.1943 18.4637 53.1522 18.6122 53.0427 18.7112C52.9416 18.8102 52.8068 18.8762 52.6636 18.8762C52.5204 18.8762 52.3688 18.8267 52.2677 18.7277C52.2171 18.6782 52.175 18.6205 52.1497 18.5545C52.116 18.4967 52.0992 18.4225 52.0992 18.3565C52.0992 18.2162 52.1413 18.0678 52.2508 17.9688Z" fill="#F38AA4"/>
<path d="M54.8285 13.5473C54.8875 13.4813 54.9801 13.4153 55.0812 13.4153C55.1318 13.4153 55.1823 13.4153 55.2329 13.4318C55.2834 13.4401 55.3255 13.4648 55.3677 13.4978C55.4351 13.5556 55.494 13.6546 55.5024 13.7453C55.5024 13.8443 55.4856 13.9516 55.4182 14.0258C55.3592 14.0918 55.2666 14.1578 55.1655 14.1578C55.1149 14.1578 55.0644 14.1578 55.0138 14.1413C54.9633 14.133 54.9212 14.1083 54.879 14.0753C54.8117 14.0176 54.7527 13.9186 54.7443 13.8278C54.7443 13.7288 54.7611 13.6216 54.8285 13.5473Z" fill="#F8F2A4"/>
<path d="M53.2785 13.8608C53.5902 13.8608 53.5396 14.3311 53.2279 14.3311C52.9162 14.3311 52.9668 13.8608 53.2785 13.8608Z" fill="#F8F2A4"/>
<path d="M44.77 19.6766C44.7953 19.6189 44.829 19.5777 44.8795 19.5447C44.9216 19.5034 44.9722 19.4704 45.0227 19.4539C45.0985 19.4292 45.1828 19.4209 45.2586 19.4374C45.267 19.4374 45.2839 19.4374 45.2923 19.4374C45.3681 19.4457 45.4187 19.4787 45.4776 19.5199C45.5113 19.5364 45.545 19.5694 45.5703 19.6024C45.5871 19.6189 45.604 19.6354 45.6124 19.6601C45.6545 19.7261 45.6798 19.7921 45.6882 19.8664C45.6882 19.8664 45.6882 19.8829 45.6882 19.8911C45.6882 19.9324 45.6882 19.9736 45.6882 20.0149C45.6545 20.1304 45.5956 20.2459 45.4861 20.3119C45.4524 20.3284 45.4102 20.3449 45.3765 20.3613C45.2923 20.3861 45.2165 20.3943 45.1322 20.3778C45.107 20.3778 45.0817 20.3778 45.0564 20.3531C45.0311 20.3531 45.0059 20.3366 44.9806 20.3284C44.9469 20.3036 44.9132 20.2789 44.8795 20.2624C44.829 20.2211 44.7953 20.1716 44.77 20.1139C44.7447 20.0809 44.7363 20.0396 44.7279 19.9984C44.7279 19.9736 44.7194 19.9489 44.711 19.9324C44.711 19.9324 44.711 19.9159 44.711 19.9076C44.711 19.8251 44.7194 19.7509 44.7531 19.6766H44.77Z" fill="#F38AA4"/>
<path d="M42.5035 17.0037C42.8995 17.0037 42.8152 17.6059 42.4193 17.6059C42.0234 17.6059 42.1076 17.0037 42.5035 17.0037Z" fill="#F8F2A4"/>
<path d="M38.0475 16.2861C38.5446 16.2861 38.6288 17.0451 38.1318 17.0451C37.6347 17.0451 37.5505 16.2861 38.0475 16.2861Z" fill="#F38AA4"/>
<path d="M43.7844 11.551C44.2561 11.551 44.3404 12.2687 43.8686 12.2687C43.3968 12.2687 43.3126 11.551 43.7844 11.551Z" fill="#F8F2A4"/>
<path d="M47.3056 12.7306C47.3056 12.7306 47.373 12.6399 47.4151 12.6234C47.4404 12.6234 47.4741 12.5986 47.4993 12.5986C47.5499 12.5986 47.592 12.5986 47.6426 12.6151C47.7352 12.6399 47.7942 12.7471 47.7942 12.8296C47.7942 12.8709 47.7942 12.9121 47.7605 12.9534C47.7352 12.9946 47.6931 13.0441 47.651 13.0606C47.6089 13.0771 47.5583 13.0936 47.5078 13.0853C47.4825 13.0853 47.4488 13.0688 47.4235 13.0606C47.3309 13.0359 47.2719 12.9369 47.2719 12.8461C47.2719 12.8049 47.2719 12.7636 47.3056 12.7224V12.7306Z" fill="#F8F2A4"/>
<path d="M48.0806 15.585C48.1312 15.519 48.207 15.486 48.2912 15.4777C48.3755 15.4777 48.4597 15.5107 48.5102 15.5767C48.5271 15.5932 48.5355 15.618 48.5439 15.6345C48.5692 15.684 48.5861 15.7335 48.5776 15.783C48.5776 15.8242 48.5524 15.8737 48.5271 15.9067C48.485 15.9644 48.426 15.9892 48.3586 16.0057C48.2407 16.0387 48.089 15.9562 48.0469 15.8407C48.0132 15.75 48.0132 15.651 48.0806 15.5767V15.585Z" fill="#F8F2A4"/>
<path d="M53.0343 9.48853C53.5819 9.48853 53.6577 10.3217 53.1101 10.3217C52.5625 10.3217 52.4867 9.48853 53.0343 9.48853Z" fill="#F38AA4"/>
<path d="M41.5938 9.36484C41.6612 9.29059 41.7455 9.2411 41.8466 9.23285C41.9055 9.23285 41.9645 9.23285 42.015 9.2576C42.0235 9.2576 42.0403 9.2576 42.0487 9.26585C42.0487 9.26585 42.0319 9.26585 42.0235 9.26585C42.0572 9.2741 42.0824 9.2906 42.1161 9.31534C42.0993 9.30709 42.074 9.2906 42.0572 9.28235C42.0824 9.2906 42.1077 9.30709 42.1246 9.32359C42.133 9.33184 42.1498 9.34009 42.1583 9.34834C42.2172 9.40609 42.2593 9.48033 42.2678 9.57107C42.2846 9.68657 42.2341 9.81031 42.1498 9.88455C42.0909 9.9423 42.015 9.9753 41.9308 9.98354C41.8297 10 41.7286 9.9588 41.6444 9.90105C41.5686 9.84331 41.518 9.74431 41.5096 9.65357C41.5012 9.56283 41.5349 9.44733 41.5938 9.37309V9.36484Z" fill="#F8F2A4"/>
<path d="M37.0787 10.5939C37.1124 10.5362 37.1546 10.5032 37.2135 10.4702C37.2894 10.429 37.3567 10.4207 37.4494 10.429C37.4663 10.429 37.4831 10.429 37.5084 10.429C37.6095 10.4537 37.6937 10.495 37.7443 10.5857C37.7948 10.6764 37.8032 10.7754 37.7611 10.8744C37.7527 10.8909 37.7443 10.9157 37.7274 10.9322C37.6937 10.9899 37.66 11.0394 37.6095 11.0724C37.5589 11.1054 37.4915 11.1302 37.4326 11.1384C37.2809 11.1549 37.1377 11.0807 37.0703 10.9487C37.0029 10.8332 37.0114 10.7012 37.0787 10.5857V10.5939Z" fill="#F8F2A4"/>
<path d="M48.8222 7.54162C48.8474 7.45912 48.8896 7.37663 48.9485 7.31888C48.9822 7.26939 49.0159 7.23639 49.0665 7.20339C49.1339 7.14565 49.2097 7.11265 49.2939 7.09615C49.3529 7.09615 49.4034 7.07965 49.4624 7.07965C49.5214 7.0879 49.5803 7.09615 49.6393 7.1044C49.7236 7.12915 49.8078 7.17039 49.8668 7.22814C49.9342 7.27764 49.9931 7.33538 50.0353 7.41788C50.0353 7.41788 50.0353 7.42613 50.0353 7.43437C50.0521 7.46737 50.0858 7.55812 50.1027 7.59936C50.1195 7.65711 50.1279 7.7231 50.1279 7.7891C50.1279 8.02008 49.9931 8.25107 49.7741 8.35831C49.614 8.43255 49.4371 8.46555 49.2602 8.4078C49.1676 8.38306 49.0917 8.34181 49.0243 8.28406C48.9485 8.23457 48.898 8.16857 48.8559 8.09433C48.7969 7.99533 48.7716 7.87984 48.7716 7.76435C48.7716 7.69011 48.7885 7.62411 48.8137 7.55812L48.8222 7.54162Z" fill="#F8F2A4"/>
<path d="M35.242 12.1696C34.6102 11.4849 34.1637 10.6435 34.0121 9.73607C33.7004 7.89645 34.5091 5.94959 36.2361 5.07516C36.9185 4.72043 37.6935 4.55545 38.4601 4.60494C38.2495 4.23372 38.1484 3.80475 38.1653 3.43353C38.2158 2.36111 38.9656 1.46192 39.8922 0.950458C41.6445 -0.00647208 44.4077 -0.130213 45.7893 1.51142C46.0336 1.24744 46.32 1.01645 46.6317 0.818468C47.2804 0.397749 48.047 0.150267 48.822 0.0925208C50.4479 -0.0229709 51.9811 0.859715 52.7899 2.22912C53.1184 2.78183 53.4975 3.66451 53.3711 4.36571C53.9945 4.21722 54.7274 4.28322 55.2835 4.39046C56.1849 4.57195 57.0273 5.03391 57.6675 5.66912C58.9143 6.92302 59.3777 8.80389 58.7964 10.462C58.6363 10.924 58.4089 11.3612 58.114 11.7572C57.8866 12.0542 57.617 12.4006 57.2884 12.6316C57.6086 12.8048 57.9034 13.0606 58.114 13.3081C58.51 13.7783 58.7121 14.4052 58.6111 15.0074C58.51 15.6179 58.0466 16.0799 57.5075 16.3603C57.1115 16.5666 56.5555 16.7811 56.0501 16.7976C56.3618 17.3833 56.4629 18.1505 56.4544 18.6949C56.4376 19.6931 56.0416 20.65 55.334 21.3677C53.9187 22.7866 51.5599 23.0424 49.9256 21.8379C49.4707 21.4997 49.1 21.0955 48.8389 20.6418C48.662 21.244 48.2407 21.8297 47.8448 22.2257C47.1961 22.8691 46.3453 23.2898 45.4186 23.3723C44.5003 23.4548 43.5484 23.1743 42.7986 22.6546C42.4111 22.3824 42.0741 22.0607 41.7961 21.6812C41.6866 21.5245 41.5687 21.343 41.4676 21.1532C40.76 21.5905 39.6985 21.574 38.9319 21.4502C38.0136 21.3017 37.1459 20.881 36.472 20.2458C35.1578 19.0084 34.6692 17.0615 35.3094 15.3787C35.6127 14.5702 36.1182 13.8855 36.8005 13.3576C36.6068 13.2503 36.4214 13.1348 36.3119 13.0606C35.916 12.8131 35.5622 12.5161 35.242 12.1779V12.1696ZM37.5924 13.4978C37.5503 13.5308 37.4913 13.5473 37.4324 13.5473C35.7559 14.7187 35.1746 16.9873 36.1603 18.7692C36.632 19.6354 37.4155 20.3283 38.3759 20.65C38.8645 20.815 39.3699 20.8893 39.8922 20.881C40.3809 20.8728 40.8273 20.7243 41.2991 20.65C41.2823 20.5593 41.2823 20.4685 41.2907 20.3778C41.3075 20.1633 41.6024 20.1551 41.7119 20.2953C41.9478 20.5923 42.0489 20.98 42.2763 21.2935C42.5038 21.607 42.7902 21.8874 43.1188 22.1184C43.759 22.5639 44.5256 22.8114 45.3175 22.7619C46.101 22.7124 46.8591 22.3329 47.4236 21.8132C47.6932 21.5575 47.929 21.2687 48.1144 20.947C48.2997 20.617 48.3924 20.2541 48.5356 19.9076C48.4682 19.6436 48.4261 19.3714 48.4345 19.0826C48.4345 18.9342 48.6788 18.9094 48.7293 19.0414C49.2432 20.551 50.4984 21.9369 52.2254 21.9782C53.9524 22.0112 55.5193 20.782 55.7636 19.0991C55.831 18.6207 55.8058 18.1257 55.6794 17.6555C55.553 17.1605 55.2413 16.7316 55.1402 16.2366C55.115 16.1376 55.2329 16.0469 55.334 16.0881C55.4519 16.1376 55.5615 16.2118 55.6625 16.2943C55.9069 16.2201 56.1849 16.2201 56.4376 16.1624C56.6903 16.1046 56.943 16.0221 57.1705 15.9066C57.6254 15.6839 58.0298 15.3374 58.0719 14.8095C58.114 14.3062 57.8697 13.8443 57.5243 13.4895C57.2295 13.1843 56.8167 13.0028 56.5471 12.6729C56.4797 12.5904 56.5471 12.4831 56.6398 12.4666C56.6566 12.4336 56.6735 12.4006 56.7072 12.3594C57.0441 11.9882 57.4316 11.7159 57.7181 11.2952C57.9961 10.891 58.1983 10.4455 58.3246 9.9753C58.5774 9.01837 58.4426 8.0037 57.9877 7.12926C57.5159 6.23832 56.7409 5.52063 55.7805 5.17415C55.2919 4.99266 54.7696 4.89367 54.2557 4.88542C53.7334 4.88542 53.2363 5.01741 52.7225 5.00916C52.5708 5.00916 52.5456 4.79468 52.6466 4.72043C52.7309 4.65444 52.8236 4.59669 52.9247 4.5472C52.8236 4.17597 52.8151 3.78825 52.7056 3.41703C52.5877 3.01281 52.3939 2.64159 52.158 2.29511C51.6526 1.56916 50.886 0.999955 50.0098 0.78547C49.1674 0.579235 48.2492 0.694727 47.4741 1.0577C47.0866 1.23919 46.7244 1.47842 46.4127 1.7754C46.2526 1.93214 46.101 2.09713 45.9746 2.27861C45.8567 2.4436 45.7724 2.64159 45.6124 2.78183C45.4186 2.94681 45.149 2.81482 45.1827 2.55909C45.208 2.34461 45.3343 2.13012 45.4776 1.94039C44.9047 1.37118 44.2645 0.991705 43.4389 0.859715C42.4954 0.702976 41.476 0.884463 40.6083 1.25569C39.808 1.60216 39.0751 2.20437 38.8476 3.0623C38.7465 3.45003 38.7718 3.8625 38.9487 4.22547C39.0582 4.45645 39.2267 4.62969 39.4121 4.78643C39.4121 4.78643 39.4205 4.79468 39.4289 4.80293C39.5384 4.89367 39.6479 4.96792 39.7575 5.05866C39.9428 5.12466 39.867 5.42163 39.6479 5.41338C39.5047 5.41338 39.3699 5.37214 39.2436 5.32264C39.2099 5.32264 39.1846 5.32264 39.1509 5.31439C37.3902 4.84418 35.5116 5.8341 34.8714 7.49223C34.2143 9.19161 34.8124 11.056 36.194 12.2191C36.5731 12.5409 36.9943 12.7883 37.4408 13.0111C37.584 13.0853 37.8283 13.1761 37.8114 13.3741C37.7946 13.5308 37.7188 13.4483 37.643 13.506L37.5924 13.4978Z" fill="#F38AA4"/>
<path d="M109.721 68.1666C113.141 68.1666 114.708 65.7742 114.708 63.5469C114.708 63.1179 114.666 62.6725 114.573 62.2105C116.418 61.5918 117.606 60.4039 117.606 59.117C117.606 56.8814 114.632 55.248 113.369 55.248C112.695 55.248 112.383 55.7017 112.383 56.1142C112.383 56.5927 112.72 56.8319 112.922 56.9804L112.981 57.0216C113.411 57.3351 113.992 57.7641 113.992 58.7457C113.992 59.1252 113.891 59.4222 113.672 59.6532C112.164 56.7824 109.359 54.5633 107.126 54.5633C105.425 54.5633 104.051 56.1884 104.051 57.5248C104.051 58.6385 104.835 59.9007 106.141 60.8988C107.438 61.8888 109.098 62.491 110.875 62.623C110.926 62.9529 110.951 63.2747 110.951 63.5964C110.951 65.436 110.243 65.8155 109.182 65.8155C108.398 65.8155 107.446 65.3123 106.773 64.5533C106.604 61.7155 104.329 59.9749 102.232 59.9749C100.412 59.9749 99.1317 61.2041 99.0896 62.9694C98.9632 62.4662 98.8031 61.9218 98.6262 61.3608C98.8453 61.2123 98.9885 60.9648 98.9885 60.6596C98.9885 60.2059 98.5504 59.5212 97.9439 59.4139C97.6322 58.622 97.3626 58.028 97.1183 57.5991C96.9077 57.1784 96.5033 56.9144 96.04 56.9144C95.2481 56.9144 94.0434 57.8053 94.0434 58.5808C94.0434 58.7705 94.1108 58.9767 94.2793 59.3974H94.1866C94.0181 59.3974 93.8665 59.4387 93.7401 59.5212C93.6475 59.4717 93.5464 59.4304 93.4369 59.4139C93.1252 58.622 92.8556 58.028 92.6113 57.5991C92.4007 57.1784 91.9963 56.9144 91.533 56.9144C90.7411 56.9144 89.5364 57.8053 89.5364 58.5808C89.5364 58.7705 89.6038 58.9767 89.7723 59.3974H89.6796C89.1994 59.3974 88.8456 59.7604 88.8456 60.2306C88.8456 60.7009 89.3848 61.4928 90.0503 61.4928H90.5895C90.9433 62.4497 91.5414 64.1903 91.5414 65.238C91.5414 65.3618 91.4319 65.3948 91.3645 65.3948C91.1791 65.3948 90.7832 65.1143 90.3873 64.5946C90.2441 61.732 87.9526 59.9667 85.8466 59.9667C83.9932 59.9667 82.7043 61.2371 82.7043 63.0602C82.7043 63.1839 82.7043 63.3159 82.7211 63.4479C82.4937 62.6642 82.1904 61.798 81.8029 60.8658C81.6091 60.4039 81.1879 60.1234 80.6993 60.1234C80.2107 60.1234 79.7979 60.3296 79.402 60.7421C78.8375 60.3956 77.9446 59.9667 76.9337 59.9667C75.8638 59.9667 74.8191 60.9978 74.8191 62.0538C74.8191 62.6395 75.0466 63.2499 75.2741 63.8439C75.4425 64.2976 75.6195 64.7596 75.6784 65.1803C75.6447 65.1473 75.6195 65.1225 75.5942 65.0895C75.4931 64.974 75.1982 64.6276 74.7181 64.6276C74.1452 64.6276 73.6482 65.1143 73.6482 65.6752C73.6482 66.0135 73.8588 66.3187 73.9851 66.4672C74.1368 66.6487 75.1645 67.8613 76.504 67.8613C78.0625 67.8613 79.2335 66.8632 79.2335 65.535C79.2335 64.6936 78.9639 63.9511 78.7196 63.2994C78.6606 63.1344 78.6017 62.9694 78.5511 62.8209C79.1324 63.4067 79.8653 64.7678 79.8653 66.8549C79.8653 67.3416 80.1433 67.8696 80.9352 67.8696C81.8787 67.8696 82.6369 67.5231 82.9907 66.9869C83.4878 67.1766 84.0101 67.2674 84.5661 67.2674C84.7093 67.2674 84.8609 67.2674 85.021 67.2426C85.6444 67.6551 86.3604 67.8613 87.1018 67.8613C88.0369 67.8613 88.9383 67.4736 89.5617 66.8384C90.1682 67.3911 90.9685 67.8613 91.9121 67.8613C92.6534 67.8613 93.5548 67.5479 94.1951 66.9456C94.9111 67.5479 95.6693 67.8613 96.4275 67.8613C97.2531 67.8613 98.264 67.4736 98.8958 66.7477C99.4265 67.0281 100.117 67.2591 100.977 67.2591C101.12 67.2591 101.271 67.2591 101.432 67.2344C102.055 67.6468 102.771 67.8531 103.512 67.8531C104.473 67.8531 105.399 67.4489 106.014 66.7889C107.076 67.6716 108.398 68.1583 109.746 68.1583L109.721 68.1666ZM95.0796 61.4928C95.4334 62.4497 96.0316 64.1903 96.0316 65.238C96.0316 65.3618 95.922 65.3948 95.8546 65.3948C95.6777 65.3948 95.2986 65.139 94.9111 64.6358C94.81 63.8274 94.5236 62.6642 94.1192 61.3938C94.254 61.4598 94.3972 61.501 94.5489 61.501H95.088L95.0796 61.4928ZM102.291 62.227C102.628 62.4662 103.302 63.4067 103.403 64.908C103.175 64.6523 102.872 64.4626 102.586 64.3718C102.367 63.6954 102.274 62.9777 102.274 62.5075C102.274 62.3837 102.282 62.293 102.299 62.227H102.291ZM85.8887 62.227C86.2257 62.4662 86.8996 63.4067 87.0007 64.908C86.7732 64.6523 86.47 64.4626 86.1835 64.3718C85.9645 63.6954 85.8718 62.9777 85.8718 62.5075C85.8718 62.3837 85.8803 62.293 85.8971 62.227H85.8887ZM106.992 57.0464C107.809 57.1041 109.098 58.3168 109.982 60.0656C108.617 59.6284 107.042 58.5808 106.992 57.0464Z" fill="#097E98"/>
<path d="M80.5815 82.842C81.8283 82.842 82.8477 81.9593 82.8477 80.8704C82.8477 79.9217 81.862 79.138 80.8342 78.5853C81.3397 78.5523 81.8452 78.3131 82.2243 77.9584C82.7803 78.3708 83.37 78.5853 83.9512 78.5853C84.7937 78.5853 85.4592 78.1893 85.8804 77.7109C86.4027 78.1316 87.1525 78.5853 87.9612 78.5853C88.5678 78.5853 89.149 78.3213 89.5702 77.8924C90.1515 78.3461 90.7665 78.5853 91.3899 78.5853C92.7883 78.5853 93.8498 77.7026 93.8498 76.5312C93.8498 75.9868 93.715 75.4918 93.5634 75.0381C93.8751 75.6238 94.1362 76.4817 94.1362 77.6284C94.1362 78.0738 94.3974 78.5853 95.1471 78.5853C95.7705 78.5853 96.3013 78.4121 96.6551 78.1233C97.1353 78.4286 97.6407 78.5853 98.1378 78.5853C98.837 78.5853 99.4183 78.3378 99.8058 77.9171C100.252 78.2553 100.859 78.5853 101.55 78.5853C102.139 78.5853 102.678 78.3461 103.066 77.9501C103.9 78.5358 104.877 78.8493 105.888 78.8493C108.011 78.8493 110.151 77.4881 110.151 74.8896C110.151 74.5596 110.117 74.2131 110.058 73.8502C111.583 73.3139 112.569 72.2993 112.569 71.1939C112.569 69.1892 109.974 67.8528 108.921 67.8528C108.306 67.8528 107.977 68.2736 107.977 68.6943C107.977 69.148 108.297 69.3872 108.474 69.511L108.525 69.544C108.879 69.808 109.317 70.1297 109.317 70.8804C109.317 71.0949 109.275 71.2681 109.182 71.4166C107.893 69.0738 105.576 67.2836 103.715 67.2836C102.232 67.2836 101.036 68.6943 101.036 69.8657C101.036 71.5568 103.184 73.9161 106.731 74.2131C106.764 74.4524 106.781 74.6833 106.781 74.9143C106.781 76.5065 106.116 76.6467 105.433 76.6467C104.835 76.6467 104.102 76.2672 103.563 75.6815C103.176 73.5779 101.449 71.7796 99.7637 71.7796C98.8033 71.7796 98.222 72.1508 97.9187 72.4395C97.11 72.5467 96.5708 73.0582 96.5708 73.7429C96.5708 74.0151 96.6804 74.3286 96.891 74.8978C97.0173 75.2361 97.169 75.6568 97.2701 76.0197C97.1774 75.9373 97.0847 75.83 96.9836 75.698C96.7983 74.8071 96.4613 73.7677 95.9811 72.6045C95.7958 72.1755 95.4083 71.9115 94.9534 71.9115C94.5574 71.9115 94.1952 72.0683 93.8582 72.39C93.378 72.1013 92.6451 71.7713 91.828 71.7713C90.8592 71.7713 89.9493 72.6705 89.9493 73.6274C89.9493 74.1389 90.1431 74.6586 90.3369 75.1618C90.4548 75.4835 90.5812 75.8135 90.6486 76.1187C90.5222 76.0198 90.379 75.863 90.2189 75.665C89.9241 73.4624 87.8938 71.7796 86.2679 71.7796C86.1247 71.7796 85.9815 71.7878 85.8636 71.8126C85.3497 70.3029 84.1871 67.6631 82.3506 67.6631C81.3902 67.6631 80.4467 68.6283 80.4467 69.61C80.4467 70.1792 80.8342 71.0619 81.3481 71.9775C81.1712 71.8538 80.9522 71.7796 80.7247 71.7796C80.0171 71.7796 78.9303 72.5632 78.9303 73.2397C78.9303 73.6687 79.1157 74.1719 79.3347 74.7493C79.4695 75.1206 79.6211 75.5165 79.7138 75.896C79.6801 75.8465 79.6464 75.797 79.6127 75.7475C79.2336 75.0711 78.9303 74.0069 78.6945 73.1572C78.6355 72.9345 78.5765 72.7282 78.5176 72.5468C78.3912 72.093 77.9616 71.7878 77.4477 71.7878C76.6221 71.7878 75.6701 72.6705 75.6701 73.2479C75.6701 73.5284 75.7797 73.9409 76.0324 74.8566C76.1925 75.4505 76.4031 76.2012 76.5715 76.9519C76.5968 77.0509 76.6558 77.2819 76.7232 77.5376C76.6558 77.5376 76.5884 77.5376 76.521 77.5376C75.7038 77.5376 75.3332 78.0161 75.3332 78.4616C75.3332 78.9318 75.7881 79.6412 76.4283 79.6412C76.5715 79.6412 76.6895 79.6165 76.7906 79.5917C76.8917 79.567 76.9928 79.5505 77.1528 79.5505C77.1865 79.5505 77.2202 79.5505 77.2539 79.5505C77.633 80.8374 78.4249 82.8585 80.6068 82.8585L80.5815 82.842ZM83.4963 75.2856C83.5132 75.4093 83.5216 75.5495 83.5216 75.6898C83.5216 76.0115 83.4711 76.2012 83.4289 76.2837C83.3026 76.2342 83.033 76.0362 82.7466 75.6485C82.5781 74.8071 82.2411 73.7677 81.9547 73.0252C82.536 73.9409 83.1425 74.7906 83.4963 75.2773V75.2856ZM86.3943 74.3286C86.7397 74.7823 87.1019 75.533 87.1188 76.16C86.9334 76.028 86.706 75.8135 86.4954 75.5908C86.4785 75.1618 86.4448 74.7411 86.3943 74.3286ZM99.73 74.2049C99.9995 74.5349 100.32 75.1206 100.463 75.6898C100.168 75.2691 99.8563 74.6833 99.73 74.2049ZM103.748 69.61C104.355 69.7667 105.231 70.6329 105.888 71.8291C104.616 71.3671 103.875 70.3112 103.748 69.61Z" fill="#097E98"/>
<path d="M73.8335 64.7345C73.9852 64.7345 74.0947 64.8665 74.1789 64.9655C74.1789 64.9655 74.6591 65.5017 74.9877 65.5017C75.3162 65.5017 75.5184 65.2542 75.5184 64.883C75.5184 63.7116 74.6423 62.4494 74.6423 61.476C74.6423 60.8408 75.3246 60.0819 76.0491 60.0819C77.456 60.0819 78.6522 61.1213 78.6522 61.1213C79.1661 60.3458 79.5621 60.2469 79.8148 60.2469C80.017 60.2469 80.177 60.3623 80.2613 60.5521C80.5477 61.245 81.1543 62.7712 81.4491 64.2561C81.7187 64.553 82.4095 65.213 83.2856 65.213C83.3867 65.213 83.4709 65.1965 83.5468 65.18C82.8981 64.3716 82.519 63.3486 82.519 62.4824C82.519 60.9893 83.5805 60.0819 84.9536 60.0819C86.6638 60.0819 88.7698 61.5585 88.7951 64.2478C89.0478 64.6025 89.7555 65.5017 90.4715 65.5017C90.9517 65.5017 91.3477 65.147 91.3477 64.6603C91.3477 63.4889 90.7327 61.674 90.1851 60.2304H89.1574C88.9383 60.2304 88.6603 59.8261 88.6603 59.6611C88.6603 59.5622 88.7109 59.5127 88.7951 59.5127H89.9071C89.6123 58.7207 89.3595 58.1515 89.3595 58.003C89.3595 57.7143 90.1514 57.0296 90.6569 57.0296C90.8591 57.0296 91.0191 57.1616 91.1034 57.3348C91.3982 57.8545 91.7352 58.63 92.0637 59.5127H92.3923C92.6282 59.5127 92.8893 59.9169 92.8893 60.0819C92.8893 60.1809 92.8388 60.2304 92.7545 60.2304H92.308C92.8219 61.7317 93.26 63.3486 93.3527 64.3221C93.6391 64.7098 94.3046 65.51 94.9785 65.51C95.4587 65.51 95.8547 65.1552 95.8547 64.6685C95.8547 63.4971 95.2397 61.6823 94.6921 60.2386H93.6644C93.4453 60.2386 93.1673 59.8344 93.1673 59.6694C93.1673 59.5704 93.2179 59.5209 93.3021 59.5209H94.4141C94.1193 58.729 93.8665 58.1598 93.8665 58.0113C93.8665 57.7225 94.6584 57.0378 95.1639 57.0378C95.3661 57.0378 95.5261 57.1698 95.6104 57.3431C95.9052 57.8628 96.2422 58.6382 96.5707 59.5209H96.8993C97.1352 59.5209 97.3963 59.9251 97.3963 60.0901C97.3963 60.1891 97.3458 60.2386 97.2615 60.2386H96.815C97.3205 61.7152 97.7501 63.3074 97.8512 64.2891C98.1377 64.5943 98.8116 65.2295 99.6625 65.2295C99.7636 65.2295 99.8478 65.213 99.9236 65.1965C99.2749 64.388 98.8959 63.3651 98.8959 62.4989C98.8959 61.0058 99.9573 60.0984 101.33 60.0984C103.041 60.0984 105.138 61.5668 105.172 64.2478C105.93 65.1965 107.152 65.9472 108.281 65.9472C109.873 65.9472 110.749 65.1057 110.749 63.0434C110.749 62.5072 110.681 61.9545 110.547 61.4018C106.452 61.3193 103.849 58.6712 103.849 56.9718C103.849 56.0479 104.877 54.695 106.217 54.695C108.356 54.695 111.204 57.1616 112.467 60.0984C113.495 59.6776 113.79 58.8939 113.79 58.1845C113.79 56.8563 112.964 56.2541 112.493 55.9077C112.29 55.7592 112.181 55.6932 112.181 55.5529C112.181 55.454 112.248 55.3715 112.459 55.3715C113.386 55.3715 115.989 56.7326 115.989 58.5557C115.989 59.5952 114.793 60.7006 112.821 61.1708C112.99 61.773 113.082 62.3917 113.082 62.9857C113.082 65.6997 110.858 66.9124 108.803 66.9124C107.118 66.9124 105.787 66.0792 104.961 65.1635C104.565 66.0132 103.613 66.6071 102.569 66.6071C101.853 66.6071 101.213 66.3597 100.682 65.9554C100.446 65.9884 100.235 66.0049 100.033 66.0049C98.9717 66.0049 98.2135 65.5925 97.7417 65.213C97.4132 66.0544 96.3601 66.6071 95.4924 66.6071C94.5152 66.6071 93.6896 65.8977 93.1842 65.3285C92.8135 66.1039 91.811 66.6071 90.9854 66.6071C89.9324 66.6071 89.0563 65.7822 88.5592 65.1882C88.1633 66.0214 87.2113 66.6071 86.1752 66.6071C85.4591 66.6071 84.8188 66.3597 84.2881 65.9554C84.0522 65.9884 83.8416 66.0049 83.6394 66.0049C82.7212 66.0049 82.0304 65.6915 81.5586 65.3615C81.5586 65.477 81.5671 65.5925 81.5671 65.708C81.5671 66.2277 80.8847 66.5989 80.0086 66.5989C79.7727 66.5989 79.6463 66.5494 79.6463 66.2772C79.6463 63.1589 78.0878 61.2285 77.0937 61.2285C76.9084 61.2285 76.7652 61.344 76.7652 61.4843C76.7652 62.4577 77.6076 63.6291 77.6076 64.9573C77.6076 65.8647 76.7652 66.5989 75.5858 66.5989C74.5243 66.5989 73.6145 65.4605 73.6145 65.4605C73.6145 65.4605 73.4292 65.246 73.4292 65.1057C73.4292 64.9243 73.6145 64.751 73.7914 64.751L73.8335 64.7345ZM106.073 55.7757C105.661 55.7757 105.425 56.0314 105.425 56.3944C105.425 57.937 107.261 60.3046 110.286 60.4036C109.409 57.937 107.514 55.7757 106.073 55.7757ZM101.213 64.4623C101.263 64.4458 101.33 64.4293 101.398 64.4293C101.659 64.4293 102.223 64.8665 102.223 65.2212C102.223 65.3697 102.122 65.4935 101.945 65.609C102.114 65.741 102.274 65.807 102.459 65.807C102.956 65.807 103.251 65.3532 103.251 64.7015C103.251 62.5072 102.089 60.8986 101.347 60.8986C100.968 60.8986 100.699 61.1873 100.699 61.9215C100.699 62.6557 100.884 63.6456 101.213 64.454V64.4623ZM84.8104 64.4623C84.861 64.4458 84.9284 64.4293 84.9957 64.4293C85.2569 64.4293 85.8213 64.8665 85.8213 65.2212C85.8213 65.3697 85.7202 65.4935 85.5433 65.609C85.7118 65.741 85.8719 65.807 86.0572 65.807C86.5542 65.807 86.8491 65.3532 86.8491 64.7015C86.8491 62.5072 85.6865 60.8986 84.9452 60.8986C84.5661 60.8986 84.2965 61.1873 84.2965 61.9215C84.2965 62.6557 84.4819 63.6456 84.8104 64.454V64.4623Z" fill="white"/>
<path d="M75.4763 77.2984C75.8049 77.2984 76.1924 77.3561 76.622 77.4469C76.5546 77.1746 76.2766 76.1105 76.2177 75.8795C75.847 74.2296 75.3331 72.7035 75.3331 72.324C75.3331 72.1178 76.0071 71.5568 76.4114 71.5568C76.5883 71.5568 76.7568 71.6476 76.7989 71.8125C77.0769 72.7282 77.4308 74.2296 77.9615 75.1618C78.1974 75.5825 78.7365 76.1187 79.1746 76.1187C79.3852 76.1187 79.4947 75.929 79.4947 75.7145C79.4947 74.5266 78.6017 73.0252 78.6017 72.324C78.6017 72.1178 79.2757 71.5568 79.6885 71.5568C79.857 71.5568 79.9918 71.6641 80.0591 71.8125C80.3287 72.423 80.8679 73.9409 81.0616 75.0051C81.2554 75.2855 81.8451 76.0692 82.4601 76.0692C82.974 76.0692 83.2014 75.5165 83.2014 74.7741C83.2014 74.5596 83.1846 74.3286 83.1424 74.0976C83.1424 74.0976 80.1097 70.0059 80.1097 68.6943C80.1097 68.0756 80.7415 67.4404 81.3144 67.4404C82.5864 67.4404 83.7321 69.5605 84.364 71.7795C84.364 71.7795 84.6925 71.5651 85.2317 71.5651C86.4448 71.5651 88.3234 72.9675 88.5003 75.0133C88.6941 75.2938 89.3006 76.0775 89.9156 76.0775C90.1936 76.0775 90.3536 75.8712 90.3536 75.566C90.3536 74.5926 89.6207 73.5367 89.6207 72.7282C89.6207 72.2003 90.1852 71.5651 90.7917 71.5651C91.9627 71.5651 92.9568 72.4312 92.9568 72.4312C93.3864 71.7795 93.7149 71.7053 93.9256 71.7053C94.094 71.7053 94.2288 71.796 94.2962 71.961C94.5321 72.5467 95.0544 73.8336 95.2903 75.0793C95.5177 75.3928 96.0822 76.0857 96.655 76.0857C96.8909 76.0857 97.0425 75.9207 97.0425 75.7063C97.0425 74.7906 96.2422 73.2479 96.2422 72.8437C96.2422 72.3735 96.8067 72.2085 97.2195 72.2085C97.2195 72.2085 97.607 71.5733 98.7274 71.5733C100.117 71.5733 101.617 73.3057 101.861 75.0876C102.493 75.8465 103.479 76.4405 104.397 76.4405C105.72 76.4405 106.452 75.7393 106.452 74.0234C106.452 73.5779 106.394 73.1159 106.284 72.6622C102.872 72.5962 100.707 70.3936 100.707 68.9747C100.707 68.2076 101.566 67.0856 102.678 67.0856C104.456 67.0856 106.832 69.1397 107.885 71.5898C108.744 71.2351 108.988 70.5916 108.988 69.9977C108.988 68.8922 108.297 68.389 107.91 68.1086C107.741 67.9848 107.649 67.9353 107.649 67.8116C107.649 67.7291 107.708 67.6631 107.885 67.6631C108.66 67.6631 110.825 68.8015 110.825 70.3112C110.825 71.1773 109.831 72.093 108.188 72.489C108.323 72.9922 108.407 73.5037 108.407 74.0069C108.407 76.2672 106.554 77.2819 104.843 77.2819C103.563 77.2819 102.527 76.7044 101.836 76.0197C101.667 76.6219 101.128 77.0262 100.513 77.0262C99.4603 77.0262 98.5505 75.8795 98.5505 75.8795C98.4578 76.6384 97.8597 77.0262 97.1015 77.0262C96.4191 77.0262 95.821 76.6137 95.3998 76.193C95.3998 76.226 95.3998 76.2507 95.3998 76.2837C95.3998 76.7127 94.8354 77.0262 94.1025 77.0262C93.9087 77.0262 93.7992 76.9849 93.7992 76.7539C93.7992 74.1554 92.5018 72.5467 91.6763 72.5467C91.5246 72.5467 91.3983 72.6375 91.3983 72.7612C91.3983 73.5697 92.1059 74.5431 92.1059 75.6568C92.1059 76.4157 91.3983 77.0179 90.3536 77.0179C89.5281 77.0179 88.8288 76.4075 88.4076 75.9207C88.1802 76.5889 87.5568 77.0179 86.9334 77.0179C85.7877 77.0179 84.6672 75.6898 84.6672 75.6898C84.6083 76.16 83.9512 77.0179 82.915 77.0179C82.1484 77.0179 81.4913 76.49 81.0616 76.028C80.8763 76.5972 80.2192 77.0179 79.68 77.0179C78.964 77.0179 78.2311 76.5064 77.793 76.0032C77.852 76.3002 78.0794 77.2736 78.2058 77.7356C79.7222 78.3296 81.1038 79.2123 81.1038 79.9959C81.1038 80.7136 80.3877 81.2828 79.5453 81.2828C77.8436 81.2828 77.2117 79.699 76.7568 78.0656C76.7568 78.0656 76.4114 77.9748 76.0913 77.9748C75.6869 77.9748 75.5269 78.0656 75.3584 78.0656C75.1899 78.0656 74.9709 77.7439 74.9709 77.5789C74.9709 77.4139 75.232 77.3479 75.451 77.3479L75.4763 77.2984ZM81.0701 68.2405C80.9437 68.2405 80.8763 68.3313 80.8763 68.4715C80.8763 69.6512 83.075 73.0912 83.075 73.0912C82.5949 70.7236 81.5418 68.2405 81.0701 68.2405ZM102.544 67.9766C102.198 67.9766 102.004 68.1911 102.004 68.488C102.004 69.7749 103.538 71.7465 106.048 71.829C105.315 69.7749 103.74 67.9766 102.544 67.9766ZM99.831 75.9455C100.117 75.9455 100.235 75.731 100.235 75.335C100.235 74.1966 99.2581 72.3323 98.4578 72.3323C98.1798 72.3323 97.9608 72.522 97.9608 72.9097C97.9608 73.9491 99.1739 75.9372 99.8394 75.9372L99.831 75.9455ZM84.7852 74.9308C84.7852 74.9308 85.7203 76.0527 86.3016 76.0527C86.6217 76.0527 86.8154 75.7723 86.8154 75.2855C86.8154 74.1801 85.8214 72.3158 84.9368 72.3158C84.7009 72.3158 84.5493 72.5302 84.5493 72.5302C84.6757 73.3552 84.7683 74.1389 84.7852 74.9391V74.9308ZM79.9075 80.5157C80.0591 80.5157 80.1518 80.4249 80.1518 80.2434C80.1518 79.6742 79.3683 78.9895 78.4248 78.4698C78.7871 79.5257 79.2841 80.5074 79.8991 80.5074L79.9075 80.5157Z" fill="white"/>
</svg>
