<svg width="178" height="99" viewBox="0 0 178 99" fill="none" xmlns="http://www.w3.org/2000/svg">
<g style="mix-blend-mode:multiply" opacity="0.5">
<path d="M173.337 73.9523C175.934 80.0579 178.344 87.7243 174.055 92.7936C170.765 96.683 165.022 97.0887 159.927 97.1949C114.809 98.0939 69.6849 98.2062 24.5606 98.3249C20.3653 98.3373 16.1076 98.3374 12.0622 97.2199C8.01672 96.1024 4.14606 93.6926 2.19826 89.978C0.250443 86.2634 0.731155 81.1504 3.96503 78.4784C48.7647 72.148 94.3884 71.6923 139.307 77.1237C150.85 78.5221 163.455 80.0891 173.331 73.9523H173.337Z" fill="#4E365B"/>
</g>
<path d="M0.343903 75.8066C-0.704926 79.6897 0.799637 83.0359 2.77866 86.2511C2.6538 86.2761 2.52896 86.2948 2.4041 86.326C1.94212 86.4321 1.94212 87.1501 2.4041 87.2437C2.78492 87.3374 3.17822 87.406 3.56528 87.481C3.97108 87.9866 4.60162 87.9866 5.0636 87.7119C11.0569 88.4986 17.6058 87.7432 23.5241 87.7869C26.1337 87.8056 28.7432 87.8118 31.3466 87.8118C31.9272 87.9492 32.6139 87.7244 32.8761 87.0127C32.8823 86.9878 32.8886 86.969 32.9011 86.9378C36.6344 91.9884 43.0459 94.8664 49.3388 94.2296C54.2146 93.7302 58.9842 90.078 60.4888 85.4083C60.5075 85.5893 60.5263 85.7766 60.5575 85.9577L62.1682 85.7516C62.4366 81.625 61.7124 77.1988 59.9332 73.4717L58.2476 73.8775C59.2839 76.125 59.7209 78.4161 60.0019 80.7573C58.8157 87.1438 54.352 92.4379 47.3036 92.2069C41.0919 92.0009 37.1588 88.6484 33.5566 84.2034C34.0872 80.7822 33.8375 77.1363 35.5106 74.071C37.6582 70.1067 41.7349 66.8916 46.4171 66.8042C50.6374 66.7293 55.0075 68.7145 57.3736 72.2918L58.6471 71.1805C56.05 67.2537 52.0046 64.563 46.4109 64.7066C41.891 64.8252 37.6208 66.798 34.8738 70.4688C34.699 70.7061 34.5367 70.9495 34.3806 71.1868C30.7909 71.193 27.2012 71.193 23.6115 71.193C20.2216 71.193 16.738 71.0369 13.2794 71.0369C13.8225 67.6283 13.142 63.9262 13.8537 60.4551C14.6216 56.703 15.6142 53.6877 19.3288 52.0021C19.6909 51.8335 19.7596 51.4964 19.6597 51.203C19.7533 51.0844 19.8158 50.9345 19.8407 50.741C20.8147 44.4293 21.4889 38.5047 24.3295 32.6613C26.9265 27.3111 30.3352 22.3167 34.6054 18.1589C43.8575 9.14398 56.4808 3.78126 69.2852 2.57012C82.4204 1.31528 96.3547 3.28806 107.667 10.4488C117.924 16.9415 125.485 26.9365 127.988 38.8793L129.38 38.5172C124.642 10.8858 93.895 -2.69896 68.2051 0.528665C54.8639 2.20179 41.8036 7.53954 32.2768 17.2661C24.1671 25.5443 16.7317 38.4236 17.6495 50.4538C17.6557 50.535 17.6682 50.6099 17.6932 50.691C14.5155 51.1967 12.474 54.5555 11.7498 57.5771C10.8009 61.4789 9.57728 66.9852 10.8196 71.0869C8.47851 71.1555 6.15613 71.3241 3.88368 71.6987C3.60275 71.7424 3.45292 71.9859 3.41546 72.2481C1.96085 72.941 0.755951 74.2895 0.337677 75.8128L0.343903 75.8066ZM5.16974 85.864C2.62885 81.7686 0.0067749 75.3633 5.47564 73.2157C11.8497 74.0148 18.5422 73.4655 24.9225 73.4717H33.2007C32.027 76.356 31.8522 79.3963 31.3653 82.4866C30.972 82.5989 30.691 82.9423 30.8971 83.4417C30.9657 83.5978 31.0407 83.7477 31.1156 83.9037C30.9907 84.5343 30.8409 85.1586 30.6598 85.7891C27.8442 85.7954 25.0224 85.7954 22.2068 85.8078C16.7317 85.8266 10.7073 85.1711 5.16349 85.864H5.16974Z" fill="#0F0E14"/>
<path d="M5.48204 73.2158C0.00694275 75.3633 2.629 81.7686 5.17614 85.864C10.7199 85.1648 16.7444 85.8266 22.2195 85.8079C25.0351 85.7954 27.8569 85.7954 30.6725 85.7891C30.8473 85.1586 31.0034 84.5343 31.1282 83.9037C31.0533 83.7539 30.9784 83.6041 30.9097 83.4418C30.6975 82.9423 30.9846 82.599 31.3779 82.4866C31.8649 79.3963 32.0335 76.356 33.2134 73.4717H24.9352C18.5549 73.4655 11.8624 74.0149 5.48829 73.2158H5.48204Z" fill="#C6C6C6"/>
<path d="M13.86 60.4613C13.1483 63.9386 13.8351 67.6345 13.2857 71.0431C16.7505 71.0431 20.2279 71.1992 23.6178 71.1992C27.2075 71.1992 30.7973 71.1992 34.387 71.193C34.5431 70.9557 34.7054 70.7123 34.8802 70.475C37.6271 66.8042 41.8973 64.8314 46.4172 64.7128C52.0109 64.5692 56.0564 67.2537 58.6535 71.1867H92.2844V70.063C87.8269 70.063 83.3757 69.7384 78.9556 69.2202C78.0192 69.1078 77.782 67.9654 78.2502 67.4659C77.0266 58.7507 77.3886 49.5298 77.3824 40.7709C77.3824 35.9825 77.4885 31.1942 77.6633 26.3996C77.8319 21.6299 77.7133 16.5731 78.7683 11.8971C78.7933 11.7972 78.837 11.7223 78.887 11.6599C78.9869 11.4539 79.1617 11.2853 79.4301 11.1917C89.2253 7.86415 99.9446 9.25633 108.66 14.7876C112.699 17.3535 115.97 20.9807 118.549 24.9824C120.746 28.3973 123.087 33.2856 123.031 37.5308C123.025 37.768 123.012 38.0053 123 38.2425C124.486 38.3549 125.622 39.1415 126.409 40.2964L127.913 40.1966C127.613 39.847 127.638 39.2351 127.988 38.8606C125.485 26.9177 117.924 16.9227 107.667 10.43C96.3548 3.26931 82.4205 1.29653 69.2853 2.55137C56.4809 3.76875 43.8576 9.12523 34.6055 18.1401C30.3353 22.2979 26.9266 27.2923 24.3295 32.6425C21.489 38.4922 20.8147 44.4106 19.8408 50.7222C19.8158 50.9158 19.7472 51.0656 19.6598 51.1842C19.7659 51.4776 19.691 51.8148 19.3289 51.9833C15.6143 53.6689 14.6217 56.6905 13.8538 60.4363L13.86 60.4613ZM34.568 38.5984C34.362 38.3799 34.2434 38.0802 34.312 37.7181C35.7729 29.7333 39.7372 22.8723 47.0103 18.9454C54.9826 14.6503 65.5207 14.8625 74.1735 16.4045C74.5481 16.4732 74.6043 16.8728 74.4544 17.1412C74.9664 20.4001 74.8165 23.7463 74.8353 27.0301C74.854 30.7884 75.0538 34.6528 74.7042 38.3986C74.6979 38.436 74.6854 38.4673 74.6792 38.4985C75.6656 38.6233 75.6032 40.0405 74.5856 40.1466C67.8619 40.8084 60.9821 40.6336 54.2397 40.6086C50.8435 40.5899 47.4535 40.5087 44.0636 40.4338C41.1356 40.3651 37.7457 40.7397 34.9738 39.6909C34.5118 39.5223 34.337 38.9667 34.568 38.6046V38.5984Z" fill="#0091CF"/>
<path d="M35.5168 74.0834C33.85 77.1424 34.0997 80.7946 33.5628 84.2157C37.165 88.6545 41.0981 92.0132 47.3098 92.2192C54.3582 92.4502 58.8219 87.1562 60.0081 80.7696C59.7271 78.4285 59.2901 76.1373 58.2538 73.8899C58.1789 73.74 58.1102 73.5964 58.0353 73.4404C57.8355 73.047 57.617 72.6662 57.3798 72.3041C55.0074 68.7269 50.6373 66.7479 46.4233 66.8165C41.7411 66.904 37.6644 70.1191 35.5168 74.0834ZM41.6787 79.9081C40.6673 76.9115 43.4517 73.0221 46.6106 73.2219C46.8728 73.2343 47.0539 73.3717 47.1413 73.5465C48.9954 73.4591 50.8059 74.5641 51.7985 76.3121C53.2906 78.9217 51.5114 82.8423 48.702 83.7101C45.6742 84.634 42.6713 82.836 41.6724 79.9143L41.6787 79.9081Z" fill="#333333"/>
<path d="M34.3121 37.7118C34.2434 38.0739 34.362 38.3736 34.568 38.5921C34.337 38.9541 34.5181 39.5035 34.9738 39.6783C37.7395 40.7272 41.1294 40.3526 44.0636 40.4212C47.4535 40.5024 50.8435 40.5773 54.2397 40.5961C60.9883 40.621 67.8681 40.8021 74.5856 40.1341C75.6032 40.0279 75.6656 38.6108 74.6792 38.4859C74.6854 38.4547 74.6979 38.4297 74.7042 38.386C75.0538 34.6402 74.854 30.7758 74.8353 27.0176C74.8165 23.7338 74.9664 20.3875 74.4544 17.1287C74.6043 16.8602 74.5481 16.4607 74.1735 16.392C65.5207 14.8562 54.9826 14.6377 47.0103 18.9329C39.7372 22.8535 35.7667 29.7208 34.3121 37.7055V37.7118ZM44.0636 38.3049C41.5414 38.1987 38.7758 37.7118 36.2349 38.0552C37.7395 30.4387 41.4478 23.3342 48.852 20.0317C56.8867 16.4419 65.1025 17.5033 73.5867 17.3971C73.1122 20.5686 73.2246 23.8274 73.2183 27.0238C73.2183 30.7883 72.9873 34.6402 73.3245 38.3923C73.3245 38.411 73.337 38.4297 73.3432 38.4485C66.9816 38.3236 60.6013 38.6482 54.2459 38.5608C50.8497 38.5109 47.4598 38.4485 44.0698 38.3049H44.0636Z" fill="#0F0E14"/>
<path d="M36.2285 38.0552C38.7693 37.7118 41.535 38.1988 44.0571 38.3049C47.4471 38.4485 50.837 38.5109 54.2332 38.5609C60.5948 38.6483 66.9751 38.3237 73.3305 38.4485C73.3243 38.4298 73.3118 38.4111 73.3118 38.3923C72.9746 34.6403 73.2056 30.7884 73.2056 27.0239C73.2119 23.8337 73.0995 20.5749 73.574 17.3972C65.0835 17.5033 56.874 16.442 48.8393 20.0317C41.4351 23.328 37.7268 30.4388 36.2222 38.0552H36.2285Z" fill="#B6EEFF"/>
<path d="M46.6105 73.2219C43.4515 73.0222 40.6672 76.9115 41.6785 79.9082C42.6774 82.8299 45.6803 84.6341 48.7081 83.7039C51.5112 82.8361 53.2967 78.9155 51.8047 76.306C50.812 74.5579 49.0015 73.4529 47.1474 73.5403C47.0537 73.3718 46.8789 73.2344 46.6167 73.2157L46.6105 73.2219ZM43.3267 79.4587C42.8397 77.18 44.2444 75.6567 46.0923 74.739C47.6843 74.6828 49.5135 75.2884 50.2626 76.693C51.2553 78.5347 50.5124 81.1568 48.5021 82.0058C46.5418 82.8361 43.7824 81.6437 43.3267 79.4587Z" fill="#0F0E14"/>
<path d="M46.0925 74.739C44.2445 75.6505 42.8399 77.1738 43.3268 79.4587C43.7888 81.6437 46.5482 82.8362 48.5022 82.0058C50.5125 81.1505 51.2554 78.5285 50.2628 76.6931C49.5136 75.2946 47.6782 74.6828 46.0925 74.739Z" fill="#E5E5E5"/>
<path d="M58.6534 71.1929L57.3798 72.3041C57.617 72.6662 57.8418 73.047 58.0353 73.4403C58.1102 73.5902 58.1789 73.7338 58.2538 73.8898L59.9394 73.484C69.1291 73.4903 78.3188 73.4903 87.5084 73.4903H106.269C104.502 75.9563 103.384 78.8967 103.103 82.0931C102.872 82.3116 102.735 82.63 102.798 83.0046C102.866 83.3917 102.941 83.7787 103.041 84.1596C103.053 84.684 103.078 85.2209 103.141 85.764H62.1806L60.5699 85.97C60.6074 86.3134 60.6636 86.6505 60.7135 86.9939C60.7635 87.3684 61.0382 87.5058 61.3191 87.4933C61.3254 87.6057 61.3378 87.7243 61.3378 87.8367H104.546C108.154 93.9985 116.214 97.7193 122.975 97.1699C129.268 96.6642 134.78 91.8572 136.254 85.8951L134.768 85.3707C132.82 91.1891 127.551 95.4032 120.865 95.0411C116.701 94.8101 112.674 93.293 109.708 90.2652C107.748 88.2674 106.656 86.0761 105.37 83.785C105.332 74.4018 114.141 66.0924 123.918 68.7644C126.521 69.4761 128.962 70.8558 130.91 72.7349L132.115 71.1804C128.662 67.9153 124.024 65.8239 119.185 66.2796C114.821 66.6792 111.057 68.4834 108.26 71.1929C102.941 71.1929 97.6158 71.1929 92.2968 71.1991H58.6658L58.6534 71.1929Z" fill="#0F0E14"/>
<path d="M87.5085 73.4841C78.3189 73.4841 69.1292 73.4841 59.9395 73.4778C61.7188 77.2049 62.4429 81.6312 62.1745 85.7578H103.135C103.079 85.2209 103.047 84.6778 103.035 84.1533C102.935 83.7725 102.86 83.3855 102.791 82.9984C102.735 82.6238 102.873 82.2992 103.097 82.0869C103.378 78.8968 104.496 75.9501 106.262 73.4841H87.5023H87.5085Z" fill="#C6C6C6"/>
<path d="M77.3886 40.7772C77.3948 49.5361 77.0327 58.757 78.2564 67.4722C77.7819 67.9716 78.0191 69.1141 78.9618 69.2265C83.3819 69.7447 87.8394 70.0693 92.2906 70.0693C92.9461 70.0693 93.6016 70.063 94.2634 70.0506C98.1465 69.9632 102.492 70.0006 106.281 68.8831L105.907 67.5596C101.649 67.3848 97.2475 68.109 92.9836 68.1027C88.6634 68.0965 84.362 67.8468 80.0731 67.3661C80.329 58.114 79.3427 48.737 79.3988 39.4662C79.4238 34.6778 79.4925 29.8894 79.6486 25.1011C79.7797 21.1118 80.2479 16.9914 79.9982 12.9897C89.1379 9.81824 99.7947 10.5112 107.923 16.08C111.919 18.8144 115.396 22.3604 117.768 26.6056C119.753 30.1516 120.434 33.835 121.745 37.5184L123.05 37.5371C123.106 33.2919 120.765 28.4036 118.567 24.9887C115.989 20.9869 112.718 17.3598 108.678 14.7939C99.957 9.26262 89.244 7.87667 79.4488 11.1979C79.1803 11.2916 78.9993 11.4601 78.9056 11.6662C78.8557 11.7224 78.812 11.8035 78.787 11.9034C77.7382 16.5732 77.8568 21.6362 77.682 26.4059C77.5072 31.1942 77.4011 35.9826 77.4011 40.7772H77.3886Z" fill="#0F0E14"/>
<path d="M79.3925 39.4662C79.3426 48.737 80.3227 58.114 80.0667 67.3661C84.3557 67.8468 88.6571 68.0965 92.9772 68.1027C97.2412 68.109 101.642 67.3786 105.9 67.5596C107.018 62.122 115.783 57.8393 121.208 58.8756C121.133 57.9392 121.314 56.9028 121.345 56.0663C121.377 55.2047 121.245 54.1996 121.464 53.3443C115.92 52.5889 115.209 38.511 121.664 37.5371C121.689 37.5308 121.707 37.5371 121.732 37.5308C120.428 33.8475 119.741 30.1641 117.756 26.6181C115.383 22.3729 111.906 18.8269 107.91 16.0924C99.7821 10.5299 89.1253 9.83072 79.9856 13.0022C80.2353 17.0039 79.7671 21.1243 79.636 25.1136C79.4799 29.8957 79.4112 34.684 79.3863 39.4787L79.3925 39.4662ZM82.464 40.3402C81.5838 36.6381 81.7024 32.6239 81.7274 28.8406C81.7461 25.0948 81.7461 20.9994 82.8886 17.4097C83.0446 16.9103 83.619 16.8728 83.8999 17.1725C87.2524 16.1361 91.0856 16.1798 94.5505 16.1798C98.29 16.1798 102.323 16.517 105.881 17.7905C106.056 17.4596 106.506 17.2474 106.855 17.4721C110.108 19.6197 112.561 23.3967 114.547 26.6868C116.501 29.9019 118.592 34.066 118.686 37.8867C118.692 38.2925 118.205 38.4985 117.912 38.2987C117.65 38.4486 117.387 38.5859 117.113 38.717C113.005 40.6898 107.455 40.7772 103.072 41.1705C96.7979 41.7261 90.4925 41.6387 84.2246 41.1018C83.9499 41.0769 83.7314 40.9645 83.5753 40.8084C83.1695 41.0144 82.5951 40.8958 82.464 40.3339V40.3402ZM81.7523 46.2648C81.6212 43.2494 84.8863 42.8873 87.14 43.5179C88.8444 42.9997 90.6923 43.3243 91.5975 45.1473C92.0096 45.9714 91.891 46.9141 91.3603 47.6382C90.6049 48.6683 89.1066 48.6184 87.9704 48.6309C86.11 48.6434 81.8772 49.199 81.7523 46.2648Z" fill="#0091CF"/>
<path d="M81.7274 28.8467C81.7024 32.6299 81.5838 36.6442 82.464 40.3463C82.5951 40.9019 83.1695 41.0205 83.5753 40.8207C83.7313 40.9768 83.9499 41.0892 84.2245 41.1142C90.4925 41.6448 96.7979 41.7385 103.072 41.1828C107.455 40.7958 113.005 40.7021 117.113 38.7293L117.144 37.5182C114.859 37.4308 112.561 38.0176 110.295 38.3423C107.068 38.798 103.815 39.1663 100.556 39.3411C95.0936 39.6283 89.6622 39.5472 84.2183 39.0852C84.1434 39.0789 84.081 39.0789 84.0185 39.0852C83.9998 35.6828 83.5316 32.2678 83.594 28.8467C83.6439 25.5067 84.1434 22.1168 84.0997 18.783C87.9953 18.6956 91.8223 17.884 95.7553 17.9964C99.1203 18.09 102.492 18.5395 105.856 18.6082L105.881 17.8028C102.323 16.5293 98.2837 16.1922 94.5504 16.1922C91.0856 16.1922 87.2524 16.1485 83.8999 17.1848C83.619 16.8851 83.0446 16.9226 82.8885 17.422C81.7461 21.018 81.7461 25.1071 81.7274 28.8529V28.8467Z" fill="#0F0E14"/>
<path d="M87.134 43.5178C84.8803 42.8873 81.6152 43.2494 81.7463 46.2647C81.8712 49.1927 86.1039 48.6433 87.9643 48.6308C89.1005 48.6183 90.5988 48.6683 91.3543 47.6382C91.8849 46.914 92.0035 45.9713 91.5915 45.1472C90.6925 43.3243 88.8383 42.9996 87.134 43.5178ZM83.7066 46.8703C82.7264 46.3334 82.9387 44.8413 84.1124 44.6603C84.5681 44.5854 84.9989 44.6041 85.4234 44.6478C85.4421 44.8226 85.5732 44.9787 85.7917 44.9724C86.0727 44.9599 86.416 44.9037 86.7844 44.8538C86.9342 44.8788 87.0653 44.8476 87.1839 44.8039C88.0517 44.6852 88.9694 44.6228 89.5313 45.0286C90.3429 45.6279 90.9609 47.0513 88.9882 47.1138C88.4637 47.1262 87.9456 47.1325 87.4149 47.1325C86.3224 47.145 84.6992 47.4197 83.7003 46.8765L83.7066 46.8703Z" fill="#0F0E14"/>
<path d="M84.1123 44.6602C82.9387 44.835 82.7264 46.3271 83.7066 46.8702C84.7054 47.4134 86.3286 47.1387 87.4211 47.1262C87.9455 47.1262 88.4637 47.12 88.9944 47.1075C90.9734 47.0513 90.3553 45.6216 89.5375 45.0223C88.9819 44.6165 88.0579 44.6789 87.1901 44.7976C87.0715 44.8413 86.9404 44.8787 86.7906 44.8475C86.4222 44.8974 86.0789 44.9536 85.7979 44.9661C85.5794 44.9724 85.4483 44.8225 85.4296 44.6415C85.0051 44.5978 84.5681 44.5853 84.1186 44.654L84.1123 44.6602Z" fill="#39CCFF"/>
<path d="M83.6003 28.8467C83.5442 32.2616 84.0061 35.6828 84.0249 39.0852C84.0811 39.079 84.1497 39.079 84.2246 39.0852C89.6685 39.5472 95.1062 39.6284 100.563 39.3412C103.821 39.1664 107.074 38.798 110.302 38.3423C112.568 38.0177 114.859 37.4371 117.15 37.5182C117.25 37.512 117.356 37.5182 117.456 37.5245C115.864 34.2656 114.89 30.7571 113.061 27.5669C111.138 24.1957 108.366 21.6548 106.069 18.6145C105.994 18.6145 105.932 18.6145 105.857 18.6082C102.492 18.5396 99.1204 18.0901 95.7554 17.9964C91.8224 17.884 87.9954 18.7019 84.0998 18.783C84.1435 22.123 83.644 25.513 83.5941 28.8467H83.6003Z" fill="#B6EEFF"/>
<path d="M92.2905 70.0692V71.193C97.6095 71.1867 102.935 71.1867 108.254 71.1867C111.051 68.471 114.815 66.6731 119.179 66.2735C124.024 65.8178 128.662 67.9092 132.108 71.1743C145.481 71.1181 158.922 70.7185 172.257 71.3303C172.363 71.3366 172.463 71.3491 172.544 71.374C174.898 47.9941 147.684 39.2851 128.625 40.4775C128.3 40.4962 128.069 40.3901 127.913 40.209L126.408 40.3089C129.005 44.1234 127.813 51.9771 122.937 53.2382C123.162 54.1184 122.968 55.1485 122.962 56.0537C122.962 57.3648 123.293 59.2127 122.482 60.3115C122.257 60.6049 121.857 60.6361 121.639 60.3115C121.62 60.2802 121.608 60.2365 121.589 60.2053C118.942 60.6673 116.482 60.8421 113.966 62.0345C111.038 63.4267 109.652 65.9177 107.442 67.9591C107.523 68.2026 107.43 68.4898 107.111 68.6021C106.837 68.702 106.556 68.7957 106.262 68.8706C102.473 69.9881 98.1276 69.9569 94.2445 70.038C93.589 70.0505 92.9335 70.0568 92.2717 70.0568L92.2905 70.0692ZM162.474 65.0811C159.421 63.4829 155.85 58.476 157.517 54.9175C158.26 53.3256 159.552 52.2642 161.375 52.4266C162.174 52.5015 162.842 52.8885 163.254 53.4629C165.652 54.5117 167.063 57.8205 167.887 60.2678C168.492 62.0533 168.648 63.7389 167.244 65.1435C165.964 66.4296 163.829 65.7928 162.474 65.0749V65.0811Z" fill="#0091CF"/>
<path d="M123.918 68.7581C114.141 66.0861 105.332 74.3956 105.37 83.7788C106.65 86.0637 107.748 88.2612 109.709 90.259C112.674 93.2868 116.701 94.8039 120.865 95.0349C127.551 95.397 132.82 91.1829 134.768 85.3645C135.043 84.5404 135.249 83.6914 135.386 82.8173C135.161 81.4501 135.024 80.0455 134.649 78.7844C133.956 76.4433 132.633 74.3893 130.91 72.7349C128.962 70.8558 126.521 69.4761 123.918 68.7644V68.7581ZM121.115 86.8191C116.851 87.125 114.678 83.0483 115.134 79.34C115.327 77.823 116.045 75.3133 117.569 74.5391C118.561 74.0335 119.785 73.79 120.459 74.5829C123.537 74.3831 126.34 76.5057 126.871 79.7396C127.476 83.3979 124.654 86.5569 121.108 86.8129L121.115 86.8191Z" fill="#333333"/>
<path d="M105.888 17.7967L105.863 18.602C105.938 18.6083 106 18.6083 106.075 18.6083C108.366 21.6486 111.138 24.1957 113.067 27.5607C114.896 30.7509 115.87 34.2594 117.462 37.5183C117.356 37.512 117.25 37.5058 117.156 37.512L117.125 38.7232C117.4 38.5921 117.662 38.4547 117.924 38.3049C118.218 38.5047 118.705 38.2986 118.698 37.8928C118.605 34.0659 116.513 29.9018 114.559 26.6929C112.568 23.4091 110.121 19.6321 106.868 17.4783C106.518 17.2473 106.075 17.4658 105.894 17.7967H105.888Z" fill="#0F0E14"/>
<path d="M105.9 67.5595L106.275 68.883C106.562 68.8019 106.849 68.7145 107.124 68.6146C107.442 68.5022 107.53 68.215 107.455 67.9715C109.665 65.9301 111.051 63.4391 113.979 62.0469C116.495 60.8608 118.954 60.6797 121.601 60.2178C121.62 60.249 121.633 60.2927 121.651 60.3239C121.87 60.6485 122.269 60.6173 122.494 60.3239C123.299 59.2251 122.975 57.3834 122.975 56.0662C122.981 55.1609 123.175 54.1308 122.95 53.2506C127.826 51.9895 129.012 44.1358 126.421 40.3214C125.634 39.1664 124.498 38.3735 123.012 38.2674C123.025 38.0302 123.037 37.793 123.043 37.5557L121.739 37.537C121.739 37.537 121.701 37.537 121.67 37.5432C115.221 38.5171 115.926 52.5951 121.47 53.3505C121.252 54.2058 121.383 55.2109 121.352 56.0724C121.32 56.9152 121.139 57.9453 121.214 58.8818C115.789 57.8517 107.024 62.1281 105.906 67.5657L105.9 67.5595ZM120.634 50.7596C119.385 49.1864 119.023 46.6268 119.042 44.6914C119.073 42.2317 119.772 40.5961 121.639 39.2725C121.67 39.2975 121.714 39.3225 121.751 39.3412C124.248 40.234 125.865 42.213 125.828 44.9537C125.815 46.0462 125.815 47.2011 125.466 48.2437C125.016 49.5797 122.756 53.4379 120.634 50.7659V50.7596Z" fill="#0F0E14"/>
<path d="M115.134 79.3463C114.672 83.0546 116.851 87.1313 121.114 86.8254C124.661 86.5694 127.482 83.4105 126.877 79.7521C126.346 76.5182 123.537 74.3956 120.465 74.5954C119.791 73.8025 118.567 74.046 117.575 74.5517C116.051 75.3258 115.327 77.8355 115.14 79.3525L115.134 79.3463ZM116.738 81.7124C116.488 80.3514 116.62 78.9405 117.113 77.6482C117.737 76.0375 118.642 75.563 120.234 75.5568C122.351 75.7878 124.71 76.974 125.254 79.1091C125.809 81.3253 124.96 84.3657 122.444 84.9837C120.003 85.5893 117.238 84.3906 116.744 81.7124H116.738Z" fill="#0F0E14"/>
<path d="M117.113 77.642C116.619 78.9343 116.488 80.3515 116.738 81.7062C117.237 84.3844 119.997 85.5831 122.438 84.9775C124.954 84.3595 125.809 81.3191 125.247 79.1029C124.704 76.9678 122.344 75.7753 120.228 75.5506C118.636 75.5568 117.731 76.0313 117.106 77.642H117.113Z" fill="#E5E5E5"/>
<path d="M119.042 44.6852C119.023 46.6206 119.385 49.1864 120.634 50.7534C122.756 53.4254 125.016 49.5672 125.466 48.2312C125.815 47.1887 125.815 46.0275 125.828 44.9412C125.865 42.2005 124.249 40.2215 121.751 39.3287C121.714 39.3163 121.67 39.2913 121.639 39.2601C119.772 40.5898 119.079 42.2255 119.042 44.679V44.6852Z" fill="#39CCFF"/>
<path d="M127.988 38.8793C127.638 39.2539 127.613 39.8657 127.913 40.2153C128.063 40.3963 128.3 40.5025 128.625 40.4837C147.684 39.2851 174.898 48.0003 172.544 71.3803L173.917 71.4052C176.927 61.9971 169.941 51.9271 162.374 46.9452C152.804 40.6523 140.811 37.5995 129.38 38.5234L127.988 38.8855V38.8793Z" fill="#0F0E14"/>
<path d="M132.108 71.1679L130.903 72.7224C132.626 74.3768 133.95 76.437 134.643 78.7719C135.018 80.0329 135.155 81.4376 135.38 82.8048C135.242 83.6788 135.036 84.5341 134.762 85.352L136.247 85.8764C136.366 86.1261 136.497 86.3696 136.653 86.6068L137.995 85.7078C136.797 83.298 137.046 79.8644 136.16 77.3609C135.692 76.0249 134.993 74.7014 134.137 73.4965C146.811 73.5527 159.552 73.9086 172.201 73.3342C173.668 75.4818 175.99 76.8178 175.953 80.0205C175.928 82.3865 174.891 83.9598 174.067 85.8701C174.036 85.8701 173.992 85.8639 173.961 85.8639L173.874 87.6993C173.968 87.7305 174.067 87.743 174.155 87.7056C174.174 87.6993 174.186 87.6931 174.205 87.6868C174.286 87.6806 174.361 87.6806 174.448 87.6743C174.879 87.6556 175.16 87.3997 175.254 87.0813C177.52 85.3457 178.331 81.4751 177.832 78.878C177.42 76.6805 175.99 73.1719 173.687 72.0544C173.768 71.8359 173.843 71.6112 173.918 71.3989L172.544 71.3739C172.457 71.3489 172.363 71.3365 172.257 71.3302C158.922 70.7184 145.475 71.1117 132.108 71.1741V71.1679Z" fill="#0F0E14"/>
<path d="M134.144 73.5092C134.999 74.7141 135.698 76.0376 136.166 77.3736C137.053 79.877 136.803 83.3044 138.002 85.7205C149.982 85.6018 162.037 85.2585 173.968 85.8765C173.999 85.8765 174.042 85.8828 174.074 85.8828C174.898 83.9787 175.934 82.3992 175.959 80.0331C175.996 76.8242 173.674 75.4944 172.207 73.3469C159.559 73.9275 146.817 73.5716 134.144 73.5092Z" fill="#C6C6C6"/>
<path d="M137.995 85.7203L136.653 86.6193C136.903 87.0126 137.209 87.3747 137.583 87.7056C137.821 87.9116 138.064 87.9365 138.276 87.8679C150.138 87.9927 162.068 88.3174 173.874 87.7118L173.961 85.8764C162.031 85.2583 149.976 85.6017 137.995 85.7203Z" fill="#0F0E14"/>
<path d="M157.517 54.9174C155.85 58.4759 159.415 63.4828 162.474 65.081C163.829 65.799 165.964 66.4358 167.244 65.1497C168.649 63.745 168.492 62.0594 167.887 60.2739C167.063 57.8204 165.652 54.5179 163.255 53.4691C162.843 52.8885 162.175 52.5014 161.375 52.4327C159.553 52.2704 158.26 53.3317 157.517 54.9237V54.9174ZM159.315 58.6008C158.91 57.2898 158.51 54.9424 160.189 54.212C160.208 54.1995 160.221 54.1995 160.239 54.1933C161.151 54.2744 161.987 54.5803 162.724 55.0423C162.761 55.0923 162.811 55.1422 162.849 55.1921C162.936 55.2983 163.049 55.3357 163.155 55.3357C164.072 56.0349 164.803 56.9839 165.271 58.0764C165.721 59.1065 166.164 60.2302 166.426 61.329C166.851 63.0958 164.878 64.5816 163.348 63.564C161.613 62.4028 159.952 60.6485 159.309 58.6008H159.315Z" fill="#0F0E14"/>
<path d="M160.189 54.2119C158.51 54.9423 158.909 57.2897 159.315 58.6007C159.958 60.6422 161.619 62.3965 163.354 63.5639C164.878 64.5815 166.857 63.0957 166.432 61.3289C166.17 60.2301 165.72 59.1064 165.277 58.0763C164.809 56.9838 164.078 56.0349 163.161 55.3356C163.048 55.3356 162.936 55.2982 162.855 55.1921C162.817 55.1421 162.767 55.0922 162.73 55.0422C161.993 54.5802 161.157 54.2743 160.245 54.1932C160.227 54.1994 160.214 54.1994 160.195 54.2119H160.189Z" fill="#F5E388"/>
</svg>
