<svg width="262" height="99" viewBox="0 0 262 99" fill="none" xmlns="http://www.w3.org/2000/svg">
<path d="M76.7219 61.9338C76.1817 58.6699 73.1013 56.4644 69.8374 57.0046C68.6673 57.1983 67.6414 57.7214 66.8196 58.4585C65.2349 56.9756 63.0106 56.2154 60.7013 56.5977C56.76 57.25 54.0963 60.9704 54.7487 64.9118C54.9797 66.3076 55.6009 67.544 56.4806 68.5267C55.3332 69.845 54.7617 71.6479 55.0692 73.5056C55.6162 76.8106 58.7393 79.0512 62.0494 78.5033C63.6455 78.2391 64.9882 77.3683 65.8926 76.1747C67.2817 77.3683 69.1624 77.9639 71.1125 77.6411C74.5971 77.0643 76.9567 73.7686 76.38 70.284C76.1863 69.1139 75.6821 68.0744 74.9724 67.227C76.3455 65.903 77.0669 63.954 76.7322 61.9321L76.7219 61.9338Z" fill="white"/>
<path d="M44.3078 74.9389C45.7308 72.6101 44.9996 69.5624 42.6658 68.1402C41.8326 67.6296 40.9033 67.3986 39.9942 67.4172C39.8046 65.6348 38.8256 63.9568 37.1771 62.9484C34.3613 61.2264 30.6857 62.1143 28.9688 64.9292C28.3588 65.9265 28.0831 67.032 28.1007 68.1257C26.6689 68.3311 25.3382 69.1471 24.5295 70.4726C23.0859 72.8364 23.8282 75.9192 26.1919 77.3628C27.3302 78.0601 28.6419 78.2437 29.8539 77.9851C30.0746 79.4776 30.9325 80.8699 32.3229 81.7206C34.8105 83.2439 38.0653 82.4573 39.5886 79.9697C40.0983 79.1313 40.3465 78.2097 40.3586 77.2956C41.9314 77.2093 43.4339 76.3806 44.3181 74.9372L44.3078 74.9389Z" fill="white"/>
<path d="M16.2804 80.6801C17.8905 79.3222 18.0933 76.916 16.7354 75.3059C16.2494 74.7273 15.6256 74.3349 14.9588 74.1289C15.2519 72.7781 14.9465 71.3154 13.9883 70.177C12.3486 68.234 9.4447 67.987 7.50166 69.6267C6.81261 70.2101 6.33973 70.9527 6.08657 71.7485C4.9939 71.5498 3.82117 71.823 2.90015 72.5976C1.26697 73.9751 1.06415 76.413 2.43573 78.0419C3.09845 78.8285 4.01212 79.2836 4.96294 79.3899C4.76241 80.5356 5.05008 81.7639 5.85715 82.7217C7.30729 84.4431 9.87938 84.6606 11.5956 83.2113C12.1742 82.7253 12.5785 82.1101 12.811 81.4441C13.9822 81.767 15.2815 81.5256 16.2813 80.6852L16.2804 80.6801Z" fill="white"/>
<path d="M81.534 54.7097L74.5534 54.5865L75.2206 54.4761L84.9127 54.1505L81.534 54.7097Z" fill="white" stroke="black" stroke-width="2"/>
<mask id="path-5-inside-1_42_61779" fill="white">
<path d="M63.5596 55.3926L81.6074 55.7112L83.1162 55.4614L64.4833 55.2397L63.5596 55.3926Z"/>
</mask>
<path d="M63.5596 55.3926L81.6074 55.7112L83.1162 55.4614L64.4833 55.2397L63.5596 55.3926Z" fill="#FF8F33"/>
<path d="M63.5596 55.3926L63.233 53.4195L63.5243 57.3923L63.5596 55.3926ZM81.6074 55.7112L81.5721 57.7109L81.7543 57.7141L81.934 57.6843L81.6074 55.7112ZM83.1162 55.4614L83.4428 57.4346L83.14 53.4616L83.1162 55.4614ZM64.4833 55.2397L64.5071 53.2399L64.3307 53.2378L64.1567 53.2666L64.4833 55.2397ZM63.5243 57.3923L81.5721 57.7109L81.6427 53.7115L63.5949 53.393L63.5243 57.3923ZM81.934 57.6843L83.4428 57.4346L82.7896 53.4883L81.2808 53.738L81.934 57.6843ZM83.14 53.4616L64.5071 53.2399L64.4595 57.2396L83.0924 57.4613L83.14 53.4616ZM64.1567 53.2666L63.233 53.4195L63.8862 57.3658L64.8099 57.2129L64.1567 53.2666Z" fill="black" mask="url(#path-5-inside-1_42_61779)"/>
<path d="M81.5897 56.711L81.6808 56.7126L81.7707 56.6978L98.0334 54.0059L97.613 54.6213L82.0018 57.2053L77.4559 56.6381L81.5897 56.711Z" fill="#E6E7E8" stroke="black" stroke-width="2"/>
<path d="M156.735 39.6723C158.157 38.857 160.032 38.1382 161.985 37.8655L162.746 42.4664C160.809 42.8358 158.802 42.7595 157.194 42.4464C156.266 42.2658 155.514 42.0148 155.007 41.7559C154.785 41.6425 154.635 41.5403 154.543 41.4611C154.605 41.356 154.714 41.2107 154.888 41.0314C155.284 40.6226 155.915 40.1424 156.735 39.6723ZM154.451 41.3678C154.451 41.3678 154.452 41.3688 154.453 41.3707C154.452 41.3688 154.451 41.3678 154.451 41.3678ZM154.487 41.5755C154.487 41.5777 154.486 41.5788 154.486 41.5788C154.486 41.5789 154.486 41.5778 154.487 41.5755Z" fill="#414042" stroke="black" stroke-width="2"/>
<path d="M156.183 38.605C156.319 38.5491 156.477 38.485 156.657 38.4142C157.331 38.1479 158.302 37.7869 159.479 37.412C161.62 36.73 164.415 36.011 167.334 35.7225L168.499 42.7573C165.643 43.4267 162.765 43.6467 160.518 43.6903C159.283 43.7144 158.248 43.685 157.524 43.6498C157.331 43.6405 157.161 43.6307 157.015 43.6214C156.986 43.5374 156.954 43.4448 156.922 43.3443C156.747 42.8016 156.535 42.0352 156.387 41.1453C156.24 40.2554 156.194 39.4614 156.185 38.8913C156.183 38.788 156.183 38.6923 156.183 38.605Z" fill="#BCBEC0" stroke="black" stroke-width="2"/>
<path d="M157.166 37.751C157.355 37.6723 157.589 37.5767 157.864 37.4681C158.68 37.146 159.853 36.7097 161.274 36.2568C163.905 35.4185 167.36 34.5322 170.963 34.1966L172.426 43.0373C168.908 43.8804 165.351 44.1546 162.59 44.2088C161.099 44.2381 159.848 44.203 158.972 44.1608C158.678 44.1466 158.426 44.1316 158.222 44.118C158.175 43.9845 158.121 43.8289 158.065 43.6535C157.852 42.9933 157.593 42.0605 157.414 40.9754C157.234 39.8904 157.178 38.9241 157.167 38.2304C157.164 38.0509 157.165 37.8902 157.166 37.751Z" fill="#0091CF" stroke="black" stroke-width="2"/>
<mask id="path-11-inside-2_42_61779" fill="white">
<path d="M172.514 33.5568L171.794 33.1276L173.557 43.7814L174.101 43.1483L172.514 33.5568Z"/>
</mask>
<path d="M172.514 33.5568L171.794 33.1276L173.557 43.7814L174.101 43.1483L172.514 33.5568Z" fill="#BCBEC0"/>
<path d="M172.514 33.5568L174.487 33.2302L174.335 32.3146L173.538 31.8392L172.514 33.5568ZM171.794 33.1276L172.819 31.4099L169.117 29.2019L169.821 33.4542L171.794 33.1276ZM173.557 43.7814L171.584 44.108L172.284 48.3339L175.075 45.0845L173.557 43.7814ZM174.101 43.1483L175.618 44.4515L176.227 43.743L176.074 42.8217L174.101 43.1483ZM173.538 31.8392L172.819 31.4099L170.769 34.8452L171.489 35.2744L173.538 31.8392ZM169.821 33.4542L171.584 44.108L175.531 43.4548L173.767 32.801L169.821 33.4542ZM175.075 45.0845L175.618 44.4515L172.584 41.8452L172.04 42.4783L175.075 45.0845ZM176.074 42.8217L174.487 33.2302L170.54 33.8834L172.128 43.4749L176.074 42.8217Z" fill="black" mask="url(#path-11-inside-2_42_61779)"/>
<path d="M145.756 32.8795C147.178 32.0642 149.053 31.3455 151.006 31.0727L151.767 35.6736C149.83 36.043 147.824 35.9667 146.215 35.6536C145.287 35.473 144.536 35.222 144.029 34.9631C143.806 34.8497 143.656 34.7475 143.564 34.6683C143.626 34.5632 143.735 34.4179 143.909 34.2387C144.306 33.8298 144.936 33.3496 145.756 32.8795ZM143.472 34.575C143.473 34.575 143.473 34.576 143.474 34.5779C143.473 34.576 143.472 34.575 143.472 34.575ZM143.508 34.7827C143.508 34.7849 143.508 34.786 143.507 34.7861C143.507 34.7861 143.508 34.785 143.508 34.7827Z" fill="#414042" stroke="black" stroke-width="2"/>
<path d="M145.205 31.8122C145.34 31.7564 145.499 31.6923 145.678 31.6214C146.353 31.3551 147.323 30.9941 148.5 30.6193C150.641 29.9373 153.437 29.2182 156.356 28.9297L157.52 35.9645C154.664 36.6339 151.786 36.8539 149.54 36.8976C148.305 36.9216 147.27 36.8922 146.545 36.857C146.353 36.8477 146.182 36.8379 146.036 36.8287C146.007 36.7447 145.976 36.652 145.944 36.5515C145.768 36.0088 145.556 35.2424 145.409 34.3525C145.261 33.4626 145.215 32.6686 145.206 32.0985C145.205 31.9952 145.204 31.8995 145.205 31.8122Z" fill="#BCBEC0" stroke="black" stroke-width="2"/>
<path d="M146.188 30.9582C146.377 30.8795 146.611 30.7839 146.886 30.6753C147.701 30.3532 148.874 29.9169 150.295 29.464C152.927 28.6257 156.381 27.7394 159.984 27.4038L161.447 36.2445C157.929 37.0876 154.373 37.3618 151.612 37.416C150.12 37.4453 148.869 37.4102 147.994 37.368C147.699 37.3538 147.447 37.3388 147.243 37.3252C147.196 37.1917 147.143 37.0361 147.086 36.8607C146.873 36.2005 146.615 35.2677 146.435 34.1826C146.256 33.0976 146.199 32.1313 146.188 31.4376C146.186 31.2581 146.186 31.0974 146.188 30.9582Z" fill="#F8D72C" stroke="black" stroke-width="2"/>
<mask id="path-16-inside-3_42_61779" fill="white">
<path d="M161.535 26.764L160.815 26.3348L162.579 36.9938L163.122 36.3556L161.535 26.764Z"/>
</mask>
<path d="M161.535 26.764L160.815 26.3348L162.579 36.9938L163.122 36.3556L161.535 26.764Z" fill="#BCBEC0"/>
<path d="M161.535 26.764L163.508 26.4374L163.356 25.5218L162.559 25.0464L161.535 26.764ZM160.815 26.3348L161.84 24.6172L158.138 22.4091L158.842 26.6614L160.815 26.3348ZM162.579 36.9938L160.606 37.3204L161.31 41.5726L164.103 38.2896L162.579 36.9938ZM163.122 36.3556L164.646 37.6514L165.247 36.9445L165.096 36.029L163.122 36.3556ZM162.559 25.0464L161.84 24.6172L159.791 28.0524L160.51 28.4816L162.559 25.0464ZM158.842 26.6614L160.606 37.3204L164.553 36.6672L162.788 26.0082L158.842 26.6614ZM164.103 38.2896L164.646 37.6514L161.599 35.0597L161.056 35.6979L164.103 38.2896ZM165.096 36.029L163.508 26.4374L159.562 27.0906L161.149 36.6822L165.096 36.029Z" fill="black" mask="url(#path-16-inside-3_42_61779)"/>
<path d="M162.813 41.5199L135.923 27.1874L151.127 24.6707L193.724 36.4033L162.813 41.5199Z" fill="#0091CF" stroke="black" stroke-width="2"/>
<mask id="path-19-inside-4_42_61779" fill="white">
<path d="M165.536 42.0827L162.642 42.5618L132.849 26.6825L134.317 26.4396L165.536 42.0827Z"/>
</mask>
<path d="M165.536 42.0827L162.642 42.5618L132.849 26.6825L134.317 26.4396L165.536 42.0827Z" fill="#333333"/>
<path d="M165.536 42.0827L165.863 44.0559L171.933 43.0511L166.432 40.2946L165.536 42.0827ZM162.642 42.5618L161.701 44.3268L162.299 44.6457L162.968 44.535L162.642 42.5618ZM132.849 26.6825L132.523 24.7093L126.703 25.6727L131.909 28.4474L132.849 26.6825ZM134.317 26.4396L135.213 24.6515L134.632 24.3602L133.99 24.4664L134.317 26.4396ZM165.21 40.1096L162.315 40.5887L162.968 44.535L165.863 44.0559L165.21 40.1096ZM163.582 40.7969L133.79 24.9175L131.909 28.4474L161.701 44.3268L163.582 40.7969ZM133.176 28.6556L134.644 28.4127L133.99 24.4664L132.523 24.7093L133.176 28.6556ZM133.421 28.2276L164.64 43.8708L166.432 40.2946L135.213 24.6515L133.421 28.2276Z" fill="black" mask="url(#path-19-inside-4_42_61779)"/>
<path d="M162.171 43.4443L162.471 43.6037L162.805 43.5484L196.535 37.9652L196.091 38.7955L163.293 44.2243L160.888 42.7604L162.171 43.4443Z" fill="#E6E7E8" stroke="black" stroke-width="2"/>
<path d="M63.5032 31.9774L72.3415 30.5145C72.5373 30.6641 72.8125 30.8737 73.158 31.1348C73.901 31.6964 74.9692 32.4968 76.2719 33.4534C78.8766 35.3661 82.4232 37.9068 86.1857 40.414C89.9435 42.9181 93.9378 45.4032 97.4334 47.1953C99.1799 48.0908 100.826 48.8258 102.271 49.3021C103.683 49.7679 105.033 50.0317 106.13 49.8502L210.441 32.5844L210.451 32.5827L210.46 32.581L210.46 32.581L210.46 32.5809L210.462 32.5807L210.471 32.5791L210.509 32.5722C210.545 32.5659 210.599 32.5566 210.672 32.5446C210.816 32.5206 211.033 32.4863 211.315 32.4459C211.88 32.365 212.705 32.2599 213.738 32.1649C215.804 31.9748 218.694 31.8258 221.981 31.9903C228.582 32.3206 236.654 33.9083 242.921 38.8266L243.133 38.9936L243.401 39.0306L243.401 39.0306L243.402 39.0307L243.408 39.0315L243.434 39.0353C243.458 39.0387 243.494 39.044 243.542 39.0512C243.637 39.0657 243.779 39.0879 243.961 39.1183C244.326 39.179 244.85 39.2725 245.483 39.4022C246.752 39.6621 248.445 40.065 250.159 40.6378C251.881 41.2137 253.575 41.9449 254.875 42.8425C256.19 43.7505 256.96 44.727 257.13 45.7552C257.255 46.5064 256.915 47.3612 255.622 48.3629C254.331 49.363 252.285 50.341 249.538 51.2869C244.063 53.1724 236.13 54.8242 226.779 56.3718L117.003 74.5423C116.667 74.5978 115.949 74.5879 114.834 74.4662C113.754 74.3483 112.395 74.1373 110.839 73.8436C107.727 73.2567 103.866 72.3478 99.9371 71.2235C96.0064 70.0986 92.0288 68.7641 88.6769 67.3299C85.3525 65.9075 82.7712 64.439 81.414 63.0579L63.5032 31.9774Z" fill="white" stroke="black" stroke-width="2"/>
<path d="M66.6428 30.4442L82.3969 57.7738L77.6653 58.557L61.9163 31.2265L66.6428 30.4442Z" fill="#333333"/>
<path opacity="0.2" d="M226.943 57.3584L117.166 75.5289C115.159 75.861 107.053 74.3503 98.8635 71.9519L258.117 45.5919C258.964 50.7084 245.654 54.2613 226.943 57.3584Z" fill="black"/>
<path d="M235.694 34.949L236.123 34.8779C237.852 35.6516 239.53 36.5911 241.113 37.7223C241.067 37.7287 241.02 37.7352 240.972 37.7418C240.206 37.8475 239.155 37.9805 237.951 38.1007L235.694 34.949Z" fill="#AB8DE1"/>
<path d="M235.694 34.949L236.123 34.8779C237.852 35.6516 239.53 36.5911 241.113 37.7223C241.067 37.7287 241.02 37.7352 240.972 37.7418C240.206 37.8475 239.155 37.9805 237.951 38.1007L235.694 34.949Z" stroke="black"/>
<path d="M235.694 34.949L236.123 34.8779C237.852 35.6516 239.53 36.5911 241.113 37.7223C241.067 37.7287 241.02 37.7352 240.972 37.7418C240.206 37.8475 239.155 37.9805 237.951 38.1007L235.694 34.949Z" stroke="black" stroke-opacity="0.2"/>
<path d="M231.061 35.7158L233.732 35.2738L235.883 38.2838C234.516 38.3816 233.066 38.4437 231.673 38.4292L231.061 35.7158Z" fill="#AB8DE1" stroke="black"/>
<path d="M226.24 37.6726C225.577 37.4077 225.15 37.0914 224.924 36.7317L229.082 36.0434L229.324 38.3151C228.107 38.1998 227.044 37.9938 226.24 37.6726Z" fill="#AB8DE1" stroke="black"/>
<path d="M209.112 40.1041L210.119 39.9374C210.581 39.861 211.063 40.1924 211.154 40.7443L211.613 43.5148C211.704 44.0668 211.354 44.5359 210.893 44.6123L209.886 44.779C209.425 44.8553 208.942 44.524 208.851 43.972L208.392 41.2015C208.301 40.6496 208.651 40.1805 209.112 40.1041Z" fill="#AB8DE1" stroke="black"/>
<path d="M204.429 40.8793L205.391 40.72C205.832 40.647 206.283 40.9592 206.367 41.463L206.802 44.0958C206.886 44.5996 206.559 45.0405 206.118 45.1135L205.156 45.2727C204.715 45.3457 204.264 45.0336 204.181 44.5297L203.745 41.897C203.661 41.3932 203.988 40.9523 204.429 40.8793Z" fill="#AB8DE1" stroke="black"/>
<path d="M199.637 41.4793L200.636 41.314C201.122 41.2335 201.581 41.5624 201.662 42.0486L202.098 44.6814C202.178 45.1677 201.849 45.627 201.363 45.7074L200.364 45.8728C199.878 45.9533 199.419 45.6244 199.338 45.1381L198.903 42.5054C198.822 42.0191 199.151 41.5598 199.637 41.4793Z" fill="#AB8DE1" stroke="black"/>
<path d="M194.536 42.3237L195.535 42.1584C196.021 42.0779 196.48 42.4068 196.561 42.8929L196.997 45.5255C197.077 46.0116 196.748 46.4709 196.262 46.5514L195.263 46.7167C194.777 46.7972 194.318 46.4683 194.237 45.9822L193.801 43.3497C193.721 42.8635 194.05 42.4042 194.536 42.3237Z" fill="#AB8DE1" stroke="black"/>
<path d="M189.426 43.1696L190.432 43.003C190.918 42.9227 191.374 43.2493 191.454 43.7343L191.888 46.3595C191.969 46.8446 191.642 47.3007 191.157 47.381L190.151 47.5476C189.666 47.6279 189.209 47.3013 189.129 46.8163L188.695 44.191C188.614 43.706 188.941 43.2499 189.426 43.1696Z" fill="#AB8DE1" stroke="black"/>
<path d="M184.32 44.0148L185.326 43.8482C185.811 43.7679 186.267 44.0945 186.347 44.5795L186.782 47.2048C186.862 47.6898 186.536 48.1459 186.051 48.2262L185.044 48.3928C184.559 48.4731 184.103 48.1465 184.023 47.6615L183.588 45.0363C183.508 44.5512 183.834 44.0951 184.32 44.0148Z" fill="#AB8DE1" stroke="black"/>
<path d="M179.222 44.8585L180.221 44.6931C180.707 44.6127 181.167 44.9415 181.247 45.4277L181.683 48.0602C181.763 48.5463 181.434 49.0056 180.948 49.0861L179.949 49.2515C179.463 49.3319 179.004 49.0031 178.923 48.5169L178.488 45.8844C178.407 45.3982 178.736 44.9389 179.222 44.8585Z" fill="#AB8DE1" stroke="black"/>
<path d="M174.112 45.7043L175.119 45.5377C175.604 45.4574 176.06 45.784 176.14 46.2691L176.575 48.8943C176.655 49.3794 176.328 49.8355 175.843 49.9158L174.837 50.0824C174.352 50.1627 173.896 49.8361 173.815 49.351L173.381 46.7258C173.301 46.2407 173.627 45.7846 174.112 45.7043Z" fill="#AB8DE1" stroke="black"/>
<path d="M169.006 46.5495L170.013 46.3829C170.498 46.3026 170.954 46.6292 171.034 47.1143L171.469 49.7395C171.549 50.2245 171.222 50.6807 170.737 50.7609L169.731 50.9275C169.246 51.0078 168.79 50.6813 168.709 50.1962L168.275 47.571C168.194 47.086 168.521 46.6298 169.006 46.5495Z" fill="#AB8DE1" stroke="black"/>
<path d="M163.909 47.3933L164.908 47.2279C165.394 47.1475 165.853 47.4763 165.934 47.9624L166.369 50.595C166.45 51.0811 166.121 51.5404 165.635 51.6209L164.636 51.7862C164.15 51.8667 163.69 51.5378 163.61 51.0517L163.174 48.4192C163.094 47.933 163.423 47.4737 163.909 47.3933Z" fill="#AB8DE1" stroke="black"/>
<path d="M158.808 48.2376L159.807 48.0722C160.293 47.9918 160.752 48.3206 160.832 48.8067L161.268 51.4393C161.349 51.9254 161.02 52.3847 160.534 52.4652L159.535 52.6305C159.049 52.711 158.589 52.3822 158.509 51.896L158.073 49.2635C157.993 48.7773 158.322 48.318 158.808 48.2376Z" fill="#AB8DE1" stroke="black"/>
<path d="M153.701 49.0828L154.7 48.9174C155.186 48.837 155.646 49.1658 155.726 49.6519L156.162 52.2845C156.242 52.7706 155.913 53.2299 155.427 53.3104L154.428 53.4757C153.942 53.5562 153.483 53.2273 153.402 52.7412L152.967 50.1087C152.886 49.6226 153.215 49.1632 153.701 49.0828Z" fill="#AB8DE1" stroke="black"/>
<path d="M148.591 49.9286L149.598 49.762C150.083 49.6817 150.539 50.0083 150.619 50.4934L151.054 53.1186C151.134 53.6036 150.807 54.0597 150.322 54.14L149.316 54.3066C148.831 54.3869 148.375 54.0603 148.294 53.5753L147.86 50.9501C147.78 50.465 148.106 50.0089 148.591 49.9286Z" fill="#AB8DE1" stroke="black"/>
<path d="M143.494 50.7724L144.493 50.607C144.979 50.5265 145.438 50.8554 145.519 51.3415L145.955 53.974C146.035 54.4602 145.706 54.9195 145.22 54.9999L144.221 55.1653C143.735 55.2457 143.276 54.9169 143.195 54.4308L142.759 51.7982C142.679 51.3121 143.008 50.8528 143.494 50.7724Z" fill="#AB8DE1" stroke="black"/>
<path d="M138.388 51.6176L139.387 51.4522C139.873 51.3718 140.332 51.7006 140.413 52.1867L140.848 54.8193C140.929 55.3054 140.6 55.7647 140.114 55.8452L139.115 56.0105C138.629 56.091 138.169 55.7621 138.089 55.276L137.653 52.6435C137.573 52.1573 137.902 51.698 138.388 51.6176Z" fill="#AB8DE1" stroke="black"/>
<path d="M133.278 52.4634L134.284 52.2968C134.769 52.2165 135.225 52.5431 135.305 53.0281L135.74 55.6534C135.82 56.1384 135.494 56.5945 135.009 56.6748L134.002 56.8414C133.517 56.9217 133.061 56.5951 132.981 56.1101L132.546 53.4849C132.466 52.9998 132.792 52.5437 133.278 52.4634Z" fill="#AB8DE1" stroke="black"/>
<path d="M128.176 53.3077L129.183 53.1411C129.668 53.0608 130.124 53.3874 130.204 53.8724L130.639 56.4977C130.719 56.9827 130.393 57.4389 129.908 57.5191L128.901 57.6857C128.416 57.766 127.96 57.4395 127.88 56.9544L127.445 54.3292C127.365 53.8441 127.691 53.388 128.176 53.3077Z" fill="#AB8DE1" stroke="black"/>
<path d="M123.079 54.1514L124.078 53.9861C124.564 53.9056 125.024 54.2345 125.104 54.7206L125.54 57.3532C125.62 57.8393 125.291 58.2986 124.805 58.3791L123.806 58.5444C123.32 58.6249 122.861 58.296 122.78 57.8099L122.345 55.1773C122.264 54.6912 122.593 54.2319 123.079 54.1514Z" fill="#AB8DE1" stroke="black"/>
<path d="M219.065 35.6061L220.416 43.7646L216.091 44.4805L214.74 36.322L219.065 35.6061Z" fill="#0091CF" stroke="black"/>
<mask id="path-47-inside-5_42_61779" fill="white">
<path d="M214.07 35.8419L219.546 34.9356L221.086 44.2448L215.611 45.1512L214.07 35.8419ZM219.409 35.127L214.261 35.979L215.747 44.9547L220.894 44.1027L219.409 35.127Z"/>
</mask>
<path d="M214.07 35.8419L219.546 34.9356L221.086 44.2448L215.611 45.1512L214.07 35.8419ZM219.409 35.127L214.261 35.979L215.747 44.9547L220.894 44.1027L219.409 35.127Z" fill="#D1D3D4"/>
<path d="M214.07 35.8419L213.907 34.8553L212.92 35.0186L213.083 36.0052L214.07 35.8419ZM219.546 34.9356L220.532 34.7723L220.369 33.7857L219.382 33.949L219.546 34.9356ZM221.086 44.2448L221.25 45.2314L222.236 45.0681L222.073 44.0815L221.086 44.2448ZM215.611 45.1512L214.624 45.3145L214.787 46.3011L215.774 46.1378L215.611 45.1512ZM219.409 35.127L220.395 34.9637L220.232 33.9771L219.245 34.1404L219.409 35.127ZM214.261 35.979L214.098 34.9924L213.111 35.1557L213.275 36.1423L214.261 35.979ZM215.747 44.9547L214.76 45.118L214.924 46.1046L215.91 45.9413L215.747 44.9547ZM220.894 44.1027L221.058 45.0893L222.044 44.926L221.881 43.9394L220.894 44.1027ZM214.233 36.8285L219.709 35.9221L219.382 33.949L213.907 34.8553L214.233 36.8285ZM218.559 35.0989L220.1 44.4081L222.073 44.0815L220.532 34.7723L218.559 35.0989ZM220.923 43.2583L215.447 44.1646L215.774 46.1378L221.25 45.2314L220.923 43.2583ZM216.597 44.9879L215.056 35.6786L213.083 36.0052L214.624 45.3145L216.597 44.9879ZM219.245 34.1404L214.098 34.9924L214.425 36.9655L219.572 36.1135L219.245 34.1404ZM213.275 36.1423L214.76 45.118L216.733 44.7914L215.248 35.8157L213.275 36.1423ZM215.91 45.9413L221.058 45.0893L220.731 43.1161L215.584 43.9681L215.91 45.9413ZM221.881 43.9394L220.395 34.9637L218.422 35.2903L219.908 44.266L221.881 43.9394Z" fill="black" mask="url(#path-47-inside-5_42_61779)"/>
<path d="M116.959 51.827L118.31 59.9855L113.985 60.7013L112.634 52.5428L116.959 51.827Z" fill="#0091CF" stroke="black"/>
<mask id="path-50-inside-6_42_61779" fill="white">
<path d="M111.964 52.0626L117.439 51.1563L118.98 60.4656L113.505 61.3719L111.964 52.0626ZM117.302 51.3477L112.155 52.1997L113.641 61.1754L118.788 60.3234L117.302 51.3477Z"/>
</mask>
<path d="M111.964 52.0626L117.439 51.1563L118.98 60.4656L113.505 61.3719L111.964 52.0626ZM117.302 51.3477L112.155 52.1997L113.641 61.1754L118.788 60.3234L117.302 51.3477Z" fill="#D1D3D4"/>
<path d="M111.964 52.0626L111.8 51.076L110.814 51.2393L110.977 52.2259L111.964 52.0626ZM117.439 51.1563L118.426 50.993L118.263 50.0064L117.276 50.1697L117.439 51.1563ZM118.98 60.4656L119.144 61.4521L120.13 61.2888L119.967 60.3023L118.98 60.4656ZM113.505 61.3719L112.518 61.5352L112.681 62.5218L113.668 62.3585L113.505 61.3719ZM117.302 51.3477L118.289 51.1844L118.126 50.1978L117.139 50.3611L117.302 51.3477ZM112.155 52.1997L111.992 51.2131L111.005 51.3764L111.168 52.363L112.155 52.1997ZM113.641 61.1754L112.654 61.3387L112.817 62.3253L113.804 62.162L113.641 61.1754ZM118.788 60.3234L118.951 61.31L119.938 61.1467L119.775 60.1601L118.788 60.3234ZM112.127 53.0492L117.603 52.1428L117.276 50.1697L111.8 51.076L112.127 53.0492ZM116.453 51.3196L117.994 60.6289L119.967 60.3023L118.426 50.993L116.453 51.3196ZM118.817 59.479L113.341 60.3853L113.668 62.3585L119.144 61.4521L118.817 59.479ZM114.491 61.2086L112.95 51.8993L110.977 52.2259L112.518 61.5352L114.491 61.2086ZM117.139 50.3611L111.992 51.2131L112.318 53.1862L117.466 52.3342L117.139 50.3611ZM111.168 52.363L112.654 61.3387L114.627 61.0121L113.142 52.0364L111.168 52.363ZM113.804 62.162L118.951 61.31L118.625 59.3368L113.477 60.1888L113.804 62.162ZM119.775 60.1601L118.289 51.1844L116.316 51.511L117.801 60.4867L119.775 60.1601Z" fill="black" mask="url(#path-50-inside-6_42_61779)"/>
<path d="M183.634 61.5369L184.557 67.1112C182.265 67.5718 179.88 67.4867 177.975 67.1157C176.9 66.9062 176.021 66.6139 175.422 66.3081C175.121 66.1545 174.924 66.0144 174.81 65.906C174.795 65.8916 174.782 65.8787 174.772 65.8674C174.778 65.8532 174.786 65.8369 174.796 65.8184C174.869 65.679 175.01 65.4828 175.245 65.2406C175.714 64.758 176.451 64.1983 177.402 63.6533C179.086 62.6885 181.316 61.8393 183.634 61.5369Z" fill="#F8D72C" stroke="black" stroke-width="2"/>
<path d="M178.378 68.5142C178.111 68.5014 177.882 68.4879 177.693 68.4755C177.65 68.3549 177.603 68.2165 177.553 68.0619C177.351 67.4335 177.105 66.5458 176.935 65.5146C176.764 64.4834 176.71 63.564 176.7 62.9037C176.697 62.7414 176.697 62.5951 176.698 62.4673C176.873 62.3947 177.086 62.308 177.334 62.2101C178.111 61.9031 179.23 61.4872 180.586 61.0553C183.086 60.2592 186.364 59.418 189.783 59.0948L191.167 67.4519C187.825 68.2479 184.451 68.5078 181.828 68.5595C180.405 68.5876 179.212 68.5543 178.378 68.5142Z" fill="#F8D72C" stroke="black" stroke-width="2"/>
<path d="M177.268 61.7145L177.268 61.7144C177.268 61.7144 177.268 61.7145 177.268 61.7145ZM177.827 61.4735C178.059 61.3763 178.359 61.2531 178.72 61.1105C179.66 60.7396 181.011 60.2375 182.648 59.7162C185.711 58.741 189.748 57.7083 193.953 57.332L195.68 67.7671C191.578 68.7658 187.424 69.0887 184.21 69.1525C182.492 69.1866 181.051 69.1465 180.043 69.0981C179.655 69.0795 179.331 69.0597 179.08 69.0424C179.017 68.8684 178.943 68.6564 178.863 68.4113C178.616 67.6475 178.317 66.5689 178.109 65.3149C177.902 64.061 177.838 62.9434 177.826 62.1407C177.822 61.883 177.823 61.6586 177.827 61.4735Z" fill="#F8D72C" stroke="black" stroke-width="2"/>
<mask id="path-55-inside-7_42_61779" fill="white">
<path d="M197.433 67.779L196.811 68.5095L194.784 56.2648L195.609 56.7608L197.433 67.779Z"/>
</mask>
<path d="M197.433 67.779L196.811 68.5095L194.784 56.2648L195.609 56.7608L197.433 67.779Z" fill="#F8D72C"/>
<path d="M197.433 67.779L198.955 69.0763L199.558 68.3691L199.406 67.4524L197.433 67.779ZM196.811 68.5095L194.838 68.8361L195.541 73.0833L198.333 69.8068L196.811 68.5095ZM194.784 56.2648L195.814 54.5505L192.104 52.3211L192.811 56.5914L194.784 56.2648ZM195.609 56.7608L197.583 56.4342L197.432 55.5225L196.64 55.0465L195.609 56.7608ZM195.911 66.4818L195.289 67.2123L198.333 69.8068L198.955 69.0763L195.911 66.4818ZM198.784 68.1829L196.757 55.9382L192.811 56.5914L194.838 68.8361L198.784 68.1829ZM193.754 57.9791L194.579 58.4751L196.64 55.0465L195.814 54.5505L193.754 57.9791ZM193.636 57.0874L195.46 68.1056L199.406 67.4524L197.583 56.4342L193.636 57.0874Z" fill="black" mask="url(#path-55-inside-7_42_61779)"/>
<path d="M157.303 74.3736L158.226 79.9478C155.934 80.4085 153.549 80.3233 151.644 79.9524C150.569 79.7429 149.69 79.4506 149.091 79.1447C148.79 78.9912 148.593 78.851 148.479 78.7427C148.464 78.7282 148.451 78.7153 148.441 78.704C148.447 78.6899 148.455 78.6736 148.465 78.655C148.538 78.5157 148.679 78.3195 148.914 78.0772C149.383 77.5947 150.12 77.0349 151.071 76.49C152.755 75.5252 154.985 74.676 157.303 74.3736Z" fill="#414042" stroke="black" stroke-width="2"/>
<path d="M152.046 81.3507C151.78 81.3379 151.551 81.3244 151.362 81.3121C151.319 81.1915 151.272 81.0531 151.222 80.8985C151.02 80.27 150.774 79.3824 150.603 78.3512C150.433 77.3199 150.379 76.4005 150.369 75.7403C150.366 75.5779 150.366 75.4317 150.367 75.3038C150.542 75.2313 150.755 75.1445 151.003 75.0466C151.78 74.7396 152.899 74.3237 154.255 73.8919C156.755 73.0957 160.033 72.2545 163.452 71.9314L164.836 80.2884C161.494 81.0844 158.12 81.3443 155.497 81.3961C154.074 81.4241 152.881 81.3908 152.046 81.3507Z" fill="#BCBEC0" stroke="black" stroke-width="2"/>
<path d="M150.931 74.5519L150.931 74.5519C150.931 74.5519 150.931 74.5519 150.931 74.5519ZM151.491 74.3109C151.723 74.2137 152.023 74.0906 152.384 73.948C153.323 73.5771 154.674 73.0749 156.312 72.5537C159.375 71.5785 163.411 70.5457 167.616 70.1694L169.343 80.6046C165.241 81.6033 161.088 81.9262 157.874 81.99C156.156 82.0241 154.715 81.984 153.706 81.9356C153.318 81.917 152.994 81.8972 152.743 81.8799C152.68 81.7058 152.606 81.4939 152.527 81.2487C152.28 80.4849 151.98 79.4063 151.773 78.1524C151.565 76.8984 151.501 75.7809 151.489 74.9781C151.485 74.7205 151.487 74.496 151.491 74.3109Z" fill="#F8D72C" stroke="black" stroke-width="2"/>
<mask id="path-60-inside-8_42_61779" fill="white">
<path d="M171.102 80.6157L170.48 81.3461L168.453 69.1014L169.279 69.5974L171.102 80.6157Z"/>
</mask>
<path d="M171.102 80.6157L170.48 81.3461L168.453 69.1014L169.279 69.5974L171.102 80.6157Z" fill="#BCBEC0"/>
<path d="M171.102 80.6157L172.625 81.9129L173.227 81.2057L173.076 80.2891L171.102 80.6157ZM170.48 81.3461L168.507 81.6727L169.21 85.92L172.002 82.6434L170.48 81.3461ZM168.453 69.1014L169.483 67.3871L165.773 65.1577L166.48 69.428L168.453 69.1014ZM169.279 69.5974L171.252 69.2708L171.101 68.3591L170.309 67.8831L169.279 69.5974ZM169.58 79.3184L168.958 80.0489L172.002 82.6434L172.625 81.9129L169.58 79.3184ZM172.453 81.0195L170.426 68.7748L166.48 69.428L168.507 81.6727L172.453 81.0195ZM167.423 70.8157L168.249 71.3117L170.309 67.8831L169.483 67.3871L167.423 70.8157ZM167.306 69.924L169.129 80.9423L173.076 80.2891L171.252 69.2708L167.306 69.924Z" fill="black" mask="url(#path-60-inside-8_42_61779)"/>
<path d="M196.122 53.345L150.91 81.8634L134.088 84.6479L161.709 59.0412L196.122 53.345Z" fill="#0091CF" stroke="black" stroke-width="2"/>
<mask id="path-63-inside-9_42_61779" fill="white">
<path d="M130.966 86.1783L161.249 58.1037L164.19 57.6169L132.834 85.8691L130.966 86.1783Z"/>
</mask>
<path d="M130.966 86.1783L161.249 58.1037L164.19 57.6169L132.834 85.8691L130.966 86.1783Z" fill="#333333"/>
<path d="M130.966 86.1783L129.606 84.7116L124.723 89.2389L131.293 88.1514L130.966 86.1783ZM161.249 58.1037L160.923 56.1305L160.33 56.2286L159.89 56.637L161.249 58.1037ZM164.19 57.6169L165.529 59.1028L170.607 54.5276L163.863 55.6438L164.19 57.6169ZM132.834 85.8691L133.161 87.8422L133.738 87.7466L134.173 87.3549L132.834 85.8691ZM132.326 87.6449L162.609 59.5704L159.89 56.637L129.606 84.7116L132.326 87.6449ZM161.576 60.0768L164.517 59.5901L163.863 55.6438L160.923 56.1305L161.576 60.0768ZM162.851 56.1311L131.495 84.3832L134.173 87.3549L165.529 59.1028L162.851 56.1311ZM132.507 83.8959L130.639 84.2051L131.293 88.1514L133.161 87.8422L132.507 83.8959Z" fill="black" mask="url(#path-63-inside-9_42_61779)"/>
<mask id="path-65-inside-10_42_61779" fill="white">
<path d="M200.842 51.5502L198.936 54.9448L151.494 83.9614L133.794 86.8912L130.966 86.1782L151.273 82.817L200.842 51.5502Z"/>
</mask>
<path d="M200.842 51.5502L198.936 54.9448L151.494 83.9614L133.794 86.8912L130.966 86.1782L151.273 82.817L200.842 51.5502Z" fill="#E6E7E8"/>
<path d="M200.842 51.5502L202.586 52.5292L199.775 49.8586L200.842 51.5502ZM198.936 54.9448L199.98 56.6509L200.425 56.3787L200.68 55.9238L198.936 54.9448ZM151.494 83.9614L151.821 85.9346L152.205 85.8709L152.538 85.6676L151.494 83.9614ZM133.794 86.8912L133.305 88.8305L133.709 88.9324L134.121 88.8643L133.794 86.8912ZM130.966 86.1782L130.639 84.2051L130.477 88.1176L130.966 86.1782ZM151.273 82.817L151.6 84.7901L151.998 84.7242L152.34 84.5086L151.273 82.817ZM199.098 50.5711L197.192 53.9657L200.68 55.9238L202.586 52.5292L199.098 50.5711ZM197.893 53.2386L150.45 82.2553L152.538 85.6676L199.98 56.6509L197.893 53.2386ZM151.167 81.9883L133.467 84.918L134.121 88.8643L151.821 85.9346L151.167 81.9883ZM134.283 84.9519L131.455 84.2389L130.477 88.1176L133.305 88.8305L134.283 84.9519ZM131.293 88.1514L151.6 84.7901L150.946 80.8438L130.639 84.2051L131.293 88.1514ZM152.34 84.5086L201.909 53.2418L199.775 49.8586L150.206 81.1254L152.34 84.5086Z" fill="black" mask="url(#path-65-inside-10_42_61779)"/>
<path d="M92.456 55.4986L74.1541 66.587L66.5609 67.8439L79.2615 57.6825L92.456 55.4986Z" fill="#F8D72C" stroke="black" stroke-width="2"/>
<mask id="path-68-inside-11_42_61779" fill="white">
<path d="M62.9453 69.456L78.8407 56.7386L80.3443 56.4897L63.8742 69.3022L62.9453 69.456Z"/>
</mask>
<path d="M62.9453 69.456L78.8407 56.7386L80.3443 56.4897L63.8742 69.3022L62.9453 69.456Z" fill="#FF8F33"/>
<path d="M62.9453 69.456L61.6959 67.8943L55.7141 72.6801L63.2719 71.4291L62.9453 69.456ZM78.8407 56.7386L78.5141 54.7654L77.9989 54.8507L77.5912 55.1769L78.8407 56.7386ZM80.3443 56.4897L81.5723 58.0683L80.0177 54.5166L80.3443 56.4897ZM63.8742 69.3022L64.2008 71.2754L64.7016 71.1925L65.1022 70.8808L63.8742 69.3022ZM64.1948 71.0176L80.0901 58.3003L77.5912 55.1769L61.6959 67.8943L64.1948 71.0176ZM79.1673 58.7118L80.6709 58.4629L80.0177 54.5166L78.5141 54.7654L79.1673 58.7118ZM79.1163 54.9111L62.6462 67.7236L65.1022 70.8808L81.5723 58.0683L79.1163 54.9111ZM63.5476 67.3291L62.6187 67.4828L63.2719 71.4291L64.2008 71.2754L63.5476 67.3291Z" fill="black" mask="url(#path-68-inside-11_42_61779)"/>
<path d="M90.2999 59.1767L89.7295 59.4889L90.3916 59.0877L90.2999 59.1767Z" fill="#E6E7E8" stroke="black" stroke-width="2"/>
</svg>
