<svg width="185" height="97" viewBox="0 0 185 97" fill="none" xmlns="http://www.w3.org/2000/svg">
<g style="mix-blend-mode:multiply" opacity="0.5">
<path d="M175.863 77.538C178.552 82.2152 183.321 88.4946 178.89 92.3779C175.49 95.3574 169.541 95.6682 164.274 95.7495C117.597 96.4382 70.9104 96.5243 24.2236 96.6152C19.8804 96.6247 15.4792 96.6247 11.2957 95.7687C7.11208 94.9126 3.1026 93.0666 1.09062 90.221C-0.921371 87.3755 0.892334 81.1822 16.4223 79.8527C62.7706 75.0033 96.4762 76.2132 142.945 80.3787C154.887 81.45 165.648 82.2487 175.867 77.5427L175.863 77.538Z" fill="#4E365B"/>
</g>
<path d="M27.5417 1.72171C24.5431 1.75519 21.4816 1.79345 18.483 1.9991C15.8858 2.18083 13.5401 1.60215 11.0299 2.77385C5.99995 5.12682 3.64941 11.081 3.00131 16.1743C2.08722 23.3336 2.4016 30.7751 2.2952 37.9823C2.21297 43.5969 2.21295 49.2067 2.23714 54.8165C14.1204 54.1231 26.1246 54.5009 38.0273 54.5009C50.0895 54.5009 62.1518 54.5009 74.214 54.5105C86.2811 54.5105 98.3434 54.5583 110.406 54.5583C122.487 54.5583 134.564 54.3144 146.646 54.5726C146.597 52.5831 146.544 50.5889 146.491 48.5946C146.476 47.9011 146.452 47.2124 146.438 46.519C146.423 46.519 146.409 46.5285 146.389 46.5285C123.953 46.1173 101.511 45.6055 79.0747 45.1321C67.3704 44.8882 55.666 44.7256 43.9665 44.5199C38.2304 44.4147 32.4943 44.3047 26.7631 44.1612C23.895 44.0847 21.027 44.013 18.1638 43.9173C16.7612 43.8743 15.3586 43.8312 13.956 43.7834C12.7856 43.7404 11.6925 43.7117 10.9187 42.693C10.1061 41.6217 10.1642 39.6418 10.1593 38.3601C10.1593 36.5045 10.3335 34.6537 10.4012 32.8029C10.6333 26.5331 10.8219 19.8903 12.1617 13.7448C12.21 13.4961 12.4857 13.4483 12.6743 13.5487C12.7469 13.4626 12.8581 13.3957 12.9984 13.3813C25.2686 12.3483 37.6404 12.1188 49.9493 11.8414C62.5532 11.5592 75.162 11.4827 87.7659 11.6071C112.239 11.8414 136.905 12.4249 161.261 14.8878C161.232 14.8304 161.203 14.773 161.179 14.7061C160.357 12.8648 159.52 11.301 157.745 10.1627C155.859 8.95757 153.934 8.94322 151.782 8.83801C149.32 8.71367 146.849 8.58932 144.382 8.47454C138.535 8.19238 132.692 7.91978 126.84 7.66631C115.145 7.16893 103.446 6.76242 91.7367 6.55678C91.3836 6.54721 91.0354 6.54243 90.6823 6.53765C79.1908 6.34157 67.6993 6.30331 56.2077 6.39896C44.7259 6.49461 33.2198 7.07807 21.7379 6.85807C21.264 6.84851 21.2785 6.17896 21.7379 6.14549C33.1666 5.14595 44.7355 5.22247 56.2077 5.11726C65.0489 5.03596 73.89 5.0503 82.7311 5.14595C82.262 5.14595 81.4736 4.58641 81.0287 4.39989C80.3806 4.12729 79.7277 3.86904 79.0699 3.62513C77.7979 3.16123 76.5065 2.8169 75.191 2.49647C72.7824 1.9178 70.3352 1.5065 67.8685 1.28173C65.4745 1.06174 62.9063 1.42998 60.4832 1.47781C56.14 1.55911 51.7871 1.52563 47.444 1.52563C45.8431 1.52563 44.2422 1.52563 42.6413 1.54955C37.6162 1.60215 32.5911 1.66433 27.5659 1.72171H27.5417Z" fill="#EAEAEA"/>
<path d="M40.5134 40.0627C40.3634 40.211 40.1216 40.2062 39.9717 40.0627C32.5767 40.0149 25.1671 39.9718 17.8011 39.5606C17.8011 39.5701 17.8108 39.5749 17.8157 39.5845C18.0381 40.0579 17.4336 40.3879 17.124 39.9862C17.0079 39.8332 16.8967 39.6706 16.8 39.508C16.7419 39.508 16.6839 39.508 16.621 39.4984C16.1954 39.4745 16.1325 38.9484 16.4324 38.781C15.3442 36.2128 15.9584 32.7695 16.147 30.2013C16.4324 26.2223 16.829 21.9946 17.9414 18.1543C18.0091 17.9199 18.2993 17.8721 18.4637 17.9869C36.0348 17.5134 53.6058 17.2552 71.1817 17.1643C71.2736 17.0974 71.4041 17.1021 71.5202 17.1643C75.728 17.1452 79.9406 17.1308 84.1483 17.1261C91.0694 17.1261 97.9904 17.1548 104.911 17.2074C104.979 16.8822 105.429 16.8726 105.487 17.2074C106.561 17.2169 107.63 17.2217 108.703 17.2265C108.761 16.7578 109.409 16.753 109.453 17.2361C111.987 17.26 114.526 17.2839 117.061 17.3174C127.217 17.4369 137.408 17.4369 147.56 17.8769C148.295 17.5613 149.18 17.5947 149.997 17.6569C152.561 17.8339 155.153 17.8243 157.726 17.9008C158.916 17.9343 160.246 18.0252 161.054 18.886C161.523 19.3834 161.736 20.0625 161.929 20.7129C163.254 25.108 164.637 29.4791 166.011 33.8551C167.017 37.0593 168.013 40.2684 169.029 43.4774C169.784 45.8782 170.64 48.1594 171.089 50.565C171.268 51.4928 171.384 52.4397 171.413 53.4249C171.442 54.3288 171.442 55.2279 171.428 56.127C172.424 56.3518 173.406 56.7248 174.373 57.0452C175.128 57.2939 175.931 57.5139 176.676 57.8295C174.649 49.7615 172.211 41.8035 169.358 33.9842C167.776 29.6417 166.04 25.3567 164.193 21.1194C163.365 19.2208 162.398 17.3843 161.523 15.5096C161.416 15.5096 161.315 15.5 161.208 15.4952C136.711 14.3857 112.277 12.8984 87.7419 12.6592C75.4184 12.5397 63.0902 12.6258 50.7668 12.9079C38.1628 13.1901 25.5782 13.9553 12.9792 14.2757C12.9114 14.2757 12.8534 14.2614 12.7954 14.247C12.5487 19.3308 11.799 24.4097 11.5282 29.5078C11.3976 31.9899 11.3251 34.472 11.2815 36.9541C11.2622 38.2549 10.7979 39.9432 11.267 41.1722C11.7749 42.5113 12.5826 42.76 13.8787 42.7744C15.2862 42.7887 16.6888 42.8031 18.0962 42.8174C20.9642 42.8557 23.8371 42.8987 26.7052 42.9465C32.4461 43.047 38.1822 43.1761 43.9231 43.3148C55.6371 43.6017 67.3511 43.9413 79.0652 44.1948C101.502 44.6778 123.943 45.113 146.38 45.6582C146.389 45.6582 146.394 45.6678 146.399 45.6678C146.365 44.3335 146.326 42.9991 146.293 41.6648C141.229 41.9422 136.083 41.6075 131.019 41.5501C125.689 41.4927 120.359 41.3779 115.034 41.2918C104.094 41.1149 93.1636 40.9379 82.2234 40.7562C80.0276 40.7227 77.8319 40.6797 75.6361 40.6414C75.578 40.651 75.52 40.651 75.462 40.6414C66.7804 40.4931 58.0989 40.3258 49.4174 40.1823C46.4526 40.1345 43.4782 40.1105 40.5037 40.0914L40.5134 40.0627Z" fill="#515151"/>
<path d="M18.4975 18.8812C18.1106 22.1237 17.4964 25.3279 17.1965 28.5896C16.8966 31.8655 16.3259 35.5337 17.4528 38.7044C24.872 38.5227 32.3202 38.7236 39.7588 38.9197C39.4686 35.7537 39.6234 32.5016 39.575 29.3356C39.5218 25.7201 39.309 22.0615 39.5025 18.4507C32.4992 18.5703 25.4959 18.7138 18.4975 18.8859V18.8812Z" fill="#B6EEFF"/>
<path d="M38.182 81.5983C37.945 83.9991 40.1892 85.8547 42.4382 85.8595C45.3884 85.8595 46.8103 82.8227 46.1139 80.331C45.6399 78.6237 44.0245 77.7532 42.3463 77.5763C40.223 78.1215 38.419 79.2119 38.1772 81.5983H38.182Z" fill="#E5E5E5"/>
<path d="M40.4892 18.6994C40.7165 21.961 40.6198 25.2657 40.6488 28.5274C40.6778 31.9612 40.939 35.505 40.6972 38.9436C41.7128 38.9675 42.7285 38.9914 43.7442 39.0201C43.5507 35.6293 43.6523 32.2194 43.6426 28.8287C43.6329 25.347 43.5507 21.8463 43.7974 18.3742C42.6898 18.3886 41.5822 18.4172 40.4747 18.4316C40.4843 18.4555 40.4892 18.4794 40.4892 18.5081C40.5037 18.5846 40.4989 18.6468 40.4892 18.7042V18.6994Z" fill="#515151"/>
<path d="M43.1154 87.0263C40.2522 87.6385 37.3212 85.3572 36.9924 82.5404C36.707 80.1348 38.3369 77.5858 40.6584 76.9688C43.0573 76.0554 46.0753 77.0023 47.1007 79.5179C48.4549 82.8369 46.6509 86.2659 43.1202 87.0263H43.1154ZM32.5573 73.8172C29.5345 77.1027 28.6446 81.4835 28.4801 85.7638C28.4801 85.9503 28.4076 86.0937 28.3108 86.1942C30.8161 91.5792 36.47 95.0991 42.5156 94.9317C48.658 94.7643 53.7702 90.0727 55.9563 84.6303C54.9116 81.5648 54.3796 78.4322 52.769 75.5054C50.7764 71.8851 47.3715 69.5847 43.2024 69.2786C39.1204 68.9821 35.2561 70.8855 32.5621 73.8124L32.5573 73.8172Z" fill="#333333"/>
<path d="M44.4936 18.3551C44.7596 21.832 44.6919 25.3375 44.7064 28.8239C44.7161 32.2194 44.8273 35.6437 44.6532 39.0392C45.9687 39.0679 47.2794 39.0918 48.5901 39.1157C56.0142 39.2353 63.4382 39.3405 70.8622 39.4553C70.9009 35.7393 70.7752 32.0186 70.7945 28.3026C70.809 24.9262 70.6059 21.4254 70.9832 18.0586C62.1517 18.1112 53.3299 18.2116 44.4984 18.3551H44.4936Z" fill="#B6EEFF"/>
<path d="M42.438 85.8595C40.189 85.8499 37.9449 83.9943 38.1819 81.5983C38.4237 79.2119 40.2277 78.1215 42.3509 77.5763C44.0292 77.7532 45.6446 78.6236 46.1186 80.331C46.815 82.8226 45.3931 85.8643 42.4428 85.8595H42.438ZM40.6582 76.9737C38.3366 77.5859 36.7116 80.1397 36.9921 82.5453C37.321 85.3621 40.2567 87.6386 43.1151 87.0312C46.6506 86.2756 48.4498 82.8418 47.0955 79.5227C46.075 77.0072 43.0571 76.0602 40.6533 76.9737H40.6582Z" fill="#0F0E14"/>
<path d="M63.7816 65.8879C64.0186 68.9773 63.8928 72.129 63.9509 75.2184C64.0137 78.5662 64.1395 81.9139 64.1685 85.2616C66.1321 85.3381 68.1006 85.4386 70.0497 85.4816C74.8185 85.6012 79.5873 85.692 84.3609 85.759C88.854 85.8211 93.3472 85.8546 97.8354 85.869C99.5621 85.8785 101.327 85.8116 103.098 85.7685C103.465 79.7283 103.523 73.5446 104.515 67.5904C97.8693 67.3896 91.2239 67.0165 84.5834 66.7344C81.2172 66.5861 77.8607 66.4522 74.4945 66.3135C70.9541 66.17 67.3074 66.28 63.7864 65.8927L63.7816 65.8879Z" fill="#2D9CBA"/>
<path d="M71.8488 28.3026C71.8247 32.0233 71.6457 35.7441 71.6409 39.46C72.8016 39.4744 73.9672 39.4935 75.1328 39.5127C75.0845 35.9832 75.1812 32.4538 75.1522 28.9243C75.128 25.3901 74.833 21.5402 75.3892 18.0251C74.1897 18.0251 72.9903 18.0394 71.786 18.049C72.139 21.4111 71.873 24.9262 71.8488 28.2978V28.3026Z" fill="#515151"/>
<path d="M76.2599 28.1256C76.1922 31.9229 76.1777 35.7345 76.0326 39.5318C77.8221 39.5557 79.6019 39.5796 81.3914 39.6131C89.0621 39.7374 96.7328 39.8617 104.399 39.9909C104.457 36.2701 104.466 32.5494 104.524 28.8334C104.578 25.2753 104.466 21.631 104.805 18.0824C97.9177 18.0346 91.0257 18.0059 84.1385 18.0107C81.5075 18.0107 78.8813 18.0203 76.2502 18.0298C76.6855 21.3106 76.3179 24.8353 76.2599 28.1256Z" fill="#B6EEFF"/>
<path d="M105.468 28.8239C105.4 32.5495 105.284 36.2702 105.216 39.9958L108.331 40.0436C108.331 36.4711 108.399 32.9034 108.437 29.3309C108.476 25.6197 108.287 21.8033 108.611 18.0969C107.591 18.0873 106.565 18.0825 105.545 18.0778C105.767 21.6359 105.53 25.2706 105.468 28.8239Z" fill="#515151"/>
<path d="M109.491 28.5274C109.458 32.3725 109.467 36.2223 109.395 40.0674C110.996 40.0914 112.596 40.1153 114.202 40.1487C119.527 40.23 124.857 40.3161 130.187 40.407C133.901 40.4692 137.679 40.407 141.422 40.5266C141.248 36.8249 141.495 33.0516 141.538 29.35C141.562 27.3987 141.586 25.4475 141.611 23.501C141.625 21.9037 141.504 20.2394 141.848 18.6755C133.587 18.5607 125.316 18.2929 117.061 18.1973C114.546 18.1638 112.031 18.1399 109.516 18.116C109.753 21.5593 109.516 25.0936 109.496 28.5322L109.491 28.5274Z" fill="#B6EEFF"/>
<path d="M132.9 82.3778C132.861 86.1368 128.992 88.4228 125.568 87.7581C121.989 87.0646 120.011 82.8656 121.539 79.6566C123.063 76.4571 127.193 75.0798 130.148 77.2845C131.821 78.2649 132.919 80.1205 132.9 82.3778ZM128.064 68.6761C123.57 68.3843 119.3 70.7134 116.451 74.0037C113.757 77.1123 113.772 81.1057 112.456 84.7021C114.197 87.6911 115.958 90.0919 119.024 91.9284C122.032 93.7314 125.689 94.4009 129.152 93.8653C135.667 92.861 140.077 87.5333 141.635 81.5457C140.972 79.4318 140.614 77.1936 139.439 75.2902C137.045 71.4164 132.586 68.9726 128.064 68.6761Z" fill="#333333"/>
<path d="M128.644 77.7867C126.646 77.2846 124.586 77.5954 123.213 79.3888C121.312 81.8662 122.7 85.2426 125.403 86.3378C128.001 87.3851 130.574 85.6826 131.43 83.2578C132.291 80.814 130.748 78.7145 128.644 77.7867Z" fill="#E5E5E5"/>
<path d="M132.9 82.3778C132.92 80.1205 131.822 78.2649 130.148 77.2845C127.193 75.0798 123.063 76.4572 121.539 79.6566C120.011 82.8609 121.989 87.0647 125.568 87.7581C128.992 88.4229 132.862 86.1369 132.9 82.3778ZM128.644 77.7867C130.748 78.7145 132.291 80.814 131.43 83.2578C130.574 85.6825 127.996 87.3851 125.404 86.3377C122.705 85.2425 121.312 81.8661 123.213 79.3888C124.586 77.5954 126.647 77.2845 128.644 77.7867Z" fill="#0F0E14"/>
<path d="M142.53 23.4963C142.51 25.4427 142.486 27.394 142.467 29.3452C142.423 33.0564 142.583 36.8441 142.322 40.5505C143.647 40.5983 144.962 40.6844 146.278 40.7992C146.201 37.8867 146.123 34.9741 146.041 32.0616C145.934 28.0874 145.552 23.9936 146.055 20.0624C146.113 19.5842 146.273 19.1155 146.539 18.7186C145.161 18.709 143.782 18.6947 142.399 18.6755C142.704 20.2442 142.544 21.9037 142.525 23.4963H142.53Z" fill="#515151"/>
<path d="M147.579 18.7903C146.133 23.2475 146.829 28.3026 146.96 32.8938C147.037 35.5672 147.11 38.2453 147.187 40.9235C147.419 41.067 147.429 41.4018 147.202 41.5404C147.202 41.6457 147.211 41.7509 147.211 41.8561C147.327 41.837 147.458 41.8561 147.589 41.9565C155.114 47.4468 162.993 52.674 170.233 58.5373C170.209 55.9021 170.19 53.2383 170.509 50.6606C170.451 50.6128 170.398 50.5554 170.373 50.4741C168.734 45.2612 167.056 40.0627 165.329 34.8833C164.468 32.2912 163.641 29.6895 162.828 27.0783C162.093 24.7253 161.174 22.3484 160.754 19.9094C157.992 17.939 150.592 18.9386 147.579 18.7999V18.7903Z" fill="#B6EEFF"/>
<path d="M153.847 50.0772C153.571 49.3646 152.362 49.3502 151.724 49.3167C149.755 49.2163 150.128 51.2967 150.176 52.2771C150.239 53.4584 150.302 54.6396 150.331 55.8209C151.497 55.9309 152.662 56.0122 153.833 56.0839C153.784 56.0839 153.808 52.0475 153.808 51.6793C153.808 51.2536 153.997 50.4693 153.847 50.0772Z" fill="#515151"/>
<path d="M154.437 49.5367C154.901 50.3354 154.621 51.4402 154.621 52.3058C154.621 53.7023 154.611 55.094 154.606 56.4856C154.606 56.6817 154.432 56.8778 154.219 56.8682C152.793 56.763 151.361 56.6722 149.924 56.6243C149.678 56.6148 149.523 56.4378 149.504 56.2083C149.388 54.8979 149.32 53.5875 149.252 52.2819C149.209 51.5406 149.068 50.4597 149.489 49.7806C150.099 48.805 150.848 48.7428 151.869 48.7715C152.759 48.7955 153.9 48.6233 154.432 49.5415L154.437 49.5367ZM169.769 59.2451C162.035 54.257 154.717 48.4798 147.255 43.0995C147.303 44.936 147.356 46.7629 147.409 48.5994C147.463 50.608 147.526 52.6166 147.588 54.6253C147.975 54.7544 147.985 55.3235 147.613 55.4718C147.7 58.4178 147.796 61.359 147.874 64.305C148.019 69.6374 148.44 75.0751 148.261 80.4123C152.169 80.264 156.193 80.7757 160.091 80.9909C162.2 81.1057 164.337 81.4357 166.441 81.1344C169.387 80.7088 169.957 77.911 170.064 75.472C170.257 71.1056 170.189 66.7105 170.247 62.3394C170.262 61.4211 170.247 60.4838 170.247 59.5464C170.088 59.446 169.928 59.3408 169.769 59.2356V59.2451Z" fill="#2D9CBA"/>
<path d="M151.724 49.3167C152.362 49.3502 153.571 49.3645 153.847 50.0771C153.997 50.4693 153.808 51.2536 153.808 51.6792C153.808 52.0475 153.789 56.0791 153.832 56.0839C152.667 56.0121 151.501 55.9308 150.331 55.8208C150.302 54.6396 150.239 53.4583 150.176 52.277C150.128 51.3014 149.755 49.2163 151.724 49.3167ZM154.616 52.3057C154.616 51.4401 154.901 50.3354 154.432 49.5367C153.9 48.6232 152.754 48.7906 151.869 48.7667C150.848 48.738 150.099 48.7954 149.489 49.7758C149.068 50.4549 149.209 51.5357 149.252 52.277C149.325 53.5874 149.393 54.8978 149.504 56.2034C149.518 56.433 149.678 56.6147 149.925 56.6195C151.361 56.6673 152.788 56.7582 154.219 56.8634C154.432 56.8778 154.601 56.6817 154.606 56.4808C154.606 55.0891 154.621 53.6974 154.621 52.3009L154.616 52.3057Z" fill="#0F0E14"/>
<path d="M12.9839 14.2614C25.583 13.9457 38.1725 13.1805 50.7716 12.8936C63.0901 12.6114 75.4232 12.5253 87.7467 12.6449C112.282 12.8888 136.716 14.3714 161.213 15.4809L161.242 14.8831C136.886 12.4201 112.219 11.8367 87.7467 11.6023C75.1427 11.478 62.5339 11.5545 49.93 11.8367C37.6211 12.1141 25.2493 12.3436 12.9791 13.3766C12.834 13.391 12.7276 13.4579 12.6551 13.544L12.8002 14.2279C12.8534 14.2422 12.9162 14.2566 12.9839 14.2566V14.2614Z" fill="#0F0E14"/>
<path d="M104.403 39.9861C96.7375 39.8618 89.0668 39.7374 81.3961 39.6083C79.6066 39.5796 77.8268 39.5557 76.0372 39.527C76.1823 35.7345 76.1969 31.9229 76.2646 28.1208C76.3226 24.8257 76.6902 21.3058 76.2549 18.0251C78.8859 18.0107 81.5122 18.0107 84.1432 18.0059C91.0304 18.0059 97.9224 18.0299 104.81 18.0777C104.471 21.6263 104.587 25.2705 104.529 28.8286C104.471 32.5494 104.461 36.2701 104.403 39.9861ZM108.331 40.0483L105.216 40.0005C105.284 36.2749 105.4 32.5542 105.467 28.8286C105.53 25.2753 105.767 21.6406 105.545 18.0825C106.565 18.092 107.591 18.0968 108.611 18.1016C108.287 21.808 108.476 25.6244 108.437 29.3356C108.398 32.9033 108.331 36.4758 108.331 40.0483ZM141.538 29.3499C141.495 33.0515 141.253 36.8249 141.422 40.5265C137.679 40.4117 133.901 40.4691 130.187 40.407C124.857 40.3161 119.527 40.23 114.202 40.1487C112.596 40.12 110.996 40.0961 109.395 40.0674C109.467 36.2223 109.458 32.3724 109.491 28.5273C109.516 25.0888 109.748 21.5545 109.511 18.1112C112.026 18.1303 114.541 18.159 117.056 18.1925C125.316 18.2881 133.582 18.5559 141.843 18.6707C141.499 20.2393 141.625 21.9036 141.606 23.4962C141.582 25.4427 141.557 27.3939 141.533 29.3451L141.538 29.3499ZM146.278 40.8039C144.962 40.6891 143.647 40.603 142.322 40.5552C142.583 36.8488 142.423 33.0611 142.467 29.3499C142.486 27.3987 142.51 25.4474 142.53 23.501C142.544 21.9084 142.708 20.2489 142.404 18.6803C143.787 18.6946 145.165 18.7137 146.544 18.7233C146.283 19.1203 146.123 19.5937 146.06 20.0672C145.552 23.9984 145.939 28.0921 146.046 32.0664C146.128 34.9789 146.205 37.8914 146.283 40.8039H146.278ZM43.8019 18.3694C43.5504 21.8415 43.6375 25.347 43.6472 28.8239C43.6568 32.2194 43.5553 35.6293 43.7487 39.0153C42.7331 38.9914 41.7174 38.9674 40.7017 38.9388C40.9484 35.5002 40.6872 31.9611 40.6534 28.5226C40.6243 25.2561 40.7211 21.9515 40.4938 18.6946C40.5083 18.6372 40.5083 18.5751 40.4938 18.4985C40.4938 18.4746 40.4841 18.4507 40.4792 18.422C41.5868 18.4077 42.6944 18.379 43.8019 18.3646V18.3694ZM70.7848 28.3026C70.7655 32.0185 70.8912 35.7393 70.8525 39.4553C63.4285 39.3405 56.0044 39.24 48.5804 39.1157C47.2697 39.0966 45.959 39.0679 44.6435 39.0392C44.8224 35.6436 44.7064 32.2242 44.6967 28.8239C44.6822 25.3374 44.7499 21.8319 44.4839 18.3551C53.3153 18.2116 62.1371 18.1112 70.9686 18.0585C70.5865 21.4254 70.7945 24.9262 70.78 28.3026H70.7848ZM71.8488 28.3026C71.873 24.9309 72.139 21.4206 71.786 18.0538C72.9902 18.0442 74.1897 18.0346 75.3892 18.0299C74.8378 21.545 75.128 25.3948 75.1522 28.9291C75.1764 32.4585 75.0796 35.988 75.1328 39.5174C73.9672 39.4983 72.8016 39.4792 71.6409 39.4648C71.6409 35.7489 71.8246 32.0233 71.8488 28.3074V28.3026ZM39.7538 38.9196C32.3201 38.7283 24.867 38.5227 17.4478 38.7044C16.3209 35.5384 16.8916 31.8655 17.1915 28.5895C17.4913 25.3279 18.1104 22.1236 18.4925 18.8811C25.4909 18.709 32.4942 18.5655 39.4974 18.4459C39.304 22.0567 39.5119 25.72 39.57 29.3308C39.6183 32.4968 39.4587 35.7489 39.7538 38.9148V38.9196ZM38.0271 54.5009C26.1245 54.5009 14.1203 54.1183 2.23698 54.8165V55.2947C14.4008 56.0073 26.6855 55.6104 38.8687 55.6104C50.9309 55.6104 62.9932 55.6104 75.0603 55.6008C87.1225 55.6008 99.1848 55.553 111.247 55.553C123.063 55.553 134.859 55.7921 146.665 55.5387C146.747 58.7381 146.829 61.9424 146.916 65.1466C147.061 70.2351 146.94 75.4385 147.4 80.5031L148.261 80.4266C148.44 75.0893 148.014 69.6517 147.874 64.3192C147.792 61.3732 147.7 58.432 147.613 55.486C147.985 55.3378 147.975 54.7687 147.589 54.6396C147.53 52.6309 147.468 50.6223 147.41 48.6137C147.356 46.7772 147.303 44.9503 147.255 43.1138C154.718 48.4941 162.035 54.2713 169.769 59.2594L170.238 58.5468C162.998 52.6835 155.114 47.4611 147.593 41.966C147.463 41.8704 147.337 41.8465 147.216 41.8656C147.216 41.7604 147.216 41.6552 147.206 41.55C147.429 41.4065 147.424 41.0717 147.192 40.933C147.115 38.2596 147.042 35.5815 146.965 32.9033C146.834 28.3121 146.138 23.2571 147.584 18.7998C150.597 18.9433 157.997 17.9438 160.758 19.9094C161.179 22.3436 162.098 24.7253 162.833 27.0783C163.651 29.6847 164.473 32.2911 165.334 34.8832C167.06 40.0674 168.739 45.2659 170.378 50.474C170.402 50.5553 170.456 50.6175 170.514 50.6605L171.089 50.5553C170.634 48.1498 169.783 45.8637 169.029 43.4677C168.013 40.2635 167.017 37.0545 166.011 33.8454C164.637 29.4695 163.249 25.1031 161.929 20.7032C161.735 20.0528 161.523 19.3737 161.053 18.8763C160.246 18.0155 158.92 17.9246 157.726 17.8912C155.153 17.8146 152.56 17.8242 149.997 17.6473C149.175 17.5899 148.295 17.5564 147.56 17.8672C137.408 17.4273 127.217 17.4273 117.061 17.3077C114.526 17.279 111.987 17.2551 109.453 17.2264C109.409 16.7434 108.766 16.7482 108.703 17.2168C107.629 17.2073 106.56 17.2025 105.487 17.1977C105.434 16.8582 104.979 16.8677 104.911 17.1977C97.9902 17.1499 91.0643 17.1164 84.1481 17.1164C79.9403 17.1164 75.7277 17.1308 71.52 17.1547C71.4039 17.0973 71.2733 17.0925 71.1814 17.1547C53.6055 17.2455 36.0345 17.5038 18.4635 17.9772C18.299 17.8625 18.0088 17.9103 17.9411 18.1446C16.8287 21.9849 16.4321 26.2126 16.1468 30.1916C15.963 32.7598 15.3439 36.208 16.4321 38.7714C16.1323 38.9388 16.1951 39.4648 16.6208 39.4887C16.6788 39.4887 16.7368 39.4983 16.7997 39.4983C16.8964 39.6657 17.0077 39.8235 17.1237 39.9765C17.4381 40.3783 18.0427 40.0483 17.8154 39.5748C17.8154 39.5653 17.8057 39.5605 17.8009 39.5509C25.1669 39.9622 32.5764 40.0052 39.9714 40.0531C40.1214 40.2013 40.3632 40.2013 40.5131 40.0531C43.4876 40.0722 46.462 40.0961 49.4268 40.1439C58.1083 40.2922 66.7898 40.4548 75.4714 40.603C75.5294 40.6174 75.5875 40.6174 75.6455 40.603C77.8413 40.6413 80.0419 40.6843 82.2328 40.7178C93.173 40.8996 104.103 41.0765 115.044 41.2535C120.369 41.3395 125.698 41.4543 131.028 41.5117C136.092 41.5643 141.238 41.8991 146.302 41.6265C146.336 42.9608 146.375 44.2951 146.408 45.6294C146.399 45.6294 146.394 45.6294 146.389 45.6198C123.953 45.0746 101.511 44.6394 79.0746 44.1564C67.3606 43.9077 55.6514 43.5682 43.9325 43.2764C38.1916 43.1377 32.4555 43.0086 26.7146 42.9082C23.8465 42.8604 20.9736 42.8173 18.1056 42.7791C16.6981 42.7647 15.2956 42.7504 13.8881 42.736C12.5919 42.7217 11.7842 42.473 11.2764 41.1339C10.8121 39.9048 11.2764 38.2166 11.2909 36.9158C11.3345 34.4337 11.407 31.9516 11.5376 29.4695C11.8084 24.3762 12.5581 19.2924 12.8047 14.2087L12.6597 13.5248C12.4759 13.4243 12.2002 13.477 12.147 13.7209C10.8121 19.8663 10.6235 26.5091 10.3865 32.7789C10.3188 34.6298 10.1398 36.4806 10.1447 38.3362C10.1447 39.6179 10.0963 41.6026 10.904 42.6691C11.6779 43.6877 12.7709 43.7164 13.9413 43.7595C15.3439 43.8073 16.7465 43.8503 18.1491 43.8934C21.0123 43.9842 23.8804 44.0608 26.7484 44.1373C32.4797 44.2808 38.2158 44.3907 43.9519 44.496C55.6562 44.7064 67.3606 44.869 79.0601 45.1081C101.497 45.5816 123.938 46.0933 146.375 46.5046C146.389 46.5046 146.404 46.495 146.423 46.495C146.437 47.1885 146.462 47.8772 146.476 48.5706C146.529 50.5649 146.583 52.5592 146.631 54.5487C134.549 54.2904 122.477 54.5343 110.391 54.5343C98.3287 54.5343 86.2665 54.4865 74.1994 54.4865C62.1371 54.4865 50.0749 54.4769 38.0126 54.4769L38.0271 54.5009Z" fill="#0F0E14"/>
<path d="M177.807 73.2768C176.235 73.4346 174.359 73.5446 173.067 72.4829C171.941 71.5503 171.636 70.3452 171.636 69.0061L171.084 68.9965C171.07 70.1156 171.06 71.2347 171.041 72.3538C171.012 74.4724 171.113 76.6198 170.538 78.681C169.537 82.2965 165.581 82.2487 162.509 82.1483C157.692 81.9857 152.628 82.0718 147.86 81.3544C147.681 81.3257 147.584 81.2253 147.54 81.0961C147.482 81.034 147.434 80.9479 147.424 80.8427C147.41 80.7279 147.405 80.6083 147.395 80.4935C146.941 75.4289 147.057 70.2256 146.912 65.1371C146.825 61.9328 146.742 58.7286 146.66 55.5291C134.854 55.7826 123.053 55.5435 111.242 55.5435C99.1801 55.5435 87.1179 55.5913 75.0556 55.5913C62.9885 55.5913 50.9263 55.5913 38.864 55.6009C26.6809 55.6009 14.3961 55.9978 2.23235 55.2852C2.24202 57.4038 2.25168 59.5273 2.26619 61.6507C2.2952 65.6392 2.32422 69.623 2.34357 73.6116C2.35808 76.4524 1.29889 79.561 2.4935 82.3157C2.95297 83.3726 4.40877 84.0373 5.46796 84.4008C8.21027 85.3334 11.2669 85.0034 14.1156 84.9795C16.5339 84.9651 18.957 84.9412 21.3752 84.9412C23.0293 84.9412 24.9494 84.6686 26.6519 84.9508C26.7341 84.7691 26.9179 84.6543 27.121 84.6256C27.0775 76.0267 33.5826 68.0831 42.5785 67.9109C51.584 67.7387 56.6382 77.3467 57.2863 85.1899C59.2354 85.1182 61.199 85.1517 63.1627 85.2186C63.1288 82.1578 63.1481 79.1018 63.2013 76.0411C63.2497 72.5642 63.0079 69.0396 63.2449 65.5723C63.2352 65.5149 63.2352 65.4575 63.2594 65.4001C63.2594 65.3619 63.2594 65.3188 63.2594 65.2853C63.2787 65.0175 63.6124 64.9984 63.7043 65.204C66.998 65.1084 70.3545 65.4862 73.6434 65.6249C77.0096 65.7684 80.3661 65.9071 83.7323 66.041C90.7356 66.3183 97.7533 66.5001 104.752 66.8683C105.182 66.8922 105.221 67.4853 104.858 67.5809V67.5953C105.027 73.6116 104.239 79.7379 103.77 85.7495C106.043 85.7016 108.316 85.7064 110.522 85.9742C111.465 83.5926 111.818 81.1009 112.447 78.6332C112.979 76.5385 114.077 74.6733 115.426 72.9899C118.173 69.5608 122.492 67.557 126.855 67.2701C131.275 66.9831 135.604 69.1017 138.67 72.129C140.174 73.6164 141.258 75.4576 142.036 77.4136C142.868 79.5036 143.091 81.6413 144.126 83.6021C146.413 83.4108 148.793 83.6213 151.081 83.6595C153.562 83.6978 156.043 83.7408 158.524 83.7743C162.016 83.8317 165.532 83.846 169.019 84.1043C171.496 84.176 174.098 84.5491 176.182 82.9039C178.209 81.3066 178.015 78.0497 177.928 75.7637C177.899 74.9363 177.856 74.1042 177.812 73.2673L177.807 73.2768Z" fill="#7DC7E7"/>
<path d="M171.67 68.1787C171.781 66.7057 172.245 65.534 173.599 64.831C174.692 64.2667 176.182 64.391 177.338 64.8549C177.29 63.5541 177.265 62.2581 177.285 60.962C175.278 60.6225 173.285 59.8907 171.336 59.2881C171.258 61.139 171.167 62.9898 171.142 64.8406C171.128 66.2227 171.108 67.6096 171.089 68.9918L171.64 69.0013C171.64 68.7287 171.655 68.4561 171.674 68.174L171.67 68.1787Z" fill="#7DC7E7"/>
<path d="M177.367 65.5197C176.622 65.5053 175.887 65.3714 175.137 65.3953C173.183 65.4431 172.767 67.117 172.676 68.6665C172.472 71.9521 175.104 72.4542 177.754 72.2294C177.618 69.996 177.469 67.7578 177.372 65.5197H177.367Z" fill="#F5E388"/>
<path d="M174.939 9.71796C170.567 10.7223 166.398 12.2431 162.296 14.1991C162.543 14.663 162.775 15.1413 162.988 15.6291C166.949 14.7156 171.128 13.3383 175.205 12.9365C175.079 12.1187 174.983 11.2962 174.934 10.4831C174.925 10.3636 174.92 10.244 174.915 10.1245C174.915 10.0766 174.925 10.0384 174.929 10.0001C174.91 9.90925 174.915 9.81361 174.939 9.71796Z" fill="#EAEAEA"/>
<path d="M171.37 58.3364C173.333 58.9151 175.408 59.3933 177.29 60.1824C177.29 60.1729 177.29 60.1681 177.29 60.1681V60.1489C177.251 60.1011 177.227 60.0485 177.207 59.9816C177.101 59.5511 176.99 59.1207 176.888 58.6903C175.945 58.542 175.031 58.1929 174.122 57.9108C173.217 57.6382 172.289 57.3751 171.399 57.026C171.389 57.466 171.379 57.9012 171.36 58.3364H171.37Z" fill="#EAEAEA"/>
<path d="M63.7817 65.8879C67.3027 66.2753 70.9494 66.1701 74.4898 66.3087C77.856 66.4474 81.2125 66.5861 84.5787 66.7296C91.2241 67.0118 97.8646 67.3848 104.51 67.5857C103.523 73.5398 103.46 79.7283 103.093 85.7638C101.323 85.8068 99.5574 85.8738 97.8307 85.8642C93.3425 85.8499 88.8493 85.8164 84.3562 85.7542C79.5826 85.6872 74.8138 85.6012 70.045 85.4768C68.0911 85.429 66.1274 85.3286 64.1638 85.2568C64.1396 81.9091 64.0139 78.5614 63.9462 75.2137C63.8881 72.1194 64.0139 68.9678 63.7769 65.8831L63.7817 65.8879ZM26.6567 84.9603C24.9591 84.6781 23.0342 84.946 21.3801 84.9507C18.957 84.9507 16.5388 84.9699 14.1205 84.989C11.2718 85.0081 8.21513 85.3381 5.47282 84.4103C4.41364 84.0469 2.95786 83.3821 2.49838 82.3252C1.30376 79.5657 2.35812 76.4619 2.34845 73.6211C2.33394 69.6326 2.30008 65.6488 2.27106 61.6602C2.25656 59.5368 2.24687 57.4134 2.2372 55.2947V54.8165C2.21303 49.2067 2.21786 43.5969 2.29526 37.9823C2.40166 30.7751 2.08728 23.3336 3.00139 16.1743C3.65431 11.0857 6.00002 5.12679 11.03 2.77382C13.5353 1.60212 15.8858 2.18558 18.483 1.99907C21.4817 1.79342 24.5383 1.75516 27.5418 1.72168C32.5669 1.66429 37.5921 1.6069 42.6172 1.54952C44.2181 1.53039 45.819 1.5256 47.4198 1.5256C51.763 1.5256 56.1159 1.5543 60.4591 1.47778C62.8821 1.42995 65.4503 1.06171 67.8444 1.2817C70.311 1.50647 72.7583 1.91776 75.1669 2.49644C76.4824 2.81687 77.7738 3.1612 79.0458 3.6251C79.7035 3.86901 80.3613 4.12726 81.0045 4.39986C81.4495 4.58637 82.2378 5.14592 82.707 5.14592C73.8707 5.05027 65.0296 5.03593 56.1836 5.11723C44.7114 5.22244 33.1425 5.14592 21.7138 6.14545C21.2543 6.18371 21.2399 6.85326 21.7138 6.85804C33.1909 7.07803 44.6969 6.49457 56.1836 6.39893C67.6751 6.30328 79.1667 6.34154 90.6582 6.53762C91.0113 6.54718 91.3595 6.55196 91.7126 6.55675C103.422 6.76717 115.121 7.1689 126.816 7.66628C132.663 7.91496 138.511 8.18756 144.358 8.47451C146.825 8.58929 149.296 8.71363 151.758 8.83798C153.91 8.94319 155.835 8.95754 157.721 10.1627C159.496 11.3009 160.333 12.8648 161.155 14.706C161.179 14.7682 161.208 14.8256 161.237 14.8878L161.208 15.4856C161.315 15.4856 161.416 15.4952 161.523 15.4999C162.403 17.3747 163.365 19.2111 164.192 21.1098C166.04 25.347 167.776 29.6321 169.358 33.9746C172.211 41.7939 174.644 49.7567 176.675 57.8199C175.931 57.5042 175.128 57.2795 174.373 57.0356C173.406 56.7151 172.424 56.3421 171.428 56.1173C171.442 55.2134 171.442 54.3143 171.413 53.4152C171.384 52.4348 171.263 51.4831 171.089 50.5553L170.514 50.6605C170.195 53.2383 170.214 55.9021 170.238 58.5373L169.769 59.2498C169.924 59.3551 170.088 59.4603 170.248 59.5607C170.257 60.4981 170.262 61.4306 170.248 62.3536C170.19 66.7248 170.257 71.1199 170.064 75.4863C169.958 77.9253 169.387 80.7231 166.441 81.1487C164.342 81.45 162.2 81.1248 160.091 81.0052C156.193 80.79 152.169 80.2735 148.261 80.4266L147.4 80.5031C147.41 80.6179 147.415 80.7374 147.429 80.8522C147.444 80.9622 147.487 81.0435 147.545 81.1057C147.589 81.2348 147.685 81.3352 147.864 81.3639C152.633 82.0813 157.697 81.9952 162.514 82.1578C165.581 82.2582 169.537 82.3061 170.543 78.6905C171.118 76.6293 171.017 74.482 171.046 72.3633C171.06 71.2442 171.075 70.1251 171.089 69.006C171.109 67.6239 171.128 66.237 171.143 64.8549C171.167 63.0041 171.259 61.1533 171.336 59.3024C173.29 59.905 175.278 60.6367 177.285 60.9763V60.1968C175.403 59.4077 173.333 58.9246 171.37 58.3507C171.384 57.9107 171.399 57.4755 171.409 57.0403C172.298 57.3895 173.227 57.6525 174.131 57.9251C175.041 58.2073 175.955 58.5564 176.898 58.7046C177.004 59.1351 177.116 59.5655 177.217 59.9959C177.232 60.0629 177.261 60.1155 177.299 60.1633V60.1824L178.122 60.1011C178.122 60.0533 178.112 60.0007 178.107 59.9529C178.122 59.8955 178.122 59.8237 178.107 59.752C178.097 59.7137 178.093 59.6755 178.083 59.6372C178.035 59.1972 177.976 58.7572 177.909 58.3268C177.894 58.2073 177.812 58.1451 177.715 58.1307C175.655 49.618 173.121 41.2104 170.059 32.9942C168.507 28.8334 166.857 24.6966 165.063 20.6267C164.512 19.3689 164.009 18.0251 163.452 16.7003C167.336 15.8347 171.607 15.2656 175.36 13.8978L175.21 12.9509C171.138 13.3526 166.954 14.73 162.993 15.6434C162.775 15.1604 162.543 14.6774 162.301 14.2135C166.403 12.2574 170.567 10.7366 174.944 9.7323L174.813 8.8858C170.262 9.58404 165.813 11.0618 161.823 13.3574C161.518 12.8505 161.203 12.3531 160.841 11.894C159.356 10.0049 157.204 8.62277 154.839 8.10148C153.48 7.80497 152.038 7.81453 150.65 7.7141C149.088 7.59932 147.516 7.48932 145.949 7.38411C140.126 6.99673 134.298 6.67153 128.47 6.40371C116.809 5.85851 105.139 5.52852 93.4682 5.32287C92.5348 5.30853 91.6062 5.2894 90.6679 5.27505C88.622 5.24157 86.581 5.21766 84.5352 5.19375C82.3394 3.62032 79.7761 2.49166 77.1595 1.7982C74.5768 1.11431 71.9554 0.48781 69.2857 0.258253C66.6498 0.0430421 63.9994 0.00478246 61.3441 0C56.9865 0 52.6384 0.129126 48.2856 0.23434C46.1188 0.286947 43.9472 0.334772 41.7853 0.358684C36.7602 0.416074 31.7351 0.478246 26.7099 0.540417C23.2083 0.578677 19.7067 0.449551 16.205 0.540417C13.1048 0.621719 10.5318 1.26257 7.89108 2.87904C5.26003 4.48594 3.51888 7.93888 2.66283 10.7892C0.462204 18.1303 1.07161 26.2939 0.945862 33.8646C0.805603 42.3295 0.660507 50.7897 0.660507 59.2546C0.660507 65.7061 0.602478 72.1577 0.675018 78.6092C0.675018 79.054 0.675018 79.4796 0.660507 79.8861C0.616989 81.8039 0.621811 83.3486 2.5419 84.5395C4.58775 85.802 7.03987 86.4046 9.4436 86.4237C12.8824 86.4524 16.3308 86.4237 19.7792 86.3807C21.9605 86.3616 24.756 86.7824 26.9856 86.2468C29.5054 92.4449 36.1943 97.0982 43.1105 96.29C49.0062 95.6013 54.4134 91.7323 56.3239 86.2181C56.3964 86.2659 56.4835 86.3042 56.5899 86.3185C61.3006 86.8972 66.1565 86.7776 70.9011 86.8972C75.3894 87.012 79.8825 87.0981 84.3707 87.1602C89.1444 87.2272 93.9132 87.275 98.6868 87.2846C102.604 87.2942 106.778 87.6481 110.681 87.1124L110.541 86.0029C108.34 85.7351 106.067 85.7255 103.789 85.7781C104.258 79.7618 105.047 73.6402 104.878 67.6239V67.6096C105.24 67.5187 105.202 66.9257 104.771 66.897C97.7727 66.5287 90.7549 66.347 83.7517 66.0696C80.3855 65.9357 77.0289 65.797 73.6627 65.6535C70.3739 65.5149 67.0125 65.137 63.7237 65.2327C63.6366 65.027 63.3029 65.0509 63.2787 65.314C63.2787 65.3522 63.2787 65.3953 63.2787 65.4288C63.2594 65.4814 63.2594 65.5435 63.2642 65.6009C63.0272 69.0682 63.2739 72.5929 63.2207 76.0697C63.1723 79.1305 63.1482 82.1865 63.182 85.2473C61.2232 85.1803 59.2548 85.1468 57.3057 85.2186C56.6576 77.3801 51.6034 67.7722 42.5979 67.9396C33.602 68.1117 27.0969 76.0506 27.1404 84.6542C26.9373 84.6829 26.7535 84.8025 26.6712 84.9794L26.6567 84.9603ZM28.3108 86.1942C28.4075 86.0938 28.4753 85.9503 28.4801 85.7638C28.6445 81.4787 29.5344 77.098 32.5573 73.8172C35.256 70.8855 39.1156 68.9869 43.1976 69.2834C47.3715 69.5895 50.7764 71.8899 52.7642 75.5102C54.3747 78.437 54.9067 81.5648 55.9514 84.6351C53.7653 90.0775 48.6532 94.7691 42.5108 94.9365C36.4652 95.1039 30.8113 91.5792 28.306 86.199L28.3108 86.1942Z" fill="#0F0E14"/>
<path d="M141.635 81.5505C140.078 87.5381 135.667 92.8658 129.152 93.8701C125.689 94.4057 122.033 93.7314 119.024 91.9332C115.958 90.0967 114.197 87.6959 112.456 84.7069C113.772 81.1105 113.757 77.1172 116.451 74.0086C119.295 70.7182 123.571 68.3892 128.064 68.6809C132.581 68.9774 137.045 71.4212 139.439 75.295C140.614 77.1985 140.972 79.4366 141.635 81.5505ZM177.29 60.9668C177.275 62.2628 177.29 63.5589 177.343 64.8597C176.187 64.3958 174.697 64.2715 173.604 64.8358C172.245 65.5388 171.781 66.7105 171.674 68.1835C171.655 68.4657 171.641 68.7383 171.641 69.0109C171.641 70.35 171.945 71.5552 173.072 72.4877C174.364 73.5494 176.24 73.4394 177.812 73.2816C177.86 74.1186 177.899 74.9507 177.928 75.7781C178.015 78.0593 178.209 81.3209 176.182 82.9183C174.098 84.5586 171.496 84.1904 169.019 84.1187C165.532 83.8604 162.016 83.8461 158.524 83.7887C156.043 83.7504 153.562 83.7074 151.081 83.6739C148.793 83.6356 146.413 83.4252 144.126 83.6165C143.096 81.6557 142.868 79.5179 142.036 77.428C141.258 75.4768 140.174 73.6355 138.67 72.1434C135.604 69.1113 131.28 66.9927 126.855 67.2844C122.492 67.5714 118.173 69.58 115.426 73.0042C114.077 74.6829 112.979 76.5528 112.447 78.6475C111.823 81.1153 111.465 83.6069 110.522 85.9886L110.662 87.0981C110.918 87.0647 111.17 87.0216 111.421 86.9834C111.702 86.9355 111.803 86.6199 111.721 86.3808C111.731 86.3569 111.736 86.3329 111.75 86.3138C114.357 92.488 122.511 96.2709 128.929 95.2761C135.12 94.3196 140.789 89.3794 142.288 83.3248C142.341 83.4396 142.399 83.5639 142.457 83.6787C142.989 84.7213 143.729 84.9891 144.919 85.0417C146.467 85.1086 148.053 85.1708 149.605 85.1899C152.299 85.2234 154.993 85.1182 157.687 85.1756C161.755 85.2521 165.856 85.4051 169.928 85.1852C174.378 85.7495 178.533 84.0278 178.895 78.9345C179.142 75.4289 178.736 71.8421 178.571 68.3413C178.446 65.6106 178.397 62.8367 178.117 60.106L177.294 60.1873C177.294 60.1873 177.294 60.1968 177.294 60.2016V60.9811L177.29 60.9668ZM175.137 65.3953C175.892 65.3762 176.627 65.5053 177.367 65.5197C177.459 67.7579 177.614 70.0009 177.749 72.2295C175.104 72.4495 172.472 71.9473 172.671 68.6666C172.763 67.117 173.183 65.4432 175.133 65.3953H175.137Z" fill="#0F0E14"/>
<path d="M175.863 10.4306C176.787 13.434 177.111 16.7195 177.662 19.8042C177.928 21.2915 178.233 22.7741 178.508 24.2615C178.581 24.6393 179.142 28.0157 179.142 28.0157C179.887 28.0635 180.646 28.1161 181.376 27.9439C182.102 27.7718 182.808 27.3461 183.127 26.6718C183.263 26.3896 183.316 26.0931 183.34 25.7823C183.359 25.4953 183.34 25.1988 183.33 24.9071C183.205 22.3293 183.084 19.7564 182.852 17.1978C182.789 16.5187 182.078 9.65583 181.705 9.64148C181.091 9.62235 180.467 9.45975 179.853 9.43106C178.446 9.37367 177.091 9.78974 175.858 10.4258L175.863 10.4306Z" fill="#EAEAEA"/>
<path d="M176.424 19.2782C176.748 21.0429 177.024 22.8124 177.338 24.5771C177.57 25.8732 177.478 27.6905 178.441 28.7044C180.259 30.6174 183.766 29.0965 184.07 26.6527C184.104 26.3849 184.133 26.1171 184.153 25.854L183.34 25.7775C183.321 26.0884 183.263 26.3897 183.127 26.6671C182.808 27.3414 182.107 27.767 181.376 27.9392C180.646 28.1114 179.887 28.0588 179.142 28.0109C179.142 28.0109 178.581 24.6345 178.508 24.2567C178.233 22.7694 177.928 21.2868 177.662 19.7995C177.111 16.7148 176.782 13.4292 175.863 10.4258L174.934 10.4784C174.983 11.2915 175.079 12.114 175.205 12.9318L175.355 13.8788C175.674 15.6913 176.095 17.5039 176.419 19.2734L176.424 19.2782Z" fill="#0F0E14"/>
<path d="M177.319 8.56061C176.482 8.63713 175.64 8.74234 174.809 8.87625L174.939 9.72275C174.915 9.81361 174.91 9.90926 174.929 10.0049C174.92 10.0432 174.915 10.0862 174.915 10.1293C174.915 10.2488 174.929 10.3684 174.934 10.4879L175.863 10.4353C177.096 9.79927 178.45 9.38319 179.858 9.44058C180.472 9.4645 181.096 9.6271 181.71 9.65101C182.083 9.66536 182.794 16.5282 182.857 17.2073C183.089 19.7707 183.21 22.3389 183.335 24.9166C183.35 25.2036 183.364 25.5001 183.345 25.7918L184.158 25.8683C184.385 23.4867 184.336 21.1433 184.177 18.7281C184.041 16.6573 183.838 14.5865 183.49 12.5396C183.316 11.521 183.403 10.3349 182.886 9.40711C182.247 8.25932 180.588 8.21627 179.413 8.26888C178.692 8.30236 177.996 8.40279 177.319 8.57496V8.56061Z" fill="#0F0E14"/>
</svg>
