<svg width="222" height="106" viewBox="0 0 222 106" fill="none" xmlns="http://www.w3.org/2000/svg">
<g style="mix-blend-mode:multiply" opacity="0.5">
<path d="M5.96576 78.2422C2.74879 85.1266 -0.228831 93.7709 5.07178 99.4868C9.14051 103.872 16.2643 104.33 22.5715 104.45C78.4426 105.463 134.321 105.59 190.206 105.724C195.401 105.738 200.673 105.738 205.685 104.478C210.69 103.218 215.491 100.5 217.899 96.3121C220.306 92.1237 219.715 86.3585 215.709 83.3457C160.232 76.2078 103.728 75.6939 48.1031 81.8181C33.8063 83.3949 18.2001 85.1618 5.96576 78.2422Z" fill="#4E365B"/>
</g>
<path d="M219.222 79.5234C221.418 82.5503 222.129 86.7035 220.827 90.2443C219.553 93.7498 217.891 94.8198 214.301 95.031C211.584 95.1929 208.867 95.2563 206.143 95.2633C200.694 95.2844 195.26 95.1084 189.812 95.1084C186.665 95.1155 183.504 95.1155 180.358 95.1155C178.063 101.338 169.031 104.295 163.118 103.619C158.212 103.056 152.926 99.6981 150.581 95.1155H80.5472C77.9075 103.485 67.6442 106.78 59.5419 105.372C53.7415 104.365 46.8711 100.17 44.8438 94.3341C44.8157 94.5523 44.7805 94.7565 44.7312 94.9747C44.6256 95.4956 43.985 95.4745 43.7246 95.1155H27.7523C23.3316 95.1084 18.9039 95.1084 14.4903 95.1084C11.9491 95.1084 9.40084 95.2422 6.85965 95.0662C5.42363 94.9677 3.43853 95.0662 2.23481 94.137C0.298995 92.6306 -0.0389014 89.294 0.00333453 87.0625C0.0596491 84.289 0.517208 81.1635 2.55861 79.1432C2.60789 78.735 2.88946 78.3478 3.43853 78.3337C3.57227 78.3267 3.70602 78.3267 3.83273 78.3267C3.76937 69.4712 7.61285 60.7917 12.3362 53.4849C12.7727 52.7951 13.1457 51.9715 13.8426 51.5069C14.6803 50.9437 15.8348 50.8241 16.7921 50.6059C19.1644 50.0638 21.5507 49.5852 23.9441 49.1558C28.773 48.2899 33.6443 47.6353 38.5155 47.0932C44.337 46.4527 50.1796 45.974 56.0223 45.5094C56.6699 40.7156 59.9784 35.4502 62.428 31.5223C62.6463 31.1773 62.8574 30.8324 63.0686 30.4875C65.8632 25.9401 69.1435 19.7948 74.5638 18.2813C78.9986 17.0424 83.6727 16.6693 88.2412 16.1484C88.2623 16.085 88.2835 16.0146 88.3398 15.9583C91.1766 12.136 94.6188 7.65897 98.2722 4.61094C100.933 2.39355 104.432 0.0916972 108.043 0.112815C116.398 0.16913 122.762 8.9542 126.669 15.4163C126.929 15.8387 131.132 15.7401 131.772 15.8035C137.08 16.2821 142.331 17.331 147.576 18.2039C148.378 18.3376 149.188 18.4714 149.927 18.8092C151.546 19.5554 152.926 21.8925 154.01 23.2792C156.051 25.8978 157.726 28.784 159.205 31.7475C161.598 36.5343 164.181 42.2572 164.273 47.7057C170.58 47.1636 177.106 47.6141 183.399 47.9309C190.03 48.2618 196.675 48.663 203.278 49.4021C206.502 49.7682 211.267 50.6692 211.999 54.6112C212.647 58.1168 211.408 61.7561 208.79 64.1425L207.276 64.1706C207.178 63.7975 207.1 63.5019 207.051 63.4315C206.671 62.812 205.671 63.1499 204.995 63.1851C204.045 63.2344 203.109 63.2766 202.166 63.3048C200.272 63.3541 198.371 63.3681 196.485 63.3541C192.698 63.34 188.918 63.2344 185.145 63.2344H159.31C159.296 64.1917 159.261 65.1561 159.212 66.1135H163.027L186.581 66.0994C193.521 66.0924 200.751 65.5151 207.677 66.1627L207.769 67.1623C200.335 67.8803 192.55 67.2468 185.109 67.2468L161.556 67.2327C160.831 67.2327 160.035 67.1483 159.324 67.2538C159.275 67.7818 158.937 68.1549 158.458 68.4505C157.395 69.1052 155.664 69.3093 154.791 69.5839C152.982 70.147 151.173 70.8017 149.575 71.8435C146.837 73.6244 145.724 75.5743 144.633 78.1859H148.287L149.054 79.5656C148.61 79.8753 148.09 80.1288 147.604 80.1358C147.505 80.1991 147.421 80.2766 147.322 80.3399H143.254C143.134 80.3611 143.014 80.3611 142.909 80.3399H111.112C105.994 80.3329 100.877 80.3329 95.7522 80.3329H84.2288C83.2151 80.3329 81.6876 80.6145 80.7725 80.1992C79.787 79.7627 79.6884 78.8194 79.1183 78.0662C78.6114 77.3975 77.7808 76.7921 77.1402 76.2501C75.5845 74.9267 73.874 73.7722 72.0438 72.8501C68.4748 71.048 64.4272 70.14 60.4289 70.5342C56.5854 70.9072 52.7631 72.0758 49.539 74.265C48.2016 75.1731 47.0542 76.3346 45.8997 77.4538C45.4351 77.9043 44.7875 78.3408 44.4426 78.8828C44.0836 79.4459 44.0132 80.1569 43.26 80.3962C42.4364 80.6497 41.127 80.4033 40.2612 80.4103C38.262 80.4244 36.2699 80.4385 34.2708 80.4455C24.0426 80.5089 13.8075 80.523 3.58637 80.1921C3.0373 82.501 2.15738 84.5987 2.30521 87.0625C2.42487 89.0687 3.60748 91.096 3.67084 93.0178C7.66917 92.2082 11.9209 92.5602 15.9756 92.5602C20.3892 92.5602 24.817 92.5602 29.2306 92.5532H43.3022C43.3092 91.9548 43.3867 91.3424 43.5486 90.8074C43.5838 86.9076 45.9701 82.508 48.3564 79.9739C52.045 76.0389 57.2893 73.5611 62.78 73.899C72.2197 74.4762 81.7087 82.501 80.864 92.5532H110.267C123.389 92.5461 136.51 92.5461 149.631 92.5461C149.547 92.1801 149.476 91.8211 149.434 91.448C149.42 91.3283 149.448 91.2298 149.511 91.1594C148.526 83.1416 155.164 75.2294 163.414 74.9126C173.572 74.5255 181.125 82.5503 180.569 92.5461C184.145 92.5461 187.721 92.5461 191.297 92.5532C199.765 92.5532 208.381 92.1238 216.835 92.8136C217.927 90.7722 219.222 88.9913 219.327 86.4993C219.433 84.0637 218.497 82.135 218.166 79.8261L218.975 79.2207C219.067 79.3122 219.144 79.4107 219.236 79.5375L219.222 79.5234ZM209.268 58.4336C209.824 56.4274 209.465 54.7309 208.374 53.5694C206.706 53.6328 204.291 55.1392 204.306 56.8638C204.313 57.9971 204.911 59.1375 205.953 59.6936C206.755 60.1301 207.565 60.1089 208.431 60.292C208.775 59.7077 209.092 59.1023 209.275 58.4336H209.268ZM206.108 52.2249C205.791 52.1263 205.453 52.0489 205.101 51.9926C200.3 51.2394 195.366 50.9789 190.515 50.6551C181.547 50.0568 172.417 50.3384 163.485 49.4303C162.844 49.3669 162.598 48.8319 162.71 48.3814C162.661 48.304 162.605 48.2336 162.576 48.135C160.563 42.6233 159.606 37.0763 156.72 31.8249C155.044 28.7769 152.94 26.0879 150.884 23.3566C150.117 22.343 149.357 21.3223 148.632 20.2734C148.512 20.3227 148.371 20.3579 148.209 20.3297C135.426 18.8304 122.945 17.0635 110.035 17.162C106.248 17.1832 102.468 17.3591 98.7017 17.6407C93.7108 18.0138 88.7199 18.5629 83.7501 19.1542C81.2512 19.4569 78.7663 19.7666 76.2673 20.0763C75.2326 20.203 73.9584 20.1256 73.0363 20.6465C72.1845 21.1111 71.5651 21.9206 70.9738 22.6738C68.5452 25.8204 66.2433 29.1078 64.2019 32.5359C63.6177 33.5214 63.0264 34.5069 62.4492 35.4924C60.7104 38.463 59.0773 41.4899 58.0073 44.7773C57.8032 45.4038 57.7117 46.7835 57.2471 47.2411C56.7473 47.7268 55.5577 47.4734 54.9382 47.5297C54.2765 47.586 53.6289 47.6493 52.9742 47.7127C50.257 47.9872 47.5469 48.297 44.8368 48.6489C39.8318 49.2895 34.8409 50.0216 29.8501 50.7466C27.3511 51.1197 24.8592 51.4787 22.3532 51.8307C22.0153 51.8729 19.9317 52.0982 18.0662 52.3305C17.9818 52.3516 17.8973 52.3657 17.7987 52.3657C17.7917 52.3657 17.7847 52.3586 17.7776 52.3586C16.947 52.4642 15.9404 52.4853 15.2153 52.964C15.0816 53.0555 14.9619 53.1541 14.8493 53.2667C14.4762 53.6539 14.2298 54.1607 13.9412 54.5971C13.2584 55.6601 12.6108 56.7441 11.9843 57.8493C15.0886 55.8994 19.46 54.5971 22.8248 56.4485C24.8662 57.5748 26.5064 59.5247 26.626 61.8406C37.6637 61.5027 48.7225 61.3901 59.7883 61.383C59.6053 56.2866 59.6053 51.1268 60.0276 46.164C60.0417 46.0303 60.0839 45.9388 60.1543 45.8684C60.1121 45.7839 60.098 45.6783 60.1332 45.5587C60.1966 45.3545 60.2599 45.1504 60.3303 44.9462L61.2313 45.2349C61.1328 45.5164 61.0976 45.8402 61.0906 46.1852C61.0835 46.6709 61.1187 47.1777 61.1117 47.6001C61.0343 49.7611 61.3933 51.8377 61.4777 54.0058C61.5622 56.4626 61.5763 58.9263 61.5551 61.383C76.1336 61.3901 90.7191 61.5731 105.283 61.6576C105.206 57.7296 105.121 53.7947 105.086 49.8738C105.037 45.0237 104.974 40.1665 104.917 35.3165C104.868 31.2477 104.551 27.0241 105.009 22.9695L106.1 22.8146C106.719 26.9045 106.543 31.1914 106.635 35.3165C106.748 40.1665 106.867 45.0237 106.966 49.8738C107.057 53.8087 107.107 57.7367 107.163 61.6646C110.64 61.6857 114.104 61.6928 117.574 61.6928C131.061 61.6998 144.556 61.6998 158.036 61.6998C157.874 55.9065 157.142 50.0779 155.741 44.5098C154.699 40.3355 153.51 36.2104 151.764 32.2684C150.624 29.7061 149.181 27.2705 148.139 24.666L148.962 23.9761C149.096 24.1521 149.23 24.3351 149.364 24.5111C153.348 29.9454 155.734 37.7591 157.248 44.0945C158.649 49.9723 159.352 55.7798 159.374 61.6998H186.658C192.641 61.7069 198.73 61.4394 204.742 61.735C203.053 60.5946 201.863 58.4265 202.116 56.5541C202.342 54.9843 203.348 53.4638 204.77 52.7106C205.27 52.4431 205.713 52.2953 206.143 52.2249H206.108ZM178.408 93.3275C179.224 85.1478 173.431 76.3064 164.498 76.5105C155.537 76.7147 150.082 84.1412 151.25 92.6306C154.608 97.4244 158.789 101.761 165.251 101.556C168.25 101.458 171.263 100.705 173.755 98.966C175.719 97.6003 176.979 95.8264 178.499 94.137C178.422 93.9469 178.394 93.7498 178.408 93.5668C178.401 93.4894 178.401 93.412 178.408 93.3275ZM158.022 66.0994C158.036 65.142 158.043 64.1777 158.029 63.2203C144.042 63.2273 130.062 63.2273 116.075 63.2273C113.104 63.2273 110.133 63.2414 107.163 63.2485C107.163 63.6427 107.17 64.0369 107.177 64.424C107.184 64.9872 107.198 65.5503 107.219 66.1135C110.126 66.1205 113.034 66.1275 115.941 66.1275C129.963 66.1135 143.986 66.1064 158.022 66.0994ZM158.001 67.2609C158.001 67.2609 157.98 67.2327 157.973 67.2186C143.964 67.2046 129.956 67.1975 115.948 67.1905C113.055 67.1905 110.162 67.1905 107.269 67.1975C107.388 70.6398 107.55 74.1383 107.177 77.5242C107.142 77.8621 106.86 78.1014 106.572 78.1859H111.133C121.558 78.1789 131.984 78.1789 142.402 78.1789C142.845 71.4845 152.01 68.0704 157.994 67.3876C158.001 67.3524 158.001 67.3031 158.001 67.2679V67.2609ZM121.199 15.1418C122.178 15.1699 123.149 15.2192 124.121 15.2614C120.256 8.98236 112.942 -1.06979 104.988 2.25981C98.4905 4.97698 96.0548 11.9248 90.8106 15.8668C92.6619 15.6908 94.5133 15.543 96.3716 15.4233C98.6031 11.4109 103.918 5.56829 108.655 5.11073C114.392 4.55463 118.095 11.2279 121.206 15.1418H121.199ZM110.021 14.9939C112.851 14.9799 115.723 15.001 118.609 15.0714C115.695 11.1505 111.499 4.82212 106.846 7.55338C103.298 9.62997 100.694 12.5513 97.8076 15.3389C101.919 15.1066 106.008 15.008 110.021 15.001V14.9939ZM81.8565 78.1859H106.184C106.001 78.1296 105.847 77.9888 105.804 77.7143C105.297 74.272 105.34 70.7101 105.34 67.2046C90.6839 67.2398 76.035 67.3454 61.3792 67.4087C61.3651 67.817 61.351 68.2253 61.3369 68.6265C69.2139 68.4576 76.4856 71.6816 81.6243 77.7283C81.751 77.8691 81.8143 78.031 81.8636 78.1859H81.8565ZM105.333 66.1135C105.333 65.5503 105.326 64.9872 105.319 64.424C105.312 64.0298 105.305 63.6497 105.297 63.2555C90.712 63.3329 76.0913 63.516 61.4918 63.53C61.4777 64.3325 61.4566 65.1209 61.4355 65.9164C76.0702 65.9727 90.705 66.0853 105.34 66.1135H105.333ZM78.7241 93.7428C78.7029 93.6795 78.6748 93.6161 78.6677 93.5457C78.1468 88.8223 77.3655 84.3805 73.8036 80.8468C70.5866 77.6509 66.2785 75.6517 61.6608 75.877C56.5291 76.1163 51.4678 78.3971 48.5676 82.8107C47.209 84.8803 46.6247 86.9076 46.132 89.0124C46.4628 92.7221 47.378 96.2066 50.3274 98.8604C53.2769 101.507 57.0782 103.021 61.0413 103.225C68.2566 103.598 76.4222 101.38 78.7311 93.7498L78.7241 93.7428ZM60.1403 68.6617C60.1121 68.2464 60.091 67.824 60.0558 67.4087C48.1593 67.458 36.2629 67.4721 24.3524 67.4017C20.4526 71.4915 12.8712 69.9921 7.73956 67.8381C6.76814 71.2803 6.26131 74.7578 5.56441 78.2704C17.9536 77.9255 30.385 78.024 42.7883 78.1155C45.597 72.5474 54.4243 69.077 60.1332 68.6617H60.1403ZM59.9713 65.9093C59.9291 65.1139 59.8868 64.3325 59.8516 63.53C48.7225 63.53 37.6144 63.4244 26.5134 63.0795C26.4923 63.2133 26.4641 63.3541 26.4289 63.4878C26.1896 64.417 25.8588 65.2124 25.4575 65.9093C36.9527 65.846 48.462 65.8671 59.9643 65.9093H59.9713ZM23.571 65.2054C25.535 61.7772 23.7681 57.8071 19.5163 57.7015C16.7006 57.6381 14.2439 58.7855 11.5549 59.3768C11.407 59.412 11.2733 59.3909 11.1677 59.3346C10.0555 61.4675 9.09111 63.6849 8.33086 65.9656C12.2306 67.289 18.9673 69.9429 22.508 66.571C22.5432 66.2754 22.7333 66.022 23.0642 65.9586C23.2401 65.7263 23.4091 65.487 23.571 65.2124V65.2054Z" fill="#0F0E14"/>
<path d="M218.152 79.812C218.483 82.1209 219.419 84.0497 219.313 86.4853C219.208 88.9772 217.913 90.7511 216.822 92.7996C208.367 92.1097 199.751 92.5391 191.283 92.5391C187.707 92.5321 184.131 92.5321 180.555 92.5321C181.111 82.5362 173.551 74.5184 163.4 74.8986C155.15 75.2153 148.512 83.1275 149.497 91.1453C149.441 91.2227 149.406 91.3143 149.42 91.4339C149.462 91.807 149.54 92.166 149.617 92.5321H80.85C81.6947 82.4869 72.2057 74.4621 62.766 73.8849C57.2753 73.547 52.031 76.0248 48.3424 79.9598C45.9561 82.494 43.5697 86.8936 43.5345 90.7933C43.3726 91.3354 43.2952 91.9408 43.2882 92.5391H29.2166C24.8029 92.5461 20.3752 92.5461 15.9615 92.5461C11.9069 92.5461 7.65511 92.2012 3.65678 93.0037C3.60047 91.0749 2.41082 89.0546 2.29115 87.0484C2.14332 84.5917 3.02324 82.494 3.57231 80.178C13.7934 80.5019 24.0286 80.4948 34.2567 80.4315C36.2559 80.4244 38.248 80.4103 40.2472 80.3963C41.113 80.3892 42.4223 80.6356 43.2459 80.3822C43.9991 80.1429 44.0766 79.4319 44.4285 78.8687C44.7735 78.3267 45.4211 77.8903 45.8857 77.4398C47.0401 76.3205 48.1805 75.1661 49.525 74.2509C52.749 72.0547 56.5714 70.8861 60.4148 70.5201C64.4132 70.1259 68.4608 71.041 72.0297 72.836C73.8599 73.7652 75.5705 74.9126 77.1262 76.236C77.7668 76.7781 78.5974 77.3834 79.1042 78.0522C79.6744 78.8054 79.7729 79.7487 80.7585 80.1851C81.6736 80.6004 83.2011 80.3188 84.2148 80.3188H142.887C143 80.347 143.12 80.347 143.232 80.3259H147.301C147.4 80.2625 147.484 80.1851 147.583 80.1217C148.068 80.1147 148.589 79.8613 149.033 79.5515C149.307 79.3685 149.554 79.1644 149.751 78.9884C150.222 78.5801 151.342 77.4609 151.511 76.581C155.051 73.5752 158.923 71.5478 163.956 71.3507C167.363 71.217 170.651 72.3151 173.473 74.1805C174.874 75.1097 176.31 76.222 177.408 77.5172C177.986 78.193 178.429 78.9814 179.077 79.6079C179.893 80.4033 180.541 80.4596 181.618 80.4526C184.173 80.4385 186.735 80.4948 189.291 80.5019C194.408 80.523 199.519 80.5019 204.643 80.3822C209.135 80.2766 213.633 80.1006 218.11 79.812H218.152Z" fill="#767777"/>
<path d="M218.962 79.2067L218.152 79.8121C213.668 80.1007 209.17 80.2767 204.686 80.3823C199.568 80.5019 194.458 80.523 189.333 80.5019C186.778 80.4949 184.215 80.4386 181.66 80.4527C180.583 80.4597 179.936 80.4034 179.119 79.6079C178.471 78.9885 178.028 78.193 177.451 77.5173C176.352 76.2291 174.916 75.1098 173.516 74.1806C170.693 72.3152 167.406 71.2171 163.998 71.3508C158.965 71.5479 155.094 73.5752 151.553 76.581C151.384 77.4609 150.265 78.5802 149.793 78.9885C149.596 79.1645 149.35 79.3686 149.075 79.5516L148.308 78.1719C150.567 73.7442 154.488 71.0974 158.895 70.0345C166.652 68.1831 175.916 71.2311 180.344 78.0734C190.248 77.9819 200.167 77.9115 210.05 78.2775L211.788 78.3409C213.407 78.4042 215.027 78.4887 216.646 78.5872C217.913 78.6647 218.384 78.5591 218.962 79.1926V79.2067Z" fill="#0F0E14"/>
<path d="M211.021 70.4427C211.542 72.7938 212.26 75.3561 212.021 77.7706C211.999 78.0029 211.901 78.193 211.781 78.3549L210.043 78.2915C210 78.2141 209.951 78.1437 209.923 78.0522C209.12 75.4969 209.12 72.7023 208.557 70.0766C208.353 69.0982 208.093 68.1268 207.881 67.1483C207.846 67.1483 207.818 67.1553 207.776 67.1553L207.684 66.1557C207.734 66.1628 207.607 65.5363 207.452 64.8746C207.396 64.6282 207.332 64.3748 207.276 64.1566L208.79 64.1284C210.021 65.9798 210.528 68.3027 211.014 70.4497L211.021 70.4427Z" fill="#0F0E14"/>
<path d="M209.923 78.0523C209.951 78.1438 210 78.2142 210.043 78.2916C200.16 77.9185 190.241 77.9959 180.337 78.0875C175.916 71.2523 166.645 68.1972 158.888 70.0486L158.473 68.4506C158.951 68.155 159.289 67.7749 159.338 67.2539C160.049 67.1484 160.845 67.2328 161.57 67.2328L185.124 67.2469C192.571 67.2469 200.357 67.8875 207.783 67.1624C207.818 67.1624 207.846 67.1554 207.889 67.1554C208.093 68.1339 208.353 69.1053 208.564 70.0837C209.128 72.7165 209.128 75.504 209.93 78.0593L209.923 78.0523Z" fill="#F8D72C"/>
<path d="M208.374 53.5624C209.473 54.7239 209.825 56.4204 209.268 58.4266C209.085 59.0953 208.769 59.7007 208.424 60.285C207.565 60.102 206.748 60.1231 205.946 59.6867C204.911 59.1305 204.306 57.9902 204.299 56.8568C204.285 55.1322 206.699 53.6258 208.367 53.5624H208.374Z" fill="#CC4627"/>
<path d="M207.466 64.8747C207.621 65.5364 207.748 66.1629 207.699 66.1558C200.772 65.5012 193.543 66.0784 186.602 66.0925L163.048 66.1066H159.233C159.275 65.1422 159.317 64.1778 159.331 63.2275H185.166C188.946 63.2275 192.719 63.3331 196.506 63.3471C198.393 63.3612 200.293 63.3471 202.187 63.2979C203.13 63.2697 204.066 63.2345 205.017 63.1782C205.692 63.143 206.692 62.7981 207.072 63.4246C207.114 63.502 207.199 63.7977 207.297 64.1637C207.354 64.389 207.417 64.6353 207.473 64.8817L207.466 64.8747Z" fill="#333333"/>
<path d="M205.101 51.9927C205.46 52.042 205.791 52.1265 206.108 52.225C205.678 52.3025 205.235 52.4503 204.735 52.7107C203.313 53.4639 202.307 54.9844 202.081 56.5542C201.821 58.4196 203.018 60.5948 204.707 61.7351C198.695 61.4395 192.606 61.707 186.623 61.7H159.339C159.317 55.7799 158.613 49.9724 157.213 44.0946C155.699 37.7592 153.313 29.9526 149.329 24.5112L150.87 23.3497C152.933 26.081 155.03 28.77 156.706 31.818C159.592 37.0694 160.549 42.6164 162.563 48.1281C162.591 48.2267 162.647 48.2971 162.696 48.3745C162.584 48.825 162.837 49.36 163.471 49.4234C172.403 50.3244 181.534 50.0428 190.502 50.6482C195.352 50.972 200.286 51.2325 205.087 51.9857L205.101 51.9927Z" fill="#F8D72C"/>
<path d="M164.498 76.5107C173.431 76.3065 179.225 85.1479 178.408 93.3276C178.401 93.4121 178.401 93.4895 178.408 93.5669C178.394 93.75 178.422 93.9471 178.499 94.1371C176.979 95.8266 175.719 97.6075 173.755 98.9661C171.256 100.705 168.25 101.465 165.251 101.557C158.789 101.754 154.608 97.4245 151.25 92.6307C150.082 84.1413 155.53 76.7148 164.498 76.5107ZM169.285 88.2875C169.334 85.5421 166.856 83.367 164.189 83.3036C163.196 83.2755 162.203 83.5429 161.345 84.0357C160.584 84.4651 159.923 85.0775 159.458 85.8237C158.43 87.4427 158.205 90.3992 159.479 91.962C160.767 93.5388 163.337 93.933 165.216 93.4543C167.511 92.87 169.257 90.6527 169.292 88.2875H169.285Z" fill="#333333"/>
<path d="M164.188 83.3035C166.856 83.3669 169.334 85.542 169.285 88.2874C169.25 90.6526 167.504 92.8629 165.209 93.4542C163.337 93.9329 160.767 93.5457 159.472 91.9619C158.198 90.3992 158.423 87.4426 159.451 85.8236C159.916 85.0845 160.577 84.465 161.338 84.0356C162.196 83.5358 163.189 83.2754 164.181 83.3035H164.188ZM164.66 91.4269C166.399 90.7863 167.919 88.6604 166.758 86.8232C165.709 85.1549 164.301 85.6406 162.724 86.0066C162.675 86.0137 162.626 86.0137 162.583 86.0137C161.422 86.6824 160.479 87.7735 160.528 89.0687C160.612 91.1876 162.802 92.1027 164.653 91.4269H164.66Z" fill="#0F0E14"/>
<path d="M166.758 86.8303C167.92 88.6675 166.399 90.7934 164.66 91.434C162.809 92.1168 160.613 91.1947 160.535 89.0758C160.486 87.7876 161.422 86.6895 162.591 86.0208C162.633 86.0208 162.682 86.0208 162.732 86.0137C164.301 85.6406 165.709 85.162 166.765 86.8303H166.758Z" fill="#E5E5E5"/>
<path d="M158.473 68.4436L158.888 70.0415C154.481 71.1045 150.56 73.7442 148.301 78.179H144.647C145.739 75.5744 146.851 73.6175 149.589 71.8366C151.187 70.7947 152.996 70.1401 154.805 69.5769C155.678 69.3024 157.41 69.0983 158.473 68.4436Z" fill="#F8D72C"/>
<path d="M158.029 63.2203C158.043 64.1847 158.036 65.1491 158.022 66.0994C143.993 66.1065 129.963 66.1135 115.941 66.1276C113.034 66.1276 110.127 66.1205 107.219 66.1135C107.198 65.5504 107.184 64.9872 107.177 64.4241C107.17 64.0299 107.163 63.6357 107.163 63.2485C110.134 63.2415 113.104 63.2274 116.075 63.2274C130.062 63.2274 144.042 63.2274 158.029 63.2203Z" fill="#333333"/>
<path d="M158.008 61.6998C144.528 61.6998 131.033 61.6998 117.546 61.6928C114.076 61.6928 110.612 61.6858 107.135 61.6646C107.079 57.7297 107.022 53.8017 106.938 49.8738C106.832 45.0237 106.713 40.1666 106.607 35.3165C106.515 31.1914 106.698 26.8974 106.072 22.8146C106.072 22.7935 106.065 22.7724 106.065 22.7513C111.851 22.8428 117.666 22.5612 123.438 22.7654C131.646 23.0681 139.769 24.3351 147.949 24.7082C148.005 24.7153 148.062 24.6941 148.111 24.6871C149.146 27.2846 150.596 29.7272 151.736 32.2896C153.482 36.2316 154.671 40.3566 155.713 44.5309C157.114 50.092 157.846 55.9276 158.008 61.721V61.6998ZM151.954 44.7351C152.482 44.2353 152.581 43.475 152.56 42.7078C152.546 42.0953 152.447 41.4759 152.419 40.9761C152.313 39.3922 151.982 37.7873 151.602 36.2527C150.955 33.62 150.033 31.0225 148.765 28.6291C148.582 28.2912 148.392 27.9463 148.195 27.6155C148.174 27.5732 148.139 27.538 148.104 27.5099C148.005 27.2494 147.808 27.0312 147.477 26.9467C141.902 25.6163 135.771 25.567 130.055 25.3347C126.38 25.1798 122.699 24.9053 119.017 25.025C117.166 25.0743 115.308 25.2291 113.477 25.567C112.766 25.6937 111.682 25.7219 111.323 26.3202C111.183 26.5525 111.091 26.7989 111.035 27.0734C110.845 27.9041 110.957 28.8755 110.901 29.6709C110.774 31.3322 110.676 32.9794 110.64 34.6407C110.563 37.9069 110.633 41.1732 110.626 44.4324C110.626 45.4461 111.415 45.3827 112.182 45.4179C113.301 45.4601 114.421 45.5164 115.54 45.5657C120.728 45.8051 125.838 45.6783 131.04 45.7135C137.334 45.7558 143.57 45.6643 149.85 45.3545C150.596 45.3193 151.419 45.2489 151.961 44.7351H151.954ZM144.443 59.1164C144.746 58.87 144.697 58.3562 144.443 58.1027C144.112 57.7719 143.718 57.7015 143.296 57.6874C143.5 56.723 143.331 55.6812 143.303 54.6887C143.268 53.7172 143.226 52.6473 143.014 51.6547C143.204 51.6266 143.394 51.5914 143.563 51.5351C144.394 51.2957 144.394 50.1061 143.563 49.8667C142.388 49.5288 140.727 49.6696 139.621 50.1905C139.291 50.3454 139.241 50.8734 139.495 51.1197L138.016 51.2535C137.693 50.8452 137.01 50.6903 136.51 51.0986C135.989 51.528 135.517 52.0208 135.074 52.5487C134.377 51.8166 133.638 51.1268 132.793 50.5707C132.251 50.2046 131.744 50.8874 131.977 51.3872C132.455 52.422 133.145 53.3653 133.87 54.2593C133.124 55.5052 132.533 56.8497 132.075 58.1239C131.815 58.87 132.843 59.1516 133.251 58.6237C133.92 57.7437 134.581 56.8779 135.243 55.9839C136.024 57.0609 136.968 58.4477 138.228 58.3984C138.467 58.3914 138.727 58.2576 138.819 58.0253L140.417 58.0887C140.248 58.4477 140.417 58.9686 140.839 59.0953C141.452 59.2713 142.071 59.3557 142.712 59.405C143.387 59.4543 143.873 59.5458 144.429 59.1094L144.443 59.1164ZM129.985 58.7996C130.801 59.7077 132.237 58.5392 131.646 57.5114C130.259 55.097 128.302 52.9429 126.648 50.7115C126.24 50.1554 125.317 49.9864 124.937 50.7115C123.656 53.2104 122.882 55.6883 122.783 58.4969C122.755 59.2009 123.818 59.3346 123.994 58.6589C124.163 57.9972 124.367 57.3425 124.571 56.6878C125.691 57.1876 126.859 57.5959 128.112 57.6311C128.358 57.6311 128.626 57.5255 128.802 57.3495C129.189 57.8493 129.576 58.335 129.992 58.7996H129.985ZM123.058 52.7106C123.276 52.4924 123.227 52.1968 123.058 51.9785C122.291 51.0071 120.904 51.2113 119.77 51.1409C118.18 51.0353 116.49 50.81 114.949 51.3028C114.533 51.4365 114.364 52.0841 114.815 52.3023C115.906 52.8162 117.089 52.957 118.271 53.0415C118.243 53.5765 118.278 54.1326 118.271 54.6042C118.25 55.8361 117.94 57.3425 118.609 58.4195C118.869 58.8348 119.461 58.8348 119.721 58.4195C120.397 57.3425 120.08 55.8361 120.059 54.6042C120.052 54.1818 120.08 53.6961 120.066 53.2034C121.136 53.3442 122.269 53.4709 123.051 52.7036L123.058 52.7106Z" fill="#F8D72C"/>
<path d="M157.966 67.2188C157.966 67.2188 157.987 67.2469 157.994 67.261C157.994 67.2962 157.994 67.3455 157.987 67.3807C152.004 68.0705 142.838 71.4776 142.395 78.172C131.97 78.172 121.544 78.172 111.126 78.179H106.565C106.853 78.0945 107.135 77.8622 107.17 77.5173C107.543 74.1314 107.374 70.6329 107.262 67.1906C110.155 67.1836 113.048 67.1836 115.941 67.1836C129.949 67.1906 143.958 67.1977 157.966 67.2118V67.2188Z" fill="#F8D72C"/>
<path d="M152.56 42.7079C152.581 43.4752 152.475 44.2425 151.954 44.7352C151.412 45.2561 150.589 45.3195 149.842 45.3547C143.563 45.6574 137.319 45.7559 131.033 45.7137C125.831 45.6785 120.721 45.8052 115.533 45.5658C114.414 45.5166 113.294 45.4603 112.175 45.418C111.408 45.3828 110.619 45.4462 110.619 44.4325C110.626 41.1733 110.563 37.9071 110.633 34.6408C110.669 32.9795 110.767 31.3323 110.894 29.6711C110.95 28.8686 110.838 27.8971 111.028 27.0735L112.069 27.1862C112.787 32.529 112.633 37.9915 112.619 43.3837C119.059 42.6445 126 43.7075 132.483 43.6934C135.616 43.6863 138.741 43.5808 141.867 43.4611C141.395 38.5969 141.064 33.3667 141.811 28.5729L143.176 28.6856C143.648 33.5145 143.5 38.5195 143.662 43.3977C146.083 43.3133 148.505 43.2288 150.926 43.1936C150.877 43.1302 150.821 43.0458 150.786 42.9472C149.99 40.5398 149.659 37.9423 149.061 35.4715C148.526 33.2681 147.871 31.1 147.47 28.8686L148.765 28.6292C150.032 31.0226 150.962 33.6201 151.602 36.2528C151.982 37.7944 152.313 39.3924 152.419 40.9762C152.447 41.483 152.546 42.0955 152.56 42.7079Z" fill="#0F0E14"/>
<path d="M150.87 23.3567L149.328 24.5182C149.195 24.3422 149.061 24.1592 148.927 23.9832C148.793 23.8072 148.653 23.6383 148.512 23.4623C148.399 23.3356 148.244 23.3145 148.104 23.3567C140.586 21.6321 132.554 21.3716 124.874 21.0056C117.243 20.6466 109.148 20.2665 101.546 21.4843C97.3642 21.2449 93.0984 21.5758 88.9663 21.8151C83.8628 22.1108 78.0976 22.3008 73.2264 23.941C72.987 24.0254 72.9096 24.2577 72.9589 24.4548C72.9448 24.4689 72.9378 24.4689 72.9237 24.483C69.9038 28.1223 66.7854 32.1488 64.2583 36.4428L62.4421 35.4784C63.0194 34.4929 63.6107 33.5074 64.1949 32.5219C66.2293 29.0938 68.5382 25.8134 70.9668 22.6598C71.551 21.9066 72.1775 21.0971 73.0293 20.6325C73.9514 20.1116 75.2255 20.189 76.2603 20.0623C78.7593 19.7596 81.2442 19.4499 83.7431 19.1402C88.7129 18.5489 93.6967 17.9998 98.6946 17.6267C102.468 17.3451 106.241 17.1692 110.028 17.148C122.938 17.0495 135.419 18.8234 148.202 20.3157C148.364 20.3368 148.505 20.3087 148.625 20.2594C149.35 21.3012 150.103 22.329 150.877 23.3426L150.87 23.3567Z" fill="#F8D72C"/>
<path d="M150.793 42.9331C150.828 43.0316 150.884 43.109 150.933 43.1794C148.512 43.2146 146.09 43.3061 143.669 43.3836C143.507 38.4983 143.655 33.5004 143.183 28.6714C144.535 28.777 145.879 28.8614 147.224 28.9037C147.322 28.9037 147.4 28.8755 147.484 28.8614C147.885 31.0929 148.54 33.261 149.075 35.4643C149.673 37.9281 150.011 40.5326 150.8 42.9401L150.793 42.9331Z" fill="#B6EEFF"/>
<path d="M148.512 23.4624C148.653 23.6313 148.794 23.8003 148.927 23.9833L148.104 24.6731C148.054 24.6802 147.998 24.7013 147.942 24.6943C139.755 24.3212 131.639 23.0541 123.431 22.7514C117.659 22.5473 111.844 22.8288 106.058 22.7373C106.058 22.7585 106.065 22.7796 106.065 22.8007L104.974 22.9556C104.889 22.9978 104.805 23.04 104.706 23.0471C99.4761 23.3709 94.2107 22.9133 88.9664 23.2442C85.3552 23.4835 81.7863 24.0889 78.1962 24.4549C76.6898 24.6028 74.8666 24.2578 73.8107 25.4123C72.7408 26.5597 71.9524 27.9324 71.0725 29.2135C69.8265 31.0085 68.658 32.8599 67.5317 34.7253C66.1309 37.0412 64.7863 39.3924 63.4066 41.7153C62.7379 42.8416 61.6538 43.989 61.2104 45.228L60.3093 44.9393C61.2596 42.0251 62.6323 39.1812 64.2584 36.4499C66.7855 32.163 69.9039 28.1295 72.9238 24.4901C72.9379 24.476 72.9449 24.476 72.959 24.462C72.9097 24.2719 72.9871 24.0326 73.2265 23.9481C78.0977 22.3079 83.8629 22.1179 88.9664 21.8222C93.0985 21.5758 97.3643 21.252 101.546 21.4914C109.148 20.2665 117.243 20.6537 124.874 21.0127C132.554 21.3787 140.586 21.6322 148.104 23.3638C148.244 23.3216 148.399 23.3427 148.512 23.4694V23.4624Z" fill="#0F0E14"/>
<path d="M148.195 27.6084C148.392 27.9392 148.582 28.2842 148.765 28.6221L147.47 28.8614C147.386 28.8755 147.308 28.9036 147.21 28.9036C145.872 28.8684 144.521 28.7769 143.169 28.6713L141.804 28.5587C137.418 28.1575 133.025 27.5591 128.619 27.4183C123.206 27.2424 117.447 27.89 112.069 27.172L111.028 27.0593C111.084 26.7848 111.175 26.5314 111.316 26.3061C111.682 25.7078 112.759 25.6796 113.47 25.5529C115.3 25.2221 117.159 25.0672 119.01 25.0109C122.692 24.8912 126.373 25.1658 130.048 25.3206C135.764 25.56 141.895 25.6022 147.47 26.9326C147.801 27.0171 148.005 27.2353 148.097 27.4958C148.125 27.5239 148.16 27.5521 148.188 27.6014L148.195 27.6084Z" fill="#0F0E14"/>
<path d="M144.443 58.1027C144.697 58.3561 144.746 58.87 144.443 59.1164C143.887 59.5528 143.402 59.4613 142.726 59.412C142.078 59.3628 141.466 59.2783 140.853 59.1023C140.431 58.9756 140.262 58.4477 140.431 58.0957C140.508 57.9479 140.649 57.8282 140.853 57.793C140.966 57.7789 141.079 57.7719 141.184 57.7578C140.91 56.7864 141.022 55.6671 141.057 54.6887C141.1 53.6961 141.079 52.6543 141.24 51.6618C140.656 51.5773 140.086 51.4295 139.621 51.2112C139.572 51.1901 139.53 51.162 139.495 51.1197C139.241 50.8734 139.291 50.3524 139.621 50.1905C140.727 49.6626 142.388 49.5218 143.563 49.8667C144.394 50.1061 144.394 51.2957 143.563 51.535C143.394 51.5843 143.204 51.6266 143.014 51.6547C143.233 52.6473 143.268 53.7243 143.303 54.6887C143.331 55.6812 143.5 56.723 143.296 57.6874C143.718 57.7015 144.113 57.7719 144.443 58.1027Z" fill="#0F0E14"/>
<path d="M141.811 28.5658C141.072 33.3596 141.395 38.5898 141.867 43.454C138.742 43.5737 135.616 43.6792 132.484 43.6863C126 43.7004 119.06 42.6374 112.619 43.3766C112.633 37.9915 112.788 32.5219 112.07 27.1791C117.448 27.8971 123.206 27.2424 128.619 27.4255C133.026 27.5662 137.418 28.1646 141.804 28.5658H141.811Z" fill="#B6EEFF"/>
<path d="M141.184 57.7508C141.071 57.7649 140.959 57.7719 140.853 57.786C140.649 57.8212 140.508 57.9409 140.431 58.0887L138.833 58.0253C138.833 58.0253 138.854 57.962 138.861 57.9198C139.143 56.4274 137.545 55.2519 136.63 54.2382L136.615 54.2241C137.129 53.5976 137.629 52.957 138.044 52.2742C138.291 51.88 138.227 51.5069 138.016 51.2465L139.495 51.1127C139.53 51.1479 139.572 51.1761 139.621 51.2042C140.086 51.4295 140.656 51.5773 141.24 51.6548C141.078 52.6473 141.1 53.6891 141.057 54.6817C141.022 55.6601 140.909 56.7794 141.184 57.7508Z" fill="#F8D72C"/>
<path d="M136.623 54.2383C137.531 55.252 139.136 56.4346 138.854 57.9199C138.847 57.9551 138.84 57.9973 138.826 58.0254C138.727 58.2577 138.467 58.3915 138.235 58.3985C136.975 58.4478 136.024 57.0611 135.25 55.984C134.588 56.871 133.927 57.7368 133.258 58.6238C132.85 59.1588 131.822 58.8772 132.082 58.124C132.533 56.8499 133.124 55.4983 133.877 54.2594C133.152 53.3654 132.462 52.4221 131.984 51.3874C131.744 50.8876 132.258 50.2118 132.8 50.5708C133.645 51.1269 134.384 51.8168 135.081 52.5489C135.524 52.0139 135.996 51.5282 136.517 51.0988C137.017 50.6905 137.693 50.8453 138.023 51.2536C138.242 51.5141 138.298 51.8942 138.052 52.2814C137.636 52.9642 137.136 53.5977 136.623 54.2313L136.637 54.2453L136.623 54.2383Z" fill="#0F0E14"/>
<path d="M131.646 57.5045C132.237 58.5323 130.801 59.7078 129.984 58.7927C129.569 58.3281 129.175 57.8354 128.795 57.3426C128.619 57.5186 128.351 57.6242 128.105 57.6242C126.852 57.596 125.683 57.1807 124.564 56.6809C124.36 57.3356 124.156 57.9902 123.987 58.6519C123.818 59.3277 122.748 59.194 122.776 58.49C122.882 55.6813 123.649 53.2035 124.93 50.7046C125.31 49.9795 126.232 50.1484 126.641 50.7046C128.302 52.936 130.259 55.09 131.639 57.5045H131.646ZM127.436 55.442C126.922 54.6818 126.423 53.9145 125.916 53.1613C125.599 53.8511 125.31 54.5621 125.043 55.2871C125.845 55.259 126.655 55.2801 127.436 55.442Z" fill="#0F0E14"/>
<path d="M125.923 53.1611C126.43 53.9143 126.929 54.6816 127.443 55.4419C126.669 55.28 125.852 55.2589 125.05 55.287C125.317 54.562 125.606 53.851 125.923 53.1611Z" fill="#F8D72C"/>
<path d="M123.058 51.9786C123.227 52.2039 123.276 52.4995 123.058 52.7107C122.269 53.4709 121.136 53.3513 120.073 53.2105C120.087 53.6962 120.059 54.189 120.066 54.6113C120.08 55.8432 120.397 57.3496 119.728 58.4266C119.468 58.8419 118.876 58.8419 118.616 58.4266C117.94 57.3496 118.25 55.8432 118.278 54.6113C118.285 54.1397 118.25 53.5836 118.278 53.0486C117.095 52.9571 115.906 52.8163 114.822 52.3095C114.371 52.0842 114.54 51.4436 114.955 51.3099C116.497 50.8101 118.186 51.0424 119.777 51.148C120.911 51.2113 122.297 51.0142 123.065 51.9857L123.058 51.9786Z" fill="#0F0E14"/>
<path d="M124.121 15.2545C123.149 15.2123 122.178 15.163 121.199 15.1349C118.088 11.221 114.385 4.54773 108.648 5.10384C103.918 5.5614 98.596 11.404 96.3645 15.4164C94.5061 15.5361 92.6548 15.6839 90.8035 15.8599C96.0478 11.9179 98.4834 4.97009 104.981 2.25292C112.935 -1.07668 120.249 8.97547 124.114 15.2545H124.121Z" fill="#818587"/>
<path d="M118.609 15.0643C115.73 15.001 112.851 14.9728 110.021 14.9869C106.009 14.994 101.919 15.0995 97.8079 15.3248C100.694 12.5372 103.299 9.61591 106.846 7.53931C111.499 4.81509 115.702 11.1364 118.609 15.0573V15.0643Z" fill="#2D2D2D"/>
<path d="M106.185 78.1861H81.8567C81.8145 78.0312 81.7441 77.8693 81.6174 77.7285C76.4857 71.6747 69.2071 68.4507 61.3301 68.6267C61.3442 68.2254 61.3582 67.8171 61.3723 67.4089C76.0282 67.3455 90.677 67.2399 105.333 67.2047C105.333 70.7173 105.298 74.2722 105.797 77.7144C105.833 77.989 105.988 78.1297 106.178 78.1861H106.185Z" fill="#F8D72C"/>
<path d="M105.319 64.4241C105.326 64.9873 105.333 65.5504 105.333 66.1136C90.698 66.0854 76.0632 65.9728 61.4285 65.9165C61.4496 65.121 61.4707 64.3326 61.4848 63.5301C76.0843 63.5161 90.705 63.333 105.29 63.2556C105.298 63.6498 105.305 64.0299 105.312 64.4241H105.319Z" fill="#333333"/>
<path d="M105.058 49.8668C105.093 53.7947 105.185 57.7297 105.255 61.6506C90.691 61.5661 76.1055 61.3831 61.5271 61.3761C61.5482 58.9193 61.5341 56.4556 61.4496 53.9988C61.3651 51.8307 61.0132 49.7541 61.0836 47.5931C61.0906 47.1707 61.0554 46.6639 61.0625 46.1782C61.0695 45.8403 61.1047 45.5094 61.2032 45.2279C61.6397 43.9889 62.7308 42.8415 63.3995 41.7152C64.7792 39.3923 66.1237 37.0411 67.5246 34.7252C68.6508 32.8598 69.8194 31.0084 71.0653 29.2134C71.9452 27.9322 72.7407 26.5596 73.8036 25.4122C74.8595 24.2577 76.6827 24.6026 78.1891 24.4548C81.7792 24.0888 85.3552 23.4834 88.9593 23.2441C94.2036 22.9132 99.469 23.3708 104.699 23.047C104.798 23.0399 104.882 23.0047 104.967 22.9554C104.516 27.0171 104.826 31.2407 104.875 35.3024C104.931 40.1525 104.995 45.0096 105.044 49.8597L105.058 49.8668ZM102.003 46.0233C102.447 45.9599 102.299 37.6043 102.292 36.8088C102.271 33.5355 102.038 30.1989 101.095 27.0523C101.102 26.806 101.032 26.5525 100.856 26.3695C100.764 26.2358 100.652 26.1654 100.518 26.1443C100.433 26.1161 100.356 26.102 100.257 26.095C92.7605 25.7289 84.8202 25.3347 77.3866 26.6159C77.1121 26.6581 76.9854 26.8552 76.9643 27.0734C76.915 27.1086 76.8657 27.165 76.8235 27.2213C72.7618 32.7612 68.3693 38.2026 64.8637 44.1227C64.4061 44.4043 64.378 45.2701 65.0115 45.3616C74.8454 46.8539 84.8342 46.9454 94.7456 46.5372C97.1742 46.4386 99.6027 46.3964 101.996 46.0233H102.003Z" fill="#F8D72C"/>
<path d="M102.292 36.8088C102.299 37.6113 102.447 45.96 102.003 46.0233C99.61 46.3964 97.1814 46.4386 94.7529 46.5372C84.8415 46.9455 74.8457 46.8469 65.0188 45.3616C64.3782 45.2701 64.4134 44.4043 64.871 44.1227C68.3765 38.2026 72.7691 32.7683 76.8308 27.2213C76.873 27.165 76.9223 27.1087 76.9716 27.0735C76.9927 26.8482 77.1194 26.6581 77.3939 26.6159C84.8274 25.3348 92.7678 25.736 100.265 26.095C100.363 26.102 100.441 26.1161 100.525 26.1443C100.659 26.1584 100.779 26.2358 100.863 26.3695C101.032 26.5526 101.109 26.806 101.102 27.0523C102.053 30.1989 102.278 33.5356 102.299 36.8088H102.292ZM100.349 44.2001C100.398 38.7869 99.5396 33.1836 99.8705 27.8126C92.6763 27.4465 85.5384 27.9463 78.3653 27.7985C78.3372 27.883 78.302 27.9604 78.2386 28.0449C74.2966 33.4159 70.5446 39.0473 66.131 44.0593C77.5558 44.4606 88.8187 44.9533 100.251 44.1931C100.279 44.1931 100.307 44.2001 100.349 44.2001Z" fill="#0F0E14"/>
<path d="M99.8632 27.8126C99.5394 33.1836 100.398 38.7869 100.342 44.2001C100.307 44.2001 100.279 44.1931 100.243 44.1931C88.8045 44.9533 77.5416 44.4606 66.1238 44.0593C70.5304 39.0473 74.2894 33.4159 78.2314 28.0449C78.2877 27.9604 78.33 27.883 78.3581 27.7985C85.5312 27.9463 92.669 27.4536 99.8632 27.8126Z" fill="#B6EEFF"/>
<path d="M78.6607 93.5386C78.6677 93.6161 78.6959 93.6724 78.717 93.7357C76.4081 101.366 68.2425 103.584 61.0272 103.211C57.0641 103.014 53.2628 101.493 50.3133 98.8463C47.3639 96.1925 46.4558 92.715 46.1179 88.9983C46.6177 86.8935 47.202 84.8662 48.5535 82.7966C51.4467 78.383 56.508 76.1022 61.6467 75.8629C66.2645 75.6376 70.5725 77.6438 73.7895 80.8327C77.3514 84.3664 78.1398 88.8012 78.6537 93.5316L78.6607 93.5386ZM66.1659 91.7014C67.5808 89.4136 66.4756 86.0629 64.1104 84.9577C63.9204 84.8591 63.7303 84.8732 63.5754 84.9366C63.2587 84.7958 62.956 84.6832 62.6955 84.6339C61.2032 84.303 59.5701 84.9084 58.6057 86.0558C57.9158 86.4782 57.3527 87.1328 57.05 88.0268C56.2405 90.4061 57.4653 92.9403 59.6897 94.0103C62.0901 95.1647 64.8636 93.8132 66.1659 91.7014Z" fill="#333333"/>
<path d="M64.1104 84.9648C66.4756 86.07 67.5807 89.4207 66.1658 91.7085C64.8636 93.8203 62.0901 95.1789 59.6897 94.0174C57.4652 92.9404 56.2474 90.4062 57.0499 88.034C57.3526 87.14 57.9157 86.4853 58.6056 86.063C59.57 84.9156 61.2031 84.3102 62.6955 84.641C62.9559 84.6903 63.2586 84.8029 63.5754 84.9437C63.7302 84.8874 63.9133 84.8663 64.1104 84.9648ZM64.5468 90.1035C64.6665 89.6037 64.6735 89.1321 64.6101 88.6675C64.3849 88.4282 64.3215 88.1396 64.0611 87.7806C63.6317 87.1541 62.963 86.5839 62.1886 86.4501C61.8578 86.3938 61.534 86.4009 61.2383 86.4431C60.0557 86.7739 58.8731 87.7735 58.676 88.8998C58.4367 90.3006 59.3447 92.0182 60.8371 92.2998C62.3435 92.5814 64.1808 91.6944 64.5398 90.1035H64.5468Z" fill="#0F0E14"/>
<path d="M64.6173 88.6675C64.6736 89.1321 64.6666 89.6108 64.5539 90.1036C64.1879 91.6874 62.3506 92.5814 60.8512 92.2998C59.3519 92.0182 58.4508 90.3006 58.6902 88.8998C58.8873 87.7735 60.0699 86.774 61.2525 86.4431C61.5481 86.4009 61.8649 86.3938 62.2028 86.4501C62.9771 86.5839 63.6459 87.1541 64.0753 87.7806C64.3357 88.1466 64.3991 88.4352 64.6243 88.6675H64.6173Z" fill="#E5E5E5"/>
<path d="M62.4353 35.4925L64.2514 36.4569C62.6324 39.1881 61.2527 42.032 60.3023 44.9463C60.2249 45.1504 60.1686 45.3546 60.1053 45.5587C60.0701 45.6784 60.0841 45.791 60.1264 45.8685C60.063 45.9459 60.0137 46.0304 59.9997 46.1641C59.5773 51.1268 59.5773 56.2866 59.7603 61.3831C48.7016 61.3902 37.6357 61.5028 26.5981 61.8407C26.4784 59.5247 24.8453 57.5748 22.7968 56.4486C19.4321 54.5972 15.0606 55.8995 11.9563 57.8494C12.5758 56.7442 13.2304 55.6531 13.9132 54.5972C14.2018 54.1608 14.4553 53.6469 14.8213 53.2668C14.9339 53.1541 15.0536 53.0486 15.1873 52.9641C15.9124 52.4854 16.919 52.4573 17.7497 52.3587C17.7567 52.3587 17.7637 52.3657 17.7708 52.3657C17.8693 52.3657 17.9538 52.3517 18.0383 52.3305C19.9037 52.0982 21.9873 51.88 22.3252 51.8308C24.8312 51.4858 27.3231 51.1198 29.8221 50.7467C34.813 50.0216 39.8039 49.2896 44.8088 48.649C47.5119 48.3041 50.2221 47.9873 52.9463 47.7128C53.6009 47.6494 54.2485 47.586 54.9102 47.5297C55.5297 47.4734 56.7264 47.7268 57.2191 47.2411C57.6837 46.7836 57.7752 45.4039 57.9794 44.7774C59.0564 41.497 60.6825 38.4631 62.4212 35.4925H62.4353Z" fill="#F8D72C"/>
<path d="M60.0629 67.4088C60.0911 67.8241 60.1122 68.2465 60.1474 68.6618C54.4456 69.0771 45.6112 72.5404 42.8025 78.1156C30.3922 78.0241 17.9608 77.9255 5.57861 78.2704C6.27551 74.7578 6.78937 71.2874 7.75376 67.8382C12.8784 69.9922 20.4668 71.4916 24.3666 67.4017C36.2701 67.4792 48.1665 67.458 60.07 67.4088H60.0629Z" fill="#F8D72C"/>
<path d="M59.8517 63.5301C59.8869 64.3326 59.9291 65.114 59.9713 65.9094C48.4691 65.8672 36.9598 65.846 25.4646 65.9094C25.8658 65.2125 26.1967 64.41 26.436 63.4879C26.4642 63.3541 26.4923 63.2133 26.5205 63.0796C37.6215 63.4245 48.7295 63.5301 59.8587 63.5301H59.8517Z" fill="#333333"/>
<path d="M19.5234 57.7015C23.7751 57.8071 25.542 61.7773 23.578 65.2054C23.4232 65.48 23.2542 65.7263 23.0712 65.9516C22.7403 66.015 22.5503 66.2684 22.5151 66.564C18.9743 69.9359 12.2306 67.282 8.33789 65.9586C9.09814 63.6779 10.0625 61.4605 11.1747 59.3276C11.2803 59.3839 11.4141 59.4121 11.5619 59.3698C14.2509 58.7785 16.7076 57.6311 19.5234 57.6945V57.7015Z" fill="#F5E388"/>
</svg>
