<svg width="169" height="106" viewBox="0 0 169 106" fill="none" xmlns="http://www.w3.org/2000/svg">
<g style="mix-blend-mode:multiply" opacity="0.5">
<path d="M10.9437 78.6165C0.0078986 81.9145 -1.44621 93.27 2.36896 99.3563C5.29967 104.026 10.419 104.513 14.9613 104.641C55.1667 105.72 95.3871 105.855 135.6 105.997C139.34 106.012 143.133 106.012 146.738 104.671C150.344 103.329 153.791 100.436 155.53 95.9759C157.262 91.5161 155.703 81.8095 142.323 79.7258C102.395 72.1254 73.3656 74.0218 33.34 80.5503C23.0488 82.2293 19.7508 85.9995 10.9512 78.624L10.9437 78.6165Z" fill="#4E365B"/>
</g>
<path d="M42.0647 11.7423C41.6824 11.9297 41.3077 12.132 40.9329 12.3194C40.7905 11.6448 40.6331 10.9703 40.4607 10.3032C40.9029 10.0108 41.3377 9.70353 41.7874 9.4187C41.8099 9.5836 41.8249 9.756 41.8473 9.9134C41.9298 10.513 41.9898 11.1352 42.0722 11.7423H42.0647Z" fill="#F5E388"/>
<path d="M49.1927 7.17015C49.2227 11.1877 47.5512 18.6981 42.117 17.9636C36.0982 17.154 38.5267 6.06832 41.7797 3.67728C45.1901 1.16631 49.1552 2.6504 49.1852 7.17015H49.1927ZM47.1389 10.8729C47.3788 10.6705 47.1839 10.2508 46.8841 10.2583C45.6473 10.2882 44.4181 10.678 43.2263 11.1952C43.2038 11.0977 43.1963 11.0003 43.1738 10.8954C43.0539 10.1758 42.9265 9.45625 42.7841 8.73669C43.1139 8.50433 43.4137 8.2345 43.6011 7.91219C43.7285 7.67983 43.5186 7.42499 43.2638 7.48495C43.0239 7.53742 42.7991 7.64985 42.5817 7.78477C42.4318 7.12517 42.2744 6.45808 42.072 5.80598C41.9821 5.49867 41.5174 5.55113 41.5174 5.88093C41.5174 6.7579 41.5773 7.62737 41.6673 8.49683C41.6073 8.5493 41.5473 8.59428 41.4874 8.63925C41.0826 8.96905 40.6779 9.29885 40.2656 9.63614C40.1757 9.30634 40.0932 8.97654 40.0033 8.64674C39.9208 8.33943 39.3962 8.3919 39.4261 8.7217C39.4786 9.2089 39.5236 9.6961 39.576 10.1833C39.576 10.1833 39.5536 10.1983 39.5536 10.2058C39.3737 10.3332 39.4786 10.5806 39.636 10.6705C39.6885 11.1127 39.7409 11.5475 39.8159 11.9822C39.8609 12.252 39.8909 12.5294 39.9283 12.8067C39.7035 12.9191 39.4786 13.0391 39.2612 13.144C38.8715 13.3239 39.1488 13.9385 39.5461 13.8186C39.711 13.7661 39.8834 13.7211 40.0483 13.6762C40.1682 14.3882 40.3331 15.0928 40.7303 15.655C40.8728 15.8648 41.225 15.8573 41.2925 15.58C41.4724 14.8305 41.3225 14.1034 41.1576 13.3689C41.5398 13.2639 41.9146 13.1665 42.3044 13.0615C42.4243 13.5487 42.5742 14.0135 42.7991 14.4557C42.9265 14.6955 43.3462 14.6581 43.3987 14.3807C43.4887 13.8186 43.4887 13.2714 43.4362 12.7392C44.7929 12.312 46.0896 11.7648 47.1239 10.8804L47.1389 10.8729Z" fill="#F5E388"/>
<path d="M151.49 13.3238C164.952 13.9234 169.577 28.0148 167.92 39.5428C168.25 39.8801 168.302 40.4422 167.763 40.7495C161.437 44.3773 151.812 44.842 144.737 43.9201C142.84 43.6803 140.682 43.298 138.628 42.6384C137.901 42.9757 137.016 43.0881 136.222 43.1481L135.173 42.3086C135.218 42.2037 135.293 42.1212 135.397 42.0537C135.645 41.9113 135.892 41.7764 136.14 41.649C133.853 40.5472 131.912 38.9506 130.945 36.5896C130.945 36.5746 130.93 36.5596 130.93 36.5446L130.998 35.6676C130.923 34.9181 130.878 34.1836 130.893 33.434C122.018 34.5059 113.503 35.6377 105.093 38.9656C104.771 39.0931 104.449 39.2205 104.134 39.3554C100.304 40.9219 96.5937 42.7508 93.0409 44.8795C89.8178 46.8133 86.6098 48.957 83.0569 50.2537C81.4005 50.8534 79.5716 51.3106 77.7127 51.513C83.0869 56.3325 83.9864 65.2371 78.3048 70.229C72.1361 75.6557 61.0504 73.7069 54.7093 69.6294C53.54 71.9305 52.2807 74.1791 51.044 76.3453C51.6511 76.855 52.2807 77.3422 52.9328 77.7994C53.57 78.2417 53.9897 78.4515 54.3345 79.0212L54.2221 79.7557C54.1246 79.7407 54.0272 79.7332 53.9297 79.7108C52.0784 79.4409 49.9871 77.1773 48.7204 75.9705C48.0308 75.3184 47.3862 74.6289 46.7641 73.9243C41.2325 69.0972 37.7321 61.2795 37.4698 54.2188C37.065 43.3355 41.24 32.9918 46.3144 23.5475L47.1539 23.9223C43.1213 33.1417 38.0469 42.6609 38.7065 53.0495C39.2987 62.3813 43.5786 69.0598 49.9647 75.3559C52.0034 70.8736 54.267 66.1216 57.0104 62.0291C50.3394 61.0397 46.8765 54.1439 46.914 47.8777C46.9365 43.0806 47.7985 38.2985 49.0127 33.6739C50.1071 29.4914 51.3738 24.9792 53.6599 21.2614L54.5518 21.3214C54.5518 21.3214 54.5518 21.3664 54.5518 21.3964C52.738 28.4496 49.8447 35.0455 48.6904 42.3161C47.5211 49.6766 48.503 59.3757 57.4976 60.8148C57.7749 60.8523 57.9173 61.0696 57.9473 61.3095C58.1347 61.3844 58.2771 61.5568 58.1871 61.8042C57.3851 64.0828 56.3657 66.3614 55.2564 68.6025C62.0848 69.8768 69.0105 74.2241 75.8014 69.8468C79.4292 67.5082 81.3705 63.4007 80.1562 59.0908C79.3167 56.1376 77.6902 54.0389 75.9963 51.6554C72.1811 51.7303 68.4259 50.621 65.9749 47.4055C62.1972 42.421 62.6769 35.7651 67.6613 31.845C67.9612 31.6126 68.3134 31.7775 68.4109 32.0474C74.4597 26.3134 84.4661 23.5625 91.8341 22.2284C98.0778 21.0965 104.524 20.5569 110.85 21.194C116.337 21.7486 122.565 22.4832 127.497 25.0991C127.94 25.3315 128.044 25.7212 127.955 26.0735C128.457 26.6881 128.876 27.3927 129.304 28.0598C129.941 29.0492 130.563 30.0461 131.14 31.0655C132.632 21.4563 141.634 12.9115 151.528 13.3463L151.49 13.3238ZM165.986 39.4828C166.031 37.6389 166.084 35.7726 166.031 33.8987C155.403 35.4128 143.328 35.6901 133.066 32.1598C132.774 33.4715 132.519 34.8207 132.234 36.2073C134.536 37.9388 136.552 39.6327 139.415 40.5022C142.203 41.3567 145.082 41.7989 147.997 41.8814C151.363 41.9788 154.773 41.8814 158.101 41.3117C160.769 40.8695 163.355 40 165.994 39.4753L165.986 39.4828ZM165.964 32.3547C165.754 29.1391 165.132 25.9761 163.475 23.1128C160.747 18.4057 156.16 15.1377 150.553 15.2426C145.059 15.3401 139.88 17.971 136.799 22.6031C134.993 25.339 134.033 28.1048 133.329 31.028C138.748 31.8974 144.025 33.1042 149.556 33.3066C155.065 33.509 160.53 33.2241 165.971 32.3472L165.964 32.3547ZM129.131 31.6201C128.524 30.6157 127.962 29.5739 127.4 28.547C127.085 27.9698 126.77 27.4002 126.538 26.7931C126.013 26.6956 125.489 26.5832 124.964 26.4708C112.784 27.9698 101.121 30.5783 89.8478 35.6077C83.1394 38.5984 72.8257 45.5391 65.4127 40.7196C65.81 45.6066 69.5877 49.9389 75.659 49.774C83.0569 49.5792 88.7385 44.842 94.9897 41.5066C105.176 36.0799 117.371 31.8 129.131 31.6201ZM121.546 25.6912C117.656 24.7468 113.818 23.7349 109.703 23.4426C104.276 23.0529 98.8198 23.0978 93.4381 24.0198C87.6591 25.0017 82.1425 26.6656 76.7758 29.0192C72.4734 30.9006 68.3509 33.2466 65.7125 37.1742C65.4802 38.0887 65.3677 39.0181 65.3752 39.9475C71.3116 41.9113 76.341 40.9594 81.9626 38.2011C86.25 36.1024 90.4924 33.9437 94.9597 32.2422C103.377 29.0267 112.491 26.6282 121.553 25.6987L121.546 25.6912Z" fill="#0F0E14"/>
<path d="M166.031 33.9063C166.084 35.7727 166.031 37.6465 165.986 39.4904C163.348 40.0151 160.762 40.8771 158.094 41.3268C154.773 41.8889 151.363 41.9939 147.99 41.8964C145.074 41.814 142.196 41.3643 139.408 40.5173C136.544 39.6478 134.528 37.9463 132.227 36.2224C132.512 34.8357 132.767 33.4866 133.059 32.1749C143.32 35.7052 155.395 35.4279 166.024 33.9138L166.031 33.9063Z" fill="#D82F13"/>
<path d="M163.475 23.1128C165.132 25.9761 165.754 29.1392 165.964 32.3547C160.522 33.2242 155.058 33.5165 149.549 33.3141C144.017 33.1117 138.74 31.905 133.321 31.0355C134.026 28.1123 134.985 25.3465 136.792 22.6106C139.872 17.971 145.052 15.3476 150.546 15.2501C156.152 15.1452 160.747 18.4057 163.468 23.1203L163.475 23.1128Z" fill="#FFD797"/>
<path d="M145.561 61.1222C146.633 60.9048 147.09 62.284 146.251 62.8986C144.22 64.3752 141.724 65.4545 139.235 66.4065C147.952 75.6258 144.804 91.7935 133.756 97.7598C127.835 100.96 121.299 101.32 115.055 98.7642C110.295 96.8154 104.951 92.1083 105.049 86.5392C102.005 86.5392 98.8498 86.1719 96.1965 85.0326C95.7767 85.2575 95.1471 85.0551 94.7498 84.8977C94.2327 84.6953 93.618 84.5079 93.2208 84.0882C92.7111 84.5079 92.2014 84.9127 91.6917 85.3249L90.7773 84.5229C92.6811 82.8964 94.5924 81.12 96.6612 79.6584C89.3232 80.0107 81.9252 79.8907 74.5872 79.9357C70.5171 79.9582 66.1998 80.288 61.9499 80.288C59.319 80.288 56.7106 80.1606 54.2146 79.7483L54.327 79.0138C57.5726 78.4366 61.0055 78.624 64.2959 78.5341C68.1561 78.4291 72.0087 78.3617 75.8689 78.2867C82.8021 78.1443 89.8029 77.852 96.7361 78.0019C90.8073 72.8076 86.9396 62.6513 89.0833 55.1633C91.182 47.8328 97.4032 42.646 104.314 39.8127C105.303 39.408 106.308 39.0482 107.312 38.7409C110.753 37.6765 114.433 37.0544 118.098 37.0094C120.227 36.2374 122.663 36.1624 124.896 35.9151C126.883 35.6977 129.064 35.1131 130.998 35.6677L130.93 36.5447C129.124 37.4292 126.883 37.3317 124.896 37.5191C124.769 37.5341 124.649 37.5416 124.522 37.5566C127.895 38.2087 131.125 39.4679 134.011 41.4692C134.401 41.739 134.79 42.0164 135.173 42.3087L136.222 43.1482C141.626 47.6604 145.239 53.9266 145.561 61.1222ZM143.598 61.7218C143.575 61.6319 143.545 61.5344 143.545 61.422C143.418 57.9516 142.556 54.8335 141.147 52.0977C126.718 60.635 109.981 68.3403 93.2358 70.514C94.8398 73.1374 96.8711 75.401 98.4601 78.0169C106.278 75.356 114.298 73.3772 122.078 70.6114C126.523 69.0299 130.975 67.4034 135.285 65.4845C137.998 64.2853 140.757 62.7337 143.59 61.7218H143.598ZM142.601 80.6478C142.728 75.3335 141.094 71.0611 138.133 66.8187C137.076 67.2085 136.027 67.5907 135.038 67.973C133.621 68.5202 132.204 69.0748 130.78 69.6145C136.364 73.5046 137.511 82.2968 132.504 87.3262C127.49 92.3631 117.618 92.543 114.141 85.6322C112.851 85.917 111.547 86.1269 110.22 86.2618C109.111 86.3743 107.927 86.4642 106.713 86.5092C109.688 98.1271 125.069 102.384 134.521 95.3088C139.123 91.8534 142.481 86.5317 142.608 80.6478H142.601ZM131.65 86.4792C136.349 80.9626 134.393 74.1942 128.989 70.2966C127.205 70.9712 125.421 71.6308 123.615 72.2604C124.214 73.5346 124.462 74.9737 124.784 76.3379C128.239 75.6933 131.005 79.7558 129.101 82.8439C128.142 84.3955 126.493 85.3549 124.634 85.0701C123.72 84.9351 121.853 84.2681 121.561 83.1737C119.455 84.1107 117.274 84.8602 115.04 85.4149C117.251 87.7834 119.822 89.8596 123.285 89.9421C126.433 90.017 129.551 88.9302 131.642 86.4792H131.65ZM117.326 62.2465C125.384 59.046 133.074 55.3657 140.554 51.0034C134.558 40.8171 120.639 36.4772 108.834 40.0301C101.361 42.2787 92.4263 47.2557 90.6274 55.5906C89.6455 60.1328 90.3051 64.9149 92.4188 69.0598C92.5912 69.3971 92.7785 69.7194 92.9659 70.0492C101.106 67.4633 109.351 65.4021 117.319 62.2465H117.326ZM127.37 82.4841C129.116 80.273 127.475 77.7845 125.046 77.3573C125.226 77.9644 125.414 78.594 125.534 79.2236C126.238 79.471 126.59 80.5653 125.751 81.0525C125.676 81.0975 125.586 81.1425 125.504 81.1874C125.481 81.2624 125.481 81.3298 125.451 81.3973C125.316 81.7871 124.844 81.9969 124.492 81.7496C123.997 82.0194 123.487 82.2743 122.978 82.5216C123.405 82.8064 123.802 83.1962 124.319 83.3236C125.436 83.6085 126.613 83.4361 127.37 82.4841ZM123.48 80.0032C123.098 78.8039 123.038 77.4247 122.828 76.2629C122.618 75.0712 122.34 73.9019 122.326 72.7026C121.359 73.0399 120.384 73.3622 119.41 73.6845C119.522 75.0112 119.455 76.3379 119.889 77.6496C120.279 78.8189 121.029 79.8757 121.396 81.045C122.101 80.7152 122.798 80.3779 123.487 80.0107L123.48 80.0032ZM117.753 74.2242C116.636 74.584 115.505 74.9363 114.38 75.2885C114.335 76.4878 114.478 77.732 114.89 78.8564C115.287 79.9732 115.962 80.9626 116.307 82.1019C116.374 82.3192 116.239 82.4991 116.067 82.5741C115.962 82.6116 115.834 82.6116 115.73 82.5516C113.398 81.3149 112.949 78.0918 113.271 75.6183C108.422 77.0799 103.504 78.3092 98.52 78.9913C98.55 79.1112 98.5425 79.2461 98.4451 79.3586C97.2608 80.7152 95.8592 81.9295 94.42 83.1063C94.8173 83.1887 95.252 83.3236 95.6268 83.496C100.169 83.7434 104.531 84.8677 109.171 84.388C111.585 84.1406 113.923 83.6759 116.202 82.9938C117.461 82.6266 118.698 82.1918 119.912 81.6896C118.016 80.1531 117.206 76.6902 117.761 74.2167L117.753 74.2242Z" fill="#0F0E14"/>
<path d="M143.545 61.422C143.545 61.5344 143.567 61.6318 143.597 61.7218C140.764 62.7337 138.006 64.2852 135.292 65.4845C130.983 67.4033 126.538 69.0373 122.086 70.6113C114.305 73.3772 106.278 75.356 98.4675 78.0168C96.8784 75.3934 94.8472 73.1298 93.2432 70.5139C109.988 68.3477 126.718 60.6349 141.154 52.0977C142.563 54.8335 143.418 57.9516 143.552 61.422H143.545Z" fill="#D82F13"/>
<path d="M138.133 66.8187C141.094 71.0536 142.728 75.3335 142.601 80.6478C142.473 86.5317 139.115 91.8534 134.513 95.3088C125.061 102.392 109.681 98.1346 106.705 86.5092C107.927 86.4642 109.111 86.3743 110.213 86.2619C111.54 86.1344 112.836 85.9171 114.133 85.6322C117.611 92.5505 127.482 92.3631 132.497 87.3262C137.511 82.2968 136.357 73.5046 130.773 69.6145C132.197 69.0674 133.614 68.5202 135.03 67.973C136.027 67.5908 137.077 67.216 138.126 66.8187H138.133Z" fill="#333333"/>
<path d="M136.14 41.649C135.892 41.7764 135.645 41.9113 135.398 42.0538C135.293 42.1212 135.218 42.2037 135.173 42.3086C134.79 42.0238 134.408 41.7389 134.011 41.4691C131.125 39.4678 127.895 38.2161 124.522 37.5565C124.649 37.5415 124.769 37.534 124.896 37.519C126.883 37.3316 129.124 37.4291 130.93 36.5446C130.93 36.5596 130.93 36.5746 130.945 36.5896C131.912 38.9506 133.854 40.5472 136.14 41.649Z" fill="#D82F13"/>
<path d="M128.989 70.289C134.393 74.1866 136.342 80.9625 131.65 86.4716C129.559 88.9301 126.441 90.0095 123.293 89.9345C119.83 89.8596 117.259 87.7758 115.048 85.4073C117.281 84.8601 119.462 84.1031 121.569 83.1661C121.853 84.2605 123.727 84.9201 124.642 85.0625C126.501 85.3473 128.15 84.3879 129.109 82.8363C131.013 79.7482 128.255 75.6932 124.792 76.3303C124.469 74.9587 124.222 73.527 123.622 72.2528C125.421 71.6232 127.213 70.9636 128.997 70.289H128.989Z" fill="#9B9B9B"/>
<path d="M130.893 33.4341C130.878 34.1836 130.915 34.9182 130.998 35.6677C129.064 35.1131 126.883 35.6977 124.897 35.9151C122.663 36.1624 120.227 36.2374 118.098 37.0094C114.433 37.0544 110.745 37.6765 107.312 38.7408C106.3 39.0482 105.304 39.4079 104.314 39.8127L104.134 39.363C104.457 39.228 104.779 39.1006 105.094 38.9732C113.504 35.6377 122.018 34.5134 130.893 33.4416V33.4341Z" fill="#D82F13"/>
<path d="M140.554 51.0034C133.074 55.3657 125.384 59.0459 117.326 62.2465C109.358 65.4021 101.113 67.4633 92.9733 70.0492C92.7859 69.7194 92.5911 69.3971 92.4262 69.0598C90.3125 64.9149 89.6454 60.1328 90.6348 55.5905C92.4262 47.2556 101.361 42.2712 108.841 40.0301C120.654 36.4697 134.565 40.8171 140.562 51.0034H140.554Z" fill="#FF4E36"/>
<path d="M125.046 77.3497C127.475 77.777 129.124 80.2654 127.37 82.4766C126.613 83.4285 125.429 83.5934 124.319 83.3161C123.802 83.1887 123.405 82.8064 122.978 82.5141C123.487 82.2667 123.989 82.0119 124.492 81.742C124.836 81.9894 125.309 81.7795 125.451 81.3898C125.474 81.3223 125.481 81.2548 125.503 81.1799C125.586 81.1349 125.676 81.0899 125.751 81.045C126.59 80.5578 126.238 79.4634 125.533 79.2161C125.414 78.5865 125.226 77.9569 125.046 77.3497Z" fill="#E5E5E5"/>
<path d="M127.4 28.5471C127.962 29.5739 128.517 30.6158 129.131 31.6202C117.371 31.8001 105.176 36.0725 94.9895 41.5066C88.7384 44.8421 83.0568 49.5792 75.6588 49.7741C69.5875 49.939 65.8174 45.6066 65.4126 40.7196C72.8181 45.5392 83.1393 38.6059 89.8477 35.6077C101.121 30.5783 112.784 27.9699 124.964 26.4708C125.488 26.5833 126.013 26.6957 126.538 26.7931C126.77 27.4003 127.085 27.9699 127.4 28.5471Z" fill="#E5AE5E"/>
<path d="M122.828 76.2629C123.037 77.4247 123.105 78.8038 123.48 80.0031C122.79 80.3704 122.093 80.7077 121.388 81.0375C121.021 79.8682 120.272 78.8113 119.882 77.6421C119.447 76.3304 119.515 75.0112 119.402 73.677C120.377 73.3547 121.351 73.0249 122.318 72.6951C122.34 73.8943 122.61 75.0636 122.82 76.2554L122.828 76.2629Z" fill="#D8D8D8"/>
<path d="M114.38 75.2885C115.505 74.9437 116.636 74.584 117.753 74.2242C117.199 76.6977 118.008 80.1606 119.904 81.6971C118.69 82.1918 117.453 82.634 116.194 83.0013L116.067 82.5741C116.247 82.4991 116.374 82.3192 116.307 82.1019C115.969 80.9626 115.295 79.9732 114.89 78.8564C114.478 77.732 114.335 76.4878 114.38 75.2885Z" fill="#D8D8D8"/>
<path d="M109.703 23.4426C113.818 23.7275 117.656 24.7468 121.546 25.6913C112.484 26.6207 103.37 29.0192 94.9524 32.2348C90.4851 33.9362 86.2502 36.1024 81.9553 38.1936C76.3337 40.9519 71.3043 41.9039 65.3679 39.9401C65.3679 39.0181 65.4729 38.0887 65.7052 37.1667C68.3436 33.2391 72.4661 30.8931 76.7685 29.0117C82.1352 26.6582 87.6518 24.9942 93.4308 24.0123C98.805 23.0903 104.269 23.0529 109.696 23.4351L109.703 23.4426Z" fill="#FFD797"/>
<path d="M116.059 82.5815L116.187 83.0087C113.916 83.6908 111.57 84.1555 109.156 84.4029C104.509 84.8826 100.147 83.7583 95.6118 83.5109C95.237 83.331 94.8098 83.2036 94.405 83.1212C95.8367 81.9519 97.2383 80.7301 98.4301 79.3735C98.5275 79.261 98.5425 79.1261 98.505 79.0062C103.489 78.3241 108.406 77.0948 113.256 75.6332C112.926 78.0992 113.383 81.3223 115.715 82.5665C115.827 82.6265 115.947 82.6265 116.052 82.589L116.059 82.5815Z" fill="#D8D8D8"/>
<path d="M104.127 39.3628L104.307 39.8126C97.3957 42.6458 91.1745 47.8402 89.0758 55.1632C86.9246 62.6586 90.7998 72.8074 96.7286 78.0017C89.7954 77.8518 82.7947 78.1367 75.8614 78.2866C72.0012 78.3615 68.1486 78.429 64.2885 78.5339C60.998 78.6239 57.5651 78.4365 54.3195 79.0136C53.9748 78.444 53.555 78.2341 52.9179 77.7919C52.2658 77.3346 51.6437 76.8474 51.0291 76.3377C52.2658 74.1791 53.525 71.9229 54.6943 69.6218C61.0354 73.6994 72.1212 75.6482 78.2899 70.2215C83.9789 65.2295 83.072 56.325 77.6978 51.5054C79.5566 51.303 81.3855 50.8533 83.042 50.2462C86.5948 48.9495 89.8029 46.7983 93.0259 44.872C96.5862 42.7433 100.289 40.9144 104.119 39.3478L104.127 39.3628Z" fill="#D82F13"/>
<path d="M90.7699 84.5228L91.6844 85.3248C91.6544 85.6546 91.4295 85.9619 91.0023 85.9694C83.6343 86.1568 76.2738 86.2168 68.9058 86.2618C62.4897 86.2992 55.489 87.0188 49.0879 86.1343L49.2303 84.98C55.5789 84.0206 62.5347 84.6353 68.8983 84.5753C76.1913 84.5078 83.4694 84.4554 90.7624 84.5303L90.7699 84.5228Z" fill="#0F0E14"/>
<path d="M96.6538 79.6583C94.5926 81.1199 92.6813 82.9038 90.7699 84.5228C83.4769 84.4479 76.1988 84.5003 68.9058 84.5678C62.5422 84.6278 55.5864 84.0206 49.2378 84.9725C49.1928 84.8976 49.1404 84.8226 49.0579 84.7627C45.2427 81.9669 42.1771 79.1636 39.3214 75.3784C36.8928 72.1554 34.6442 68.8199 31.9758 65.7768C28.7003 62.044 23.2437 57.9141 17.877 57.9141C18.2292 57.6967 18.5815 57.4793 18.9338 57.2994C20.313 56.5949 22.0894 56.3775 23.3186 55.4556C23.4685 55.3431 23.5585 55.1483 23.5735 54.9609C27.0588 49.1969 30.0345 43.0731 33.1826 37.1218C36.2782 31.2603 39.831 25.4289 42.2671 19.2452C42.342 19.2602 42.417 19.2752 42.4994 19.2827C43.4438 20.8042 44.7705 22.1834 46.0522 23.3827C46.1347 23.4576 46.2246 23.5101 46.3071 23.555C41.2402 32.9918 37.0577 43.343 37.4625 54.2263C37.7248 61.287 41.2252 69.1047 46.7568 73.9318C47.3789 74.6364 48.031 75.3184 48.7131 75.978C49.9799 77.1848 52.0636 79.4484 53.9224 79.7183C54.0199 79.7407 54.1173 79.7482 54.2148 79.7632C56.7107 80.1755 59.3191 80.3029 61.95 80.3029C66.1924 80.3029 70.5173 79.9731 74.5873 79.9506C81.9253 79.9131 89.3233 80.0256 96.6613 79.6733L96.6538 79.6583Z" fill="#FF4E36"/>
<path d="M73.9051 13.7511C75.7564 15.5799 76.6184 17.4913 75.7639 20.0622C75.1718 21.8311 73.0356 22.858 71.2667 22.7081C67.5939 22.4008 63.9362 21.1116 60.3833 20.1596C59.6338 19.9573 58.9067 19.7474 58.2097 19.5075C57.3477 20.7068 55.991 21.1415 54.5369 21.239C54.5369 21.2615 54.5369 21.2839 54.5369 21.3139L53.645 21.254C53.2777 21.254 52.9029 21.2315 52.5431 21.194C49.9497 20.9691 47.5137 20.5644 45.1077 19.8748L45.37 18.9304C49.2751 19.7774 53.6599 20.5344 57.0029 19.0353C55.3389 18.3008 53.8923 17.2739 52.8205 15.5425C50.9766 12.5818 54.2971 6.91523 57.5051 9.61358C57.715 9.61358 57.9173 9.63606 58.1272 9.63606L59.0941 9.61358V9.66605C61.0429 9.77848 62.9768 10.0858 64.9106 10.483C67.8488 11.0902 71.634 11.5174 73.9126 13.7436L73.9051 13.7511ZM68.8607 20.6768C71.8214 21.194 74.7071 21.0441 74.5497 18.2558C74.4223 15.8648 72.9082 14.4931 70.9669 13.6161C70.9369 13.6161 70.9144 13.6311 70.8844 13.6161C69.3104 13.4213 67.0768 14.7704 66.8069 16.4044C66.4921 18.2708 67.5939 19.0803 68.6958 20.2946C68.7857 20.3995 68.8382 20.5269 68.8682 20.6693L68.8607 20.6768ZM65.1729 15.5574C65.6751 13.9234 66.9044 13.024 68.3135 12.7392C66.9793 12.4094 65.6301 12.192 64.4983 11.9746C61.4702 11.375 58.5095 11.0527 55.4663 11.0977C53.8473 12.2595 53.4501 14.5681 55.2265 16.0821C56.2234 16.9591 57.3552 17.5887 58.6294 17.9485C60.0835 18.3907 61.5526 18.758 63.0142 19.1403C63.5314 19.2752 64.5583 19.62 65.795 19.9648C64.978 18.6905 64.7607 16.9066 65.1804 15.5574H65.1729Z" fill="#0F0E14"/>
<path d="M74.5422 18.2558C74.6996 21.0441 71.8138 21.194 68.8531 20.6768C68.8307 20.5419 68.7782 20.407 68.6807 20.3021C67.5789 19.0803 66.4771 18.2783 66.7919 16.4119C67.0617 14.7779 69.2954 13.4288 70.8694 13.6236C70.8994 13.6236 70.9219 13.6236 70.9519 13.6236C72.8932 14.4931 74.4072 15.8723 74.5347 18.2633L74.5422 18.2558Z" fill="#9B9B9B"/>
<path d="M68.3134 12.7392C66.8968 13.024 65.675 13.916 65.1728 15.5575C64.7531 16.9067 64.9705 18.6906 65.7875 19.9648C64.5582 19.62 63.5313 19.2752 63.0067 19.1403C61.545 18.758 60.0759 18.3907 58.6218 17.9485C57.3476 17.5887 56.2083 16.9591 55.2189 16.0822C53.4425 14.5681 53.8398 12.2595 55.4588 11.0977C58.5019 11.0527 61.4626 11.3825 64.4907 11.9747C65.6226 12.1995 66.9717 12.4169 68.3059 12.7392H68.3134Z" fill="#333333"/>
<path d="M59.0866 9.61363L58.1197 9.63612C56.6806 7.35751 55.9085 4.93649 53.3526 3.42991C51.5237 2.35057 49.7473 1.89335 47.9034 1.79591C48.4281 2.16318 48.9003 2.60541 49.3051 3.1226C50.152 4.20943 50.6842 5.5736 50.7292 6.99023C50.8566 11.0453 50.182 16.7343 45.9621 18.6906C45.7597 18.7805 45.5648 18.863 45.3625 18.9229L45.1001 19.8674C45.0402 19.8524 44.9802 19.8449 44.9202 19.8224C45.7222 20.5794 46.4793 21.4264 47.1614 22.2434C47.3038 22.4233 47.3637 22.6032 47.3637 22.7906C47.4537 22.9105 47.4912 23.0754 47.4237 23.2478C47.3263 23.4727 47.2288 23.69 47.1314 23.9149L46.2919 23.5401C46.2094 23.5027 46.1195 23.4502 46.0371 23.3677C44.7628 22.1685 43.4286 20.7893 42.4842 19.2677C42.4093 19.2677 42.3343 19.2453 42.2519 19.2303L41.6148 19.0729C38.8639 18.1884 37.065 15.1003 37.1625 11.6374C37.1625 11.2177 37.1999 10.7979 37.2524 10.3707C35.1462 9.73356 34.659 6.3831 35.3111 4.5917C36.1056 2.41803 38.9089 0.918942 40.9851 2.19316C41.0751 2.24563 41.135 2.34307 41.165 2.44801C41.3974 2.23814 41.6522 2.03576 41.9146 1.84837C42.7241 1.27123 43.5486 0.963914 44.3656 0.858978C47.5062 -0.190381 51.3213 0.341794 54.0272 2.24563C56.3508 3.87963 59.0416 6.56299 59.0866 9.59864V9.61363ZM42.1169 17.971C47.5436 18.7056 49.2226 11.1952 49.1926 7.17762C49.1626 2.65788 45.1976 1.18128 41.7871 3.68475C38.5341 6.07579 36.0981 17.1615 42.1244 17.971H42.1169ZM40.6254 2.97269C39.1637 3.25751 37.3274 3.82717 36.9226 5.43868C36.7127 6.28566 36.7577 7.22259 37.2449 7.97213C37.3648 8.15202 37.4923 8.30193 37.6272 8.45184C38.1669 6.3981 39.1637 4.46428 40.6254 2.97269Z" fill="#0F0E14"/>
<path d="M58.1195 9.63612C57.9096 9.63612 57.7073 9.61364 57.4974 9.61364C54.2894 6.91528 50.9764 12.5818 52.8128 15.5425C53.8846 17.274 55.3312 18.3008 56.9952 19.0354C53.6522 20.5345 49.2674 19.7774 45.3623 18.9304C45.5572 18.863 45.7521 18.788 45.9619 18.6981C50.1894 16.7493 50.8565 11.0528 50.729 6.99773C50.6841 5.5736 50.1444 4.21693 49.3049 3.1301C48.9001 2.61291 48.4279 2.17068 47.9033 1.80341C49.7471 1.90085 51.5235 2.35807 53.3524 3.43741C55.9084 4.94399 56.6804 7.35751 58.1195 9.64362V9.63612Z" fill="#FF4E36"/>
<path d="M56.9879 62.0216C54.2445 66.1141 51.9734 70.8737 49.9422 75.3484C43.5561 69.0523 39.2687 62.3813 38.684 53.042C38.0319 42.6534 43.0988 33.1342 47.1314 23.9148C47.2288 23.69 47.3263 23.4726 47.4237 23.2477C47.4987 23.0753 47.4537 22.9104 47.3637 22.7905C47.3637 22.6106 47.3038 22.4232 47.1614 22.2433C46.4793 21.4263 45.7297 20.5794 44.9202 19.8223C44.9802 19.8448 45.0402 19.8523 45.1001 19.8673C47.5062 20.5569 49.9422 20.9616 52.5356 21.1865C52.8954 21.2165 53.2701 21.239 53.6374 21.2465C51.3513 24.9642 50.0846 29.4764 48.9902 33.6589C47.776 38.291 46.9215 43.0731 46.8915 47.8627C46.854 54.1289 50.3094 61.0322 56.9879 62.0141V62.0216Z" fill="#D82F13"/>
<path d="M49.2377 84.9801L49.0952 86.1344C48.728 86.082 48.3607 86.022 48.0009 85.962C47.8135 85.9321 47.7161 85.7447 47.7161 85.5723C46.4943 85.0026 45.37 84.2681 44.3132 83.4211C46.4494 88.6904 44.3357 95.2339 39.9658 98.7792C34.9139 102.872 28.3029 104.236 21.9618 102.804C15.7031 101.388 8.97225 97.9922 5.90663 92.0258C3.62802 87.596 3.0059 81.7871 5.80918 77.5072L6.98597 78.0019C2.59365 88.6529 10.6063 98.3894 21.2647 100.915C27.1636 102.31 34.1194 101.972 38.7965 97.6174C43.039 93.6823 44.2157 88.7054 42.7841 83.1812C42.7466 83.0388 42.7691 82.9039 42.8216 82.7915C40.4081 82.8139 37.6422 82.2143 35.1388 81.105C35.671 83.9533 34.2693 87.3187 32.6653 89.4849C30.2892 92.6854 26.2867 93.8472 22.464 93.3825C14.6463 92.4306 11.0485 83.571 14.6913 77.1999L15.8306 77.747C13.1772 83.9008 16.5501 91.9734 24.2179 91.6661C27.426 91.5386 30.5141 90.0695 32.0357 87.0938C33.2949 84.6428 33.0401 82.5441 33.145 80.0706C31.556 79.1187 30.1618 77.9419 29.1874 76.5628L30.4391 76.0606C32.5379 77.3723 34.4267 78.9013 36.8178 79.7258C38.3843 80.273 39.9358 80.5728 41.5249 80.8202C38.9464 78.0394 36.7803 74.7264 34.7265 71.8257C32.1856 68.2504 29.4123 64.4127 25.5821 62.0891C22.1567 60.0129 19.0686 59.4732 15.2459 59.3758C15.171 59.3983 15.111 59.4282 15.0435 59.4507C14.8637 59.5032 14.6988 59.4657 14.5563 59.3758C11.3633 60.59 8.26768 61.512 5.86165 64.3377C2.77354 67.973 2.22637 71.6308 1.84411 76.0906L1.74667 77.3348C1.67171 77.3348 1.61175 77.3198 1.53679 77.3123C1.16202 77.6496 0.502425 77.6196 0.337526 77.005C-1.7537 68.9474 6.20644 57.3445 14.9911 57.7043C15.988 56.7823 17.3821 56.1227 18.5514 55.6206C19.8706 55.0659 21.3547 54.3089 22.8163 54.4063C25.6046 48.305 28.97 42.4211 32.0956 36.4772C35.1463 30.6833 37.9346 24.5146 41.6148 19.0729L42.2519 19.2303C39.8159 25.414 36.2631 31.2454 33.1675 37.1069C30.0194 43.0582 27.0437 49.182 23.5583 54.946C23.5434 55.1334 23.4534 55.3357 23.3035 55.4407C22.0817 56.3626 20.2978 56.58 18.9187 57.2845C18.5664 57.4644 18.2141 57.6818 17.8618 57.8992C23.236 57.8992 28.6927 62.0291 31.9607 65.7619C34.6291 68.805 36.8702 72.1405 39.3062 75.3635C42.162 79.1487 45.2351 81.952 49.0428 84.7478C49.1177 84.8077 49.1702 84.8752 49.2227 84.9576L49.2377 84.9801Z" fill="#0F0E14"/>
<path d="M46.884 10.2582C47.1839 10.2582 47.3787 10.6704 47.1389 10.8728C46.1045 11.7573 44.8078 12.3044 43.4511 12.7317C43.5036 13.2714 43.5036 13.811 43.4137 14.3732C43.3612 14.658 42.934 14.6955 42.814 14.4481C42.5817 14.0059 42.4318 13.5412 42.3193 13.054C41.9296 13.1589 41.5548 13.2564 41.1725 13.3613C41.3449 14.0959 41.4873 14.8229 41.3074 15.5725C41.2325 15.8498 40.8877 15.8573 40.7453 15.6474C40.3555 15.0853 40.1831 14.3807 40.0632 13.6686C39.8983 13.7136 39.7259 13.7586 39.561 13.811C39.1713 13.931 38.8939 13.3163 39.2762 13.1364C39.4936 13.0315 39.7184 12.9116 39.9433 12.7991C39.9133 12.5143 39.8758 12.2445 39.8309 11.9747C39.7559 11.5399 39.7034 11.1052 39.651 10.663C39.4861 10.573 39.3886 10.3257 39.5685 10.1982C39.5685 10.1832 39.591 10.1757 39.591 10.1757C39.5385 9.68855 39.4936 9.20134 39.4411 8.71414C39.4111 8.37685 39.9358 8.32438 40.0182 8.63919C40.1082 8.96899 40.1906 9.29879 40.2806 9.62858C40.6853 9.29129 41.0901 8.96149 41.5023 8.63169C41.5623 8.58672 41.6223 8.54175 41.6822 8.48928C41.5923 7.62731 41.5323 6.75034 41.5323 5.87338C41.5323 5.54358 41.997 5.49111 42.087 5.79842C42.2893 6.45052 42.4468 7.11762 42.5967 7.77721C42.814 7.6423 43.0389 7.52987 43.2787 7.4774C43.5261 7.41743 43.7435 7.67228 43.616 7.90464C43.4287 8.22694 43.1213 8.49678 42.799 8.72913C42.934 9.44869 43.0689 10.1683 43.1888 10.8878C43.2113 10.9928 43.2188 11.0902 43.2413 11.1876C44.433 10.6704 45.6548 10.2807 46.899 10.2507L46.884 10.2582ZM40.9327 12.3119C41.3074 12.1246 41.6897 11.9222 42.0645 11.7348C41.9895 11.1277 41.9296 10.513 41.8396 9.90591C41.8171 9.74102 41.8021 9.56862 41.7797 9.41122C41.3374 9.69604 40.8952 10.0034 40.453 10.2957C40.6254 10.9628 40.7828 11.6374 40.9252 12.3119H40.9327Z" fill="#0F0E14"/>
<path d="M42.7841 83.1737C44.2082 88.6978 43.0389 93.6748 38.7965 97.6099C34.1119 101.957 27.1561 102.302 21.2647 100.908C10.6063 98.3894 2.59364 88.6453 6.98596 77.9943C7.04592 77.8294 7.11338 77.657 7.19583 77.4922C9.6993 77.4547 12.2103 77.3048 14.6988 77.1998C11.056 83.5634 14.6613 92.4305 22.4715 93.3825C26.2867 93.8472 30.2892 92.6854 32.6728 89.4848C34.2768 87.3261 35.6784 83.9532 35.1463 81.1049C37.6497 82.2143 40.4155 82.8064 42.8291 82.7914C42.7766 82.9113 42.7541 83.0388 42.7916 83.1812L42.7841 83.1737Z" fill="#333333"/>
<path d="M36.9299 5.43859C37.3271 3.82707 39.171 3.25742 40.6326 2.9726C39.171 4.45669 38.1666 6.398 37.6345 8.45175C37.507 8.30184 37.3721 8.15193 37.2522 7.97204C36.765 7.215 36.72 6.28557 36.9299 5.43859Z" fill="#333333"/>
<path d="M41.5247 80.8201C39.9356 80.5728 38.3841 80.2729 36.8175 79.7258C34.4265 78.9013 32.5302 77.3647 30.4389 76.0605C30.5514 75.7607 30.4389 75.3634 30.0792 75.311C25.5894 74.5989 20.6049 75.296 16.0702 75.4309C11.3781 75.5658 6.52104 75.4309 1.85889 76.1055C2.24115 71.6457 2.78082 67.9879 5.87643 64.3527C8.28246 61.5269 11.3706 60.6049 14.5711 59.3907C14.706 59.4731 14.8784 59.5181 15.0583 59.4656C15.1258 59.4357 15.1858 59.4132 15.2607 59.3907C19.0834 59.4881 22.1715 60.0278 25.5969 62.104C29.4271 64.4201 32.2004 68.2578 34.7413 71.8406C36.7951 74.7413 38.9612 78.0468 41.5397 80.8351L41.5247 80.8201Z" fill="#D82F13"/>
<path d="M33.1449 80.0632C33.04 82.5291 33.2948 84.6354 32.0356 87.0864C30.5065 90.0621 27.4259 91.5237 24.2179 91.6586C16.5576 91.9659 13.1771 83.8933 15.8305 77.7396C15.913 77.5372 16.0104 77.3423 16.1078 77.1399C20.3428 77.0125 24.9974 77.3198 29.1874 76.5553C30.1618 77.9345 31.5484 79.1112 33.1449 80.0632ZM25.1548 87.1838C27.8307 86.6891 29.1424 83.601 28.7076 81.18C28.2204 78.5041 25.1398 77.3048 22.7713 77.9794C22.6813 77.927 22.5839 77.897 22.464 77.9045C19.7431 78.1143 18.6338 81.2924 19.061 83.616C19.5707 86.3443 22.6888 87.641 25.1548 87.1913V87.1838Z" fill="#9B9B9B"/>
<path d="M30.0794 75.3035C30.4466 75.3635 30.5516 75.7532 30.4391 76.053L29.1874 76.5552C24.9975 77.3198 20.3353 77.0049 16.1079 77.1399C16.0104 77.3347 15.9205 77.5296 15.8306 77.7395L14.6913 77.1923C12.2103 77.2973 9.6918 77.4472 7.18833 77.4847C7.11338 77.6571 7.03842 77.822 6.97846 77.9869L5.80168 77.4921C4.44501 77.4921 3.08834 77.4547 1.75415 77.3347L1.85159 76.0905C6.51374 75.4234 11.3783 75.5508 16.0629 75.4159C20.6051 75.2885 25.5896 74.5839 30.0719 75.296L30.0794 75.3035Z" fill="#0F0E14"/>
<path d="M28.7078 81.1799C29.15 83.6009 27.8383 86.6891 25.155 87.1838C22.689 87.6335 19.5709 86.3293 19.0612 83.6084C18.6264 81.2849 19.7433 78.1068 22.4641 77.8969C22.584 77.8969 22.6815 77.9194 22.7714 77.9719C25.1325 77.2973 28.2206 78.4966 28.7078 81.1724V81.1799ZM24.6753 85.4373C26.3767 84.9501 27.6959 83.0088 27.0363 81.2249C26.4367 79.6209 24.6828 78.5865 22.9813 78.8039C22.9588 78.8488 22.9363 78.8863 22.8988 78.9238C21.7745 80.0031 20.3204 81.3448 20.8601 83.1212C21.3248 84.6128 23.0562 85.902 24.6753 85.4373Z" fill="#0F0E14"/>
<path d="M27.0286 81.2249C27.6882 83.0089 26.3765 84.9502 24.6676 85.4374C23.041 85.8946 21.3171 84.6129 20.8524 83.1213C20.3052 81.3449 21.7593 80.0032 22.8911 78.9238C22.9286 78.8939 22.9586 78.8489 22.9736 78.8039C24.675 78.5866 26.429 79.6209 27.0286 81.2249Z" fill="#E5E5E5"/>
</svg>
